G04 #@! TF.FileFunction,Copper,L2,Bot,Signal*
%FSLAX46Y46*%
G04 Gerber Fmt 4.6, Leading zero omitted, Abs format (unit mm)*
G04 Created by KiCad (PCBNEW 4.0.2-stable) date 5/21/2016 11:43:06 AM*
%MOMM*%
G01*
G04 APERTURE LIST*
%ADD10C,0.100000*%
%ADD11R,1.900000X2.000000*%
%ADD12C,1.900000*%
%ADD13R,1.250000X1.000000*%
%ADD14R,1.000000X1.250000*%
%ADD15R,0.800100X0.800100*%
%ADD16R,2.032000X1.727200*%
%ADD17O,2.032000X1.727200*%
%ADD18R,1.727200X1.727200*%
%ADD19O,1.727200X1.727200*%
%ADD20R,1.727200X2.032000*%
%ADD21O,1.727200X2.032000*%
%ADD22R,1.300000X0.700000*%
%ADD23R,0.700000X1.300000*%
%ADD24R,1.900000X1.900000*%
%ADD25O,2.540000X2.032000*%
%ADD26C,0.600000*%
%ADD27C,1.200000*%
%ADD28C,0.800000*%
%ADD29C,0.250000*%
%ADD30C,0.400000*%
%ADD31C,0.254000*%
G04 APERTURE END LIST*
D10*
D11*
X45540000Y18000000D03*
D12*
X43000000Y18000000D03*
D13*
X28458000Y30448000D03*
X28458000Y32448000D03*
X45730000Y30448000D03*
X45730000Y32448000D03*
X62748000Y30448000D03*
X62748000Y32448000D03*
X79766000Y30448000D03*
X79766000Y32448000D03*
X95514000Y32480000D03*
X95514000Y34480000D03*
X112532000Y32480000D03*
X112532000Y34480000D03*
X129804000Y32480000D03*
X129804000Y34480000D03*
D14*
X47238000Y12000000D03*
X45238000Y12000000D03*
X47238000Y13922000D03*
X45238000Y13922000D03*
D13*
X147076000Y32480000D03*
X147076000Y34480000D03*
D15*
X20076000Y35192000D03*
X20076000Y33292000D03*
X18077020Y34242000D03*
X37078760Y35192000D03*
X37078760Y33292000D03*
X35079780Y34242000D03*
X54096760Y35192000D03*
X54096760Y33292000D03*
X52097780Y34242000D03*
X71114760Y35192000D03*
X71114760Y33292000D03*
X69115780Y34242000D03*
X88132760Y35192000D03*
X88132760Y33292000D03*
X86133780Y34242000D03*
X105000000Y35192000D03*
X105000000Y33292000D03*
X103001020Y34242000D03*
X122168760Y35192000D03*
X122168760Y33292000D03*
X120169780Y34242000D03*
D11*
X48960000Y18000000D03*
D12*
X51500000Y18000000D03*
D15*
X139186760Y35446000D03*
X139186760Y33546000D03*
X137187780Y34496000D03*
X65200000Y4999240D03*
X63300000Y4999240D03*
X64250000Y6998220D03*
D16*
X5000000Y12000000D03*
D17*
X5000000Y9460000D03*
X5000000Y6920000D03*
X5000000Y4380000D03*
D18*
X118960000Y8750000D03*
D19*
X118960000Y11290000D03*
X121500000Y8750000D03*
X121500000Y11290000D03*
X124040000Y8750000D03*
X124040000Y11290000D03*
D20*
X118960000Y5250000D03*
D21*
X121500000Y5250000D03*
X124040000Y5250000D03*
D16*
X146000000Y12000000D03*
D17*
X146000000Y9460000D03*
X146000000Y6920000D03*
X146000000Y4380000D03*
D22*
X108468000Y61486000D03*
X108468000Y63386000D03*
D23*
X26614000Y30686000D03*
X24714000Y30686000D03*
X43886000Y30686000D03*
X41986000Y30686000D03*
X60904000Y30686000D03*
X59004000Y30686000D03*
X77922000Y30686000D03*
X76022000Y30686000D03*
X94940000Y30686000D03*
X93040000Y30686000D03*
X111704000Y30686000D03*
X109804000Y30686000D03*
X128910000Y30686000D03*
X127010000Y30686000D03*
X48844000Y14430000D03*
X50744000Y14430000D03*
X43632000Y15192000D03*
X41732000Y15192000D03*
X145994000Y30686000D03*
X144094000Y30686000D03*
D12*
X21997460Y39000000D03*
D24*
X21997460Y31000000D03*
D12*
X38997460Y39000000D03*
D24*
X38997460Y31000000D03*
D12*
X55997460Y39000000D03*
D24*
X55997460Y31000000D03*
D12*
X72997460Y39000000D03*
D24*
X72997460Y31000000D03*
D12*
X89997460Y39000000D03*
D24*
X89997460Y31000000D03*
D12*
X106997460Y39000000D03*
D24*
X106997460Y31000000D03*
D12*
X123997460Y39000000D03*
D24*
X123997460Y31000000D03*
D12*
X140997460Y39000000D03*
D24*
X140997460Y31000000D03*
X24500000Y36040000D03*
D12*
X24500000Y33500000D03*
D24*
X41500000Y36040000D03*
D12*
X41500000Y33500000D03*
D24*
X58500000Y36040000D03*
D12*
X58500000Y33500000D03*
D24*
X75500000Y36040000D03*
D12*
X75500000Y33500000D03*
D24*
X92500000Y36040000D03*
D12*
X92500000Y33500000D03*
D24*
X109500000Y36040000D03*
D12*
X109500000Y33500000D03*
D24*
X143500000Y36040000D03*
D12*
X143500000Y33500000D03*
D24*
X126500000Y36040000D03*
D12*
X126500000Y33500000D03*
D25*
X51300000Y9100000D03*
X51300000Y6560000D03*
X51300000Y11640000D03*
D26*
X68000000Y69000000D03*
X63000000Y69000000D03*
X58000000Y69000000D03*
X53000000Y69000000D03*
X48000000Y69000000D03*
X43000000Y69000000D03*
X38000000Y69000000D03*
X33000000Y69000000D03*
X28000000Y69000000D03*
X23000000Y69000000D03*
X18000000Y69000000D03*
X13000000Y69000000D03*
X8000000Y69000000D03*
X3000000Y69000000D03*
X149000000Y33000000D03*
X149000000Y58000000D03*
X149000000Y53000000D03*
X149000000Y48000000D03*
X149000000Y43000000D03*
X149000000Y38000000D03*
X149000000Y28000000D03*
X149000000Y23000000D03*
X149000000Y18000000D03*
X149000000Y13000000D03*
X149000000Y8000000D03*
X1000000Y66000000D03*
X1000000Y61000000D03*
X1000000Y56000000D03*
X1000000Y51000000D03*
X1000000Y46000000D03*
X1000000Y41000000D03*
X1000000Y36000000D03*
X1000000Y31000000D03*
X1000000Y26000000D03*
X1000000Y21000000D03*
X1000000Y16000000D03*
X1000000Y11000000D03*
X149000000Y3000000D03*
X146000000Y1000000D03*
X141000000Y1000000D03*
X136000000Y1000000D03*
X131000000Y1000000D03*
X126000000Y1000000D03*
X121000000Y1000000D03*
X116000000Y1000000D03*
X111000000Y1000000D03*
X106000000Y1000000D03*
X101000000Y1000000D03*
X96000000Y1000000D03*
X91000000Y1000000D03*
X86000000Y1000000D03*
X81000000Y1000000D03*
X76000000Y1000000D03*
X71000000Y1000000D03*
X66000000Y1000000D03*
X61000000Y1000000D03*
X56000000Y1000000D03*
X51000000Y1000000D03*
X46000000Y1000000D03*
X41000000Y1000000D03*
X36000000Y1000000D03*
X31000000Y1000000D03*
X26000000Y1000000D03*
X21000000Y1000000D03*
X16000000Y1000000D03*
X11000000Y1000000D03*
X6000000Y1000000D03*
D27*
X125750000Y14000000D03*
X88500002Y4250000D03*
X27750000Y59000000D03*
X24250000Y63250000D03*
X56750000Y65000000D03*
X59500000Y60750000D03*
X16000000Y21750000D03*
X84499994Y12500000D03*
X84500000Y5500000D03*
X98250000Y20500004D03*
X98250000Y36040000D03*
X53000000Y59499992D03*
X24144000Y66992000D03*
X51250000Y66992000D03*
X126000000Y3500000D03*
X46220919Y24449980D03*
X31707209Y25901251D03*
X110500000Y22000000D03*
X99750000Y22000000D03*
X81250000Y22500000D03*
X73750000Y18000000D03*
X62750000Y23324990D03*
X131324990Y25500000D03*
X115029081Y25529081D03*
D26*
X130000000Y52250000D03*
X113000000Y52250000D03*
X96250000Y52250000D03*
X79500000Y52250000D03*
X63000000Y52500000D03*
X29250000Y52500000D03*
X45500000Y52250000D03*
D27*
X81000000Y13749994D03*
X43500000Y13500000D03*
X60250000Y15750000D03*
X60250000Y6500000D03*
X47250000Y15750000D03*
X18250000Y63000000D03*
X17500000Y57250000D03*
X127500000Y59500000D03*
X123750008Y67000020D03*
X127500000Y66999980D03*
X104999994Y40500000D03*
X108468000Y58000000D03*
X120000000Y40500000D03*
X103250000Y40500000D03*
X86250000Y40500000D03*
X69250000Y40500000D03*
X52250000Y40500000D03*
X18250000Y40500000D03*
X35250000Y40500000D03*
X137000000Y40500000D03*
D26*
X81250000Y66000000D03*
X81250000Y59500000D03*
D27*
X101750000Y62500000D03*
X108500000Y66750000D03*
X113250000Y63500000D03*
X83250000Y20750000D03*
X95000000Y26712980D03*
X111750000Y26712980D03*
X129000000Y26712980D03*
X146000000Y28750000D03*
X79750000Y26750000D03*
X62750000Y26750000D03*
X45750000Y26750000D03*
X30500000Y30500000D03*
D26*
X22000000Y47250000D03*
X26750000Y42250000D03*
X39000000Y47250000D03*
X43500000Y42250000D03*
X56000000Y47250000D03*
X60250000Y42250000D03*
X73000000Y47250000D03*
X77250000Y42250000D03*
X90000000Y47250000D03*
X94000000Y42250000D03*
X110750000Y47250000D03*
X111000000Y42250000D03*
X124000000Y47250000D03*
X127750000Y42250000D03*
X94100000Y6600000D03*
X85750004Y7000000D03*
X83500000Y7000000D03*
X141000000Y47250000D03*
X144750000Y42250000D03*
X98000000Y8250000D03*
X105500000Y8125010D03*
X95000000Y62000000D03*
X98500000Y67000000D03*
X119250000Y65500000D03*
X123000000Y43750000D03*
X90499994Y27500000D03*
X102750000Y13000000D03*
X99750000Y15500000D03*
X89500000Y28500000D03*
X99000000Y12250000D03*
X88750000Y29250000D03*
X98150000Y12500000D03*
X88000000Y30000000D03*
X94808369Y15500000D03*
X86000000Y32250000D03*
X93000000Y15749996D03*
X85250010Y29250000D03*
X92250000Y15000000D03*
X84426980Y28500000D03*
X90750000Y15000000D03*
X83750020Y27750000D03*
X94900000Y7000000D03*
X30249996Y61500000D03*
X48500000Y62250000D03*
X75000000Y19874980D03*
X114133958Y11000000D03*
X114250000Y7500000D03*
X95700000Y6600000D03*
X50500000Y62250000D03*
X29250000Y60750000D03*
X76750000Y20500000D03*
X99500000Y10250000D03*
X22250000Y60750000D03*
X31000000Y60750000D03*
X27500000Y56750000D03*
X78184313Y21774969D03*
X99250000Y11250000D03*
X28500000Y60000000D03*
X46000000Y63750000D03*
X78750000Y22500000D03*
X61750000Y63750000D03*
X61000000Y57250000D03*
X107250000Y55650031D03*
X109066955Y55433045D03*
X107750000Y56275051D03*
X114750000Y61000000D03*
X115249986Y62000000D03*
X108470550Y56779450D03*
X96500000Y7000000D03*
X20750000Y60750002D03*
X54500000Y59000000D03*
X22500000Y59000000D03*
X77500000Y21249970D03*
X32499998Y27500000D03*
X31250000Y42250000D03*
X48000000Y25750000D03*
X48000000Y42250000D03*
X65000000Y25750000D03*
X65000000Y42250000D03*
X82250000Y25750000D03*
X81544000Y42370000D03*
X100750000Y25750000D03*
X98500000Y42250000D03*
X116758958Y23252986D03*
X115250000Y42250000D03*
X97400000Y6600000D03*
X66750000Y13250004D03*
X98100000Y7000000D03*
X62000000Y13250000D03*
X116060228Y15560228D03*
X132250000Y42250000D03*
X112000000Y6000000D03*
X111991052Y12252982D03*
X112750000Y12000000D03*
X112750000Y5250000D03*
X113500000Y6750000D03*
X113508948Y11747018D03*
X99250000Y7500000D03*
X131000000Y9250000D03*
X104500004Y9250000D03*
X29750006Y59500000D03*
X27500000Y57750000D03*
X8500000Y3500000D03*
X66500000Y4750000D03*
X63199988Y4000000D03*
X8500000Y4500000D03*
X67250000Y4000000D03*
D28*
X7000000Y10152400D02*
X7000000Y7750000D01*
X7000000Y7750000D02*
X7000000Y1000000D01*
D29*
X7000000Y7700000D02*
X7000000Y7750000D01*
D30*
X48000000Y69000000D02*
X43000000Y69000000D01*
X53000000Y69000000D02*
X48000000Y69000000D01*
X53000000Y69000000D02*
X58000000Y69000000D01*
X38000000Y69000000D02*
X43000000Y69000000D01*
X33000000Y69000000D02*
X38000000Y69000000D01*
X33000000Y69000000D02*
X28000000Y69000000D01*
X23000000Y69000000D02*
X28000000Y69000000D01*
X18000000Y69000000D02*
X23000000Y69000000D01*
X18000000Y69000000D02*
X13000000Y69000000D01*
X13000000Y69000000D02*
X8000000Y69000000D01*
X8000000Y69000000D02*
X3000000Y69000000D01*
X1000000Y69000000D02*
X3000000Y69000000D01*
X1000000Y66000000D02*
X1000000Y69000000D01*
X58000000Y69000000D02*
X63000000Y69000000D01*
X68000000Y69000000D02*
X63000000Y69000000D01*
X68000000Y69000000D02*
X146200000Y69000000D01*
X146200000Y69000000D02*
X146200000Y62000000D01*
X149000000Y61200000D02*
X149000000Y58000000D01*
X146200000Y62000000D02*
X147000000Y61200000D01*
X147000000Y61200000D02*
X149000000Y61200000D01*
X1000000Y66000000D02*
X1000000Y61000000D01*
X1000000Y56000000D02*
X1000000Y61000000D01*
X1000000Y51000000D02*
X1000000Y56000000D01*
X1000000Y46000000D02*
X1000000Y51000000D01*
X1000000Y46000000D02*
X1000000Y41000000D01*
X1000000Y36000000D02*
X1000000Y41000000D01*
X1000000Y31000000D02*
X1000000Y36000000D01*
X1000000Y26000000D02*
X1000000Y31000000D01*
X1000000Y21000000D02*
X1000000Y26000000D01*
X1000000Y16000000D02*
X1000000Y21000000D01*
X1000000Y12000000D02*
X1000000Y16000000D01*
X1000000Y12000000D02*
X1000000Y11000000D01*
X149000000Y53000000D02*
X149000000Y58000000D01*
X149000000Y48000000D02*
X149000000Y53000000D01*
X149000000Y43000000D02*
X149000000Y48000000D01*
X149000000Y38000000D02*
X149000000Y43000000D01*
X149000000Y33000000D02*
X149000000Y38000000D01*
X149000000Y33000000D02*
X149000000Y28000000D01*
X149000000Y23000000D02*
X149000000Y28000000D01*
X149000000Y18000000D02*
X149000000Y23000000D01*
X149000000Y13000000D02*
X149000000Y18000000D01*
X149000000Y13000000D02*
X149000000Y12000000D01*
X149000000Y8000000D02*
X149000000Y12000000D01*
X149000000Y3000000D02*
X149000000Y8000000D01*
X149000000Y1000000D02*
X149000000Y3000000D01*
X146000000Y1000000D02*
X149000000Y1000000D01*
X141000000Y1000000D02*
X146000000Y1000000D01*
X136000000Y1000000D02*
X141000000Y1000000D01*
X131000000Y1000000D02*
X136000000Y1000000D01*
X126000000Y1000000D02*
X131000000Y1000000D01*
X121000000Y1000000D02*
X126000000Y1000000D01*
X116000000Y1000000D02*
X121000000Y1000000D01*
X111000000Y1000000D02*
X116000000Y1000000D01*
X106000000Y1000000D02*
X111000000Y1000000D01*
X101000000Y1000000D02*
X106000000Y1000000D01*
X96000000Y1000000D02*
X101000000Y1000000D01*
X91000000Y1000000D02*
X95750000Y1000000D01*
X86000000Y1000000D02*
X91000000Y1000000D01*
X81000000Y1000000D02*
X86000000Y1000000D01*
X76000000Y1000000D02*
X81000000Y1000000D01*
X71000000Y1000000D02*
X76000000Y1000000D01*
X66000000Y1000000D02*
X71000000Y1000000D01*
X61000000Y1000000D02*
X66000000Y1000000D01*
X56000000Y1000000D02*
X61000000Y1000000D01*
X51000000Y1000000D02*
X56000000Y1000000D01*
X46000000Y1000000D02*
X51000000Y1000000D01*
X41000000Y1000000D02*
X46000000Y1000000D01*
X36000000Y1000000D02*
X41000000Y1000000D01*
X31000000Y1000000D02*
X36000000Y1000000D01*
X26000000Y1000000D02*
X31000000Y1000000D01*
X21000000Y1000000D02*
X26000000Y1000000D01*
X16000000Y1000000D02*
X21000000Y1000000D01*
X11000000Y1000000D02*
X16000000Y1000000D01*
X7000000Y1000000D02*
X11000000Y1000000D01*
X7000000Y1000000D02*
X6000000Y1000000D01*
X64250000Y6998220D02*
X62228222Y6998220D01*
X62228222Y6998220D02*
X60730001Y5499999D01*
X60730001Y5499999D02*
X55100001Y5499999D01*
X55100001Y5499999D02*
X51504000Y9096000D01*
X51504000Y9096000D02*
X51250000Y9096000D01*
D28*
X5000000Y12000000D02*
X4847600Y12000000D01*
X146000000Y12000000D02*
X149000000Y12000000D01*
D30*
X146000000Y12000000D02*
X146152400Y12000000D01*
D28*
X5000000Y12000000D02*
X1000000Y12000000D01*
X5000000Y12000000D02*
X5152400Y12000000D01*
X5152400Y12000000D02*
X7000000Y10152400D01*
D30*
X124901472Y14000000D02*
X125750000Y14000000D01*
X121670000Y14000000D02*
X124901472Y14000000D01*
X118960000Y11290000D02*
X121670000Y14000000D01*
X89100001Y3650001D02*
X88500002Y4250000D01*
X89500002Y3250000D02*
X89100001Y3650001D01*
X118960000Y5250000D02*
X117696400Y5250000D01*
X117696400Y5250000D02*
X115696400Y3250000D01*
X115696400Y3250000D02*
X89500002Y3250000D01*
D28*
X24250000Y63250000D02*
X26000000Y61500000D01*
X27150001Y59599999D02*
X27750000Y59000000D01*
X26000000Y61500000D02*
X26000000Y60750000D01*
X26000000Y60750000D02*
X27150001Y59599999D01*
D30*
X59500000Y60750000D02*
X56750000Y63500000D01*
X56750000Y63500000D02*
X56750000Y65000000D01*
D28*
X51250000Y9096000D02*
X28654000Y9096000D01*
X28654000Y9096000D02*
X16000000Y21750000D01*
D30*
X118960000Y5250000D02*
X118000000Y5250000D01*
X118000000Y5250000D02*
X117250000Y6000000D01*
X117250000Y10000000D02*
X118540000Y11290000D01*
X117250000Y6000000D02*
X117250000Y10000000D01*
X118540000Y11290000D02*
X118960000Y11290000D01*
X47000000Y9096000D02*
X45238000Y10858000D01*
X45238000Y10858000D02*
X45238000Y12000000D01*
X51250000Y9096000D02*
X47000000Y9096000D01*
X84500000Y12499994D02*
X84499994Y12500000D01*
D28*
X84500000Y5500000D02*
X84500000Y12499994D01*
D30*
X45238000Y13922000D02*
X45238000Y17698000D01*
X45238000Y17698000D02*
X45540000Y18000000D01*
X45238000Y12000000D02*
X45238000Y13922000D01*
X98250000Y36040000D02*
X98250000Y20500004D01*
X112532000Y34480000D02*
X112532000Y35380000D01*
X112532000Y35380000D02*
X111872000Y36040000D01*
X111872000Y36040000D02*
X110916000Y36040000D01*
X110916000Y36040000D02*
X109500000Y36040000D01*
X129804000Y34480000D02*
X129804000Y35380000D01*
X129144000Y36040000D02*
X127916000Y36040000D01*
X129804000Y35380000D02*
X129144000Y36040000D01*
X127916000Y36040000D02*
X126500000Y36040000D01*
X147076000Y34480000D02*
X146951000Y34480000D01*
X146951000Y34480000D02*
X145391000Y36040000D01*
X145391000Y36040000D02*
X143500000Y36040000D01*
X94854000Y36040000D02*
X92500000Y36040000D01*
X95514000Y34480000D02*
X95514000Y35380000D01*
X95514000Y35380000D02*
X94854000Y36040000D01*
X79766000Y32448000D02*
X79766000Y33734000D01*
X79766000Y33734000D02*
X77460000Y36040000D01*
X77460000Y36040000D02*
X76916000Y36040000D01*
X76916000Y36040000D02*
X75500000Y36040000D01*
X62748000Y32448000D02*
X62748000Y33752000D01*
X62748000Y33752000D02*
X60460000Y36040000D01*
X60460000Y36040000D02*
X59916000Y36040000D01*
X59916000Y36040000D02*
X58500000Y36040000D01*
X41500000Y36040000D02*
X43460000Y36040000D01*
X43460000Y36040000D02*
X45730000Y33770000D01*
X45730000Y33770000D02*
X45730000Y32448000D01*
X26210000Y36040000D02*
X24500000Y36040000D01*
X28458000Y33792000D02*
X26210000Y36040000D01*
X28458000Y32448000D02*
X28458000Y33792000D01*
X53000000Y60348520D02*
X53000000Y59499992D01*
X53000000Y65242000D02*
X53000000Y60348520D01*
X51250000Y66992000D02*
X53000000Y65242000D01*
X47238000Y13922000D02*
X47238000Y12000000D01*
X47250000Y15750000D02*
X47250000Y13934000D01*
X47250000Y13934000D02*
X47238000Y13922000D01*
X47922000Y13922000D02*
X47238000Y13922000D01*
D28*
X22242000Y66992000D02*
X24144000Y66992000D01*
D30*
X124040000Y11290000D02*
X126000000Y9330000D01*
X126000000Y4348528D02*
X126000000Y3500000D01*
X126000000Y9330000D02*
X126000000Y4348528D01*
X47250000Y25479061D02*
X47250000Y50500000D01*
X47250000Y50500000D02*
X45500000Y52250000D01*
X46220919Y24449980D02*
X47250000Y25479061D01*
X29250000Y52500000D02*
X29250000Y40000000D01*
X29250000Y40000000D02*
X31707209Y37542791D01*
X31707209Y37542791D02*
X31707209Y26749779D01*
X31707209Y26749779D02*
X31707209Y25901251D01*
X111348528Y22000000D02*
X110500000Y22000000D01*
X111500000Y22000000D02*
X111348528Y22000000D01*
X115029081Y25529081D02*
X111500000Y22000000D01*
X99750000Y22848528D02*
X99750000Y22000000D01*
X99750000Y36500000D02*
X99750000Y22848528D01*
X96250000Y40000000D02*
X99750000Y36500000D01*
X96250000Y52250000D02*
X96250000Y40000000D01*
X81250000Y23348528D02*
X81250000Y22500000D01*
X81250000Y38250000D02*
X81250000Y23348528D01*
X79500000Y40000000D02*
X81250000Y38250000D01*
X79500000Y52250000D02*
X79500000Y40000000D01*
X81000000Y13749994D02*
X80999994Y13750000D01*
X80999994Y13750000D02*
X79500000Y13750000D01*
X79500000Y13750000D02*
X75250000Y18000000D01*
X75250000Y18000000D02*
X73750000Y18000000D01*
X62750000Y23324990D02*
X62750000Y24536002D01*
X64250000Y26036002D02*
X64250000Y51250000D01*
X62750000Y24536002D02*
X64250000Y26036002D01*
X64250000Y51250000D02*
X63000000Y52500000D01*
X115029081Y25529081D02*
X115029081Y38720919D01*
X115029081Y38720919D02*
X114000000Y39750000D01*
X114000000Y39750000D02*
X114000000Y50825736D01*
X114000000Y50825736D02*
X113000000Y51825736D01*
X113000000Y51825736D02*
X113000000Y52250000D01*
X131500000Y50750000D02*
X131500000Y25675010D01*
X131500000Y25675010D02*
X131324990Y25500000D01*
X114808162Y25750000D02*
X115029081Y25529081D01*
X130000000Y52250000D02*
X131500000Y50750000D01*
X43632000Y15192000D02*
X43632000Y13632000D01*
X43632000Y13632000D02*
X43500000Y13500000D01*
X43690000Y15250000D02*
X43632000Y15192000D01*
X47922000Y13922000D02*
X48250000Y14250000D01*
X48250000Y14250000D02*
X48664000Y14250000D01*
X48664000Y14250000D02*
X48844000Y14430000D01*
X47250000Y12012000D02*
X47238000Y12000000D01*
X60250000Y6500000D02*
X60250000Y15750000D01*
X17500000Y62250000D02*
X18250000Y63000000D01*
D28*
X18250000Y63000000D02*
X22242000Y66992000D01*
D30*
X17500000Y57250000D02*
X17500000Y62250000D01*
X127500000Y66999980D02*
X127500000Y59500000D01*
X123750048Y66999980D02*
X123750008Y67000020D01*
X127500000Y66999980D02*
X123750048Y66999980D01*
X104999994Y40500000D02*
X106500000Y42000006D01*
X106500000Y42000006D02*
X106500000Y56032000D01*
X106500000Y56032000D02*
X108468000Y58000000D01*
X137187780Y34496000D02*
X137187780Y40312220D01*
X137187780Y40312220D02*
X137000000Y40500000D01*
X120169780Y34242000D02*
X120169780Y40330220D01*
X120169780Y40330220D02*
X120000000Y40500000D01*
X103001020Y34242000D02*
X103001020Y40251020D01*
X103001020Y40251020D02*
X103250000Y40500000D01*
X86133780Y34242000D02*
X86133780Y40383780D01*
X86133780Y40383780D02*
X86250000Y40500000D01*
X69115780Y34242000D02*
X69115780Y40365780D01*
X69115780Y40365780D02*
X69250000Y40500000D01*
X52097780Y34242000D02*
X52097780Y40347780D01*
X52097780Y40347780D02*
X52250000Y40500000D01*
X35079780Y34242000D02*
X35079780Y40329780D01*
X35079780Y40329780D02*
X35250000Y40500000D01*
X18077020Y34242000D02*
X18077020Y40327020D01*
X18077020Y40327020D02*
X18250000Y40500000D01*
X108468000Y58000000D02*
X108468000Y61486000D01*
X104999994Y40500000D02*
X103250000Y40500000D01*
X120185020Y40314980D02*
X120000000Y40500000D01*
X86149020Y40399020D02*
X86250000Y40500000D01*
X69131020Y40381020D02*
X69250000Y40500000D01*
X137203020Y40296980D02*
X137000000Y40500000D01*
D29*
X81250000Y59500000D02*
X81250000Y66000000D01*
D30*
X101750000Y62500000D02*
X102636000Y63386000D01*
X102636000Y63386000D02*
X108468000Y63386000D01*
X108468000Y63386000D02*
X108468000Y66718000D01*
X108468000Y66718000D02*
X108500000Y66750000D01*
X108468000Y63386000D02*
X113136000Y63386000D01*
X113136000Y63386000D02*
X113250000Y63500000D01*
X82401472Y20750000D02*
X83250000Y20750000D01*
X81401472Y20750000D02*
X82401472Y20750000D01*
X79750000Y22401472D02*
X81401472Y20750000D01*
X79750000Y26750000D02*
X79750000Y22401472D01*
X94940000Y26772980D02*
X95000000Y26712980D01*
X128910000Y26802980D02*
X129000000Y26712980D01*
X94940000Y30686000D02*
X94940000Y26772980D01*
X111704000Y30686000D02*
X111704000Y26758980D01*
X128910000Y30686000D02*
X128910000Y26802980D01*
X111704000Y26758980D02*
X111750000Y26712980D01*
X145994000Y30686000D02*
X145994000Y31398000D01*
X145994000Y31398000D02*
X147076000Y32480000D01*
X146000000Y28750000D02*
X146000000Y30680000D01*
X146000000Y30680000D02*
X145994000Y30686000D01*
X128910000Y30686000D02*
X128910000Y31586000D01*
X128910000Y31586000D02*
X129804000Y32480000D01*
X111704000Y30686000D02*
X111704000Y31652000D01*
X111704000Y31652000D02*
X112532000Y32480000D01*
X94940000Y30686000D02*
X94940000Y31906000D01*
X94940000Y31906000D02*
X95514000Y32480000D01*
X79750000Y26750000D02*
X79750000Y30432000D01*
X79750000Y30432000D02*
X79766000Y30448000D01*
X77922000Y30686000D02*
X79528000Y30686000D01*
X79528000Y30686000D02*
X79766000Y30448000D01*
X60904000Y30686000D02*
X62510000Y30686000D01*
X62510000Y30686000D02*
X62748000Y30448000D01*
X62750000Y26750000D02*
X62750000Y30446000D01*
X62750000Y30446000D02*
X62748000Y30448000D01*
X45730000Y30448000D02*
X45730000Y26770000D01*
X45730000Y26770000D02*
X45750000Y26750000D01*
X43886000Y30686000D02*
X45492000Y30686000D01*
X45492000Y30686000D02*
X45730000Y30448000D01*
X28458000Y30448000D02*
X30448000Y30448000D01*
X30448000Y30448000D02*
X30500000Y30500000D01*
X26614000Y30686000D02*
X28220000Y30686000D01*
X28220000Y30686000D02*
X28458000Y30448000D01*
D29*
X20076000Y35192000D02*
X20076000Y37078540D01*
X20076000Y37078540D02*
X21997460Y39000000D01*
X21997460Y39000000D02*
X21997460Y47247460D01*
X21997460Y47247460D02*
X22000000Y47250000D01*
X20076000Y33292000D02*
X20076000Y31671970D01*
X20076000Y31671970D02*
X20747970Y31000000D01*
X20747970Y31000000D02*
X21997460Y31000000D01*
X21997460Y36747460D02*
X26750000Y41500000D01*
X26750000Y41500000D02*
X26750000Y42250000D01*
X21997460Y31000000D02*
X21997460Y36747460D01*
X37078760Y35192000D02*
X37078760Y37081300D01*
X38997460Y39000000D02*
X38997460Y47247460D01*
X38997460Y47247460D02*
X39000000Y47250000D01*
X38997460Y39000000D02*
X37078760Y37081300D01*
X37078760Y33292000D02*
X37078760Y31669210D01*
X37078760Y31669210D02*
X37747970Y31000000D01*
X43500000Y41000000D02*
X43500000Y42250000D01*
X39000000Y36500000D02*
X43500000Y41000000D01*
X39000000Y36157002D02*
X39000000Y36500000D01*
X38997460Y31000000D02*
X38997460Y36154462D01*
X38997460Y36154462D02*
X39000000Y36157002D01*
X37747970Y31000000D02*
X38997460Y31000000D01*
X54096760Y35192000D02*
X54096760Y38512792D01*
X55997460Y39000000D02*
X55997460Y47247460D01*
X55997460Y47247460D02*
X56000000Y47250000D01*
X55997460Y39000000D02*
X54583968Y39000000D01*
X54583968Y39000000D02*
X54096760Y38512792D01*
X54096760Y33292000D02*
X54096760Y31651210D01*
X60250000Y40750000D02*
X60250000Y42250000D01*
X56000000Y36500000D02*
X60250000Y40750000D01*
X56000000Y36157002D02*
X56000000Y36500000D01*
X55997460Y31000000D02*
X55997460Y36154462D01*
X55997460Y36154462D02*
X56000000Y36157002D01*
X54747970Y31000000D02*
X55997460Y31000000D01*
X54096760Y31651210D02*
X54747970Y31000000D01*
X71114760Y35192000D02*
X71114760Y37117300D01*
X71114760Y37117300D02*
X71130000Y37132540D01*
X72997460Y39000000D02*
X72997460Y47247460D01*
X72997460Y47247460D02*
X73000000Y47250000D01*
X72997460Y39000000D02*
X71130000Y37132540D01*
X71114760Y33292000D02*
X71114760Y31633210D01*
X71114760Y31633210D02*
X71747970Y31000000D01*
X71747970Y31000000D02*
X72997460Y31000000D01*
X77250000Y40750000D02*
X77250000Y42250000D01*
X72997460Y31000000D02*
X72997460Y36497460D01*
X72997460Y36497460D02*
X77250000Y40750000D01*
X88132760Y35192000D02*
X88132760Y37135300D01*
X88132760Y37135300D02*
X88148000Y37150540D01*
X89997460Y39000000D02*
X89997460Y47247460D01*
X89997460Y47247460D02*
X90000000Y47250000D01*
X89997460Y39000000D02*
X88148000Y37150540D01*
X89997460Y31000000D02*
X88747970Y31000000D01*
X88747970Y31000000D02*
X88132760Y31615210D01*
X88132760Y31615210D02*
X88132760Y33292000D01*
X94000000Y40750000D02*
X94000000Y42250000D01*
X89997460Y36747460D02*
X94000000Y40750000D01*
X89997460Y31000000D02*
X89997460Y36747460D01*
X105000000Y35192000D02*
X105000000Y37002540D01*
X106997460Y39000000D02*
X105000000Y37002540D01*
X110450001Y46950001D02*
X110750000Y47250000D01*
X109250000Y41252540D02*
X109250000Y45750000D01*
X106997460Y39000000D02*
X109250000Y41252540D01*
X109250000Y45750000D02*
X110450001Y46950001D01*
X105000000Y33292000D02*
X105000000Y31747970D01*
X111000000Y41825736D02*
X111000000Y42250000D01*
X111000000Y40500000D02*
X111000000Y41825736D01*
X106997460Y36497460D02*
X111000000Y40500000D01*
X106997460Y31000000D02*
X106997460Y36497460D01*
X105000000Y31747970D02*
X105747970Y31000000D01*
X105747970Y31000000D02*
X106997460Y31000000D01*
X122168760Y35192000D02*
X122168760Y37171300D01*
X122168760Y37171300D02*
X122184000Y37186540D01*
X123997460Y39000000D02*
X123997460Y47247460D01*
X123997460Y47247460D02*
X124000000Y47250000D01*
X123997460Y39000000D02*
X122184000Y37186540D01*
X122168760Y33292000D02*
X122168760Y32641950D01*
X122168760Y32641950D02*
X122184000Y32626710D01*
X122184000Y32626710D02*
X122184000Y31566000D01*
X123997460Y31000000D02*
X122750000Y31000000D01*
X122750000Y31000000D02*
X122184000Y31566000D01*
X127750000Y40250000D02*
X127750000Y41825736D01*
X123997460Y36497460D02*
X127750000Y40250000D01*
X127750000Y41825736D02*
X127750000Y42250000D01*
X123997460Y31000000D02*
X123997460Y36497460D01*
X93800001Y6899999D02*
X94100000Y6600000D01*
X93700000Y7000000D02*
X93800001Y6899999D01*
X85750004Y7000000D02*
X93700000Y7000000D01*
X83500000Y7000000D02*
X73824999Y16675001D01*
X52500000Y19500000D02*
X50410000Y19500000D01*
X50410000Y19500000D02*
X48960000Y18050000D01*
X73824999Y16675001D02*
X55324999Y16675001D01*
X48960000Y18050000D02*
X48960000Y18000000D01*
X55324999Y16675001D02*
X52500000Y19500000D01*
X50744000Y14430000D02*
X50744000Y17244000D01*
X50744000Y17244000D02*
X51500000Y18000000D01*
X41732000Y15192000D02*
X41732000Y15982000D01*
X41732000Y15982000D02*
X43000000Y17250000D01*
X43000000Y17250000D02*
X43000000Y18000000D01*
X139186760Y35446000D02*
X139186760Y37189300D01*
X139186760Y37189300D02*
X139202000Y37204540D01*
X140997460Y39000000D02*
X139202000Y37204540D01*
X140997460Y39000000D02*
X140997460Y47247460D01*
X140997460Y47247460D02*
X141000000Y47250000D01*
X139186760Y33546000D02*
X139186760Y32895950D01*
X139186760Y32895950D02*
X139202000Y32880710D01*
X139202000Y32880710D02*
X139202000Y31548000D01*
X140997460Y31000000D02*
X139750000Y31000000D01*
X139750000Y31000000D02*
X139202000Y31548000D01*
X144750000Y40250000D02*
X144750000Y42250000D01*
X140997460Y36497460D02*
X144750000Y40250000D01*
X140997460Y31000000D02*
X140997460Y36497460D01*
X98124990Y8125010D02*
X98000000Y8250000D01*
X105500000Y8125010D02*
X98124990Y8125010D01*
X98500000Y67000000D02*
X95000000Y63500000D01*
X95000000Y63500000D02*
X95000000Y62000000D01*
X123000000Y43750000D02*
X123000000Y57500000D01*
X123000000Y57500000D02*
X119750000Y60750000D01*
X119750000Y60750000D02*
X119750000Y65000000D01*
X119750000Y65000000D02*
X119549999Y65200001D01*
X119549999Y65200001D02*
X119250000Y65500000D01*
X102750000Y14000000D02*
X90499994Y26250006D01*
X90499994Y27075736D02*
X90499994Y27500000D01*
X90499994Y26250006D02*
X90499994Y27075736D01*
X102750000Y13000000D02*
X102750000Y14000000D01*
X144094000Y30686000D02*
X144094000Y32906000D01*
X144094000Y32906000D02*
X143500000Y33500000D01*
X99450001Y15799999D02*
X99750000Y15500000D01*
X89500000Y25750000D02*
X99450001Y15799999D01*
X89500000Y28500000D02*
X89500000Y25750000D01*
X127010000Y30686000D02*
X127010000Y32990000D01*
X127010000Y32990000D02*
X126500000Y33500000D01*
X99000000Y14500000D02*
X99000000Y12250000D01*
X88500000Y25000000D02*
X99000000Y14500000D01*
X88750000Y29250000D02*
X88500000Y29000000D01*
X88500000Y29000000D02*
X88500000Y25000000D01*
X109804000Y30686000D02*
X109804000Y33196000D01*
X109804000Y33196000D02*
X109500000Y33500000D01*
X98150000Y12924264D02*
X98150000Y12500000D01*
X98150000Y13600000D02*
X98150000Y12924264D01*
X88000000Y23750000D02*
X98150000Y13600000D01*
X88000000Y30000000D02*
X88000000Y23750000D01*
X93040000Y30686000D02*
X93040000Y32960000D01*
X93040000Y32960000D02*
X92500000Y33500000D01*
X86500000Y23808369D02*
X94808369Y15500000D01*
X86500000Y31750000D02*
X86500000Y23808369D01*
X86000000Y32250000D02*
X86500000Y31750000D01*
X76022000Y30432000D02*
X76022000Y32978000D01*
X76022000Y32978000D02*
X75500000Y33500000D01*
X92700001Y16049995D02*
X93000000Y15749996D01*
X85550009Y28950001D02*
X85550009Y23199987D01*
X85250010Y29250000D02*
X85550009Y28950001D01*
X85550009Y23199987D02*
X92700001Y16049995D01*
X59004000Y30686000D02*
X59004000Y32996000D01*
X59004000Y32996000D02*
X58500000Y33500000D01*
X92250000Y15000000D02*
X85000000Y22250000D01*
X85000000Y27926980D02*
X84426980Y28500000D01*
X85000000Y22250000D02*
X85000000Y27926980D01*
X41986000Y30686000D02*
X41986000Y33014000D01*
X41986000Y33014000D02*
X41500000Y33500000D01*
X83750020Y27750000D02*
X84250000Y27250020D01*
X84250000Y27250020D02*
X84250000Y21500000D01*
X84250000Y21500000D02*
X90750000Y15000000D01*
X24714000Y30686000D02*
X24714000Y33286000D01*
X24714000Y33286000D02*
X24500000Y33500000D01*
X94600001Y7299999D02*
X94900000Y7000000D01*
X84075005Y14674995D02*
X90450000Y8300000D01*
X80199985Y14674995D02*
X84075005Y14674995D01*
X90450000Y8300000D02*
X93600000Y8300000D01*
X75000000Y19874980D02*
X80199985Y14674995D01*
X93600000Y8300000D02*
X94600001Y7299999D01*
X30674260Y61500000D02*
X30249996Y61500000D01*
X47750000Y61500000D02*
X30674260Y61500000D01*
X48500000Y62250000D02*
X47750000Y61500000D01*
X114250000Y7500000D02*
X114250000Y10883958D01*
X114250000Y10883958D02*
X114133958Y11000000D01*
X95700000Y6600000D02*
X95700000Y7100000D01*
X84500000Y15500000D02*
X81750000Y15500000D01*
X95700000Y7100000D02*
X93900000Y8900000D01*
X93900000Y8900000D02*
X91100000Y8900000D01*
X91100000Y8900000D02*
X84500000Y15500000D01*
X81750000Y15500000D02*
X77049999Y20200001D01*
X77049999Y20200001D02*
X76750000Y20500000D01*
X29250000Y60750000D02*
X29500000Y61000000D01*
X49874999Y62875001D02*
X50500000Y62250000D01*
X29500000Y61000000D02*
X29500000Y61924994D01*
X29500000Y61924994D02*
X29825006Y62250000D01*
X29825006Y62250000D02*
X46500000Y62250000D01*
X46500000Y62250000D02*
X47125001Y62875001D01*
X47125001Y62875001D02*
X49874999Y62875001D01*
X91750000Y10250000D02*
X85000000Y17000000D01*
X99500000Y10250000D02*
X91750000Y10250000D01*
X27500000Y56750000D02*
X26250000Y56750000D01*
X26250000Y56750000D02*
X22250000Y60750000D01*
X31000000Y60325736D02*
X31000000Y60750000D01*
X31000000Y59825736D02*
X31000000Y60325736D01*
X27924264Y56750000D02*
X31000000Y59825736D01*
X27500000Y56750000D02*
X27924264Y56750000D01*
X78484312Y21474970D02*
X78184313Y21774969D01*
X82959282Y17000000D02*
X78484312Y21474970D01*
X85000000Y17000000D02*
X82959282Y17000000D01*
X85550003Y17750000D02*
X92000000Y11300003D01*
X99250000Y11250000D02*
X92050003Y11250000D01*
X92050003Y11250000D02*
X92000000Y11300003D01*
X28500000Y60424264D02*
X28500000Y60000000D01*
X28500000Y62000000D02*
X28500000Y60424264D01*
X30250000Y63750000D02*
X28500000Y62000000D01*
X46000000Y63750000D02*
X30250000Y63750000D01*
X78750000Y22500000D02*
X83500000Y17750000D01*
X83500000Y17750000D02*
X85550003Y17750000D01*
X61000000Y57250000D02*
X61750000Y58000000D01*
X61750000Y58000000D02*
X61750000Y63750000D01*
X109066955Y55433045D02*
X107466986Y55433045D01*
X107466986Y55433045D02*
X107250000Y55650031D01*
X109904440Y56154440D02*
X107870611Y56154440D01*
X107870611Y56154440D02*
X107750000Y56275051D01*
X114750000Y61000000D02*
X109904440Y56154440D01*
X114825722Y62000000D02*
X115249986Y62000000D01*
X108894814Y56779450D02*
X114115364Y62000000D01*
X108470550Y56779450D02*
X108894814Y56779450D01*
X114115364Y62000000D02*
X114825722Y62000000D01*
X96200001Y7299999D02*
X96500000Y7000000D01*
X93900000Y9600000D02*
X96200001Y7299999D01*
X91400000Y9600000D02*
X93900000Y9600000D01*
X84750000Y16250000D02*
X91400000Y9600000D01*
X82499970Y16250000D02*
X84750000Y16250000D01*
X77500000Y21249970D02*
X82499970Y16250000D01*
X22200001Y59300001D02*
X21049999Y60450003D01*
X21049999Y60450003D02*
X20750000Y60750002D01*
X22500000Y59000000D02*
X22200001Y59300001D01*
X51624999Y56124999D02*
X54200001Y58700001D01*
X22500000Y59000000D02*
X25375001Y56124999D01*
X54200001Y58700001D02*
X54500000Y59000000D01*
X25375001Y56124999D02*
X51624999Y56124999D01*
X31250000Y42250000D02*
X31250000Y39250000D01*
X31250000Y39250000D02*
X32499998Y38000002D01*
X32499998Y38000002D02*
X32499998Y27924264D01*
X32499998Y27924264D02*
X32499998Y27500000D01*
X48000000Y25750000D02*
X48000000Y42250000D01*
X65000000Y25750000D02*
X65000000Y42250000D01*
X81544000Y42370000D02*
X81544000Y39456000D01*
X81544000Y39456000D02*
X82250000Y38750000D01*
X82250000Y38750000D02*
X82250000Y26174264D01*
X82250000Y26174264D02*
X82250000Y25750000D01*
X98500000Y42250000D02*
X98500000Y39250000D01*
X98500000Y39250000D02*
X100750000Y37000000D01*
X100750000Y37000000D02*
X100750000Y36750000D01*
X100750000Y36750000D02*
X100750000Y26174264D01*
X100750000Y26174264D02*
X100750000Y25750000D01*
X100750000Y36750000D02*
X100750000Y25750000D01*
X115250000Y42250000D02*
X115250000Y40000000D01*
X115250000Y40000000D02*
X116000000Y39250000D01*
X116000000Y39250000D02*
X116000000Y24011944D01*
X116000000Y24011944D02*
X116458959Y23552985D01*
X116458959Y23552985D02*
X116758958Y23252986D01*
X86500000Y6000000D02*
X93774998Y6000000D01*
X93774998Y6000000D02*
X93799999Y5974999D01*
X93799999Y5974999D02*
X96774999Y5974999D01*
X96774999Y5974999D02*
X97100001Y6300001D01*
X97100001Y6300001D02*
X97400000Y6600000D01*
X86500000Y6000000D02*
X85074999Y4574999D01*
X85074999Y4574999D02*
X75425005Y4574999D01*
X75425005Y4574999D02*
X66750000Y13250004D01*
X62000000Y13250000D02*
X71125011Y4124989D01*
X71125011Y4124989D02*
X85374989Y4124989D01*
X85374989Y4124989D02*
X86650000Y5400000D01*
X86650000Y5400000D02*
X97200000Y5400000D01*
X97200000Y5400000D02*
X97200000Y5474998D01*
X97200000Y5474998D02*
X98100000Y6374998D01*
X98100000Y6374998D02*
X98100000Y7000000D01*
X132500000Y25000000D02*
X132500000Y41250000D01*
X116060228Y15560228D02*
X124750000Y24250000D01*
X124750000Y24250000D02*
X131750000Y24250000D01*
X131750000Y24250000D02*
X132500000Y25000000D01*
X132500000Y41250000D02*
X132250000Y41500000D01*
X132250000Y41500000D02*
X132250000Y42250000D01*
X111991052Y6008948D02*
X112000000Y6000000D01*
X111991052Y12252982D02*
X111991052Y6008948D01*
X112000000Y12244034D02*
X112000000Y6000000D01*
X112750000Y5250000D02*
X112750000Y12000000D01*
X113508948Y6758948D02*
X113500000Y6750000D01*
X113508948Y11747018D02*
X113508948Y6758948D01*
X131000000Y13000000D02*
X129064773Y14935227D01*
X110185231Y14935227D02*
X104800003Y9549999D01*
X129064773Y14935227D02*
X110185231Y14935227D01*
X131000000Y9250000D02*
X131000000Y13000000D01*
X104500000Y9250004D02*
X104500004Y9250000D01*
X104800003Y9549999D02*
X104500004Y9250000D01*
X29750000Y59500006D02*
X29750006Y59500000D01*
X29450007Y59200001D02*
X29750006Y59500000D01*
X27500000Y57750000D02*
X28000006Y57750000D01*
X28000006Y57750000D02*
X29450007Y59200001D01*
D30*
X51250000Y6556000D02*
X51194000Y6556000D01*
D29*
X8500000Y3500000D02*
X9950009Y2049991D01*
X9950009Y2049991D02*
X10150009Y2049991D01*
X66490000Y2049991D02*
X141649991Y2049991D01*
X143980000Y4380000D02*
X146000000Y4380000D01*
X141649991Y2049991D02*
X143980000Y4380000D01*
X64750000Y2049991D02*
X10150009Y2049991D01*
X64750000Y2049991D02*
X66490000Y2049991D01*
X66500000Y4750000D02*
X66500000Y2059991D01*
X66500000Y2059991D02*
X66490000Y2049991D01*
X64750000Y2049991D02*
X65549991Y2049991D01*
X66500000Y4750000D02*
X65450760Y4750000D01*
X65450760Y4750000D02*
X65200000Y5000760D01*
X145880000Y4380000D02*
X146000000Y4380000D01*
X8500000Y4500000D02*
X10500000Y2500000D01*
X10500000Y2500000D02*
X61700000Y2500000D01*
X61700000Y2500000D02*
X63199988Y3999988D01*
X63199988Y3999988D02*
X63199988Y4000000D01*
X68749998Y2500002D02*
X67549999Y3700001D01*
X141427602Y2500002D02*
X68749998Y2500002D01*
X67549999Y3700001D02*
X67250000Y4000000D01*
X145847600Y6920000D02*
X141427602Y2500002D01*
X146000000Y6920000D02*
X145847600Y6920000D01*
X63199988Y4424264D02*
X63199988Y4000000D01*
X63300000Y5000760D02*
X63199988Y4900748D01*
X63199988Y4900748D02*
X63199988Y4424264D01*
X5000000Y6920000D02*
X5152400Y6920000D01*
D31*
G36*
X149265000Y735000D02*
X3735000Y735000D01*
X3735000Y1873000D01*
X9052198Y1873000D01*
X9412608Y1512590D01*
X9659169Y1347843D01*
X9950009Y1289991D01*
X141649991Y1289991D01*
X141940830Y1347843D01*
X142187392Y1512590D01*
X142547802Y1873000D01*
X148000000Y1873000D01*
X148049410Y1883006D01*
X148091035Y1911447D01*
X148118315Y1953841D01*
X148127000Y2000000D01*
X148127000Y31499539D01*
X148152441Y31515910D01*
X148297431Y31728110D01*
X148348440Y31980000D01*
X148348440Y32980000D01*
X148304162Y33215317D01*
X148165090Y33431441D01*
X148127000Y33457467D01*
X148127000Y61265000D01*
X149265000Y61265000D01*
X149265000Y735000D01*
X149265000Y735000D01*
G37*
X149265000Y735000D02*
X3735000Y735000D01*
X3735000Y1873000D01*
X9052198Y1873000D01*
X9412608Y1512590D01*
X9659169Y1347843D01*
X9950009Y1289991D01*
X141649991Y1289991D01*
X141940830Y1347843D01*
X142187392Y1512590D01*
X142547802Y1873000D01*
X148000000Y1873000D01*
X148049410Y1883006D01*
X148091035Y1911447D01*
X148118315Y1953841D01*
X148127000Y2000000D01*
X148127000Y31499539D01*
X148152441Y31515910D01*
X148297431Y31728110D01*
X148348440Y31980000D01*
X148348440Y32980000D01*
X148304162Y33215317D01*
X148165090Y33431441D01*
X148127000Y33457467D01*
X148127000Y61265000D01*
X149265000Y61265000D01*
X149265000Y735000D01*
G36*
X146265000Y68727000D02*
X68600000Y68727000D01*
X68550590Y68716994D01*
X68508965Y68688553D01*
X68481685Y68646159D01*
X68473000Y68600000D01*
X68473000Y68127000D01*
X51737043Y68127000D01*
X51496734Y68226785D01*
X51005421Y68227214D01*
X50762886Y68127000D01*
X24631043Y68127000D01*
X24390734Y68226785D01*
X23899421Y68227214D01*
X23656886Y68127000D01*
X2000000Y68127000D01*
X1950590Y68116994D01*
X1908965Y68088553D01*
X1881685Y68046159D01*
X1873000Y68000000D01*
X1873000Y8735000D01*
X735000Y8735000D01*
X735000Y69265000D01*
X146265000Y69265000D01*
X146265000Y68727000D01*
X146265000Y68727000D01*
G37*
X146265000Y68727000D02*
X68600000Y68727000D01*
X68550590Y68716994D01*
X68508965Y68688553D01*
X68481685Y68646159D01*
X68473000Y68600000D01*
X68473000Y68127000D01*
X51737043Y68127000D01*
X51496734Y68226785D01*
X51005421Y68227214D01*
X50762886Y68127000D01*
X24631043Y68127000D01*
X24390734Y68226785D01*
X23899421Y68227214D01*
X23656886Y68127000D01*
X2000000Y68127000D01*
X1950590Y68116994D01*
X1908965Y68088553D01*
X1881685Y68046159D01*
X1873000Y68000000D01*
X1873000Y8735000D01*
X735000Y8735000D01*
X735000Y69265000D01*
X146265000Y69265000D01*
X146265000Y68727000D01*
M02*
