G04 #@! TF.FileFunction,Copper,L1,Top,Signal*
%FSLAX46Y46*%
G04 Gerber Fmt 4.6, Leading zero omitted, Abs format (unit mm)*
G04 Created by KiCad (PCBNEW 4.0.2-stable) date 4/21/2016 10:24:51 PM*
%MOMM*%
G01*
G04 APERTURE LIST*
%ADD10C,0.100000*%
%ADD11R,0.355600X1.676400*%
%ADD12R,1.900000X2.000000*%
%ADD13C,1.900000*%
%ADD14R,1.250000X1.000000*%
%ADD15R,1.473200X0.355600*%
%ADD16R,6.000000X2.400300*%
%ADD17R,1.000000X1.250000*%
%ADD18R,1.220000X0.910000*%
%ADD19R,1.800860X2.499360*%
%ADD20R,0.800100X0.800100*%
%ADD21R,2.032000X1.727200*%
%ADD22O,2.032000X1.727200*%
%ADD23R,1.727200X1.727200*%
%ADD24O,1.727200X1.727200*%
%ADD25R,1.727200X2.032000*%
%ADD26O,1.727200X2.032000*%
%ADD27R,0.700000X1.300000*%
%ADD28R,1.300000X0.700000*%
%ADD29O,2.540000X2.032000*%
%ADD30R,5.600700X2.100580*%
%ADD31R,1.016000X0.558800*%
%ADD32R,2.032000X1.168400*%
%ADD33R,0.558800X1.016000*%
%ADD34R,1.981200X0.558800*%
%ADD35R,2.298700X0.558800*%
%ADD36R,0.533400X1.981200*%
%ADD37R,0.830000X0.630000*%
%ADD38C,1.524000*%
%ADD39R,1.900000X1.900000*%
%ADD40R,1.270000X1.270000*%
%ADD41R,1.200000X0.600000*%
%ADD42R,0.600000X1.200000*%
%ADD43C,0.600000*%
%ADD44C,1.200000*%
%ADD45C,0.800000*%
%ADD46C,0.250000*%
%ADD47C,0.400000*%
%ADD48C,0.600000*%
%ADD49C,0.254000*%
G04 APERTURE END LIST*
D10*
D11*
X112160231Y13918538D03*
X112810229Y13918538D03*
X113460231Y13918538D03*
X114110229Y13918538D03*
X114760228Y13918538D03*
X115410229Y13918538D03*
X116060228Y13918538D03*
X116710229Y13918538D03*
X116710229Y19557338D03*
X116060231Y19557338D03*
X115410229Y19557338D03*
X114760231Y19557338D03*
X114110232Y19557338D03*
X113460231Y19557338D03*
X112810232Y19557338D03*
X112160231Y19557338D03*
D12*
X45540000Y18000000D03*
D13*
X43000000Y18000000D03*
D14*
X88433414Y12639700D03*
X88433414Y10639700D03*
D15*
X117129400Y60923001D03*
X117129400Y61572999D03*
X117129400Y62223001D03*
X117129400Y62872999D03*
X117129400Y63522998D03*
X117129400Y64172999D03*
X117129400Y64822998D03*
X117129400Y65472999D03*
X111490600Y65472999D03*
X111490600Y64823001D03*
X111490600Y64172999D03*
X111490600Y63523001D03*
X111490600Y62873002D03*
X111490600Y62223001D03*
X111490600Y61573002D03*
X111490600Y60923001D03*
D16*
X38210000Y12144000D03*
X25310000Y12144000D03*
D14*
X42682000Y11620000D03*
X42682000Y9620000D03*
X54620000Y6538761D03*
X54620000Y8538761D03*
X56652000Y6538761D03*
X56652000Y8538761D03*
X58684000Y6538761D03*
X58684000Y8538761D03*
X58938000Y66992000D03*
X58938000Y64992000D03*
X60970000Y66992000D03*
X60970000Y64992000D03*
X20838000Y16954000D03*
X20838000Y14954000D03*
X99832000Y65186000D03*
X99832000Y63186000D03*
X92720000Y65059000D03*
X92720000Y63059000D03*
X106436000Y63214000D03*
X106436000Y65214000D03*
X108468000Y63214000D03*
X108468000Y65214000D03*
X78242000Y66992000D03*
X78242000Y64992000D03*
X76210000Y66992000D03*
X76210000Y64992000D03*
X55106191Y57439807D03*
X55106191Y55439807D03*
X53074191Y57439807D03*
X53074191Y55439807D03*
X106436000Y61404000D03*
X106436000Y59404000D03*
X108468000Y61404000D03*
X108468000Y59404000D03*
X121676000Y64484000D03*
X121676000Y66484000D03*
X126248000Y64960000D03*
X126248000Y62960000D03*
X121676000Y60674000D03*
X121676000Y62674000D03*
X13980000Y53729362D03*
X13980000Y55729362D03*
X11948000Y53729362D03*
X11948000Y55729362D03*
X31050000Y53911164D03*
X31050000Y55911164D03*
X29050000Y53911164D03*
X29050000Y55911164D03*
X47514178Y53773068D03*
X47514178Y55773068D03*
X45475000Y53775000D03*
X45475000Y55775000D03*
X64852499Y53881537D03*
X64852499Y55881537D03*
X62820499Y53881537D03*
X62820499Y55881537D03*
X81544000Y53832000D03*
X81544000Y55832000D03*
X79512000Y53832000D03*
X79512000Y55832000D03*
X98308000Y53816000D03*
X98308000Y55816000D03*
X96276000Y53816000D03*
X96276000Y55816000D03*
X90400000Y12630700D03*
X90400000Y10630700D03*
X115072000Y53816000D03*
X115072000Y55816000D03*
X113040000Y53816000D03*
X113040000Y55816000D03*
D17*
X80544000Y5540000D03*
X82544000Y5540000D03*
X71114000Y5540000D03*
X69114000Y5540000D03*
D14*
X132090000Y53816000D03*
X132090000Y55816000D03*
X130058000Y53816000D03*
X130058000Y55816000D03*
D17*
X65272000Y16462000D03*
X63272000Y16462000D03*
X65272000Y14430000D03*
X63272000Y14430000D03*
X129534000Y12017000D03*
X127534000Y12017000D03*
X129534000Y13922000D03*
X127534000Y13922000D03*
X110431443Y19234369D03*
X108431443Y19234369D03*
X110451818Y17113178D03*
X108451818Y17113178D03*
X98327414Y15900000D03*
X96327414Y15900000D03*
X98327414Y17865312D03*
X96327414Y17865312D03*
D14*
X83830000Y18986000D03*
X83830000Y16986000D03*
X76718000Y18986000D03*
X76718000Y16986000D03*
X29728000Y66992000D03*
X29728000Y64992000D03*
X31760000Y62960000D03*
X31760000Y64960000D03*
X38618000Y63214000D03*
X38618000Y65214000D03*
X40650000Y63214000D03*
X40650000Y65214000D03*
X19568000Y57340000D03*
X19568000Y55340000D03*
X21600000Y57340000D03*
X21600000Y55340000D03*
D18*
X20838000Y21764000D03*
X20838000Y18494000D03*
D19*
X17790000Y19222980D03*
X17790000Y15225020D03*
D20*
X135326000Y66992760D03*
X133426000Y66992760D03*
X134376000Y64993780D03*
X133426000Y60673240D03*
X135326000Y60673240D03*
X134376000Y62672220D03*
D12*
X48960000Y18000000D03*
D13*
X51500000Y18000000D03*
D21*
X5000000Y12000000D03*
D22*
X5000000Y9460000D03*
X5000000Y6920000D03*
X5000000Y4380000D03*
D23*
X118960000Y8750000D03*
D24*
X118960000Y11290000D03*
X121500000Y8750000D03*
X121500000Y11290000D03*
X124040000Y8750000D03*
X124040000Y11290000D03*
D25*
X118960000Y5250000D03*
D26*
X121500000Y5250000D03*
X124040000Y5250000D03*
D21*
X146000000Y12000000D03*
D22*
X146000000Y9460000D03*
X146000000Y6920000D03*
X146000000Y4380000D03*
D27*
X95326000Y66980000D03*
X97226000Y66980000D03*
X78054000Y59388000D03*
X79954000Y59388000D03*
D28*
X76210000Y57422000D03*
X76210000Y59322000D03*
D27*
X138506000Y64976000D03*
X140406000Y64976000D03*
X128346000Y64976000D03*
X130246000Y64976000D03*
X138506000Y62690000D03*
X140406000Y62690000D03*
X128346000Y62690000D03*
X130246000Y62690000D03*
D28*
X16022578Y53774362D03*
X16022578Y51874362D03*
X33050000Y53734000D03*
X33050000Y51834000D03*
X49546178Y53818068D03*
X49546178Y51918068D03*
X66884499Y53926537D03*
X66884499Y52026537D03*
X83576000Y53734000D03*
X83576000Y51834000D03*
X100340000Y53734000D03*
X100340000Y51834000D03*
X117213840Y53892074D03*
X117213840Y51992074D03*
X84846000Y9162000D03*
X84846000Y11062000D03*
X134122000Y53734000D03*
X134122000Y51834000D03*
D27*
X133040000Y13922000D03*
X131140000Y13922000D03*
D28*
X79258000Y13734000D03*
X79258000Y15634000D03*
D27*
X21412000Y64976000D03*
X23312000Y64976000D03*
X46450000Y60950000D03*
X44550000Y60950000D03*
D28*
X48524000Y60846000D03*
X48524000Y58946000D03*
X115500000Y9800000D03*
X115500000Y11700000D03*
X50556000Y60846000D03*
X50556000Y58946000D03*
D27*
X32334000Y60912000D03*
X34234000Y60912000D03*
D29*
X51250000Y9096000D03*
X51250000Y6556000D03*
X51250000Y11636000D03*
D30*
X80550860Y9096000D03*
X70853140Y9096000D03*
D31*
X26019600Y57167999D03*
X26019600Y58118000D03*
X26019600Y59068001D03*
X23784400Y59068001D03*
X23784400Y57167999D03*
X59547600Y57167999D03*
X59547600Y58118000D03*
X59547600Y59068001D03*
X57312400Y59068001D03*
X57312400Y57167999D03*
D32*
X134121999Y49990000D03*
X134121999Y47450000D03*
X134121999Y44910000D03*
X134121999Y42370000D03*
X142757999Y42370000D03*
X142757999Y44910000D03*
X142757999Y47450000D03*
X142757999Y49990000D03*
X117249142Y49990000D03*
X117249142Y47450000D03*
X117249142Y44910000D03*
X117249142Y42370000D03*
X125885142Y42370000D03*
X125885142Y44910000D03*
X125885142Y47450000D03*
X125885142Y49990000D03*
X100376285Y49990000D03*
X100376285Y47450000D03*
X100376285Y44910000D03*
X100376285Y42370000D03*
X109012285Y42370000D03*
X109012285Y44910000D03*
X109012285Y47450000D03*
X109012285Y49990000D03*
X83503428Y49990000D03*
X83503428Y47450000D03*
X83503428Y44910000D03*
X83503428Y42370000D03*
X92139428Y42370000D03*
X92139428Y44910000D03*
X92139428Y47450000D03*
X92139428Y49990000D03*
X66812000Y49990000D03*
X66812000Y47450000D03*
X66812000Y44910000D03*
X66812000Y42370000D03*
X75448000Y42370000D03*
X75448000Y44910000D03*
X75448000Y47450000D03*
X75448000Y49990000D03*
X49757714Y49990000D03*
X49757714Y47450000D03*
X49757714Y44910000D03*
X49757714Y42370000D03*
X58393714Y42370000D03*
X58393714Y44910000D03*
X58393714Y47450000D03*
X58393714Y49990000D03*
X133106000Y11636000D03*
X133106000Y9096000D03*
X133106000Y6556000D03*
X141742000Y6556000D03*
X141742000Y9096000D03*
X141742000Y11636000D03*
D33*
X27732021Y65066816D03*
X26782020Y65066816D03*
X25832019Y65066816D03*
X25832019Y62831616D03*
X27732021Y62831616D03*
D31*
X79184800Y18982001D03*
X79184800Y18032000D03*
X79184800Y17081999D03*
X81420000Y17081999D03*
X81420000Y18982001D03*
X95158400Y65136001D03*
X95158400Y64186000D03*
X95158400Y63235999D03*
X97393600Y63235999D03*
X97393600Y65136001D03*
D34*
X36916200Y61293000D03*
X36916200Y60023000D03*
X36916200Y58753000D03*
X36916200Y57483000D03*
X41843800Y57483000D03*
X41843800Y58753000D03*
X41843800Y60023000D03*
X41843800Y61293000D03*
D35*
X64062450Y66964594D03*
X64062450Y65694594D03*
X64062450Y64424594D03*
X64062450Y63154594D03*
X64062450Y61884594D03*
X64062450Y60614594D03*
X64062450Y59344594D03*
X64062450Y58074594D03*
X73117550Y58074594D03*
X73117550Y59344594D03*
X73117550Y60614594D03*
X73117550Y61884594D03*
X73117550Y63154594D03*
X73117550Y64424594D03*
X73117550Y65694594D03*
X73117550Y66964594D03*
D36*
X65669000Y11559800D03*
X64399000Y11559800D03*
X63129000Y11559800D03*
X61859000Y11559800D03*
X61859000Y6632200D03*
X63129000Y6632200D03*
X64399000Y6632200D03*
X65669000Y6632200D03*
D32*
X16012000Y49990000D03*
X16012000Y47450000D03*
X16012000Y44910000D03*
X16012000Y42370000D03*
X24648000Y42370000D03*
X24648000Y44910000D03*
X24648000Y47450000D03*
X24648000Y49990000D03*
X33030000Y49990000D03*
X33030000Y47450000D03*
X33030000Y44910000D03*
X33030000Y42370000D03*
X41666000Y42370000D03*
X41666000Y44910000D03*
X41666000Y47450000D03*
X41666000Y49990000D03*
D17*
X106492000Y17080000D03*
X104492000Y17080000D03*
D27*
X106450000Y15000000D03*
X104550000Y15000000D03*
D21*
X5000000Y22080000D03*
D22*
X5000000Y19540000D03*
X5000000Y17000000D03*
D37*
X42611795Y63174209D03*
X42611795Y64774209D03*
X104404000Y61204000D03*
X104404000Y59604000D03*
X104404000Y63668000D03*
X104404000Y65268000D03*
D28*
X85862000Y18052000D03*
X85862000Y19952000D03*
D38*
X14080000Y9460000D03*
X14080000Y9460000D03*
X14080000Y12000000D03*
X14080000Y12000000D03*
X14080000Y19620000D03*
X14080000Y19620000D03*
X9000000Y19620000D03*
X9000000Y19620000D03*
X9000000Y12000000D03*
X9000000Y12000000D03*
X9000000Y9460000D03*
X9000000Y9460000D03*
D13*
X21997460Y39000000D03*
D39*
X21997460Y31000000D03*
D13*
X38997460Y39000000D03*
D39*
X38997460Y31000000D03*
D13*
X55997460Y39000000D03*
D39*
X55997460Y31000000D03*
D13*
X72997460Y39000000D03*
D39*
X72997460Y31000000D03*
D13*
X89997460Y39000000D03*
D39*
X89997460Y31000000D03*
D13*
X106997460Y39000000D03*
D39*
X106997460Y31000000D03*
D13*
X123997460Y39000000D03*
D39*
X123997460Y31000000D03*
D13*
X140997460Y39000000D03*
D39*
X140997460Y31000000D03*
X24500000Y36040000D03*
D13*
X24500000Y33500000D03*
D39*
X41500000Y36040000D03*
D13*
X41500000Y33500000D03*
D39*
X58500000Y36040000D03*
D13*
X58500000Y33500000D03*
D39*
X75500000Y36040000D03*
D13*
X75500000Y33500000D03*
D39*
X92500000Y36040000D03*
D13*
X92500000Y33500000D03*
D39*
X109500000Y36040000D03*
D13*
X109500000Y33500000D03*
D39*
X143500000Y36040000D03*
D13*
X143500000Y33500000D03*
D39*
X126500000Y36040000D03*
D13*
X126500000Y33500000D03*
D40*
X101264000Y19348000D03*
X103804000Y19348000D03*
X106344000Y19348000D03*
D28*
X33900000Y57350000D03*
X33900000Y59250000D03*
X50500000Y55750000D03*
X50500000Y57650000D03*
X46500000Y57300000D03*
X46500000Y59200000D03*
D41*
X92692414Y12300000D03*
X92692414Y11500000D03*
X92692414Y10700000D03*
X92692414Y9900000D03*
X92692414Y9100000D03*
X92692414Y8300000D03*
X92692414Y7500000D03*
X92692414Y6700000D03*
D42*
X94142414Y5250000D03*
X94942414Y5250000D03*
X95742414Y5250000D03*
X96542414Y5250000D03*
X97342414Y5250000D03*
X98142414Y5250000D03*
X98942414Y5250000D03*
X99742414Y5250000D03*
D41*
X101192414Y6700000D03*
X101192414Y7500000D03*
X101192414Y8300000D03*
X101192414Y9100000D03*
X101192414Y9900000D03*
X101192414Y10700000D03*
X101192414Y11500000D03*
X101192414Y12300000D03*
D42*
X99742414Y13750000D03*
X98942414Y13750000D03*
X98142414Y13750000D03*
X97342414Y13750000D03*
X96542414Y13750000D03*
X95742414Y13750000D03*
X94942414Y13750000D03*
X94142414Y13750000D03*
D43*
X68000000Y69000000D03*
X63000000Y69000000D03*
X58000000Y69000000D03*
X53000000Y69000000D03*
X48000000Y69000000D03*
X43000000Y69000000D03*
X38000000Y69000000D03*
X33000000Y69000000D03*
X28000000Y69000000D03*
X23000000Y69000000D03*
X18000000Y69000000D03*
X13000000Y69000000D03*
X8000000Y69000000D03*
X3000000Y69000000D03*
X149000000Y33000000D03*
X149000000Y58000000D03*
X149000000Y53000000D03*
X149000000Y48000000D03*
X149000000Y43000000D03*
X149000000Y38000000D03*
X149000000Y28000000D03*
X149000000Y23000000D03*
X149000000Y18000000D03*
X149000000Y13000000D03*
X149000000Y8000000D03*
X1000000Y66000000D03*
X1000000Y61000000D03*
X1000000Y56000000D03*
X1000000Y51000000D03*
X1000000Y46000000D03*
X1000000Y41000000D03*
X1000000Y36000000D03*
X1000000Y31000000D03*
X1000000Y26000000D03*
X1000000Y21000000D03*
X1000000Y16000000D03*
X1000000Y11000000D03*
X149000000Y3000000D03*
X146000000Y1000000D03*
X141000000Y1000000D03*
X136000000Y1000000D03*
X131000000Y1000000D03*
X126000000Y1000000D03*
X121000000Y1000000D03*
X116000000Y1000000D03*
X111000000Y1000000D03*
X106000000Y1000000D03*
X101000000Y1000000D03*
X96000000Y1000000D03*
X91000000Y1000000D03*
X86000000Y1000000D03*
X81000000Y1000000D03*
X76000000Y1000000D03*
X71000000Y1000000D03*
X66000000Y1000000D03*
X61000000Y1000000D03*
X56000000Y1000000D03*
X51000000Y1000000D03*
X46000000Y1000000D03*
X41000000Y1000000D03*
X36000000Y1000000D03*
X31000000Y1000000D03*
X26000000Y1000000D03*
X21000000Y1000000D03*
X16000000Y1000000D03*
X11000000Y1000000D03*
X6000000Y1000000D03*
D44*
X125750000Y14000000D03*
X88500002Y4250000D03*
X27750000Y59000000D03*
X24250000Y63250000D03*
X56750000Y65000000D03*
X59500000Y60750000D03*
X16000000Y21750000D03*
X84499994Y12500000D03*
X84500000Y5500000D03*
X98250000Y20500004D03*
X98250000Y36040000D03*
X53000000Y59499992D03*
X24144000Y66992000D03*
X51250000Y66992000D03*
X126000000Y3500000D03*
X46220919Y24449980D03*
X31707209Y25901251D03*
X110500000Y22000000D03*
X99750000Y22000000D03*
X81250000Y22500000D03*
X73750000Y18000000D03*
X62750000Y23324990D03*
X131324990Y25500000D03*
X115029081Y25529081D03*
D43*
X130000000Y52250000D03*
X113000000Y52250000D03*
X96250000Y52250000D03*
X79500000Y52250000D03*
X63000000Y52500000D03*
X29250000Y52500000D03*
X45500000Y52250000D03*
D44*
X81000000Y13749994D03*
X43500000Y13500000D03*
X60250000Y15750000D03*
X60250000Y6500000D03*
X47250000Y15750000D03*
X18250000Y63000000D03*
X17500000Y57250000D03*
X127500000Y59500000D03*
X123750008Y67000020D03*
X127500000Y66999980D03*
X104999994Y40500000D03*
X108468000Y58000000D03*
X120000000Y40500000D03*
X103250000Y40500000D03*
X86250000Y40500000D03*
X69250000Y40500000D03*
X52250000Y40500000D03*
X18250000Y40500000D03*
X35250000Y40500000D03*
X137000000Y40500000D03*
D43*
X81250000Y66000000D03*
X81250000Y59500000D03*
D44*
X101750000Y62500000D03*
X108500000Y66750000D03*
X113250000Y63500000D03*
X83250000Y20750000D03*
X95000000Y26712980D03*
X111750000Y26712980D03*
X129000000Y26712980D03*
X146000000Y28750000D03*
X79750000Y26750000D03*
X62750000Y26750000D03*
X45750000Y26750000D03*
X30500000Y30500000D03*
D43*
X22000000Y47250000D03*
X26750000Y42250000D03*
X39000000Y47250000D03*
X43500000Y42250000D03*
X56000000Y47250000D03*
X60250000Y42250000D03*
X73000000Y47250000D03*
X77250000Y42250000D03*
X90000000Y47250000D03*
X94000000Y42250000D03*
X110750000Y47250000D03*
X111000000Y42250000D03*
X124000000Y47250000D03*
X127750000Y42250000D03*
X94100000Y6600000D03*
X85750004Y7000000D03*
X83500000Y7000000D03*
X141000000Y47250000D03*
X144750000Y42250000D03*
X8500000Y4500000D03*
X67250000Y4000000D03*
X61999962Y4750000D03*
X8500000Y2999992D03*
X66500000Y4750000D03*
X98000000Y8250000D03*
X105500000Y8125010D03*
X95000000Y62000000D03*
X98500000Y67000000D03*
X119250000Y65500000D03*
X123000000Y43750000D03*
X90499994Y27500000D03*
X102750000Y13000000D03*
X99750000Y15500000D03*
X89500000Y28500000D03*
X99000000Y12250000D03*
X88750000Y29250000D03*
X98150000Y12500000D03*
X88000000Y30000000D03*
X94808369Y15500000D03*
X86000000Y32250000D03*
X93000000Y15749996D03*
X85250010Y29250000D03*
X92250000Y15000000D03*
X84426980Y28500000D03*
X90750000Y15000000D03*
X83750020Y27750000D03*
X94900000Y7000000D03*
X30249996Y61500000D03*
X48500000Y62250000D03*
X75000000Y19874980D03*
X114133958Y11000000D03*
X114250000Y7500000D03*
X95700000Y6600000D03*
X50500000Y62250000D03*
X29250000Y60750000D03*
X76750000Y20500000D03*
X99500000Y10250000D03*
X22250000Y60750000D03*
X31000000Y60750000D03*
X27500000Y56750000D03*
X78184313Y21774969D03*
X99250000Y11250000D03*
X28500000Y60000000D03*
X46000000Y63750000D03*
X78750000Y22500000D03*
X61750000Y63750000D03*
X61000000Y57250000D03*
X107250000Y55650031D03*
X109066955Y55433045D03*
X107750000Y56275051D03*
X114750000Y61000000D03*
X115249986Y62000000D03*
X108470550Y56779450D03*
X96500000Y7000000D03*
X20750000Y60750002D03*
X54500000Y59000000D03*
X22500000Y59000000D03*
X77500000Y21249970D03*
X32499998Y27500000D03*
X31250000Y42250000D03*
X48000000Y25750000D03*
X48000000Y42250000D03*
X65000000Y25750000D03*
X65000000Y42250000D03*
X82250000Y25750000D03*
X81544000Y42370000D03*
X100750000Y25750000D03*
X98500000Y42250000D03*
X116758958Y23252986D03*
X115250000Y42250000D03*
X97400000Y6600000D03*
X66750000Y13250004D03*
X98100000Y7000000D03*
X62000000Y13250000D03*
X116060228Y15560228D03*
X132250000Y42250000D03*
X112000000Y6000000D03*
X111991052Y12252982D03*
X112750000Y12000000D03*
X112750000Y5250000D03*
X113500000Y6750000D03*
X113508948Y11747018D03*
X99250000Y7500000D03*
X104500004Y9250000D03*
X104500000Y13250000D03*
X131000000Y9250000D03*
X29750006Y59500000D03*
X27500000Y57750000D03*
D45*
X20838000Y21764000D02*
X24736000Y21764000D01*
X24736000Y21764000D02*
X34356000Y12144000D01*
X34356000Y12144000D02*
X38210000Y12144000D01*
X42682000Y11620000D02*
X38734000Y11620000D01*
X38734000Y11620000D02*
X38210000Y12144000D01*
X51250000Y11636000D02*
X42698000Y11636000D01*
X42698000Y11636000D02*
X42682000Y11620000D01*
X38718000Y11636000D02*
X38210000Y12144000D01*
D46*
X46500000Y57300000D02*
X46500000Y56800000D01*
X46500000Y56800000D02*
X45475000Y55775000D01*
D47*
X62820499Y55881537D02*
X62952036Y55750000D01*
X64720962Y55750000D02*
X64852499Y55881537D01*
X62952036Y55750000D02*
X64720962Y55750000D01*
X64852499Y55881537D02*
X64934036Y55800000D01*
X64934036Y55800000D02*
X79496000Y55800000D01*
X79496000Y55800000D02*
X79528000Y55832000D01*
X79528000Y55832000D02*
X81544000Y55832000D01*
X53074191Y55439807D02*
X53384384Y55750000D01*
X53384384Y55750000D02*
X54795998Y55750000D01*
X54795998Y55750000D02*
X55106191Y55439807D01*
X50500000Y55750000D02*
X52763998Y55750000D01*
X52763998Y55750000D02*
X53074191Y55439807D01*
D48*
X29050000Y55911164D02*
X29211164Y55750000D01*
X29211164Y55750000D02*
X30888836Y55750000D01*
X30888836Y55750000D02*
X31050000Y55911164D01*
X45475000Y55775000D02*
X31186164Y55775000D01*
X31186164Y55775000D02*
X31050000Y55911164D01*
X47514178Y55773068D02*
X45476932Y55773068D01*
X45476932Y55773068D02*
X45475000Y55775000D01*
X50500000Y55750000D02*
X47537246Y55750000D01*
X47537246Y55750000D02*
X47514178Y55773068D01*
D47*
X29250000Y57500000D02*
X33850000Y57500000D01*
X33850000Y57500000D02*
X34000000Y57350000D01*
X34000000Y57350000D02*
X34000000Y57250000D01*
X34000000Y57250000D02*
X33780000Y57470000D01*
X36916200Y57483000D02*
X34133000Y57483000D01*
X34133000Y57483000D02*
X34000000Y57350000D01*
D48*
X68000000Y65200000D02*
X67505406Y65694594D01*
X67505406Y65694594D02*
X64062450Y65694594D01*
X68000000Y58500000D02*
X67574594Y58074594D01*
X67574594Y58074594D02*
X64062450Y58074594D01*
X68000000Y58500000D02*
X68000000Y65200000D01*
D47*
X92692414Y10700000D02*
X95450000Y10700000D01*
X95450000Y10700000D02*
X97342414Y12592414D01*
X97342414Y12592414D02*
X97342414Y12750000D01*
X97342414Y12750000D02*
X97342414Y13750000D01*
X88433414Y10639700D02*
X87408414Y10639700D01*
X87408414Y10639700D02*
X85548114Y12500000D01*
X85548114Y12500000D02*
X85500000Y12500000D01*
X88433414Y10639700D02*
X90391000Y10639700D01*
X90391000Y10639700D02*
X90400000Y10630700D01*
X92692414Y10700000D02*
X90469300Y10700000D01*
X90469300Y10700000D02*
X90400000Y10630700D01*
D45*
X146000000Y12000000D02*
X149000000Y12000000D01*
X5000000Y12000000D02*
X1200000Y12000000D01*
D47*
X127534000Y13922000D02*
X125828000Y13922000D01*
X125828000Y13922000D02*
X125750000Y14000000D01*
X85750000Y4250000D02*
X87651474Y4250000D01*
X84500000Y5500000D02*
X85750000Y4250000D01*
X87651474Y4250000D02*
X88500002Y4250000D01*
D45*
X29267000Y57483000D02*
X28349999Y58400001D01*
D47*
X27681999Y59068001D02*
X27750000Y59000000D01*
D45*
X28349999Y58400001D02*
X27750000Y59000000D01*
D47*
X26019600Y59068001D02*
X27681999Y59068001D01*
D45*
X29220000Y55911164D02*
X29220000Y57470000D01*
D47*
X29220000Y57470000D02*
X29250000Y57500000D01*
X29250000Y57500000D02*
X29293010Y57500000D01*
X29293010Y57500000D02*
X29310010Y57483000D01*
D45*
X26750000Y63958815D02*
X26741185Y63950000D01*
X26741185Y63950000D02*
X24950000Y63950000D01*
X24950000Y63950000D02*
X24250000Y63250000D01*
X20250000Y63250000D02*
X18750000Y64750000D01*
X24250000Y63250000D02*
X20250000Y63250000D01*
X18750000Y64750000D02*
X12250000Y64750000D01*
X12250000Y64750000D02*
X6250000Y58750000D01*
X6250000Y58750000D02*
X6250000Y31500000D01*
X6250000Y31500000D02*
X16000000Y21750000D01*
X29728000Y64992000D02*
X28686000Y63950000D01*
X28686000Y63950000D02*
X26758815Y63950000D01*
X26758815Y63950000D02*
X26750000Y63958815D01*
D47*
X26782020Y65066816D02*
X26782020Y63990835D01*
X26782020Y63990835D02*
X26750000Y63958815D01*
D45*
X58938000Y64992000D02*
X60970000Y64992000D01*
X56750000Y65000000D02*
X58930000Y65000000D01*
X58930000Y65000000D02*
X58938000Y64992000D01*
X42611795Y64774209D02*
X56524209Y64774209D01*
X56524209Y64774209D02*
X56750000Y65000000D01*
X40650000Y65214000D02*
X40864000Y65000000D01*
X40864000Y65000000D02*
X42386004Y65000000D01*
X42386004Y65000000D02*
X42611795Y64774209D01*
X38618000Y65214000D02*
X38832000Y65000000D01*
X38832000Y65000000D02*
X40436000Y65000000D01*
X40436000Y65000000D02*
X40650000Y65214000D01*
X31760000Y64960000D02*
X38364000Y64960000D01*
X38364000Y64960000D02*
X38618000Y65214000D01*
X29728000Y64992000D02*
X31728000Y64992000D01*
X31728000Y64992000D02*
X31760000Y64960000D01*
D47*
X11948000Y55729362D02*
X11968638Y55750000D01*
X11968638Y55750000D02*
X13959362Y55750000D01*
X13959362Y55750000D02*
X13980000Y55729362D01*
X13980000Y55729362D02*
X14000638Y55750000D01*
X14000638Y55750000D02*
X19158000Y55750000D01*
X19158000Y55750000D02*
X19568000Y55340000D01*
X21600000Y55340000D02*
X21190000Y55750000D01*
X21190000Y55750000D02*
X19978000Y55750000D01*
X19978000Y55750000D02*
X19568000Y55340000D01*
X29220000Y55911164D02*
X29058836Y55750000D01*
X29058836Y55750000D02*
X22010000Y55750000D01*
X22010000Y55750000D02*
X21600000Y55340000D01*
X31015692Y55911164D02*
X30854528Y55750000D01*
X29381164Y55750000D02*
X29220000Y55911164D01*
X98308000Y55816000D02*
X100684000Y55816000D01*
X100684000Y55816000D02*
X102250000Y54250000D01*
X102250000Y54250000D02*
X109500000Y54250000D01*
X109500000Y54250000D02*
X111066000Y55816000D01*
X111066000Y55816000D02*
X113040000Y55816000D01*
X59547600Y59068001D02*
X59547600Y60702400D01*
X59547600Y60702400D02*
X59500000Y60750000D01*
D46*
X36916200Y57483000D02*
X36916200Y58753000D01*
D45*
X60670239Y9500000D02*
X65250000Y9500000D01*
X65250000Y9500000D02*
X66454000Y9500000D01*
D47*
X65669000Y6632200D02*
X65669000Y9081000D01*
X65669000Y9081000D02*
X65250000Y9500000D01*
X42811795Y64974209D02*
X42611795Y64774209D01*
X42426004Y64960000D02*
X42611795Y64774209D01*
X58920209Y64974209D02*
X58938000Y64992000D01*
X116710229Y13918538D02*
X116710229Y15174227D01*
X116710229Y15174227D02*
X116760229Y15224227D01*
X116760229Y15224227D02*
X116760229Y15896229D01*
X116760229Y15896229D02*
X116156458Y16500000D01*
X116156458Y16500000D02*
X115500000Y16500000D01*
X115500000Y16500000D02*
X114500000Y15500000D01*
X114500000Y15500000D02*
X114760228Y15239772D01*
X114760228Y15239772D02*
X114760228Y13918538D01*
X113766967Y15500000D02*
X114500000Y15500000D01*
X108451818Y17113178D02*
X108451818Y16298182D01*
X108451818Y16298182D02*
X109250000Y15500000D01*
X109250000Y15500000D02*
X113766967Y15500000D01*
X113766967Y15500000D02*
X114110229Y15156738D01*
X114110229Y15156738D02*
X114110229Y13918538D01*
X115500000Y9800000D02*
X116800000Y9800000D01*
X116800000Y9800000D02*
X118290000Y11290000D01*
X118290000Y11290000D02*
X118960000Y11290000D01*
X116710229Y13918538D02*
X116710229Y12789771D01*
X116710229Y12789771D02*
X118210000Y11290000D01*
X118210000Y11290000D02*
X118960000Y11290000D01*
X108431443Y19234369D02*
X108431443Y20259369D01*
X108431443Y20259369D02*
X107690812Y21000000D01*
X107690812Y21000000D02*
X101881000Y21000000D01*
X101881000Y21000000D02*
X101264000Y20383000D01*
X101264000Y20383000D02*
X101264000Y19348000D01*
X108431443Y19234369D02*
X108431443Y17133553D01*
X108431443Y17133553D02*
X108451818Y17113178D01*
X127534000Y12017000D02*
X127534000Y13922000D01*
X62820499Y55881537D02*
X62688962Y55750000D01*
X62688962Y55750000D02*
X55416384Y55750000D01*
X55416384Y55750000D02*
X55106191Y55439807D01*
X31153788Y55773068D02*
X31015692Y55911164D01*
X115072000Y55816000D02*
X116097000Y55816000D01*
X116097000Y55816000D02*
X130058000Y55816000D01*
X81544000Y55832000D02*
X96260000Y55832000D01*
X96260000Y55832000D02*
X96276000Y55816000D01*
X98308000Y55816000D02*
X96276000Y55816000D01*
X115072000Y55816000D02*
X113040000Y55816000D01*
X132090000Y55816000D02*
X130058000Y55816000D01*
X69114000Y5540000D02*
X69114000Y4515000D01*
X69114000Y4515000D02*
X69379000Y4250000D01*
X69379000Y4250000D02*
X83250000Y4250000D01*
X83250000Y4250000D02*
X84500000Y5500000D01*
X65272000Y16462000D02*
X66288000Y16462000D01*
X66288000Y16462000D02*
X66750000Y16000000D01*
X66750000Y16000000D02*
X66750000Y15204000D01*
X66750000Y15204000D02*
X69454000Y12500000D01*
X85500000Y12500000D02*
X84499994Y12500000D01*
D45*
X69454000Y12500000D02*
X84499994Y12500000D01*
D47*
X84500000Y5500000D02*
X82584000Y5500000D01*
X82584000Y5500000D02*
X82544000Y5540000D01*
D45*
X66454000Y9500000D02*
X69454000Y12500000D01*
X58684000Y8538761D02*
X59709000Y8538761D01*
X59709000Y8538761D02*
X60670239Y9500000D01*
D47*
X102497000Y17080000D02*
X102804000Y17080000D01*
X102804000Y17080000D02*
X103592000Y17080000D01*
X101264000Y19348000D02*
X101264000Y18313000D01*
X101264000Y18313000D02*
X102497000Y17080000D01*
X103592000Y17080000D02*
X104492000Y17080000D01*
X45540000Y18050000D02*
X45540000Y18000000D01*
X65272000Y16462000D02*
X65272000Y14430000D01*
X65272000Y13522000D02*
X65272000Y14430000D01*
D45*
X17790000Y15225020D02*
X17564980Y15000000D01*
X17564980Y15000000D02*
X13788000Y15000000D01*
X13788000Y15000000D02*
X12456000Y13668000D01*
X20838000Y14954000D02*
X18061020Y14954000D01*
X18061020Y14954000D02*
X17790000Y15225020D01*
X51250000Y9096000D02*
X42500000Y9096000D01*
X42500000Y9096000D02*
X26357850Y9096000D01*
X42682000Y9620000D02*
X42682000Y9278000D01*
X42682000Y9278000D02*
X42500000Y9096000D01*
X54620000Y8538761D02*
X51807239Y8538761D01*
X51807239Y8538761D02*
X51250000Y9096000D01*
X56652000Y8538761D02*
X54620000Y8538761D01*
X58684000Y8538761D02*
X56652000Y8538761D01*
D48*
X61992000Y64992000D02*
X60970000Y64992000D01*
D47*
X65272000Y13522000D02*
X64399000Y12649000D01*
X64399000Y12649000D02*
X64399000Y11559800D01*
D45*
X25310000Y12144000D02*
X25254000Y12200000D01*
X25254000Y12200000D02*
X21800000Y12200000D01*
X21800000Y12200000D02*
X20838000Y13162000D01*
X20838000Y13162000D02*
X20838000Y14954000D01*
X26357850Y9096000D02*
X25310000Y10143850D01*
X25310000Y10143850D02*
X25310000Y12144000D01*
X14080000Y12000000D02*
X12412000Y13668000D01*
X14080000Y12000000D02*
X14080000Y12044000D01*
X5000000Y12000000D02*
X6470000Y12000000D01*
X6470000Y12000000D02*
X8138000Y13668000D01*
X8138000Y13668000D02*
X12412000Y13668000D01*
D48*
X64316450Y65694594D02*
X62694594Y65694594D01*
X62694594Y65694594D02*
X61992000Y64992000D01*
D47*
X83830000Y16986000D02*
X85546000Y16986000D01*
X85546000Y16986000D02*
X85862000Y17302000D01*
X85862000Y17302000D02*
X85862000Y18052000D01*
X76718000Y16986000D02*
X76593000Y16986000D01*
X76593000Y16986000D02*
X76579000Y17000000D01*
X83830000Y16986000D02*
X83188000Y16986000D01*
X83188000Y16986000D02*
X82142000Y18032000D01*
X82142000Y18032000D02*
X79184800Y18032000D01*
X76718000Y16986000D02*
X77490000Y16986000D01*
X77490000Y16986000D02*
X78536000Y18032000D01*
X78536000Y18032000D02*
X79184800Y18032000D01*
X97342414Y13750000D02*
X97342414Y14570002D01*
X97342414Y14570002D02*
X97622412Y14850000D01*
X97622412Y14850000D02*
X98000000Y14850000D01*
X98000000Y14850000D02*
X98327414Y15177414D01*
X98327414Y15177414D02*
X98327414Y15900000D01*
X98327414Y17865312D02*
X98327414Y15900000D01*
X97650000Y19950000D02*
X98327414Y19272586D01*
X98327414Y19272586D02*
X98327414Y17865312D01*
X98577414Y15827414D02*
X98577414Y15900000D01*
X96715726Y19952000D02*
X97498000Y19952000D01*
X96715726Y19952000D02*
X96717726Y19950000D01*
X97650000Y19950000D02*
X98200004Y20500004D01*
X96717726Y19950000D02*
X97650000Y19950000D01*
X98200004Y20500004D02*
X98250000Y20500004D01*
X96715726Y19952000D02*
X85862000Y19952000D01*
X92500000Y36040000D02*
X98250000Y36040000D01*
X98250000Y36040000D02*
X109500000Y36040000D01*
X92500000Y36040000D02*
X81250000Y36040000D01*
X81250000Y36040000D02*
X75500000Y36040000D01*
X24500000Y36040000D02*
X41500000Y36040000D01*
X126500000Y36040000D02*
X127916000Y36040000D01*
X127916000Y36040000D02*
X143500000Y36040000D01*
X109500000Y36040000D02*
X126500000Y36040000D01*
X58500000Y36040000D02*
X75500000Y36040000D01*
X41500000Y36040000D02*
X58500000Y36040000D01*
X58500000Y36040000D02*
X57500000Y36040000D01*
X143500000Y36040000D02*
X142084000Y36040000D01*
X53074191Y59425801D02*
X53000000Y59499992D01*
X53074191Y57439807D02*
X53074191Y59425801D01*
X92692414Y11500000D02*
X91692414Y11500000D01*
X91692414Y11500000D02*
X91500000Y11692414D01*
X91217300Y12630700D02*
X90400000Y12630700D01*
X91500000Y11692414D02*
X91500000Y12348000D01*
X91500000Y12348000D02*
X91217300Y12630700D01*
X88433414Y12639700D02*
X90391000Y12639700D01*
X90391000Y12639700D02*
X90400000Y12630700D01*
X81000000Y13749994D02*
X88223120Y13749994D01*
X88223120Y13749994D02*
X88433414Y13539700D01*
X88433414Y13539700D02*
X88433414Y12639700D01*
X47514178Y53773068D02*
X45450000Y53773068D01*
X45450000Y53773068D02*
X45450000Y52300000D01*
X45450000Y52300000D02*
X45500000Y52250000D01*
X60250000Y6500000D02*
X60250000Y4963998D01*
X60250000Y4963998D02*
X61963998Y3250000D01*
X61963998Y3250000D02*
X88269994Y3250000D01*
X89230006Y3250000D02*
X125750000Y3250000D01*
X88269994Y3250000D02*
X88269999Y3249995D01*
X88269999Y3249995D02*
X89230001Y3249995D01*
X125750000Y3250000D02*
X126000000Y3500000D01*
X89230001Y3249995D02*
X89230006Y3250000D01*
D45*
X60250000Y15750000D02*
X57000000Y15750000D01*
X57000000Y15750000D02*
X52250000Y20500000D01*
X52250000Y20500000D02*
X28750000Y20500000D01*
X28750000Y20500000D02*
X25750000Y23500000D01*
X12250000Y63000000D02*
X18250000Y63000000D01*
X25750000Y23500000D02*
X16000000Y23500000D01*
X16000000Y23500000D02*
X7500000Y32000000D01*
X7500000Y32000000D02*
X7500000Y58250000D01*
X7500000Y58250000D02*
X12250000Y63000000D01*
D46*
X21412000Y66412000D02*
X21412000Y64976000D01*
X24144000Y66992000D02*
X21992000Y66992000D01*
X21992000Y66992000D02*
X21412000Y66412000D01*
D47*
X110451818Y17113178D02*
X118216822Y17113178D01*
X118216822Y17113178D02*
X124040000Y11290000D01*
D45*
X58938000Y66992000D02*
X51250000Y66992000D01*
X51250000Y66992000D02*
X29728000Y66992000D01*
X60970000Y66992000D02*
X58938000Y66992000D01*
D48*
X64062450Y66964594D02*
X60997406Y66964594D01*
D47*
X60997406Y66964594D02*
X60970000Y66992000D01*
D45*
X29728000Y66992000D02*
X24144000Y66992000D01*
D47*
X29728000Y66992000D02*
X28500000Y66992000D01*
X28500000Y66992000D02*
X27500000Y66992000D01*
X24144000Y66992000D02*
X28500000Y66992000D01*
X27732021Y65066816D02*
X27732021Y66759979D01*
X27732021Y66759979D02*
X27500000Y66992000D01*
X124040000Y11290000D02*
X124903599Y10426401D01*
X124903599Y10426401D02*
X128968401Y10426401D01*
X128968401Y10426401D02*
X129534000Y10992000D01*
X129534000Y10992000D02*
X129534000Y12017000D01*
X62750000Y23324990D02*
X80175010Y23324990D01*
X81000000Y22500000D02*
X81250000Y22500000D01*
X80175010Y23324990D02*
X81000000Y22500000D01*
X106492000Y17080000D02*
X106492000Y15042000D01*
X106492000Y15042000D02*
X106450000Y15000000D01*
X45750000Y24849981D02*
X42521135Y24849981D01*
X46220919Y24449980D02*
X46150001Y24449980D01*
X46150001Y24449980D02*
X45750000Y24849981D01*
X62750000Y23324990D02*
X62100000Y23974990D01*
X62100000Y23974990D02*
X46695909Y23974990D01*
X46695909Y23974990D02*
X46220919Y24449980D01*
X46220919Y24449980D02*
X46220919Y24529081D01*
X42521135Y24849981D02*
X41469865Y25901251D01*
X41469865Y25901251D02*
X31707209Y25901251D01*
X30025010Y27724990D02*
X29750000Y27724990D01*
X29750000Y27724990D02*
X20032534Y27724990D01*
X31707209Y25901251D02*
X29883470Y27724990D01*
X29883470Y27724990D02*
X29750000Y27724990D01*
X32082522Y26000000D02*
X31750000Y26000000D01*
X13474990Y50973010D02*
X11948000Y52500000D01*
X20032534Y27724990D02*
X13474990Y34282534D01*
X13474990Y34282534D02*
X13474990Y50973010D01*
X11948000Y52500000D02*
X11948000Y53729362D01*
X32082522Y26000000D02*
X31805958Y26000000D01*
X31805958Y26000000D02*
X31707209Y25901251D01*
X81250000Y22500000D02*
X98750000Y22500000D01*
X98750000Y22500000D02*
X99250000Y22000000D01*
X99250000Y22000000D02*
X99750000Y22000000D01*
X110500000Y21151472D02*
X110500000Y22000000D01*
X110500000Y20068557D02*
X110500000Y21151472D01*
X110431443Y20000000D02*
X110500000Y20068557D01*
X99750000Y22000000D02*
X110500000Y22000000D01*
X99500000Y21750000D02*
X99750000Y22000000D01*
X74349999Y18599999D02*
X73750000Y18000000D01*
X76718000Y18986000D02*
X74736000Y18986000D01*
D45*
X72901472Y18000000D02*
X73750000Y18000000D01*
X62500000Y18000000D02*
X72901472Y18000000D01*
X60962000Y16462000D02*
X62500000Y18000000D01*
D47*
X74736000Y18986000D02*
X74349999Y18599999D01*
X131324990Y25500000D02*
X115058162Y25500000D01*
X115058162Y25500000D02*
X115029081Y25529081D01*
X130970919Y25529081D02*
X131000000Y25500000D01*
X112160231Y19557338D02*
X112102893Y19500000D01*
X112102893Y19500000D02*
X110931443Y19500000D01*
X110931443Y19500000D02*
X110431443Y20000000D01*
X110431443Y19234369D02*
X110431443Y20000000D01*
X110451818Y17113178D02*
X110451818Y19213994D01*
X110451818Y19213994D02*
X110431443Y19234369D01*
X110431443Y17133553D02*
X110451818Y17113178D01*
X129534000Y13922000D02*
X131140000Y13922000D01*
X129534000Y12017000D02*
X129534000Y13922000D01*
X57312400Y57167999D02*
X55377999Y57167999D01*
X55377999Y57167999D02*
X55106191Y57439807D01*
X53074191Y57439807D02*
X55106191Y57439807D01*
X130058000Y53816000D02*
X130058000Y52308000D01*
X130058000Y52308000D02*
X130000000Y52250000D01*
X113040000Y53816000D02*
X113040000Y52290000D01*
X113040000Y52290000D02*
X113000000Y52250000D01*
X96276000Y53816000D02*
X96276000Y52276000D01*
X96276000Y52276000D02*
X96250000Y52250000D01*
X79512000Y53816000D02*
X79512000Y52262000D01*
X79512000Y52262000D02*
X79500000Y52250000D01*
X62820499Y53881537D02*
X62820499Y52679501D01*
X62820499Y52679501D02*
X63000000Y52500000D01*
X29220000Y52530000D02*
X29250000Y52500000D01*
X29220000Y53911164D02*
X29220000Y52530000D01*
X11948000Y53729362D02*
X13980000Y53729362D01*
X16022578Y53774362D02*
X14025000Y53774362D01*
X14025000Y53774362D02*
X13980000Y53729362D01*
X29220000Y53911164D02*
X31015692Y53911164D01*
X33047692Y53734000D02*
X31192856Y53734000D01*
X31192856Y53734000D02*
X31015692Y53911164D01*
X49546178Y53818068D02*
X47559178Y53818068D01*
X47559178Y53818068D02*
X47514178Y53773068D01*
X62820499Y53881537D02*
X64852499Y53881537D01*
X66884499Y53926537D02*
X64897499Y53926537D01*
X64897499Y53926537D02*
X64852499Y53881537D01*
X83576000Y53734000D02*
X81642000Y53734000D01*
X81642000Y53734000D02*
X81544000Y53832000D01*
X79512000Y53816000D02*
X81528000Y53816000D01*
X81528000Y53816000D02*
X81544000Y53832000D01*
X96276000Y53816000D02*
X98308000Y53816000D01*
X100340000Y53734000D02*
X98390000Y53734000D01*
X98390000Y53734000D02*
X98308000Y53816000D01*
X117213840Y53892074D02*
X115148074Y53892074D01*
X115148074Y53892074D02*
X115072000Y53816000D01*
X113040000Y53816000D02*
X115072000Y53816000D01*
X132090000Y53816000D02*
X130058000Y53816000D01*
X134122000Y53734000D02*
X132172000Y53734000D01*
X132172000Y53734000D02*
X132090000Y53816000D01*
D46*
X80984006Y13734000D02*
X81000000Y13749994D01*
X79258000Y13734000D02*
X80984006Y13734000D01*
D47*
X60962000Y16462000D02*
X61000000Y16500000D01*
X61000000Y16500000D02*
X62980000Y16500000D01*
X62980000Y16500000D02*
X63018000Y16462000D01*
X76345000Y19234000D02*
X76593000Y18986000D01*
X76593000Y18986000D02*
X76718000Y18986000D01*
X106492000Y17080000D02*
X106492000Y18848000D01*
X106492000Y18848000D02*
X106492000Y19200000D01*
X106492000Y19200000D02*
X106344000Y19348000D01*
X63272000Y14430000D02*
X63272000Y16462000D01*
X63129000Y11559800D02*
X63129000Y14287000D01*
X63129000Y14287000D02*
X63272000Y14430000D01*
D45*
X54620000Y6538761D02*
X51267239Y6538761D01*
X51267239Y6538761D02*
X51250000Y6556000D01*
X56652000Y6538761D02*
X54620000Y6538761D01*
X58684000Y6538761D02*
X56652000Y6538761D01*
D47*
X43500000Y13500000D02*
X45750000Y15750000D01*
X45750000Y15750000D02*
X47250000Y15750000D01*
X47250000Y15750000D02*
X60250000Y15750000D01*
D45*
X60250000Y15750000D02*
X60962000Y16462000D01*
X58684000Y6538761D02*
X60211239Y6538761D01*
D47*
X60211239Y6538761D02*
X60250000Y6500000D01*
X58666761Y6556000D02*
X58684000Y6538761D01*
X79184800Y18982001D02*
X76751999Y18982001D01*
X76751999Y18982001D02*
X76702000Y19032000D01*
X79365521Y19046344D02*
X79394400Y19075223D01*
X11952638Y53734000D02*
X11948000Y53729362D01*
X19568000Y57340000D02*
X19708000Y57200000D01*
X19708000Y57200000D02*
X21460000Y57200000D01*
X21460000Y57200000D02*
X21600000Y57340000D01*
X17500000Y57250000D02*
X19478000Y57250000D01*
D45*
X19478000Y57250000D02*
X19568000Y57340000D01*
D47*
X23784400Y57167999D02*
X21772001Y57167999D01*
X21772001Y57167999D02*
X21600000Y57340000D01*
D45*
X139926000Y6556000D02*
X141742000Y6556000D01*
X135620000Y2250000D02*
X139926000Y6556000D01*
X12362400Y2250000D02*
X135620000Y2250000D01*
X7294400Y7318000D02*
X12362400Y2250000D01*
X11818000Y7318000D02*
X7294400Y7318000D01*
X5152400Y9460000D02*
X7294400Y7318000D01*
X5000000Y9460000D02*
X5152400Y9460000D01*
X14080000Y9460000D02*
X13960000Y9460000D01*
X13960000Y9460000D02*
X11818000Y7318000D01*
X14080000Y9460000D02*
X14080000Y9450000D01*
D47*
X111490600Y62873002D02*
X109833998Y62873002D01*
X109833998Y62873002D02*
X109493000Y63214000D01*
X134952810Y59500000D02*
X128348528Y59500000D01*
X135326000Y59873190D02*
X134952810Y59500000D01*
X128348528Y59500000D02*
X127500000Y59500000D01*
X135326000Y60673240D02*
X135326000Y59873190D01*
X101064000Y65186000D02*
X103727999Y67849999D01*
X122900029Y67849999D02*
X123150009Y67600019D01*
X123150009Y67600019D02*
X123750008Y67000020D01*
X103727999Y67849999D02*
X122900029Y67849999D01*
X133426000Y66992760D02*
X127507220Y66992760D01*
X127507220Y66992760D02*
X127500000Y66999980D01*
X101064000Y65186000D02*
X102582000Y63668000D01*
X102582000Y63668000D02*
X104404000Y63668000D01*
X99832000Y65186000D02*
X101064000Y65186000D01*
X108468000Y63214000D02*
X109493000Y63214000D01*
X106436000Y63214000D02*
X108468000Y63214000D01*
X104750000Y63436000D02*
X105064000Y63436000D01*
X105064000Y63436000D02*
X105286000Y63214000D01*
X105286000Y63214000D02*
X106436000Y63214000D01*
X104404000Y63668000D02*
X104518000Y63668000D01*
X104518000Y63668000D02*
X104750000Y63436000D01*
X99578000Y65186000D02*
X97443599Y65186000D01*
X97443599Y65186000D02*
X97393600Y65136001D01*
D48*
X73117550Y65694594D02*
X69694594Y65694594D01*
X69694594Y65694594D02*
X69250000Y65250000D01*
X69250000Y65250000D02*
X69250000Y58500000D01*
X69250000Y58500000D02*
X69675406Y58074594D01*
X69675406Y58074594D02*
X73117550Y58074594D01*
D46*
X73117550Y58074594D02*
X74675406Y58074594D01*
X74675406Y58074594D02*
X75328000Y57422000D01*
X75328000Y57422000D02*
X76210000Y57422000D01*
D47*
X104404000Y59604000D02*
X104354000Y59604000D01*
X104354000Y59604000D02*
X104250000Y59500000D01*
X104250000Y59500000D02*
X91750000Y59500000D01*
X91750000Y59500000D02*
X86258000Y64992000D01*
X86258000Y64992000D02*
X78242000Y64992000D01*
X76210000Y64992000D02*
X78242000Y64992000D01*
X108468000Y59404000D02*
X108372000Y59500000D01*
X108372000Y59500000D02*
X106532000Y59500000D01*
X106532000Y59500000D02*
X106436000Y59404000D01*
X106436000Y59404000D02*
X106340000Y59500000D01*
X106340000Y59500000D02*
X104508000Y59500000D01*
X104508000Y59500000D02*
X104404000Y59604000D01*
X108468000Y59408000D02*
X108468000Y58000000D01*
X73117550Y65694594D02*
X74555406Y65694594D01*
X74555406Y65694594D02*
X75274000Y64976000D01*
X75274000Y64976000D02*
X76448000Y64976000D01*
X76448000Y64976000D02*
X76464000Y64992000D01*
X103250000Y40500000D02*
X120000000Y40500000D01*
X120000000Y40500000D02*
X137000000Y40500000D01*
X86250000Y40500000D02*
X103250000Y40500000D01*
X69250000Y40500000D02*
X86250000Y40500000D01*
X52250000Y40500000D02*
X69250000Y40500000D01*
X35250000Y40500000D02*
X52250000Y40500000D01*
X35250000Y40500000D02*
X18250000Y40500000D01*
X137250000Y40500000D02*
X137000000Y40500000D01*
D46*
X80950001Y66299999D02*
X81250000Y66000000D01*
X80250000Y67008000D02*
X80250000Y67000000D01*
X80250000Y67000000D02*
X80950001Y66299999D01*
D47*
X86742000Y67008000D02*
X80250000Y67008000D01*
X80250000Y67008000D02*
X79283000Y67008000D01*
D46*
X79954000Y59388000D02*
X81138000Y59388000D01*
X81138000Y59388000D02*
X81250000Y59500000D01*
D47*
X92546000Y61204000D02*
X88500000Y65250000D01*
X88500000Y65250000D02*
X86742000Y67008000D01*
X92720000Y65059000D02*
X88691000Y65059000D01*
X88691000Y65059000D02*
X88500000Y65250000D01*
X104404000Y61204000D02*
X92546000Y61204000D01*
X79283000Y67008000D02*
X79267000Y66992000D01*
X79267000Y66992000D02*
X78242000Y66992000D01*
D46*
X95158400Y65136001D02*
X95158400Y66812400D01*
X95158400Y66812400D02*
X95326000Y66980000D01*
D47*
X76210000Y66992000D02*
X78242000Y66992000D01*
X73117550Y66964594D02*
X76182594Y66964594D01*
X76182594Y66964594D02*
X76210000Y66992000D01*
X111490600Y62223001D02*
X110473001Y62223001D01*
X110473001Y62223001D02*
X109500000Y61250000D01*
X109500000Y61250000D02*
X108500000Y61250000D01*
X108500000Y61250000D02*
X108468000Y61282000D01*
X108468000Y61282000D02*
X108468000Y61404000D01*
X108468000Y61404000D02*
X108314000Y61250000D01*
X108314000Y61250000D02*
X106590000Y61250000D01*
X106590000Y61250000D02*
X106436000Y61404000D01*
X106436000Y61404000D02*
X106282000Y61250000D01*
X106282000Y61250000D02*
X104450000Y61250000D01*
X73162000Y67008000D02*
X73170000Y67000000D01*
X104450000Y61250000D02*
X104404000Y61204000D01*
X95158400Y65136001D02*
X95081399Y65059000D01*
X95081399Y65059000D02*
X92720000Y65059000D01*
X121676000Y66484000D02*
X122516000Y66484000D01*
X124750000Y66000000D02*
X126750000Y68000000D01*
X122516000Y66484000D02*
X123000000Y66000000D01*
X123000000Y66000000D02*
X124750000Y66000000D01*
X126750000Y68000000D02*
X135118810Y68000000D01*
X135118810Y68000000D02*
X135326000Y67792810D01*
X135326000Y67792810D02*
X135326000Y66992760D01*
X121676000Y66484000D02*
X121801000Y66484000D01*
X101064000Y63186000D02*
X101150001Y63099999D01*
X99832000Y63186000D02*
X101064000Y63186000D01*
X101150001Y63099999D02*
X101750000Y62500000D01*
X92720000Y63059000D02*
X93309000Y63059000D01*
X93309000Y63059000D02*
X94436000Y64186000D01*
X94436000Y64186000D02*
X95158400Y64186000D01*
X99064000Y63186000D02*
X99832000Y63186000D01*
X99064000Y63186000D02*
X98064000Y64186000D01*
X98064000Y64186000D02*
X95158400Y64186000D01*
X106436000Y65214000D02*
X104458000Y65214000D01*
X104458000Y65214000D02*
X104404000Y65268000D01*
X108468000Y65214000D02*
X106436000Y65214000D01*
X108500000Y66750000D02*
X108500000Y65246000D01*
X108500000Y65246000D02*
X108468000Y65214000D01*
X116000000Y66500000D02*
X116016000Y66484000D01*
X116016000Y66484000D02*
X121676000Y66484000D01*
X112627200Y63523001D02*
X113023001Y63523001D01*
X113023001Y63523001D02*
X116000000Y66500000D01*
X121676000Y60674000D02*
X120424000Y60674000D01*
X120424000Y60674000D02*
X119750000Y60000000D01*
X119750000Y60000000D02*
X114000000Y60000000D01*
X114000000Y60000000D02*
X113250000Y60750000D01*
X113250000Y60750000D02*
X113250000Y63250000D01*
X113250000Y63250000D02*
X112976999Y63523001D01*
X112976999Y63523001D02*
X112627200Y63523001D01*
X121676000Y60674000D02*
X133425240Y60674000D01*
X133425240Y60674000D02*
X133426000Y60673240D01*
X108732000Y65268000D02*
X110476999Y63523001D01*
X110476999Y63523001D02*
X111490600Y63523001D01*
X112627200Y63523001D02*
X111490600Y63523001D01*
D46*
X128346000Y64976000D02*
X128120000Y64750000D01*
X128120000Y64750000D02*
X126458000Y64750000D01*
X126458000Y64750000D02*
X126248000Y64960000D01*
X126248000Y64960000D02*
X126038000Y64750000D01*
X126038000Y64750000D02*
X121942000Y64750000D01*
X121942000Y64750000D02*
X121676000Y64484000D01*
X117129400Y64172999D02*
X120000000Y64172999D01*
X120000000Y64172999D02*
X120577001Y64750000D01*
X120577001Y64750000D02*
X120577001Y64707999D01*
X120577001Y64707999D02*
X120619002Y64750000D01*
X120619002Y64750000D02*
X121410000Y64750000D01*
X121410000Y64750000D02*
X121676000Y64484000D01*
X128346000Y65000000D02*
X128096000Y64750000D01*
X126248000Y62960000D02*
X126288000Y63000000D01*
X126288000Y63000000D02*
X128036000Y63000000D01*
X126248000Y62960000D02*
X126208000Y63000000D01*
X122002000Y63000000D02*
X121676000Y62674000D01*
X126208000Y63000000D02*
X122002000Y63000000D01*
X117129400Y63522998D02*
X120227002Y63522998D01*
X120227002Y63522998D02*
X120750000Y63000000D01*
X120750000Y63000000D02*
X121350000Y63000000D01*
X121350000Y63000000D02*
X121676000Y62674000D01*
X128346000Y62690000D02*
X128036000Y63000000D01*
D47*
X96327414Y15900000D02*
X96542414Y15685000D01*
X96542414Y15685000D02*
X96542414Y13750000D01*
X96327414Y17865312D02*
X96327414Y15900000D01*
X96327414Y17865312D02*
X96327414Y18672586D01*
X96327414Y18672586D02*
X96014000Y18986000D01*
X96014000Y18986000D02*
X95750000Y18986000D01*
X95750000Y18986000D02*
X83830000Y18986000D01*
X96577414Y13785000D02*
X96542414Y13750000D01*
X83830000Y20170000D02*
X83250000Y20750000D01*
X83830000Y18986000D02*
X83830000Y20170000D01*
X81420000Y18982001D02*
X83826001Y18982001D01*
X83826001Y18982001D02*
X83830000Y18986000D01*
X43444000Y26750000D02*
X45750000Y26750000D01*
X30500000Y30500000D02*
X32600000Y28400000D01*
X43444000Y26750000D02*
X41794000Y28400000D01*
X41794000Y28400000D02*
X32600000Y28400000D01*
X111750000Y26712980D02*
X110901472Y26712980D01*
X94962980Y26750000D02*
X95000000Y26712980D01*
X143962980Y26712980D02*
X129848528Y26712980D01*
X110901472Y26712980D02*
X95000000Y26712980D01*
X79750000Y26750000D02*
X94962980Y26750000D01*
X129000000Y26712980D02*
X128151472Y26712980D01*
X129848528Y26712980D02*
X129000000Y26712980D01*
X146000000Y28750000D02*
X143962980Y26712980D01*
X128151472Y26712980D02*
X111750000Y26712980D01*
X62750000Y26750000D02*
X79750000Y26750000D01*
X45750000Y26750000D02*
X62750000Y26750000D01*
X83764001Y18982001D02*
X83814000Y19032000D01*
X83869287Y19075223D02*
X83882166Y19062344D01*
D46*
X92692414Y9100000D02*
X84900000Y9100000D01*
X84900000Y9100000D02*
X84900000Y9108000D01*
X84900000Y9108000D02*
X84846000Y9162000D01*
X84846000Y9162000D02*
X80616860Y9162000D01*
X80616860Y9162000D02*
X80550860Y9096000D01*
X85034000Y9096000D02*
X85100000Y9162000D01*
X80550860Y9096000D02*
X80550860Y5578860D01*
X80550860Y5578860D02*
X80512000Y5540000D01*
X92692414Y9900000D02*
X92000000Y9900000D01*
X92000000Y9900000D02*
X91700000Y9600000D01*
X91700000Y9600000D02*
X87150000Y9600000D01*
X87150000Y9600000D02*
X85688000Y11062000D01*
X85688000Y11062000D02*
X84846000Y11062000D01*
X84846000Y11062000D02*
X71518850Y11062000D01*
X70853140Y9096000D02*
X70853140Y5816860D01*
X70853140Y5816860D02*
X71130000Y5540000D01*
X70853140Y10396290D02*
X70853140Y9096000D01*
X71518850Y11062000D02*
X70853140Y10396290D01*
X71071478Y5598522D02*
X71130000Y5540000D01*
X42611795Y63174209D02*
X45075791Y63174209D01*
X45075791Y63174209D02*
X46450000Y61800000D01*
X46450000Y61800000D02*
X46450000Y60950000D01*
D47*
X41843800Y61293000D02*
X41843800Y61843800D01*
X42500000Y62500000D02*
X42500000Y63062414D01*
X41843800Y61843800D02*
X42500000Y62500000D01*
X42500000Y63062414D02*
X42611795Y63174209D01*
X42611795Y63174209D02*
X42437586Y63000000D01*
X42437586Y63000000D02*
X40864000Y63000000D01*
X40864000Y63000000D02*
X40650000Y63214000D01*
X38618000Y63214000D02*
X38832000Y63000000D01*
X38832000Y63000000D02*
X40436000Y63000000D01*
X40436000Y63000000D02*
X40650000Y63214000D01*
X27732021Y62831616D02*
X27900405Y63000000D01*
X27900405Y63000000D02*
X31720000Y63000000D01*
X31720000Y63000000D02*
X31760000Y62960000D01*
X31760000Y62960000D02*
X31800000Y63000000D01*
X31800000Y63000000D02*
X38404000Y63000000D01*
X38404000Y63000000D02*
X38618000Y63214000D01*
D46*
X130246000Y64976000D02*
X134358220Y64976000D01*
X134358220Y64976000D02*
X134376000Y64993780D01*
X138506000Y64976000D02*
X134393780Y64976000D01*
X134393780Y64976000D02*
X134376000Y64993780D01*
X138506000Y62690000D02*
X134393780Y62690000D01*
X134393780Y62690000D02*
X134376000Y62672220D01*
X130246000Y62690000D02*
X134358220Y62690000D01*
X134358220Y62690000D02*
X134376000Y62672220D01*
X22000000Y47250000D02*
X24448000Y47250000D01*
X24448000Y47250000D02*
X24648000Y47450000D01*
X26750000Y42250000D02*
X24768000Y42250000D01*
X24768000Y42250000D02*
X24648000Y42370000D01*
X39000000Y47250000D02*
X41466000Y47250000D01*
X41466000Y47250000D02*
X41666000Y47450000D01*
X43500000Y42250000D02*
X41786000Y42250000D01*
X41786000Y42250000D02*
X41666000Y42370000D01*
X56000000Y47250000D02*
X58193714Y47250000D01*
X58193714Y47250000D02*
X58393714Y47450000D01*
X60250000Y42250000D02*
X58513714Y42250000D01*
X58513714Y42250000D02*
X58393714Y42370000D01*
X73000000Y47250000D02*
X75248000Y47250000D01*
X75248000Y47250000D02*
X75448000Y47450000D01*
X77250000Y42250000D02*
X75568000Y42250000D01*
X75568000Y42250000D02*
X75448000Y42370000D01*
X90000000Y47250000D02*
X91939428Y47250000D01*
X91939428Y47250000D02*
X92139428Y47450000D01*
X94000000Y42250000D02*
X92259428Y42250000D01*
X92259428Y42250000D02*
X92139428Y42370000D01*
X109312285Y47250000D02*
X110325736Y47250000D01*
X109062285Y47500000D02*
X109312285Y47250000D01*
X110325736Y47250000D02*
X110750000Y47250000D01*
X109132285Y42250000D02*
X111000000Y42250000D01*
X109012285Y42370000D02*
X110880000Y42370000D01*
X110880000Y42370000D02*
X111000000Y42250000D01*
X124000000Y47250000D02*
X125685142Y47250000D01*
X125685142Y47250000D02*
X125885142Y47450000D01*
X125885142Y42370000D02*
X126005142Y42250000D01*
X126005142Y42250000D02*
X127750000Y42250000D01*
X94142414Y5250000D02*
X94142414Y6557586D01*
X94142414Y6557586D02*
X94100000Y6600000D01*
X83500000Y7000000D02*
X85750004Y7000000D01*
X141000000Y47250000D02*
X142557999Y47250000D01*
X142557999Y47250000D02*
X142757999Y47450000D01*
X144750000Y42250000D02*
X142877999Y42250000D01*
X142877999Y42250000D02*
X142757999Y42370000D01*
X8500000Y4500000D02*
X6080000Y6920000D01*
X6080000Y6920000D02*
X5000000Y6920000D01*
X62749962Y4000000D02*
X66825736Y4000000D01*
X61999962Y4750000D02*
X62749962Y4000000D01*
X66825736Y4000000D02*
X67250000Y4000000D01*
X63129000Y6632200D02*
X63129000Y5908300D01*
X63129000Y5908300D02*
X61999962Y4779262D01*
X61999962Y4779262D02*
X61999962Y4750000D01*
X5000000Y4380000D02*
X7119992Y4380000D01*
X8200001Y3299991D02*
X8500000Y2999992D01*
X7119992Y4380000D02*
X8200001Y3299991D01*
X66075736Y4750000D02*
X66500000Y4750000D01*
X65557300Y4750000D02*
X66075736Y4750000D01*
X64399000Y5908300D02*
X65557300Y4750000D01*
X64399000Y6632200D02*
X64399000Y5908300D01*
X106250000Y8750000D02*
X105100000Y9900000D01*
X105100000Y9900000D02*
X101192414Y9900000D01*
X118960000Y8750000D02*
X106250000Y8750000D01*
X118960000Y8750000D02*
X119000000Y8750000D01*
X119000000Y8750000D02*
X118908300Y8841700D01*
X97950000Y8300000D02*
X98000000Y8250000D01*
X92692414Y8300000D02*
X97950000Y8300000D01*
X105500000Y8125010D02*
X114874990Y8125010D01*
X114874990Y8125010D02*
X115750000Y7250000D01*
X115750000Y7250000D02*
X120000000Y7250000D01*
X120000000Y7250000D02*
X120250000Y7500000D01*
X120250000Y7500000D02*
X120250000Y10040000D01*
X120250000Y10040000D02*
X121500000Y11290000D01*
X90500000Y6500000D02*
X90700000Y6700000D01*
X90700000Y6700000D02*
X92692414Y6700000D01*
X90500000Y4386410D02*
X90500000Y6500000D01*
X90661390Y4225020D02*
X90500000Y4386410D01*
X115225020Y4225020D02*
X90661390Y4225020D01*
X121500000Y5250000D02*
X121500000Y6516000D01*
X121500000Y6516000D02*
X121266000Y6750000D01*
X121266000Y6750000D02*
X117750000Y6750000D01*
X117750000Y6750000D02*
X115225020Y4225020D01*
X90863590Y7500000D02*
X92692414Y7500000D01*
X90000000Y4250000D02*
X90000000Y6636410D01*
X90000000Y6636410D02*
X90863590Y7500000D01*
X90474990Y3775010D02*
X90000000Y4250000D01*
X122717410Y3775010D02*
X90474990Y3775010D01*
X122717410Y3775010D02*
X124040000Y5097600D01*
X124040000Y5097600D02*
X124040000Y5250000D01*
D45*
X141742000Y11636000D02*
X143114000Y11636000D01*
X143114000Y11636000D02*
X145290000Y9460000D01*
X145290000Y9460000D02*
X146000000Y9460000D01*
D46*
X95158400Y63235999D02*
X95158400Y62158400D01*
X95158400Y62158400D02*
X95000000Y62000000D01*
X97226000Y66980000D02*
X98480000Y66980000D01*
X98480000Y66980000D02*
X98500000Y67000000D01*
X76210000Y59322000D02*
X77988000Y59322000D01*
X77988000Y59322000D02*
X78054000Y59388000D01*
X73117550Y59344594D02*
X76187406Y59344594D01*
X76187406Y59344594D02*
X76210000Y59322000D01*
X119222999Y65472999D02*
X119250000Y65500000D01*
X117129400Y65472999D02*
X119222999Y65472999D01*
X145250000Y46250000D02*
X145250000Y61500000D01*
X145250000Y61500000D02*
X141750000Y65000000D01*
X141750000Y65000000D02*
X140406000Y65000000D01*
X111750000Y43750000D02*
X123000000Y43750000D01*
X123000000Y43750000D02*
X128000000Y43750000D01*
X145250000Y45000000D02*
X145250000Y46250000D01*
X142757999Y44910000D02*
X144023999Y44910000D01*
X144023999Y44910000D02*
X145250000Y46136001D01*
X145250000Y46136001D02*
X145250000Y46250000D01*
X44000000Y43750000D02*
X44500000Y43750000D01*
X44500000Y43750000D02*
X61250000Y43750000D01*
X44250000Y43750000D02*
X44500000Y43750000D01*
X61250000Y43750000D02*
X62000000Y43750000D01*
X61000000Y43750000D02*
X61250000Y43750000D01*
X111000000Y43750000D02*
X111750000Y43750000D01*
X111500000Y43750000D02*
X111750000Y43750000D01*
X128000000Y43750000D02*
X128500000Y43750000D01*
X128500000Y43750000D02*
X144000000Y43750000D01*
X128250000Y43750000D02*
X128500000Y43750000D01*
X145160000Y44910000D02*
X145250000Y45000000D01*
X127090000Y44910000D02*
X128250000Y43750000D01*
X125885142Y44910000D02*
X127090000Y44910000D01*
X94750000Y43750000D02*
X111000000Y43750000D01*
X144000000Y43750000D02*
X145250000Y45000000D01*
X109012285Y44910000D02*
X110340000Y44910000D01*
X110340000Y44910000D02*
X111500000Y43750000D01*
X92139428Y44910000D02*
X93590000Y44910000D01*
X93590000Y44910000D02*
X94000000Y44500000D01*
X94000000Y44500000D02*
X94750000Y43750000D01*
X94000000Y43750000D02*
X94750000Y43750000D01*
X78000000Y43750000D02*
X94000000Y43750000D01*
X75448000Y44910000D02*
X76840000Y44910000D01*
X76840000Y44910000D02*
X78000000Y43750000D01*
X58393714Y44910000D02*
X59840000Y44910000D01*
X59840000Y44910000D02*
X61000000Y43750000D01*
X41666000Y44910000D02*
X43090000Y44910000D01*
X43090000Y44910000D02*
X44250000Y43750000D01*
X24648000Y44910000D02*
X26090000Y44910000D01*
X26090000Y44910000D02*
X27250000Y43750000D01*
X27250000Y43750000D02*
X44000000Y43750000D01*
X62000000Y43750000D02*
X78000000Y43750000D01*
X140466000Y62750000D02*
X140406000Y62690000D01*
X143250000Y62750000D02*
X140466000Y62750000D01*
X144750000Y61250000D02*
X143250000Y62750000D01*
X144750000Y51000000D02*
X144750000Y61250000D01*
X144750000Y50000000D02*
X144750000Y51000000D01*
X142757999Y49990000D02*
X144023999Y49990000D01*
X144023999Y49990000D02*
X144750000Y50716001D01*
X144750000Y50716001D02*
X144750000Y51000000D01*
X44000000Y48750000D02*
X44500000Y48750000D01*
X44500000Y48750000D02*
X60000000Y48750000D01*
X44250000Y48750000D02*
X44500000Y48750000D01*
X60000000Y48750000D02*
X61250000Y48750000D01*
X61250000Y48750000D02*
X78000000Y48750000D01*
X61000000Y48750000D02*
X61250000Y48750000D01*
X94000000Y48750000D02*
X95000000Y48750000D01*
X95000000Y48750000D02*
X111000000Y48750000D01*
X94750000Y48750000D02*
X95000000Y48750000D01*
X111000000Y48750000D02*
X111750000Y48750000D01*
X111750000Y48750000D02*
X128000000Y48750000D01*
X111500000Y48750000D02*
X111750000Y48750000D01*
X128000000Y48750000D02*
X128750000Y48750000D01*
X128750000Y48750000D02*
X144000000Y48750000D01*
X128500000Y48750000D02*
X128750000Y48750000D01*
X144750000Y49500000D02*
X144750000Y50000000D01*
X127260000Y49990000D02*
X128500000Y48750000D01*
X125885142Y49990000D02*
X127260000Y49990000D01*
X109012285Y49990000D02*
X110260000Y49990000D01*
X110260000Y49990000D02*
X111500000Y48750000D01*
X92139428Y49990000D02*
X93510000Y49990000D01*
X93510000Y49990000D02*
X94750000Y48750000D01*
X75448000Y49990000D02*
X76760000Y49990000D01*
X76760000Y49990000D02*
X78000000Y48750000D01*
X58393714Y49990000D02*
X59760000Y49990000D01*
X59760000Y49990000D02*
X61000000Y48750000D01*
X41666000Y49990000D02*
X43010000Y49990000D01*
X43010000Y49990000D02*
X44250000Y48750000D01*
X24648000Y49990000D02*
X26010000Y49990000D01*
X26010000Y49990000D02*
X27250000Y48750000D01*
X27250000Y48750000D02*
X44000000Y48750000D01*
X144000000Y48750000D02*
X144750000Y49500000D01*
X78000000Y48750000D02*
X94000000Y48750000D01*
X16022578Y51874362D02*
X16022578Y50000578D01*
X16022578Y50000578D02*
X16012000Y49990000D01*
X90799993Y27799999D02*
X90499994Y27500000D01*
X134799999Y27799999D02*
X90799993Y27799999D01*
X143500000Y33500000D02*
X140500000Y33500000D01*
X140500000Y33500000D02*
X134799999Y27799999D01*
X101192414Y11500000D02*
X102042414Y11500000D01*
X102042414Y11500000D02*
X102750000Y12207586D01*
X102750000Y12207586D02*
X102750000Y12575736D01*
X102750000Y12575736D02*
X102750000Y13000000D01*
X33030000Y49990000D02*
X33030000Y51816308D01*
X33030000Y51816308D02*
X33047692Y51834000D01*
X99742414Y15492414D02*
X99750000Y15500000D01*
X99742414Y13750000D02*
X99742414Y15492414D01*
X89500000Y28500000D02*
X118500000Y28500000D01*
X123500000Y33500000D02*
X118500000Y28500000D01*
X126500000Y33500000D02*
X123500000Y33500000D01*
X49757714Y49990000D02*
X49757714Y51706532D01*
X49757714Y51706532D02*
X49546178Y51918068D01*
X99000000Y12250000D02*
X99000000Y13692414D01*
X99000000Y13692414D02*
X98942414Y13750000D01*
X98363590Y29250000D02*
X88750000Y29250000D01*
X109500000Y33500000D02*
X102613590Y33500000D01*
X102613590Y33500000D02*
X98363590Y29250000D01*
X66812000Y49990000D02*
X66812000Y51954038D01*
X66812000Y51954038D02*
X66884499Y52026537D01*
X98142414Y12507586D02*
X98150000Y12500000D01*
X98142414Y13750000D02*
X98142414Y12507586D01*
X89750000Y33500000D02*
X88000000Y31750000D01*
X88000000Y30000000D02*
X88000000Y31750000D01*
X92500000Y33500000D02*
X89750000Y33500000D01*
X83576000Y51834000D02*
X83576000Y50062572D01*
X83576000Y50062572D02*
X83503428Y49990000D01*
X95742414Y13750000D02*
X95742414Y14565955D01*
X95742414Y14565955D02*
X94808369Y15500000D01*
X84000000Y32250000D02*
X86000000Y32250000D01*
X82750000Y33500000D02*
X75500000Y33500000D01*
X84000000Y32250000D02*
X82750000Y33500000D01*
X100376285Y49990000D02*
X100376285Y51797715D01*
X100376285Y51797715D02*
X100340000Y51834000D01*
X93424264Y15749996D02*
X93000000Y15749996D01*
X93674280Y15749996D02*
X93424264Y15749996D01*
X94942414Y14481862D02*
X93674280Y15749996D01*
X94942414Y13750000D02*
X94942414Y14481862D01*
X85250010Y29250000D02*
X81825734Y29250000D01*
X58500000Y33500000D02*
X58500000Y33156000D01*
X58500000Y33156000D02*
X62406000Y29250000D01*
X62406000Y29250000D02*
X81825734Y29250000D01*
X68250000Y29250000D02*
X81825734Y29250000D01*
X117213840Y51992074D02*
X117213840Y50025302D01*
X117213840Y50025302D02*
X117249142Y49990000D01*
X94142414Y14607586D02*
X93750000Y15000000D01*
X93750000Y15000000D02*
X92250000Y15000000D01*
X94142414Y13750000D02*
X94142414Y14607586D01*
X84426980Y28500000D02*
X81480233Y28500000D01*
X81480233Y28500000D02*
X81450716Y28470483D01*
X84450716Y28470483D02*
X84426980Y28494219D01*
X84426980Y28494219D02*
X84426980Y28500000D01*
X41500000Y33500000D02*
X46529517Y28470483D01*
X51750000Y28500000D02*
X51779517Y28470483D01*
X51779517Y28470483D02*
X81450716Y28470483D01*
X46529517Y28470483D02*
X81450716Y28470483D01*
X134121999Y49990000D02*
X134121999Y51833999D01*
X134121999Y51833999D02*
X134122000Y51834000D01*
X92692414Y13307586D02*
X91000000Y15000000D01*
X91000000Y15000000D02*
X90750000Y15000000D01*
X92692414Y12300000D02*
X92692414Y13307586D01*
X83750020Y27750000D02*
X45110000Y27750000D01*
X45110000Y27750000D02*
X43444000Y29416000D01*
X43444000Y29416000D02*
X33584000Y29416000D01*
X33584000Y29416000D02*
X29500000Y33500000D01*
X29500000Y33500000D02*
X24500000Y33500000D01*
X133040000Y13922000D02*
X133040000Y11702000D01*
X133040000Y11702000D02*
X133106000Y11636000D01*
X79184800Y17081999D02*
X79184800Y15707200D01*
X79184800Y15707200D02*
X79258000Y15634000D01*
X79258000Y17008799D02*
X79184800Y17081999D01*
X23312000Y64976000D02*
X23312000Y65622000D01*
X23312000Y65622000D02*
X23690000Y66000000D01*
X25832019Y65667981D02*
X25832019Y65066816D01*
X23690000Y66000000D02*
X25500000Y66000000D01*
X25500000Y66000000D02*
X25832019Y65667981D01*
X41843800Y60023000D02*
X44273000Y60023000D01*
X44273000Y60023000D02*
X44550000Y60300000D01*
X44550000Y60300000D02*
X44550000Y60950000D01*
X94942414Y6957586D02*
X94900000Y7000000D01*
X94942414Y5250000D02*
X94942414Y6957586D01*
X16999999Y24249998D02*
X16485686Y24764314D01*
X29825732Y61500000D02*
X30249996Y61500000D01*
X25250000Y61500000D02*
X29825732Y61500000D01*
X24699958Y62050042D02*
X25250000Y61500000D01*
X16485686Y24764314D02*
X8449961Y32800042D01*
X12754400Y62050042D02*
X24699958Y62050042D01*
X8449961Y32800042D02*
X8449964Y57745604D01*
X29050308Y21225010D02*
X26025321Y24249997D01*
X52750000Y21225010D02*
X29050308Y21225010D01*
X54100030Y19874980D02*
X52750000Y21225010D01*
X75000000Y19874980D02*
X54100030Y19874980D01*
X8449964Y57745604D02*
X12754400Y62050042D01*
X26025321Y24249997D02*
X16999999Y24249998D01*
X64062450Y63154594D02*
X62663100Y63154594D01*
X62663100Y63154594D02*
X62633505Y63124999D01*
X62633505Y63124999D02*
X49374999Y63124999D01*
X49374999Y63124999D02*
X48524000Y62274000D01*
X48524000Y62274000D02*
X48524000Y60846000D01*
X46500000Y59200000D02*
X46450000Y59150000D01*
X46450000Y59150000D02*
X44250000Y59150000D01*
X44250000Y59150000D02*
X43853000Y58753000D01*
X43853000Y58753000D02*
X41843800Y58753000D01*
X46500000Y59200000D02*
X46550000Y59150000D01*
X46550000Y59150000D02*
X48320000Y59150000D01*
X48320000Y59150000D02*
X48524000Y58946000D01*
X48331000Y58753000D02*
X48524000Y58946000D01*
X101192414Y7500000D02*
X113675002Y7500000D01*
X113675002Y7500000D02*
X114250000Y7500000D01*
X114133958Y11366042D02*
X114467916Y11700000D01*
X114467916Y11700000D02*
X115500000Y11700000D01*
X114133958Y11000000D02*
X114133958Y11366042D01*
X115410229Y13918538D02*
X115410229Y11789771D01*
X115410229Y11789771D02*
X115500000Y11700000D01*
X95742414Y5250000D02*
X95742414Y6557586D01*
X95742414Y6557586D02*
X95700000Y6600000D01*
X23675004Y60750000D02*
X28825736Y60750000D01*
X28825736Y60750000D02*
X29250000Y60750000D01*
X54250000Y20500000D02*
X53000000Y21750000D01*
X17186401Y24700008D02*
X16797177Y25089234D01*
X12940799Y61600029D02*
X22824975Y61600029D01*
X76750000Y20500000D02*
X54250000Y20500000D01*
X8899972Y32986442D02*
X8899974Y57559204D01*
X16797177Y25089234D02*
X8899972Y32986442D01*
X29161728Y21750000D02*
X26211720Y24700008D01*
X8899974Y57559204D02*
X12940799Y61600029D01*
X26211720Y24700008D02*
X17186401Y24700008D01*
X53000000Y21750000D02*
X29161728Y21750000D01*
X22824975Y61600029D02*
X23675004Y60750000D01*
X64062450Y61884594D02*
X50865406Y61884594D01*
X50865406Y61884594D02*
X50500000Y62250000D01*
X50556000Y60846000D02*
X50556000Y62194000D01*
X50556000Y62194000D02*
X50500000Y62250000D01*
X50556000Y61446000D02*
X50556000Y60846000D01*
X41843800Y57483000D02*
X44983000Y57483000D01*
X44983000Y57483000D02*
X45750000Y58250000D01*
X48100000Y57650000D02*
X50500000Y57650000D01*
X45750000Y58250000D02*
X47500000Y58250000D01*
X47500000Y58250000D02*
X48100000Y57650000D01*
X50556000Y58946000D02*
X50556000Y57706000D01*
X50556000Y57706000D02*
X50500000Y57650000D01*
X101192414Y10700000D02*
X99950000Y10700000D01*
X99950000Y10700000D02*
X99500000Y10250000D01*
X22250000Y60750000D02*
X21675000Y60750000D01*
X9799991Y57186401D02*
X9799990Y33359239D01*
X21675000Y60750000D02*
X20925000Y60000000D01*
X9799990Y33359239D02*
X17559201Y25600029D01*
X20925000Y60000000D02*
X12613590Y60000000D01*
X54261430Y21874980D02*
X78084302Y21874980D01*
X12613590Y60000000D02*
X9799991Y57186401D01*
X17559201Y25600029D02*
X26584519Y25600029D01*
X26584519Y25600029D02*
X29434548Y22750000D01*
X29434548Y22750000D02*
X53386410Y22750000D01*
X53386410Y22750000D02*
X54261430Y21874980D01*
X78084302Y21874980D02*
X78184313Y21774969D01*
X32334000Y60912000D02*
X31162000Y60912000D01*
X31162000Y60912000D02*
X31000000Y60750000D01*
X26019600Y57167999D02*
X27082001Y57167999D01*
X27082001Y57167999D02*
X27500000Y56750000D01*
X34234000Y60912000D02*
X34234000Y59484000D01*
X34234000Y59484000D02*
X34000000Y59250000D01*
X36916200Y61293000D02*
X34615000Y61293000D01*
X34615000Y61293000D02*
X34234000Y60912000D01*
X101192414Y12300000D02*
X100300000Y12300000D01*
X100300000Y12300000D02*
X99250000Y11250000D01*
X28075736Y60000000D02*
X28500000Y60000000D01*
X21750000Y60000000D02*
X28075736Y60000000D01*
X10250000Y33545639D02*
X10250000Y57000000D01*
X26770919Y26050039D02*
X17745600Y26050039D01*
X17745600Y26050039D02*
X10250000Y33545639D01*
X78225725Y22399989D02*
X54600011Y22399989D01*
X29570958Y23250000D02*
X26770919Y26050039D01*
X78325736Y22500000D02*
X78225725Y22399989D01*
X10250000Y57000000D02*
X12750000Y59500000D01*
X78750000Y22500000D02*
X78325736Y22500000D01*
X53750000Y23250000D02*
X29570958Y23250000D01*
X12750000Y59500000D02*
X21250000Y59500000D01*
X54600011Y22399989D02*
X53750000Y23250000D01*
X21250000Y59500000D02*
X21750000Y60000000D01*
X61750000Y63750000D02*
X46000000Y63750000D01*
X61750000Y63750000D02*
X62424594Y64424594D01*
X62424594Y64424594D02*
X64062450Y64424594D01*
X59547600Y57167999D02*
X60917999Y57167999D01*
X60917999Y57167999D02*
X61000000Y57250000D01*
X62864594Y60614594D02*
X60368000Y58118000D01*
X60368000Y58118000D02*
X59547600Y58118000D01*
X64062450Y60614594D02*
X62864594Y60614594D01*
X73117550Y60614594D02*
X87983700Y60614594D01*
X104824998Y57000000D02*
X106799987Y55025011D01*
X87983700Y60614594D02*
X91598294Y57000000D01*
X109750000Y57000000D02*
X109750000Y60681803D01*
X109750000Y60681803D02*
X110641199Y61573002D01*
X91598294Y57000000D02*
X104824998Y57000000D01*
X106799987Y55025011D02*
X107775011Y55025011D01*
X107775011Y55025011D02*
X109750000Y57000000D01*
X110641199Y61573002D02*
X111490600Y61573002D01*
X73117550Y61884594D02*
X87350110Y61884594D01*
X87350110Y61884594D02*
X91734704Y57500000D01*
X91734704Y57500000D02*
X105400031Y57500000D01*
X105400031Y57500000D02*
X106950001Y55950030D01*
X106950001Y55950030D02*
X107250000Y55650031D01*
X111490600Y60923001D02*
X110673001Y60923001D01*
X110673001Y60923001D02*
X110250000Y60500000D01*
X110250000Y60500000D02*
X110250000Y56616090D01*
X110250000Y56616090D02*
X109366954Y55733044D01*
X109366954Y55733044D02*
X109066955Y55433045D01*
X73117550Y63154594D02*
X86716520Y63154594D01*
X86716520Y63154594D02*
X91871114Y58000000D01*
X91871114Y58000000D02*
X106025051Y58000000D01*
X106025051Y58000000D02*
X107450001Y56575050D01*
X107450001Y56575050D02*
X107750000Y56275051D01*
X117129400Y60923001D02*
X114826999Y60923001D01*
X114826999Y60923001D02*
X114750000Y61000000D01*
X73117550Y64424594D02*
X74516900Y64424594D01*
X74516900Y64424594D02*
X75191494Y63750000D01*
X92007524Y58500000D02*
X106450053Y58500000D01*
X75191494Y63750000D02*
X86757524Y63750000D01*
X86757524Y63750000D02*
X92007524Y58500000D01*
X108200053Y56750000D02*
X108500000Y56750000D01*
X106450053Y58500000D02*
X108200053Y56750000D01*
X108500000Y56750000D02*
X108470550Y56779450D01*
X117129400Y62223001D02*
X115472987Y62223001D01*
X115472987Y62223001D02*
X115249986Y62000000D01*
X96542414Y6957586D02*
X96500000Y7000000D01*
X96542414Y5250000D02*
X96542414Y6957586D01*
X20349982Y61150020D02*
X20450001Y61050001D01*
X13127200Y61150020D02*
X20349982Y61150020D01*
X20450001Y61050001D02*
X20750000Y60750002D01*
X9349982Y57372802D02*
X13127200Y61150020D01*
X9349981Y33172840D02*
X9349982Y57372802D01*
X26398119Y25150019D02*
X17372801Y25150019D01*
X53250000Y22250000D02*
X29298138Y22250000D01*
X17372801Y25150019D02*
X9349981Y33172840D01*
X54250030Y21249970D02*
X53250000Y22250000D01*
X29298138Y22250000D02*
X26398119Y25150019D01*
X77500000Y21249970D02*
X54250030Y21249970D01*
X54568001Y59068001D02*
X54500000Y59000000D01*
X57312400Y59068001D02*
X54568001Y59068001D01*
X23784400Y59068001D02*
X22568001Y59068001D01*
X22568001Y59068001D02*
X22500000Y59000000D01*
X16012000Y44910000D02*
X16012000Y45744200D01*
X16012000Y45744200D02*
X16012000Y47450000D01*
X16012000Y42370000D02*
X14620000Y42370000D01*
X14620000Y42370000D02*
X14000000Y41750000D01*
X98750000Y23500000D02*
X99250000Y23000000D01*
X32074998Y26750000D02*
X41363590Y26750000D01*
X46625011Y25374989D02*
X47500000Y24500000D01*
X14000000Y41750000D02*
X14000000Y34500000D01*
X47500000Y24500000D02*
X63250000Y24500000D01*
X14000000Y34500000D02*
X20250000Y28250000D01*
X20250000Y28250000D02*
X30574998Y28250000D01*
X30574998Y28250000D02*
X32074998Y26750000D01*
X41363590Y26750000D02*
X42738600Y25374990D01*
X42738600Y25374990D02*
X46625011Y25374989D01*
X81000000Y23500000D02*
X98750000Y23500000D01*
X63250000Y24500000D02*
X63750000Y24000000D01*
X63750000Y24000000D02*
X80500000Y24000000D01*
X80500000Y24000000D02*
X81000000Y23500000D01*
X99250000Y23000000D02*
X111250000Y23000000D01*
X111250000Y23000000D02*
X112810232Y21439768D01*
X112810232Y21439768D02*
X112810232Y19557338D01*
X33030000Y44910000D02*
X33030000Y45744200D01*
X33030000Y45744200D02*
X33030000Y47450000D01*
X41250000Y27500000D02*
X32924262Y27500000D01*
X42925001Y25824999D02*
X41250000Y27500000D01*
X46999999Y25824999D02*
X42925001Y25824999D01*
X81250000Y24000000D02*
X80750000Y24500000D01*
X47824998Y25000000D02*
X46999999Y25824999D01*
X32924262Y27500000D02*
X32499998Y27500000D01*
X111750000Y23500000D02*
X99500000Y23500000D01*
X64000000Y24500000D02*
X63500000Y25000000D01*
X80750000Y24500000D02*
X64000000Y24500000D01*
X99000000Y24000000D02*
X81250000Y24000000D01*
X63500000Y25000000D02*
X47824998Y25000000D01*
X113460231Y21789769D02*
X111750000Y23500000D01*
X113460231Y19557338D02*
X113460231Y21789769D01*
X99500000Y23500000D02*
X99000000Y24000000D01*
X33030000Y42370000D02*
X31370000Y42370000D01*
X31370000Y42370000D02*
X31250000Y42250000D01*
X49757714Y44910000D02*
X49757714Y47450000D01*
X114110232Y19557338D02*
X114110232Y22139768D01*
X81500000Y24500000D02*
X81000000Y25000000D01*
X114110232Y22139768D02*
X112250000Y24000000D01*
X112250000Y24000000D02*
X99750000Y24000000D01*
X99750000Y24000000D02*
X99250000Y24500000D01*
X99250000Y24500000D02*
X81500000Y24500000D01*
X81000000Y25000000D02*
X64500000Y25000000D01*
X64500000Y25000000D02*
X63750000Y25750000D01*
X63750000Y25750000D02*
X48000000Y25750000D01*
X49757714Y42370000D02*
X48120000Y42370000D01*
X48120000Y42370000D02*
X48000000Y42250000D01*
X66812000Y44910000D02*
X66812000Y47450000D01*
X114760231Y19557338D02*
X114760231Y22489769D01*
X81862977Y25000000D02*
X81112977Y25750000D01*
X114760231Y22489769D02*
X112750000Y24500000D01*
X112750000Y24500000D02*
X100000000Y24500000D01*
X100000000Y24500000D02*
X99500000Y25000000D01*
X99500000Y25000000D02*
X81862977Y25000000D01*
X81112977Y25750000D02*
X78250000Y25750000D01*
X78250000Y25750000D02*
X65000000Y25750000D01*
X66812000Y42370000D02*
X65120000Y42370000D01*
X65120000Y42370000D02*
X65000000Y42250000D01*
X83503428Y47450000D02*
X83503428Y44910000D01*
X82674264Y25750000D02*
X82250000Y25750000D01*
X99750000Y25750000D02*
X82674264Y25750000D01*
X100500000Y25000000D02*
X99750000Y25750000D01*
X113250000Y25000000D02*
X100500000Y25000000D01*
X115410229Y22839771D02*
X113250000Y25000000D01*
X115410229Y19557338D02*
X115410229Y22839771D01*
X83503428Y42370000D02*
X81544000Y42370000D01*
X100376285Y47450000D02*
X100376285Y44910000D01*
X116060231Y23189769D02*
X113500000Y25750000D01*
X113500000Y25750000D02*
X110488056Y25750000D01*
X116060231Y19557338D02*
X116060231Y23189769D01*
X100750000Y25750000D02*
X110488056Y25750000D01*
X110488056Y25750000D02*
X110497014Y25758958D01*
X98620000Y42370000D02*
X98500000Y42250000D01*
X100376285Y42370000D02*
X98620000Y42370000D01*
X117249142Y47450000D02*
X117249142Y44910000D01*
X116710229Y19557338D02*
X116710229Y23204257D01*
X116710229Y23204257D02*
X116758958Y23252986D01*
X115370000Y42370000D02*
X115250000Y42250000D01*
X117249142Y42370000D02*
X115370000Y42370000D01*
X97342414Y5250000D02*
X97342414Y6542414D01*
X97342414Y6542414D02*
X97400000Y6600000D01*
X65669000Y11559800D02*
X65669000Y12669000D01*
X66250004Y13250004D02*
X66750000Y13250004D01*
X65669000Y12669000D02*
X66250004Y13250004D01*
X98142414Y5250000D02*
X98142414Y6957586D01*
X98142414Y6957586D02*
X98100000Y7000000D01*
X61859000Y13109000D02*
X62000000Y13250000D01*
X61859000Y11559800D02*
X61859000Y13109000D01*
X134121999Y47450000D02*
X134121999Y46615800D01*
X134121999Y46615800D02*
X134121999Y44910000D01*
X116060228Y15560228D02*
X116060228Y13918538D01*
X134121999Y42370000D02*
X132370000Y42370000D01*
X132370000Y42370000D02*
X132250000Y42250000D01*
X112000000Y6000000D02*
X100407412Y6000000D01*
X100407412Y6000000D02*
X100157412Y6250000D01*
X100157412Y6250000D02*
X99092414Y6250000D01*
X99092414Y6250000D02*
X98942414Y6100000D01*
X98942414Y6100000D02*
X98942414Y5250000D01*
X112160231Y13918538D02*
X112160231Y12422161D01*
X112160231Y12422161D02*
X111991052Y12252982D01*
X112750000Y5250000D02*
X99742414Y5250000D01*
X112810229Y13918538D02*
X112810229Y12060229D01*
X112810229Y12060229D02*
X112750000Y12000000D01*
X101192414Y6700000D02*
X113450000Y6700000D01*
X113450000Y6700000D02*
X113500000Y6750000D01*
X113374999Y6875001D02*
X113500000Y6750000D01*
X113460231Y13918538D02*
X113460231Y11795735D01*
X113460231Y11795735D02*
X113508948Y11747018D01*
X101192414Y8300000D02*
X100050000Y8300000D01*
X100050000Y8300000D02*
X99250000Y7500000D01*
X101192414Y9100000D02*
X104350004Y9100000D01*
X104350004Y9100000D02*
X104500004Y9250000D01*
X104500000Y9249996D02*
X104500004Y9250000D01*
X104500000Y13250000D02*
X104500000Y14950000D01*
X104500000Y14950000D02*
X104550000Y15000000D01*
X131154000Y9096000D02*
X131000000Y9250000D01*
X133106000Y9096000D02*
X131154000Y9096000D01*
X36916200Y60023000D02*
X35773000Y60023000D01*
X35300000Y58900000D02*
X34650000Y58250000D01*
X35773000Y60023000D02*
X35300000Y59550000D01*
X35264998Y58900000D02*
X35300000Y58900000D01*
X35300000Y59550000D02*
X35300000Y58935002D01*
X35300000Y58935002D02*
X35264998Y58900000D01*
X34650000Y58250000D02*
X31000006Y58250000D01*
X31000006Y58250000D02*
X29750006Y59500000D01*
X26019600Y58118000D02*
X27132000Y58118000D01*
X27132000Y58118000D02*
X27500000Y57750000D01*
D45*
X20838000Y18494000D02*
X18518980Y18494000D01*
X18518980Y18494000D02*
X17790000Y19222980D01*
X20838000Y16954000D02*
X20838000Y18494000D01*
X17807020Y19240000D02*
X17790000Y19222980D01*
X17790000Y19222980D02*
X14477020Y19222980D01*
X14477020Y19222980D02*
X14080000Y19620000D01*
D46*
X5000000Y19540000D02*
X5240000Y19540000D01*
D49*
G36*
X149265000Y735000D02*
X3735000Y735000D01*
X3735000Y1873000D01*
X11275689Y1873000D01*
X11630542Y1518147D01*
X11630544Y1518144D01*
X11831829Y1383651D01*
X11966322Y1293785D01*
X12362400Y1215000D01*
X135619995Y1215000D01*
X135620000Y1214999D01*
X136016077Y1293785D01*
X136351856Y1518144D01*
X136706712Y1873000D01*
X148000000Y1873000D01*
X148049410Y1883006D01*
X148091035Y1911447D01*
X148118315Y1953841D01*
X148127000Y2000000D01*
X148127000Y61265000D01*
X149265000Y61265000D01*
X149265000Y735000D01*
X149265000Y735000D01*
G37*
X149265000Y735000D02*
X3735000Y735000D01*
X3735000Y1873000D01*
X11275689Y1873000D01*
X11630542Y1518147D01*
X11630544Y1518144D01*
X11831829Y1383651D01*
X11966322Y1293785D01*
X12362400Y1215000D01*
X135619995Y1215000D01*
X135620000Y1214999D01*
X136016077Y1293785D01*
X136351856Y1518144D01*
X136706712Y1873000D01*
X148000000Y1873000D01*
X148049410Y1883006D01*
X148091035Y1911447D01*
X148118315Y1953841D01*
X148127000Y2000000D01*
X148127000Y61265000D01*
X149265000Y61265000D01*
X149265000Y735000D01*
G36*
X68473000Y68127000D02*
X61656431Y68127000D01*
X61595000Y68139440D01*
X60345000Y68139440D01*
X60278887Y68127000D01*
X59624431Y68127000D01*
X59563000Y68139440D01*
X58313000Y68139440D01*
X58246887Y68127000D01*
X51737043Y68127000D01*
X51496734Y68226785D01*
X51005421Y68227214D01*
X50762886Y68127000D01*
X30414431Y68127000D01*
X30353000Y68139440D01*
X29103000Y68139440D01*
X29036887Y68127000D01*
X24631043Y68127000D01*
X24390734Y68226785D01*
X23899421Y68227214D01*
X23656886Y68127000D01*
X2000000Y68127000D01*
X1950590Y68116994D01*
X1908965Y68088553D01*
X1881685Y68046159D01*
X1873000Y68000000D01*
X1873000Y8735000D01*
X735000Y8735000D01*
X735000Y69265000D01*
X68473000Y69265000D01*
X68473000Y68127000D01*
X68473000Y68127000D01*
G37*
X68473000Y68127000D02*
X61656431Y68127000D01*
X61595000Y68139440D01*
X60345000Y68139440D01*
X60278887Y68127000D01*
X59624431Y68127000D01*
X59563000Y68139440D01*
X58313000Y68139440D01*
X58246887Y68127000D01*
X51737043Y68127000D01*
X51496734Y68226785D01*
X51005421Y68227214D01*
X50762886Y68127000D01*
X30414431Y68127000D01*
X30353000Y68139440D01*
X29103000Y68139440D01*
X29036887Y68127000D01*
X24631043Y68127000D01*
X24390734Y68226785D01*
X23899421Y68227214D01*
X23656886Y68127000D01*
X2000000Y68127000D01*
X1950590Y68116994D01*
X1908965Y68088553D01*
X1881685Y68046159D01*
X1873000Y68000000D01*
X1873000Y8735000D01*
X735000Y8735000D01*
X735000Y69265000D01*
X68473000Y69265000D01*
X68473000Y68127000D01*
M02*
