G04 #@! TF.FileFunction,Legend,Top*
%FSLAX46Y46*%
G04 Gerber Fmt 4.6, Leading zero omitted, Abs format (unit mm)*
G04 Created by KiCad (PCBNEW 4.0.2-stable) date 5/21/2016 11:43:06 AM*
%MOMM*%
G01*
G04 APERTURE LIST*
%ADD10C,0.100000*%
%ADD11C,0.300000*%
%ADD12C,0.150000*%
%ADD13C,0.152400*%
%ADD14R,1.420000X1.110000*%
%ADD15R,1.200000X1.450000*%
%ADD16R,1.400000X0.700000*%
%ADD17R,0.700000X1.400000*%
%ADD18R,0.555600X1.876400*%
%ADD19R,2.100000X2.200000*%
%ADD20C,2.100000*%
%ADD21R,1.450000X1.200000*%
%ADD22R,1.673200X0.555600*%
%ADD23R,2.000860X2.699360*%
%ADD24R,1.000100X1.000100*%
%ADD25R,2.232000X1.927200*%
%ADD26O,2.232000X1.927200*%
%ADD27R,1.927200X1.927200*%
%ADD28O,1.927200X1.927200*%
%ADD29R,1.927200X2.232000*%
%ADD30O,1.927200X2.232000*%
%ADD31R,0.900000X1.500000*%
%ADD32R,1.500000X0.900000*%
%ADD33R,5.800700X2.300580*%
%ADD34R,1.216000X0.758800*%
%ADD35R,2.232000X1.368400*%
%ADD36R,0.758800X1.216000*%
%ADD37R,2.498700X0.758800*%
%ADD38R,0.733400X2.181200*%
%ADD39R,2.100000X2.100000*%
%ADD40R,0.650000X0.790000*%
%ADD41R,2.600300X4.200500*%
%ADD42O,2.740000X2.232000*%
%ADD43R,1.900000X0.850000*%
G04 APERTURE END LIST*
D10*
D11*
X130879466Y19321429D02*
X131066966Y20821429D01*
X131638394Y20821429D01*
X131772323Y20750000D01*
X131834822Y20678571D01*
X131888394Y20535714D01*
X131861609Y20321429D01*
X131772322Y20178571D01*
X131691966Y20107143D01*
X131540179Y20035714D01*
X130968751Y20035714D01*
X133254466Y19464286D02*
X133174108Y19392857D01*
X132950894Y19321429D01*
X132808037Y19321429D01*
X132602680Y19392857D01*
X132477679Y19535714D01*
X132424108Y19678571D01*
X132388394Y19964286D01*
X132415179Y20178571D01*
X132522323Y20464286D01*
X132611608Y20607143D01*
X132772323Y20750000D01*
X132995537Y20821429D01*
X133138394Y20821429D01*
X133343751Y20750000D01*
X133406251Y20678571D01*
X134477680Y20107143D02*
X134683037Y20035714D01*
X134745537Y19964286D01*
X134799109Y19821429D01*
X134772323Y19607143D01*
X134683037Y19464286D01*
X134602680Y19392857D01*
X134450894Y19321429D01*
X133879466Y19321429D01*
X134066966Y20821429D01*
X134566966Y20821429D01*
X134700894Y20750000D01*
X134763394Y20678571D01*
X134816965Y20535714D01*
X134799108Y20392857D01*
X134709823Y20250000D01*
X134629465Y20178571D01*
X134477680Y20107143D01*
X133977680Y20107143D01*
X136495537Y20821429D02*
X136808037Y19321429D01*
X137495537Y20821429D01*
X138593751Y19321429D02*
X137736608Y19321429D01*
X138165180Y19321429D02*
X138352680Y20821429D01*
X138183037Y20607143D01*
X138022322Y20464286D01*
X137870536Y20392857D01*
X140093751Y19321429D02*
X139683036Y20035714D01*
X139236608Y19321429D02*
X139424108Y20821429D01*
X139995536Y20821429D01*
X140129465Y20750000D01*
X140191964Y20678571D01*
X140245536Y20535714D01*
X140218751Y20321429D01*
X140129464Y20178571D01*
X140049108Y20107143D01*
X139897321Y20035714D01*
X139325893Y20035714D01*
X140834821Y20678571D02*
X140915179Y20750000D01*
X141066965Y20821429D01*
X141424108Y20821429D01*
X141558036Y20750000D01*
X141620536Y20678571D01*
X141674107Y20535714D01*
X141656250Y20392857D01*
X141558036Y20178571D01*
X140593751Y19321429D01*
X141522322Y19321429D01*
D12*
X14700000Y7017500D02*
X14700000Y7398500D01*
X14700000Y6001500D02*
X14700000Y6382500D01*
X14700000Y6382500D02*
X14319000Y7017500D01*
X14319000Y7017500D02*
X15081000Y7017500D01*
X15081000Y7017500D02*
X14700000Y6382500D01*
X14192000Y6382500D02*
X15208000Y6382500D01*
X15600000Y4700000D02*
X15600000Y8240000D01*
X13800000Y4700000D02*
X13800000Y8240000D01*
X108951818Y16263178D02*
X109951818Y16263178D01*
X109951818Y17963178D02*
X108951818Y17963178D01*
X108931443Y18384369D02*
X109931443Y18384369D01*
X109931443Y20084369D02*
X108931443Y20084369D01*
X94342414Y12300000D02*
G75*
G03X94342414Y12300000I-200000J0D01*
G01*
X93317414Y13125000D02*
X93317414Y12825000D01*
X100567414Y13125000D02*
X100567414Y12825000D01*
X100567414Y5875000D02*
X100567414Y6175000D01*
X93317414Y5875000D02*
X93317414Y6175000D01*
X93317414Y13125000D02*
X93617414Y13125000D01*
X93317414Y5875000D02*
X93617414Y5875000D01*
X100567414Y5875000D02*
X100267414Y5875000D01*
X100567414Y13125000D02*
X100267414Y13125000D01*
X93317414Y12825000D02*
X92092414Y12825000D01*
D13*
X112301630Y14502738D02*
X111996830Y14502738D01*
X111996830Y14502738D02*
X111996830Y13435938D01*
X111996830Y13435938D02*
X112301630Y13435938D01*
X112301630Y13435938D02*
X112301630Y14502738D01*
X112962030Y14502738D02*
X112657230Y14502738D01*
X112657230Y14502738D02*
X112657230Y13435938D01*
X112657230Y13435938D02*
X112962030Y13435938D01*
X112962030Y13435938D02*
X112962030Y14502738D01*
X113622430Y14502738D02*
X113317630Y14502738D01*
X113317630Y14502738D02*
X113317630Y13435938D01*
X113317630Y13435938D02*
X113622430Y13435938D01*
X113622430Y13435938D02*
X113622430Y14502738D01*
X114257430Y14502738D02*
X113952630Y14502738D01*
X113952630Y14502738D02*
X113952630Y13435938D01*
X113952630Y13435938D02*
X114257430Y13435938D01*
X114257430Y13435938D02*
X114257430Y14502738D01*
X114917830Y14502738D02*
X114613030Y14502738D01*
X114613030Y14502738D02*
X114613030Y13435938D01*
X114613030Y13435938D02*
X114917830Y13435938D01*
X114917830Y13435938D02*
X114917830Y14502738D01*
X115552830Y14502738D02*
X115248030Y14502738D01*
X115248030Y14502738D02*
X115248030Y13435938D01*
X115248030Y13435938D02*
X115552830Y13435938D01*
X115552830Y13435938D02*
X115552830Y14502738D01*
X116213230Y14502738D02*
X115908430Y14502738D01*
X115908430Y14502738D02*
X115908430Y13435938D01*
X115908430Y13435938D02*
X116213230Y13435938D01*
X116213230Y13435938D02*
X116213230Y14502738D01*
X116873630Y14502738D02*
X116568830Y14502738D01*
X116568830Y14502738D02*
X116568830Y13435938D01*
X116568830Y13435938D02*
X116873630Y13435938D01*
X116873630Y13435938D02*
X116873630Y14502738D01*
X116568830Y18973138D02*
X116873630Y18973138D01*
X116873630Y18973138D02*
X116873630Y20039938D01*
X116873630Y20039938D02*
X116568830Y20039938D01*
X116568830Y20039938D02*
X116568830Y18973138D01*
X115908430Y18973138D02*
X116213230Y18973138D01*
X116213230Y18973138D02*
X116213230Y20039938D01*
X116213230Y20039938D02*
X115908430Y20039938D01*
X115908430Y20039938D02*
X115908430Y18973138D01*
X115248030Y18973138D02*
X115552830Y18973138D01*
X115552830Y18973138D02*
X115552830Y20039938D01*
X115552830Y20039938D02*
X115248030Y20039938D01*
X115248030Y20039938D02*
X115248030Y18973138D01*
X114613030Y18973138D02*
X114917830Y18973138D01*
X114917830Y18973138D02*
X114917830Y20039938D01*
X114917830Y20039938D02*
X114613030Y20039938D01*
X114613030Y20039938D02*
X114613030Y18973138D01*
X113952630Y18973138D02*
X114257430Y18973138D01*
X114257430Y18973138D02*
X114257430Y20039938D01*
X114257430Y20039938D02*
X113952630Y20039938D01*
X113952630Y20039938D02*
X113952630Y18973138D01*
X113317630Y18973138D02*
X113622430Y18973138D01*
X113622430Y18973138D02*
X113622430Y20039938D01*
X113622430Y20039938D02*
X113317630Y20039938D01*
X113317630Y20039938D02*
X113317630Y18973138D01*
X112657230Y18973138D02*
X112962030Y18973138D01*
X112962030Y18973138D02*
X112962030Y20039938D01*
X112962030Y20039938D02*
X112657230Y20039938D01*
X112657230Y20039938D02*
X112657230Y18973138D01*
X111996830Y18973138D02*
X112301630Y18973138D01*
X112301630Y18973138D02*
X112301630Y20039938D01*
X112301630Y20039938D02*
X111996830Y20039938D01*
X111996830Y20039938D02*
X111996830Y18973138D01*
X116975230Y14502738D02*
X116975230Y18973138D01*
X116975230Y18973138D02*
X111895230Y18973138D01*
X111895230Y18973138D02*
X111895230Y14502738D01*
X111895230Y14502738D02*
X116975230Y14502738D01*
X111882530Y16433138D02*
G75*
G03X111882530Y17042738I0J304800D01*
G01*
D12*
X46754888Y19524904D02*
G75*
G03X46770000Y16500000I-2484888J-1524904D01*
G01*
X46770000Y19500000D02*
X46770000Y16500000D01*
X46787936Y18000000D02*
G75*
G03X46787936Y18000000I-2517936J0D01*
G01*
X89283414Y11139700D02*
X89283414Y12139700D01*
X87583414Y12139700D02*
X87583414Y11139700D01*
D13*
X116545200Y61064400D02*
X116545200Y60759600D01*
X116545200Y60759600D02*
X117510400Y60759600D01*
X117510400Y60759600D02*
X117510400Y61064400D01*
X117510400Y61064400D02*
X116545200Y61064400D01*
X116545200Y61724800D02*
X116545200Y61420000D01*
X116545200Y61420000D02*
X117510400Y61420000D01*
X117510400Y61420000D02*
X117510400Y61724800D01*
X117510400Y61724800D02*
X116545200Y61724800D01*
X116545200Y62385200D02*
X116545200Y62080400D01*
X116545200Y62080400D02*
X117510400Y62080400D01*
X117510400Y62080400D02*
X117510400Y62385200D01*
X117510400Y62385200D02*
X116545200Y62385200D01*
X116545200Y63020200D02*
X116545200Y62715400D01*
X116545200Y62715400D02*
X117510400Y62715400D01*
X117510400Y62715400D02*
X117510400Y63020200D01*
X117510400Y63020200D02*
X116545200Y63020200D01*
X116545200Y63680600D02*
X116545200Y63375800D01*
X116545200Y63375800D02*
X117510400Y63375800D01*
X117510400Y63375800D02*
X117510400Y63680600D01*
X117510400Y63680600D02*
X116545200Y63680600D01*
X116545200Y64315600D02*
X116545200Y64010800D01*
X116545200Y64010800D02*
X117510400Y64010800D01*
X117510400Y64010800D02*
X117510400Y64315600D01*
X117510400Y64315600D02*
X116545200Y64315600D01*
X116545200Y64976000D02*
X116545200Y64671200D01*
X116545200Y64671200D02*
X117510400Y64671200D01*
X117510400Y64671200D02*
X117510400Y64976000D01*
X117510400Y64976000D02*
X116545200Y64976000D01*
X116545200Y65636400D02*
X116545200Y65331600D01*
X116545200Y65331600D02*
X117510400Y65331600D01*
X117510400Y65331600D02*
X117510400Y65636400D01*
X117510400Y65636400D02*
X116545200Y65636400D01*
X112074800Y65331600D02*
X112074800Y65636400D01*
X112074800Y65636400D02*
X111109600Y65636400D01*
X111109600Y65636400D02*
X111109600Y65331600D01*
X111109600Y65331600D02*
X112074800Y65331600D01*
X112074800Y64671200D02*
X112074800Y64976000D01*
X112074800Y64976000D02*
X111109600Y64976000D01*
X111109600Y64976000D02*
X111109600Y64671200D01*
X111109600Y64671200D02*
X112074800Y64671200D01*
X112074800Y64010800D02*
X112074800Y64315600D01*
X112074800Y64315600D02*
X111109600Y64315600D01*
X111109600Y64315600D02*
X111109600Y64010800D01*
X111109600Y64010800D02*
X112074800Y64010800D01*
X112074800Y63375800D02*
X112074800Y63680600D01*
X112074800Y63680600D02*
X111109600Y63680600D01*
X111109600Y63680600D02*
X111109600Y63375800D01*
X111109600Y63375800D02*
X112074800Y63375800D01*
X112074800Y62715400D02*
X112074800Y63020200D01*
X112074800Y63020200D02*
X111109600Y63020200D01*
X111109600Y63020200D02*
X111109600Y62715400D01*
X111109600Y62715400D02*
X112074800Y62715400D01*
X112074800Y62080400D02*
X112074800Y62385200D01*
X112074800Y62385200D02*
X111109600Y62385200D01*
X111109600Y62385200D02*
X111109600Y62080400D01*
X111109600Y62080400D02*
X112074800Y62080400D01*
X112074800Y61420000D02*
X112074800Y61724800D01*
X112074800Y61724800D02*
X111109600Y61724800D01*
X111109600Y61724800D02*
X111109600Y61420000D01*
X111109600Y61420000D02*
X112074800Y61420000D01*
X112074800Y60759600D02*
X112074800Y61064400D01*
X112074800Y61064400D02*
X111109600Y61064400D01*
X111109600Y61064400D02*
X111109600Y60759600D01*
X111109600Y60759600D02*
X112074800Y60759600D01*
X116545200Y65738000D02*
X112074800Y65738000D01*
X112074800Y65738000D02*
X112074800Y60658000D01*
X112074800Y60658000D02*
X116545200Y60658000D01*
X116545200Y60658000D02*
X116545200Y65738000D01*
X114614800Y60645300D02*
G75*
G03X114005200Y60645300I-304800J0D01*
G01*
D12*
X41850000Y8400000D02*
X41850000Y7400000D01*
X43550000Y7400000D02*
X43550000Y8400000D01*
X55470000Y9838761D02*
X55470000Y10838761D01*
X53770000Y10838761D02*
X53770000Y9838761D01*
X57502000Y9838761D02*
X57502000Y10838761D01*
X55802000Y10838761D02*
X55802000Y9838761D01*
X59534000Y9838761D02*
X59534000Y10838761D01*
X57834000Y10838761D02*
X57834000Y9838761D01*
X59788000Y65492000D02*
X59788000Y66492000D01*
X58088000Y66492000D02*
X58088000Y65492000D01*
X61820000Y65492000D02*
X61820000Y66492000D01*
X60120000Y66492000D02*
X60120000Y65492000D01*
X13850000Y11600000D02*
X13850000Y10600000D01*
X15550000Y10600000D02*
X15550000Y11600000D01*
X100682000Y63686000D02*
X100682000Y64686000D01*
X98982000Y64686000D02*
X98982000Y63686000D01*
X93570000Y63559000D02*
X93570000Y64559000D01*
X91870000Y64559000D02*
X91870000Y63559000D01*
X105586000Y64714000D02*
X105586000Y63714000D01*
X107286000Y63714000D02*
X107286000Y64714000D01*
X107618000Y64714000D02*
X107618000Y63714000D01*
X109318000Y63714000D02*
X109318000Y64714000D01*
X79092000Y65492000D02*
X79092000Y66492000D01*
X77392000Y66492000D02*
X77392000Y65492000D01*
X77060000Y65492000D02*
X77060000Y66492000D01*
X75360000Y66492000D02*
X75360000Y65492000D01*
X55956191Y55939807D02*
X55956191Y56939807D01*
X54256191Y56939807D02*
X54256191Y55939807D01*
X53924191Y55939807D02*
X53924191Y56939807D01*
X52224191Y56939807D02*
X52224191Y55939807D01*
X107286000Y59904000D02*
X107286000Y60904000D01*
X105586000Y60904000D02*
X105586000Y59904000D01*
X109318000Y59904000D02*
X109318000Y60904000D01*
X107618000Y60904000D02*
X107618000Y59904000D01*
X120826000Y65984000D02*
X120826000Y64984000D01*
X122526000Y64984000D02*
X122526000Y65984000D01*
X127098000Y63460000D02*
X127098000Y64460000D01*
X125398000Y64460000D02*
X125398000Y63460000D01*
X120826000Y62174000D02*
X120826000Y61174000D01*
X122526000Y61174000D02*
X122526000Y62174000D01*
X13130000Y55229362D02*
X13130000Y54229362D01*
X14830000Y54229362D02*
X14830000Y55229362D01*
X11098000Y55229362D02*
X11098000Y54229362D01*
X12798000Y54229362D02*
X12798000Y55229362D01*
X30200000Y55411164D02*
X30200000Y54411164D01*
X31900000Y54411164D02*
X31900000Y55411164D01*
X28200000Y55411164D02*
X28200000Y54411164D01*
X29900000Y54411164D02*
X29900000Y55411164D01*
X46664178Y55273068D02*
X46664178Y54273068D01*
X48364178Y54273068D02*
X48364178Y55273068D01*
X44625000Y55275000D02*
X44625000Y54275000D01*
X46325000Y54275000D02*
X46325000Y55275000D01*
X64002499Y55381537D02*
X64002499Y54381537D01*
X65702499Y54381537D02*
X65702499Y55381537D01*
X61970499Y55381537D02*
X61970499Y54381537D01*
X63670499Y54381537D02*
X63670499Y55381537D01*
X80694000Y55332000D02*
X80694000Y54332000D01*
X82394000Y54332000D02*
X82394000Y55332000D01*
X78662000Y55332000D02*
X78662000Y54332000D01*
X80362000Y54332000D02*
X80362000Y55332000D01*
X97458000Y55316000D02*
X97458000Y54316000D01*
X99158000Y54316000D02*
X99158000Y55316000D01*
X95426000Y55316000D02*
X95426000Y54316000D01*
X97126000Y54316000D02*
X97126000Y55316000D01*
X91250000Y11130700D02*
X91250000Y12130700D01*
X89550000Y12130700D02*
X89550000Y11130700D01*
X114222000Y55316000D02*
X114222000Y54316000D01*
X115922000Y54316000D02*
X115922000Y55316000D01*
X112190000Y55316000D02*
X112190000Y54316000D01*
X113890000Y54316000D02*
X113890000Y55316000D01*
X82044000Y6390000D02*
X81044000Y6390000D01*
X81044000Y4690000D02*
X82044000Y4690000D01*
X69614000Y4690000D02*
X70614000Y4690000D01*
X70614000Y6390000D02*
X69614000Y6390000D01*
X131240000Y55316000D02*
X131240000Y54316000D01*
X132940000Y54316000D02*
X132940000Y55316000D01*
X129208000Y55316000D02*
X129208000Y54316000D01*
X130908000Y54316000D02*
X130908000Y55316000D01*
X63772000Y15612000D02*
X64772000Y15612000D01*
X64772000Y17312000D02*
X63772000Y17312000D01*
X63772000Y13580000D02*
X64772000Y13580000D01*
X64772000Y15280000D02*
X63772000Y15280000D01*
X128034000Y11167000D02*
X129034000Y11167000D01*
X129034000Y12867000D02*
X128034000Y12867000D01*
X128034000Y13072000D02*
X129034000Y13072000D01*
X129034000Y14772000D02*
X128034000Y14772000D01*
X96827414Y15050000D02*
X97827414Y15050000D01*
X97827414Y16750000D02*
X96827414Y16750000D01*
X96827414Y17015312D02*
X97827414Y17015312D01*
X97827414Y18715312D02*
X96827414Y18715312D01*
X84680000Y17486000D02*
X84680000Y18486000D01*
X82980000Y18486000D02*
X82980000Y17486000D01*
X77568000Y17486000D02*
X77568000Y18486000D01*
X75868000Y18486000D02*
X75868000Y17486000D01*
X30578000Y65492000D02*
X30578000Y66492000D01*
X28878000Y66492000D02*
X28878000Y65492000D01*
X30910000Y64460000D02*
X30910000Y63460000D01*
X32610000Y63460000D02*
X32610000Y64460000D01*
X37768000Y64714000D02*
X37768000Y63714000D01*
X39468000Y63714000D02*
X39468000Y64714000D01*
X39800000Y64714000D02*
X39800000Y63714000D01*
X41500000Y63714000D02*
X41500000Y64714000D01*
X20418000Y55840000D02*
X20418000Y56840000D01*
X18718000Y56840000D02*
X18718000Y55840000D01*
X22450000Y55840000D02*
X22450000Y56840000D01*
X20750000Y56840000D02*
X20750000Y55840000D01*
X12750060Y8200860D02*
X12399540Y8200860D01*
X9249940Y8200860D02*
X9600460Y8200860D01*
X12750060Y12250440D02*
X12399540Y12250440D01*
X12750060Y7749560D02*
X12399540Y7749560D01*
X9249940Y7749560D02*
X9600460Y7749560D01*
X9249940Y12250440D02*
X9600460Y12250440D01*
X12750060Y7749560D02*
X12750060Y12250440D01*
X9249940Y7749560D02*
X9249940Y12250440D01*
X133076840Y65341760D02*
X133125100Y65341760D01*
X135875820Y66042800D02*
X135875820Y65341760D01*
X135875820Y65341760D02*
X135626900Y65341760D01*
X133076840Y65341760D02*
X132876180Y65341760D01*
X132876180Y65341760D02*
X132876180Y66042800D01*
X135675160Y62324240D02*
X135626900Y62324240D01*
X132876180Y61623200D02*
X132876180Y62324240D01*
X132876180Y62324240D02*
X133125100Y62324240D01*
X135675160Y62324240D02*
X135875820Y62324240D01*
X135875820Y62324240D02*
X135875820Y61623200D01*
X47745112Y16475096D02*
G75*
G03X47730000Y19500000I2484888J1524904D01*
G01*
X47730000Y16500000D02*
X47730000Y19500000D01*
X52747936Y18000000D02*
G75*
G03X52747936Y18000000I-2517936J0D01*
G01*
X3730000Y10730000D02*
X3730000Y3110000D01*
X6270000Y10730000D02*
X6270000Y3110000D01*
X6550000Y13550000D02*
X6550000Y12000000D01*
X3730000Y3110000D02*
X6270000Y3110000D01*
X6270000Y10730000D02*
X3730000Y10730000D01*
X3450000Y12000000D02*
X3450000Y13550000D01*
X3450000Y13550000D02*
X6550000Y13550000D01*
X120230000Y7480000D02*
X125310000Y7480000D01*
X117410000Y7200000D02*
X117410000Y8750000D01*
X117690000Y10020000D02*
X120230000Y10020000D01*
X120230000Y10020000D02*
X120230000Y7480000D01*
X125310000Y7480000D02*
X125310000Y12560000D01*
X125310000Y12560000D02*
X120230000Y12560000D01*
X117410000Y7200000D02*
X118960000Y7200000D01*
X117690000Y12560000D02*
X117690000Y10020000D01*
X120230000Y12560000D02*
X117690000Y12560000D01*
X120230000Y3980000D02*
X125310000Y3980000D01*
X125310000Y3980000D02*
X125310000Y6520000D01*
X125310000Y6520000D02*
X120230000Y6520000D01*
X117410000Y6800000D02*
X118960000Y6800000D01*
X120230000Y6520000D02*
X120230000Y3980000D01*
X118960000Y3700000D02*
X117410000Y3700000D01*
X117410000Y3700000D02*
X117410000Y6800000D01*
X144730000Y10730000D02*
X144730000Y3110000D01*
X147270000Y10730000D02*
X147270000Y3110000D01*
X147550000Y13550000D02*
X147550000Y12000000D01*
X144730000Y3110000D02*
X147270000Y3110000D01*
X147270000Y10730000D02*
X144730000Y10730000D01*
X144450000Y12000000D02*
X144450000Y13550000D01*
X144450000Y13550000D02*
X147550000Y13550000D01*
X96876000Y66105000D02*
X95676000Y66105000D01*
X95676000Y67855000D02*
X96876000Y67855000D01*
X79604000Y58513000D02*
X78404000Y58513000D01*
X78404000Y60263000D02*
X79604000Y60263000D01*
X77085000Y58972000D02*
X77085000Y57772000D01*
X75335000Y57772000D02*
X75335000Y58972000D01*
X140056000Y64101000D02*
X138856000Y64101000D01*
X138856000Y65851000D02*
X140056000Y65851000D01*
X129896000Y64101000D02*
X128696000Y64101000D01*
X128696000Y65851000D02*
X129896000Y65851000D01*
X140056000Y61815000D02*
X138856000Y61815000D01*
X138856000Y63565000D02*
X140056000Y63565000D01*
X129896000Y61815000D02*
X128696000Y61815000D01*
X128696000Y63565000D02*
X129896000Y63565000D01*
X15147578Y52224362D02*
X15147578Y53424362D01*
X16897578Y53424362D02*
X16897578Y52224362D01*
X32175000Y52184000D02*
X32175000Y53384000D01*
X33925000Y53384000D02*
X33925000Y52184000D01*
X48671178Y52268068D02*
X48671178Y53468068D01*
X50421178Y53468068D02*
X50421178Y52268068D01*
X66009499Y52376537D02*
X66009499Y53576537D01*
X67759499Y53576537D02*
X67759499Y52376537D01*
X82701000Y52184000D02*
X82701000Y53384000D01*
X84451000Y53384000D02*
X84451000Y52184000D01*
X99465000Y52184000D02*
X99465000Y53384000D01*
X101215000Y53384000D02*
X101215000Y52184000D01*
X116338840Y52342074D02*
X116338840Y53542074D01*
X118088840Y53542074D02*
X118088840Y52342074D01*
X85721000Y10712000D02*
X85721000Y9512000D01*
X83971000Y9512000D02*
X83971000Y10712000D01*
X133247000Y52184000D02*
X133247000Y53384000D01*
X134997000Y53384000D02*
X134997000Y52184000D01*
X131490000Y14797000D02*
X132690000Y14797000D01*
X132690000Y13047000D02*
X131490000Y13047000D01*
X81000000Y18125000D02*
X79800000Y18125000D01*
X79800000Y19875000D02*
X81000000Y19875000D01*
X22962000Y64101000D02*
X21762000Y64101000D01*
X21762000Y65851000D02*
X22962000Y65851000D01*
X45200000Y61825000D02*
X46400000Y61825000D01*
X46400000Y60075000D02*
X45200000Y60075000D01*
X47649000Y59296000D02*
X47649000Y60496000D01*
X49399000Y60496000D02*
X49399000Y59296000D01*
X116375000Y11350000D02*
X116375000Y10150000D01*
X114625000Y10150000D02*
X114625000Y11350000D01*
X49681000Y59296000D02*
X49681000Y60496000D01*
X51431000Y60496000D02*
X51431000Y59296000D01*
X33600000Y60037000D02*
X32400000Y60037000D01*
X32400000Y61787000D02*
X33600000Y61787000D01*
X81551620Y11595360D02*
X69852380Y11595360D01*
X69852380Y6596640D02*
X81551620Y6596640D01*
X69852380Y11595360D02*
X69852380Y10747000D01*
X69852380Y6596640D02*
X69852380Y7445000D01*
X81551620Y11595360D02*
X81551620Y10747000D01*
X81551620Y6596640D02*
X81551620Y7445000D01*
D13*
X25765600Y59642000D02*
X24038400Y59642000D01*
X24038400Y59642000D02*
X24038400Y56594000D01*
X24038400Y56594000D02*
X25765600Y56594000D01*
X25765600Y56594000D02*
X25765600Y59642000D01*
X25765600Y57432200D02*
X25765600Y56924200D01*
X25765600Y56924200D02*
X26400600Y56924200D01*
X26400600Y56924200D02*
X26400600Y57432200D01*
X26400600Y57432200D02*
X25765600Y57432200D01*
X25765600Y58372000D02*
X25765600Y57864000D01*
X25765600Y57864000D02*
X26400600Y57864000D01*
X26400600Y57864000D02*
X26400600Y58372000D01*
X26400600Y58372000D02*
X25765600Y58372000D01*
X25765600Y59311800D02*
X25765600Y58803800D01*
X25765600Y58803800D02*
X26400600Y58803800D01*
X26400600Y58803800D02*
X26400600Y59311800D01*
X26400600Y59311800D02*
X25765600Y59311800D01*
X24038400Y58803800D02*
X24038400Y59311800D01*
X24038400Y59311800D02*
X23403400Y59311800D01*
X23403400Y59311800D02*
X23403400Y58803800D01*
X23403400Y58803800D02*
X24038400Y58803800D01*
X24038400Y56924200D02*
X24038400Y57432200D01*
X24038400Y57432200D02*
X23403400Y57432200D01*
X23403400Y57432200D02*
X23403400Y56924200D01*
X23403400Y56924200D02*
X24038400Y56924200D01*
X25206800Y56594000D02*
G75*
G03X24597200Y56594000I-304800J0D01*
G01*
X59293600Y59642000D02*
X57566400Y59642000D01*
X57566400Y59642000D02*
X57566400Y56594000D01*
X57566400Y56594000D02*
X59293600Y56594000D01*
X59293600Y56594000D02*
X59293600Y59642000D01*
X59293600Y57432200D02*
X59293600Y56924200D01*
X59293600Y56924200D02*
X59928600Y56924200D01*
X59928600Y56924200D02*
X59928600Y57432200D01*
X59928600Y57432200D02*
X59293600Y57432200D01*
X59293600Y58372000D02*
X59293600Y57864000D01*
X59293600Y57864000D02*
X59928600Y57864000D01*
X59928600Y57864000D02*
X59928600Y58372000D01*
X59928600Y58372000D02*
X59293600Y58372000D01*
X59293600Y59311800D02*
X59293600Y58803800D01*
X59293600Y58803800D02*
X59928600Y58803800D01*
X59928600Y58803800D02*
X59928600Y59311800D01*
X59928600Y59311800D02*
X59293600Y59311800D01*
X57566400Y58803800D02*
X57566400Y59311800D01*
X57566400Y59311800D02*
X56931400Y59311800D01*
X56931400Y59311800D02*
X56931400Y58803800D01*
X56931400Y58803800D02*
X57566400Y58803800D01*
X57566400Y56924200D02*
X57566400Y57432200D01*
X57566400Y57432200D02*
X56931400Y57432200D01*
X56931400Y57432200D02*
X56931400Y56924200D01*
X56931400Y56924200D02*
X57566400Y56924200D01*
X58734800Y56594000D02*
G75*
G03X58125200Y56594000I-304800J0D01*
G01*
D12*
X135137999Y43767000D02*
X135137999Y43513000D01*
X135137999Y46307000D02*
X135137999Y46053000D01*
X135137999Y48847000D02*
X135137999Y48593000D01*
X141741999Y48847000D02*
X141741999Y48593000D01*
X141741999Y46307000D02*
X141741999Y46053000D01*
X141741999Y43767000D02*
X141741999Y43513000D01*
X136534999Y50244000D02*
G75*
G03X136534999Y50244000I-254000J0D01*
G01*
X137423999Y51260000D02*
X135137999Y51260000D01*
X141741999Y51260000D02*
X139455999Y51260000D01*
X137423999Y51260000D02*
G75*
G03X138439999Y50244000I1016000J0D01*
G01*
X138439999Y50244000D02*
G75*
G03X139455999Y51260000I0J1016000D01*
G01*
X141741999Y41100000D02*
X141741999Y41608000D01*
X135137999Y41100000D02*
X135137999Y41608000D01*
X135137999Y51260000D02*
X135137999Y50752000D01*
X141741999Y51260000D02*
X141741999Y50752000D01*
X141741999Y41100000D02*
X135137999Y41100000D01*
X118265142Y43767000D02*
X118265142Y43513000D01*
X118265142Y46307000D02*
X118265142Y46053000D01*
X118265142Y48847000D02*
X118265142Y48593000D01*
X124869142Y48847000D02*
X124869142Y48593000D01*
X124869142Y46307000D02*
X124869142Y46053000D01*
X124869142Y43767000D02*
X124869142Y43513000D01*
X119662142Y50244000D02*
G75*
G03X119662142Y50244000I-254000J0D01*
G01*
X120551142Y51260000D02*
X118265142Y51260000D01*
X124869142Y51260000D02*
X122583142Y51260000D01*
X120551142Y51260000D02*
G75*
G03X121567142Y50244000I1016000J0D01*
G01*
X121567142Y50244000D02*
G75*
G03X122583142Y51260000I0J1016000D01*
G01*
X124869142Y41100000D02*
X124869142Y41608000D01*
X118265142Y41100000D02*
X118265142Y41608000D01*
X118265142Y51260000D02*
X118265142Y50752000D01*
X124869142Y51260000D02*
X124869142Y50752000D01*
X124869142Y41100000D02*
X118265142Y41100000D01*
X101392285Y43767000D02*
X101392285Y43513000D01*
X101392285Y46307000D02*
X101392285Y46053000D01*
X101392285Y48847000D02*
X101392285Y48593000D01*
X107996285Y48847000D02*
X107996285Y48593000D01*
X107996285Y46307000D02*
X107996285Y46053000D01*
X107996285Y43767000D02*
X107996285Y43513000D01*
X102789285Y50244000D02*
G75*
G03X102789285Y50244000I-254000J0D01*
G01*
X103678285Y51260000D02*
X101392285Y51260000D01*
X107996285Y51260000D02*
X105710285Y51260000D01*
X103678285Y51260000D02*
G75*
G03X104694285Y50244000I1016000J0D01*
G01*
X104694285Y50244000D02*
G75*
G03X105710285Y51260000I0J1016000D01*
G01*
X107996285Y41100000D02*
X107996285Y41608000D01*
X101392285Y41100000D02*
X101392285Y41608000D01*
X101392285Y51260000D02*
X101392285Y50752000D01*
X107996285Y51260000D02*
X107996285Y50752000D01*
X107996285Y41100000D02*
X101392285Y41100000D01*
X84519428Y43767000D02*
X84519428Y43513000D01*
X84519428Y46307000D02*
X84519428Y46053000D01*
X84519428Y48847000D02*
X84519428Y48593000D01*
X91123428Y48847000D02*
X91123428Y48593000D01*
X91123428Y46307000D02*
X91123428Y46053000D01*
X91123428Y43767000D02*
X91123428Y43513000D01*
X85916428Y50244000D02*
G75*
G03X85916428Y50244000I-254000J0D01*
G01*
X86805428Y51260000D02*
X84519428Y51260000D01*
X91123428Y51260000D02*
X88837428Y51260000D01*
X86805428Y51260000D02*
G75*
G03X87821428Y50244000I1016000J0D01*
G01*
X87821428Y50244000D02*
G75*
G03X88837428Y51260000I0J1016000D01*
G01*
X91123428Y41100000D02*
X91123428Y41608000D01*
X84519428Y41100000D02*
X84519428Y41608000D01*
X84519428Y51260000D02*
X84519428Y50752000D01*
X91123428Y51260000D02*
X91123428Y50752000D01*
X91123428Y41100000D02*
X84519428Y41100000D01*
X67828000Y43767000D02*
X67828000Y43513000D01*
X67828000Y46307000D02*
X67828000Y46053000D01*
X67828000Y48847000D02*
X67828000Y48593000D01*
X74432000Y48847000D02*
X74432000Y48593000D01*
X74432000Y46307000D02*
X74432000Y46053000D01*
X74432000Y43767000D02*
X74432000Y43513000D01*
X69225000Y50244000D02*
G75*
G03X69225000Y50244000I-254000J0D01*
G01*
X70114000Y51260000D02*
X67828000Y51260000D01*
X74432000Y51260000D02*
X72146000Y51260000D01*
X70114000Y51260000D02*
G75*
G03X71130000Y50244000I1016000J0D01*
G01*
X71130000Y50244000D02*
G75*
G03X72146000Y51260000I0J1016000D01*
G01*
X74432000Y41100000D02*
X74432000Y41608000D01*
X67828000Y41100000D02*
X67828000Y41608000D01*
X67828000Y51260000D02*
X67828000Y50752000D01*
X74432000Y51260000D02*
X74432000Y50752000D01*
X74432000Y41100000D02*
X67828000Y41100000D01*
X50773714Y43767000D02*
X50773714Y43513000D01*
X50773714Y46307000D02*
X50773714Y46053000D01*
X50773714Y48847000D02*
X50773714Y48593000D01*
X57377714Y48847000D02*
X57377714Y48593000D01*
X57377714Y46307000D02*
X57377714Y46053000D01*
X57377714Y43767000D02*
X57377714Y43513000D01*
X52170714Y50244000D02*
G75*
G03X52170714Y50244000I-254000J0D01*
G01*
X53059714Y51260000D02*
X50773714Y51260000D01*
X57377714Y51260000D02*
X55091714Y51260000D01*
X53059714Y51260000D02*
G75*
G03X54075714Y50244000I1016000J0D01*
G01*
X54075714Y50244000D02*
G75*
G03X55091714Y51260000I0J1016000D01*
G01*
X57377714Y41100000D02*
X57377714Y41608000D01*
X50773714Y41100000D02*
X50773714Y41608000D01*
X50773714Y51260000D02*
X50773714Y50752000D01*
X57377714Y51260000D02*
X57377714Y50752000D01*
X57377714Y41100000D02*
X50773714Y41100000D01*
X134122000Y7953000D02*
X134122000Y7699000D01*
X134122000Y10493000D02*
X134122000Y10239000D01*
X140726000Y10493000D02*
X140726000Y10239000D01*
X140726000Y7953000D02*
X140726000Y7699000D01*
X135519000Y11890000D02*
G75*
G03X135519000Y11890000I-254000J0D01*
G01*
X136408000Y13106000D02*
X134122000Y13106000D01*
X140726000Y13106000D02*
X138440000Y13106000D01*
X136408000Y13106000D02*
G75*
G03X137424000Y12090000I1016000J0D01*
G01*
X137424000Y12090000D02*
G75*
G03X138440000Y13106000I0J1016000D01*
G01*
X134122000Y5105000D02*
X134122000Y5613000D01*
X134122000Y13106000D02*
X134122000Y12598000D01*
X140726000Y13106000D02*
X140726000Y12598000D01*
X140726000Y5105000D02*
X134122000Y5105000D01*
X140726000Y5105000D02*
X140726000Y5613000D01*
D13*
X25258020Y64812816D02*
X25258020Y63085616D01*
X25258020Y63085616D02*
X28306020Y63085616D01*
X28306020Y63085616D02*
X28306020Y64812816D01*
X28306020Y64812816D02*
X25258020Y64812816D01*
X27467820Y64812816D02*
X27975820Y64812816D01*
X27975820Y64812816D02*
X27975820Y65447816D01*
X27975820Y65447816D02*
X27467820Y65447816D01*
X27467820Y65447816D02*
X27467820Y64812816D01*
X26528020Y64812816D02*
X27036020Y64812816D01*
X27036020Y64812816D02*
X27036020Y65447816D01*
X27036020Y65447816D02*
X26528020Y65447816D01*
X26528020Y65447816D02*
X26528020Y64812816D01*
X25588220Y64812816D02*
X26096220Y64812816D01*
X26096220Y64812816D02*
X26096220Y65447816D01*
X26096220Y65447816D02*
X25588220Y65447816D01*
X25588220Y65447816D02*
X25588220Y64812816D01*
X26096220Y63085616D02*
X25588220Y63085616D01*
X25588220Y63085616D02*
X25588220Y62450616D01*
X25588220Y62450616D02*
X26096220Y62450616D01*
X26096220Y62450616D02*
X26096220Y63085616D01*
X27975820Y63085616D02*
X27467820Y63085616D01*
X27467820Y63085616D02*
X27467820Y62450616D01*
X27467820Y62450616D02*
X27975820Y62450616D01*
X27975820Y62450616D02*
X27975820Y63085616D01*
X28306020Y64254016D02*
G75*
G03X28306020Y63644416I0J-304800D01*
G01*
X95412400Y62662000D02*
X97139600Y62662000D01*
X97139600Y62662000D02*
X97139600Y65710000D01*
X97139600Y65710000D02*
X95412400Y65710000D01*
X95412400Y65710000D02*
X95412400Y62662000D01*
X95412400Y64871800D02*
X95412400Y65379800D01*
X95412400Y65379800D02*
X94777400Y65379800D01*
X94777400Y65379800D02*
X94777400Y64871800D01*
X94777400Y64871800D02*
X95412400Y64871800D01*
X95412400Y63932000D02*
X95412400Y64440000D01*
X95412400Y64440000D02*
X94777400Y64440000D01*
X94777400Y64440000D02*
X94777400Y63932000D01*
X94777400Y63932000D02*
X95412400Y63932000D01*
X95412400Y62992200D02*
X95412400Y63500200D01*
X95412400Y63500200D02*
X94777400Y63500200D01*
X94777400Y63500200D02*
X94777400Y62992200D01*
X94777400Y62992200D02*
X95412400Y62992200D01*
X97139600Y63500200D02*
X97139600Y62992200D01*
X97139600Y62992200D02*
X97774600Y62992200D01*
X97774600Y62992200D02*
X97774600Y63500200D01*
X97774600Y63500200D02*
X97139600Y63500200D01*
X97139600Y65379800D02*
X97139600Y64871800D01*
X97139600Y64871800D02*
X97774600Y64871800D01*
X97774600Y64871800D02*
X97774600Y65379800D01*
X97774600Y65379800D02*
X97139600Y65379800D01*
X95971200Y65710000D02*
G75*
G03X96580800Y65710000I304800J0D01*
G01*
X64780000Y66710594D02*
X64780000Y67218594D01*
X64780000Y67218594D02*
X63256000Y67218594D01*
X63256000Y67218594D02*
X63256000Y66710594D01*
X63256000Y66710594D02*
X64780000Y66710594D01*
X64780000Y65440594D02*
X64780000Y65948594D01*
X64780000Y65948594D02*
X63256000Y65948594D01*
X63256000Y65948594D02*
X63256000Y65440594D01*
X63256000Y65440594D02*
X64780000Y65440594D01*
X64780000Y64170594D02*
X64780000Y64678594D01*
X64780000Y64678594D02*
X63256000Y64678594D01*
X63256000Y64678594D02*
X63256000Y64170594D01*
X63256000Y64170594D02*
X64780000Y64170594D01*
X64780000Y62900594D02*
X64780000Y63408594D01*
X64780000Y63408594D02*
X63256000Y63408594D01*
X63256000Y63408594D02*
X63256000Y62900594D01*
X63256000Y62900594D02*
X64780000Y62900594D01*
X64780000Y61630594D02*
X64780000Y62138594D01*
X64780000Y62138594D02*
X63256000Y62138594D01*
X63256000Y62138594D02*
X63256000Y61630594D01*
X63256000Y61630594D02*
X64780000Y61630594D01*
X64780000Y60360594D02*
X64780000Y60868594D01*
X64780000Y60868594D02*
X63256000Y60868594D01*
X63256000Y60868594D02*
X63256000Y60360594D01*
X63256000Y60360594D02*
X64780000Y60360594D01*
X64780000Y59090594D02*
X64780000Y59598594D01*
X64780000Y59598594D02*
X63256000Y59598594D01*
X63256000Y59598594D02*
X63256000Y59090594D01*
X63256000Y59090594D02*
X64780000Y59090594D01*
X64780000Y57820594D02*
X64780000Y58328594D01*
X64780000Y58328594D02*
X63256000Y58328594D01*
X63256000Y58328594D02*
X63256000Y57820594D01*
X63256000Y57820594D02*
X64780000Y57820594D01*
X72400000Y58328594D02*
X72400000Y57820594D01*
X72400000Y57820594D02*
X73924000Y57820594D01*
X73924000Y57820594D02*
X73924000Y58328594D01*
X73924000Y58328594D02*
X72400000Y58328594D01*
X72400000Y59598594D02*
X72400000Y59090594D01*
X72400000Y59090594D02*
X73924000Y59090594D01*
X73924000Y59090594D02*
X73924000Y59598594D01*
X73924000Y59598594D02*
X72400000Y59598594D01*
X72400000Y60868594D02*
X72400000Y60360594D01*
X72400000Y60360594D02*
X73924000Y60360594D01*
X73924000Y60360594D02*
X73924000Y60868594D01*
X73924000Y60868594D02*
X72400000Y60868594D01*
X72400000Y62138594D02*
X72400000Y61630594D01*
X72400000Y61630594D02*
X73924000Y61630594D01*
X73924000Y61630594D02*
X73924000Y62138594D01*
X73924000Y62138594D02*
X72400000Y62138594D01*
X72400000Y63408594D02*
X72400000Y62900594D01*
X72400000Y62900594D02*
X73924000Y62900594D01*
X73924000Y62900594D02*
X73924000Y63408594D01*
X73924000Y63408594D02*
X72400000Y63408594D01*
X72400000Y64678594D02*
X72400000Y64170594D01*
X72400000Y64170594D02*
X73924000Y64170594D01*
X73924000Y64170594D02*
X73924000Y64678594D01*
X73924000Y64678594D02*
X72400000Y64678594D01*
X72400000Y65948594D02*
X72400000Y65440594D01*
X72400000Y65440594D02*
X73924000Y65440594D01*
X73924000Y65440594D02*
X73924000Y65948594D01*
X73924000Y65948594D02*
X72400000Y65948594D01*
X72400000Y67218594D02*
X72400000Y66710594D01*
X72400000Y66710594D02*
X73924000Y66710594D01*
X73924000Y66710594D02*
X73924000Y67218594D01*
X73924000Y67218594D02*
X72400000Y67218594D01*
X64780000Y57287194D02*
X72400000Y57287194D01*
X72400000Y57287194D02*
X72400000Y67751994D01*
X72400000Y67751994D02*
X64780000Y67751994D01*
X64780000Y67751994D02*
X64780000Y57287194D01*
X68285200Y67764694D02*
G75*
G03X68894800Y67764694I304800J0D01*
G01*
X65440400Y11077200D02*
X65897600Y11077200D01*
X65897600Y11077200D02*
X65897600Y12194800D01*
X65897600Y12194800D02*
X65415000Y12194800D01*
X65415000Y12194800D02*
X65440400Y11077200D01*
X64170400Y11077200D02*
X64627600Y11077200D01*
X64627600Y11077200D02*
X64627600Y12194800D01*
X64627600Y12194800D02*
X64145000Y12194800D01*
X64145000Y12194800D02*
X64170400Y11077200D01*
X62900400Y11077200D02*
X63357600Y11077200D01*
X63357600Y11077200D02*
X63357600Y12194800D01*
X63357600Y12194800D02*
X62875000Y12194800D01*
X62875000Y12194800D02*
X62900400Y11077200D01*
X61630400Y11077200D02*
X62087600Y11077200D01*
X62087600Y11077200D02*
X62087600Y12194800D01*
X62087600Y12194800D02*
X61605000Y12194800D01*
X61605000Y12194800D02*
X61630400Y11077200D01*
X62087600Y7114800D02*
X61630400Y7114800D01*
X61630400Y7114800D02*
X61630400Y5997200D01*
X61630400Y5997200D02*
X62113000Y5997200D01*
X62113000Y5997200D02*
X62087600Y7114800D01*
X63357600Y7114800D02*
X62900400Y7114800D01*
X62900400Y7114800D02*
X62900400Y5997200D01*
X62900400Y5997200D02*
X63383000Y5997200D01*
X63383000Y5997200D02*
X63357600Y7114800D01*
X64627600Y7114800D02*
X64170400Y7114800D01*
X64170400Y7114800D02*
X64170400Y5997200D01*
X64170400Y5997200D02*
X64653000Y5997200D01*
X64653000Y5997200D02*
X64627600Y7114800D01*
X65897600Y7114800D02*
X65440400Y7114800D01*
X65440400Y7114800D02*
X65440400Y5997200D01*
X65440400Y5997200D02*
X65923000Y5997200D01*
X65923000Y5997200D02*
X65897600Y7114800D01*
X61274800Y11077200D02*
X61274800Y7114800D01*
X61274800Y7114800D02*
X66253200Y7114800D01*
X66253200Y7114800D02*
X66253200Y11077200D01*
X66253200Y11077200D02*
X61274800Y11077200D01*
X66265900Y9400800D02*
G75*
G03X66265900Y8791200I0J-304800D01*
G01*
D12*
X17028000Y43767000D02*
X17028000Y43513000D01*
X17028000Y46307000D02*
X17028000Y46053000D01*
X17028000Y48847000D02*
X17028000Y48593000D01*
X23632000Y48847000D02*
X23632000Y48593000D01*
X23632000Y46307000D02*
X23632000Y46053000D01*
X23632000Y43767000D02*
X23632000Y43513000D01*
X18425000Y50244000D02*
G75*
G03X18425000Y50244000I-254000J0D01*
G01*
X19314000Y51260000D02*
X17028000Y51260000D01*
X23632000Y51260000D02*
X21346000Y51260000D01*
X19314000Y51260000D02*
G75*
G03X20330000Y50244000I1016000J0D01*
G01*
X20330000Y50244000D02*
G75*
G03X21346000Y51260000I0J1016000D01*
G01*
X23632000Y41100000D02*
X23632000Y41608000D01*
X17028000Y41100000D02*
X17028000Y41608000D01*
X17028000Y51260000D02*
X17028000Y50752000D01*
X23632000Y51260000D02*
X23632000Y50752000D01*
X23632000Y41100000D02*
X17028000Y41100000D01*
X34046000Y43767000D02*
X34046000Y43513000D01*
X34046000Y46307000D02*
X34046000Y46053000D01*
X34046000Y48847000D02*
X34046000Y48593000D01*
X40650000Y48847000D02*
X40650000Y48593000D01*
X40650000Y46307000D02*
X40650000Y46053000D01*
X40650000Y43767000D02*
X40650000Y43513000D01*
X35443000Y50244000D02*
G75*
G03X35443000Y50244000I-254000J0D01*
G01*
X36332000Y51260000D02*
X34046000Y51260000D01*
X40650000Y51260000D02*
X38364000Y51260000D01*
X36332000Y51260000D02*
G75*
G03X37348000Y50244000I1016000J0D01*
G01*
X37348000Y50244000D02*
G75*
G03X38364000Y51260000I0J1016000D01*
G01*
X40650000Y41100000D02*
X40650000Y41608000D01*
X34046000Y41100000D02*
X34046000Y41608000D01*
X34046000Y51260000D02*
X34046000Y50752000D01*
X40650000Y51260000D02*
X40650000Y50752000D01*
X40650000Y41100000D02*
X34046000Y41100000D01*
X129100000Y8225000D02*
X127900000Y8225000D01*
X127900000Y9975000D02*
X129100000Y9975000D01*
X86737000Y19602000D02*
X86737000Y18402000D01*
X84987000Y18402000D02*
X84987000Y19602000D01*
X22950000Y37590000D02*
X22950000Y36040000D01*
X23230000Y32230000D02*
X23230000Y34770000D01*
X23230000Y34770000D02*
X25770000Y34770000D01*
X26050000Y36040000D02*
X26050000Y37590000D01*
X26050000Y37590000D02*
X22950000Y37590000D01*
X25770000Y34770000D02*
X25770000Y32230000D01*
X25770000Y32230000D02*
X23230000Y32230000D01*
X39950000Y37590000D02*
X39950000Y36040000D01*
X40230000Y32230000D02*
X40230000Y34770000D01*
X40230000Y34770000D02*
X42770000Y34770000D01*
X43050000Y36040000D02*
X43050000Y37590000D01*
X43050000Y37590000D02*
X39950000Y37590000D01*
X42770000Y34770000D02*
X42770000Y32230000D01*
X42770000Y32230000D02*
X40230000Y32230000D01*
X56950000Y37590000D02*
X56950000Y36040000D01*
X57230000Y32230000D02*
X57230000Y34770000D01*
X57230000Y34770000D02*
X59770000Y34770000D01*
X60050000Y36040000D02*
X60050000Y37590000D01*
X60050000Y37590000D02*
X56950000Y37590000D01*
X59770000Y34770000D02*
X59770000Y32230000D01*
X59770000Y32230000D02*
X57230000Y32230000D01*
X73950000Y37590000D02*
X73950000Y36040000D01*
X74230000Y32230000D02*
X74230000Y34770000D01*
X74230000Y34770000D02*
X76770000Y34770000D01*
X77050000Y36040000D02*
X77050000Y37590000D01*
X77050000Y37590000D02*
X73950000Y37590000D01*
X76770000Y34770000D02*
X76770000Y32230000D01*
X76770000Y32230000D02*
X74230000Y32230000D01*
X90950000Y37590000D02*
X90950000Y36040000D01*
X91230000Y32230000D02*
X91230000Y34770000D01*
X91230000Y34770000D02*
X93770000Y34770000D01*
X94050000Y36040000D02*
X94050000Y37590000D01*
X94050000Y37590000D02*
X90950000Y37590000D01*
X93770000Y34770000D02*
X93770000Y32230000D01*
X93770000Y32230000D02*
X91230000Y32230000D01*
X107950000Y37590000D02*
X107950000Y36040000D01*
X108230000Y32230000D02*
X108230000Y34770000D01*
X108230000Y34770000D02*
X110770000Y34770000D01*
X111050000Y36040000D02*
X111050000Y37590000D01*
X111050000Y37590000D02*
X107950000Y37590000D01*
X110770000Y34770000D02*
X110770000Y32230000D01*
X110770000Y32230000D02*
X108230000Y32230000D01*
X141950000Y37590000D02*
X141950000Y36040000D01*
X142230000Y32230000D02*
X142230000Y34770000D01*
X142230000Y34770000D02*
X144770000Y34770000D01*
X145050000Y36040000D02*
X145050000Y37590000D01*
X145050000Y37590000D02*
X141950000Y37590000D01*
X144770000Y34770000D02*
X144770000Y32230000D01*
X144770000Y32230000D02*
X142230000Y32230000D01*
X124950000Y37590000D02*
X124950000Y36040000D01*
X125230000Y32230000D02*
X125230000Y34770000D01*
X125230000Y34770000D02*
X127770000Y34770000D01*
X128050000Y36040000D02*
X128050000Y37590000D01*
X128050000Y37590000D02*
X124950000Y37590000D01*
X127770000Y34770000D02*
X127770000Y32230000D01*
X127770000Y32230000D02*
X125230000Y32230000D01*
X34075000Y58900000D02*
X34075000Y57700000D01*
X32325000Y57700000D02*
X32325000Y58900000D01*
X51375000Y57300000D02*
X51375000Y56100000D01*
X49625000Y56100000D02*
X49625000Y57300000D01*
X47375000Y58850000D02*
X47375000Y57650000D01*
X45625000Y57650000D02*
X45625000Y58850000D01*
X104404000Y60154000D02*
X104404000Y59904000D01*
X104404000Y60654000D02*
X104404000Y60904000D01*
X104404000Y60654000D02*
X104754000Y60154000D01*
X104754000Y60154000D02*
X104054000Y60154000D01*
X104054000Y60154000D02*
X104404000Y60654000D01*
X104754000Y60654000D02*
X104054000Y60654000D01*
X103604000Y61704000D02*
X103604000Y59304000D01*
X105204000Y61704000D02*
X105204000Y59304000D01*
X104404000Y64718000D02*
X104404000Y64968000D01*
X104404000Y64218000D02*
X104404000Y63968000D01*
X104404000Y64218000D02*
X104054000Y64718000D01*
X104054000Y64718000D02*
X104754000Y64718000D01*
X104754000Y64718000D02*
X104404000Y64218000D01*
X104054000Y64218000D02*
X104754000Y64218000D01*
X105204000Y63168000D02*
X105204000Y65568000D01*
X103604000Y63168000D02*
X103604000Y65568000D01*
X42611795Y64224209D02*
X42611795Y64474209D01*
X42611795Y63724209D02*
X42611795Y63474209D01*
X42611795Y63724209D02*
X42261795Y64224209D01*
X42261795Y64224209D02*
X42961795Y64224209D01*
X42961795Y64224209D02*
X42611795Y63724209D01*
X42261795Y63724209D02*
X42961795Y63724209D01*
X43411795Y62674209D02*
X43411795Y65074209D01*
X41811795Y62674209D02*
X41811795Y65074209D01*
X21784000Y14226000D02*
X23816000Y14226000D01*
X24197000Y14099000D02*
X21276000Y14099000D01*
X21022000Y13972000D02*
X24578000Y13972000D01*
X24959000Y13845000D02*
X20641000Y13845000D01*
X20387000Y13718000D02*
X25213000Y13718000D01*
X25340000Y13591000D02*
X20260000Y13591000D01*
X28007000Y14607000D02*
X17593000Y14607000D01*
X17593000Y14607000D02*
X17593000Y4955000D01*
X17593000Y4955000D02*
X18355000Y4193000D01*
X18355000Y4193000D02*
X27245000Y4193000D01*
X27245000Y4193000D02*
X28007000Y4955000D01*
X28007000Y4955000D02*
X28007000Y14607000D01*
X22800000Y4828000D02*
X22800000Y5590000D01*
X23181000Y5209000D02*
X22419000Y5209000D01*
X27753000Y9400000D02*
G75*
G03X27753000Y9400000I-4953000J0D01*
G01*
X33184000Y14226000D02*
X35216000Y14226000D01*
X35597000Y14099000D02*
X32676000Y14099000D01*
X32422000Y13972000D02*
X35978000Y13972000D01*
X36359000Y13845000D02*
X32041000Y13845000D01*
X31787000Y13718000D02*
X36613000Y13718000D01*
X36740000Y13591000D02*
X31660000Y13591000D01*
X39407000Y14607000D02*
X28993000Y14607000D01*
X28993000Y14607000D02*
X28993000Y4955000D01*
X28993000Y4955000D02*
X29755000Y4193000D01*
X29755000Y4193000D02*
X38645000Y4193000D01*
X38645000Y4193000D02*
X39407000Y4955000D01*
X39407000Y4955000D02*
X39407000Y14607000D01*
X34200000Y4828000D02*
X34200000Y5590000D01*
X34581000Y5209000D02*
X33819000Y5209000D01*
X39153000Y9400000D02*
G75*
G03X39153000Y9400000I-4953000J0D01*
G01*
X53300000Y3300000D02*
X44800000Y3300000D01*
X44800000Y3300000D02*
X44800000Y14900000D01*
X44800000Y14900000D02*
X53300000Y14900000D01*
X53300000Y14900000D02*
X53300000Y3300000D01*
X140925000Y14500000D02*
X140925000Y15700000D01*
X142675000Y15700000D02*
X142675000Y14500000D01*
X36630000Y62143000D02*
X36630000Y61843000D01*
X42130000Y62143000D02*
X42130000Y61843000D01*
X42130000Y56633000D02*
X42130000Y56933000D01*
X36630000Y56633000D02*
X36630000Y56933000D01*
X36630000Y62143000D02*
X42130000Y62143000D01*
X36630000Y56633000D02*
X42130000Y56633000D01*
X36630000Y61843000D02*
X34880000Y61843000D01*
X15240381Y2340905D02*
X14240381Y2340905D01*
X14240381Y2579000D01*
X14288000Y2721858D01*
X14383238Y2817096D01*
X14478476Y2864715D01*
X14668952Y2912334D01*
X14811810Y2912334D01*
X15002286Y2864715D01*
X15097524Y2817096D01*
X15192762Y2721858D01*
X15240381Y2579000D01*
X15240381Y2340905D01*
X15240381Y3864715D02*
X15240381Y3293286D01*
X15240381Y3579000D02*
X14240381Y3579000D01*
X14383238Y3483762D01*
X14478476Y3388524D01*
X14526095Y3293286D01*
X108857143Y14892857D02*
X108809524Y14845238D01*
X108666667Y14797619D01*
X108571429Y14797619D01*
X108428571Y14845238D01*
X108333333Y14940476D01*
X108285714Y15035714D01*
X108238095Y15226190D01*
X108238095Y15369048D01*
X108285714Y15559524D01*
X108333333Y15654762D01*
X108428571Y15750000D01*
X108571429Y15797619D01*
X108666667Y15797619D01*
X108809524Y15750000D01*
X108857143Y15702381D01*
X109761905Y15797619D02*
X109285714Y15797619D01*
X109238095Y15321429D01*
X109285714Y15369048D01*
X109380952Y15416667D01*
X109619048Y15416667D01*
X109714286Y15369048D01*
X109761905Y15321429D01*
X109809524Y15226190D01*
X109809524Y14988095D01*
X109761905Y14892857D01*
X109714286Y14845238D01*
X109619048Y14797619D01*
X109380952Y14797619D01*
X109285714Y14845238D01*
X109238095Y14892857D01*
X110142857Y15797619D02*
X110809524Y15797619D01*
X110380952Y14797619D01*
X108107143Y20642857D02*
X108059524Y20595238D01*
X107916667Y20547619D01*
X107821429Y20547619D01*
X107678571Y20595238D01*
X107583333Y20690476D01*
X107535714Y20785714D01*
X107488095Y20976190D01*
X107488095Y21119048D01*
X107535714Y21309524D01*
X107583333Y21404762D01*
X107678571Y21500000D01*
X107821429Y21547619D01*
X107916667Y21547619D01*
X108059524Y21500000D01*
X108107143Y21452381D01*
X109011905Y21547619D02*
X108535714Y21547619D01*
X108488095Y21071429D01*
X108535714Y21119048D01*
X108630952Y21166667D01*
X108869048Y21166667D01*
X108964286Y21119048D01*
X109011905Y21071429D01*
X109059524Y20976190D01*
X109059524Y20738095D01*
X109011905Y20642857D01*
X108964286Y20595238D01*
X108869048Y20547619D01*
X108630952Y20547619D01*
X108535714Y20595238D01*
X108488095Y20642857D01*
X109916667Y21547619D02*
X109726190Y21547619D01*
X109630952Y21500000D01*
X109583333Y21452381D01*
X109488095Y21309524D01*
X109440476Y21119048D01*
X109440476Y20738095D01*
X109488095Y20642857D01*
X109535714Y20595238D01*
X109630952Y20547619D01*
X109821429Y20547619D01*
X109916667Y20595238D01*
X109964286Y20642857D01*
X110011905Y20738095D01*
X110011905Y20976190D01*
X109964286Y21071429D01*
X109916667Y21119048D01*
X109821429Y21166667D01*
X109630952Y21166667D01*
X109535714Y21119048D01*
X109488095Y21071429D01*
X109440476Y20976190D01*
X95704319Y9947619D02*
X95704319Y9138095D01*
X95751938Y9042857D01*
X95799557Y8995238D01*
X95894795Y8947619D01*
X96085272Y8947619D01*
X96180510Y8995238D01*
X96228129Y9042857D01*
X96275748Y9138095D01*
X96275748Y9947619D01*
X97275748Y8947619D02*
X96704319Y8947619D01*
X96990033Y8947619D02*
X96990033Y9947619D01*
X96894795Y9804762D01*
X96799557Y9709524D01*
X96704319Y9661905D01*
X98180510Y9947619D02*
X97704319Y9947619D01*
X97656700Y9471429D01*
X97704319Y9519048D01*
X97799557Y9566667D01*
X98037653Y9566667D01*
X98132891Y9519048D01*
X98180510Y9471429D01*
X98228129Y9376190D01*
X98228129Y9138095D01*
X98180510Y9042857D01*
X98132891Y8995238D01*
X98037653Y8947619D01*
X97799557Y8947619D01*
X97704319Y8995238D01*
X97656700Y9042857D01*
X113887611Y15499843D02*
X114697135Y15499843D01*
X114792373Y15547462D01*
X114839992Y15595081D01*
X114887611Y15690319D01*
X114887611Y15880796D01*
X114839992Y15976034D01*
X114792373Y16023653D01*
X114697135Y16071272D01*
X113887611Y16071272D01*
X114887611Y17071272D02*
X114887611Y16499843D01*
X114887611Y16785557D02*
X113887611Y16785557D01*
X114030468Y16690319D01*
X114125706Y16595081D01*
X114173325Y16499843D01*
X114887611Y17547462D02*
X114887611Y17737938D01*
X114839992Y17833177D01*
X114792373Y17880796D01*
X114649516Y17976034D01*
X114459040Y18023653D01*
X114078087Y18023653D01*
X113982849Y17976034D01*
X113935230Y17928415D01*
X113887611Y17833177D01*
X113887611Y17642700D01*
X113935230Y17547462D01*
X113982849Y17499843D01*
X114078087Y17452224D01*
X114316182Y17452224D01*
X114411420Y17499843D01*
X114459040Y17547462D01*
X114506659Y17642700D01*
X114506659Y17833177D01*
X114459040Y17928415D01*
X114411420Y17976034D01*
X114316182Y18023653D01*
X42801714Y19452619D02*
X42801714Y20452619D01*
X43039809Y20452619D01*
X43182667Y20405000D01*
X43277905Y20309762D01*
X43325524Y20214524D01*
X43373143Y20024048D01*
X43373143Y19881190D01*
X43325524Y19690714D01*
X43277905Y19595476D01*
X43182667Y19500238D01*
X43039809Y19452619D01*
X42801714Y19452619D01*
X44325524Y19452619D02*
X43754095Y19452619D01*
X44039809Y19452619D02*
X44039809Y20452619D01*
X43944571Y20309762D01*
X43849333Y20214524D01*
X43754095Y20166905D01*
X45230286Y20452619D02*
X44754095Y20452619D01*
X44706476Y19976429D01*
X44754095Y20024048D01*
X44849333Y20071667D01*
X45087429Y20071667D01*
X45182667Y20024048D01*
X45230286Y19976429D01*
X45277905Y19881190D01*
X45277905Y19643095D01*
X45230286Y19547857D01*
X45182667Y19500238D01*
X45087429Y19452619D01*
X44849333Y19452619D01*
X44754095Y19500238D01*
X44706476Y19547857D01*
X46988095Y17547619D02*
X46988095Y18547619D01*
X47559524Y17547619D02*
X47130952Y18119048D01*
X47559524Y18547619D02*
X46988095Y17976190D01*
X88759143Y7691143D02*
X88806762Y7643524D01*
X88854381Y7500667D01*
X88854381Y7405429D01*
X88806762Y7262571D01*
X88711524Y7167333D01*
X88616286Y7119714D01*
X88425810Y7072095D01*
X88282952Y7072095D01*
X88092476Y7119714D01*
X87997238Y7167333D01*
X87902000Y7262571D01*
X87854381Y7405429D01*
X87854381Y7500667D01*
X87902000Y7643524D01*
X87949619Y7691143D01*
X88187714Y8548286D02*
X88854381Y8548286D01*
X87806762Y8310190D02*
X88521048Y8072095D01*
X88521048Y8691143D01*
X88854381Y9595905D02*
X88854381Y9024476D01*
X88854381Y9310190D02*
X87854381Y9310190D01*
X87997238Y9214952D01*
X88092476Y9119714D01*
X88140095Y9024476D01*
X113548095Y63745619D02*
X113548095Y62936095D01*
X113595714Y62840857D01*
X113643333Y62793238D01*
X113738571Y62745619D01*
X113929048Y62745619D01*
X114024286Y62793238D01*
X114071905Y62840857D01*
X114119524Y62936095D01*
X114119524Y63745619D01*
X115024286Y63412286D02*
X115024286Y62745619D01*
X114786190Y63793238D02*
X114548095Y63078952D01*
X115167143Y63078952D01*
X43057143Y10781334D02*
X43104762Y10733715D01*
X43152381Y10590858D01*
X43152381Y10495620D01*
X43104762Y10352762D01*
X43009524Y10257524D01*
X42914286Y10209905D01*
X42723810Y10162286D01*
X42580952Y10162286D01*
X42390476Y10209905D01*
X42295238Y10257524D01*
X42200000Y10352762D01*
X42152381Y10495620D01*
X42152381Y10590858D01*
X42200000Y10733715D01*
X42247619Y10781334D01*
X42247619Y11162286D02*
X42200000Y11209905D01*
X42152381Y11305143D01*
X42152381Y11543239D01*
X42200000Y11638477D01*
X42247619Y11686096D01*
X42342857Y11733715D01*
X42438095Y11733715D01*
X42580952Y11686096D01*
X43152381Y11114667D01*
X43152381Y11733715D01*
X54977143Y13186856D02*
X55024762Y13139237D01*
X55072381Y12996380D01*
X55072381Y12901142D01*
X55024762Y12758284D01*
X54929524Y12663046D01*
X54834286Y12615427D01*
X54643810Y12567808D01*
X54500952Y12567808D01*
X54310476Y12615427D01*
X54215238Y12663046D01*
X54120000Y12758284D01*
X54072381Y12901142D01*
X54072381Y12996380D01*
X54120000Y13139237D01*
X54167619Y13186856D01*
X54072381Y13520189D02*
X54072381Y14139237D01*
X54453333Y13805903D01*
X54453333Y13948761D01*
X54500952Y14043999D01*
X54548571Y14091618D01*
X54643810Y14139237D01*
X54881905Y14139237D01*
X54977143Y14091618D01*
X55024762Y14043999D01*
X55072381Y13948761D01*
X55072381Y13663046D01*
X55024762Y13567808D01*
X54977143Y13520189D01*
X57009143Y13186856D02*
X57056762Y13139237D01*
X57104381Y12996380D01*
X57104381Y12901142D01*
X57056762Y12758284D01*
X56961524Y12663046D01*
X56866286Y12615427D01*
X56675810Y12567808D01*
X56532952Y12567808D01*
X56342476Y12615427D01*
X56247238Y12663046D01*
X56152000Y12758284D01*
X56104381Y12901142D01*
X56104381Y12996380D01*
X56152000Y13139237D01*
X56199619Y13186856D01*
X56437714Y14043999D02*
X57104381Y14043999D01*
X56056762Y13805903D02*
X56771048Y13567808D01*
X56771048Y14186856D01*
X59041143Y13186856D02*
X59088762Y13139237D01*
X59136381Y12996380D01*
X59136381Y12901142D01*
X59088762Y12758284D01*
X58993524Y12663046D01*
X58898286Y12615427D01*
X58707810Y12567808D01*
X58564952Y12567808D01*
X58374476Y12615427D01*
X58279238Y12663046D01*
X58184000Y12758284D01*
X58136381Y12901142D01*
X58136381Y12996380D01*
X58184000Y13139237D01*
X58231619Y13186856D01*
X58136381Y14091618D02*
X58136381Y13615427D01*
X58612571Y13567808D01*
X58564952Y13615427D01*
X58517333Y13710665D01*
X58517333Y13948761D01*
X58564952Y14043999D01*
X58612571Y14091618D01*
X58707810Y14139237D01*
X58945905Y14139237D01*
X59041143Y14091618D01*
X59088762Y14043999D01*
X59136381Y13948761D01*
X59136381Y13710665D01*
X59088762Y13615427D01*
X59041143Y13567808D01*
X59295143Y62924740D02*
X59342762Y62877121D01*
X59390381Y62734264D01*
X59390381Y62639026D01*
X59342762Y62496168D01*
X59247524Y62400930D01*
X59152286Y62353311D01*
X58961810Y62305692D01*
X58818952Y62305692D01*
X58628476Y62353311D01*
X58533238Y62400930D01*
X58438000Y62496168D01*
X58390381Y62639026D01*
X58390381Y62734264D01*
X58438000Y62877121D01*
X58485619Y62924740D01*
X58390381Y63781883D02*
X58390381Y63591406D01*
X58438000Y63496168D01*
X58485619Y63448549D01*
X58628476Y63353311D01*
X58818952Y63305692D01*
X59199905Y63305692D01*
X59295143Y63353311D01*
X59342762Y63400930D01*
X59390381Y63496168D01*
X59390381Y63686645D01*
X59342762Y63781883D01*
X59295143Y63829502D01*
X59199905Y63877121D01*
X58961810Y63877121D01*
X58866571Y63829502D01*
X58818952Y63781883D01*
X58771333Y63686645D01*
X58771333Y63496168D01*
X58818952Y63400930D01*
X58866571Y63353311D01*
X58961810Y63305692D01*
X61327143Y62990740D02*
X61374762Y62943121D01*
X61422381Y62800264D01*
X61422381Y62705026D01*
X61374762Y62562168D01*
X61279524Y62466930D01*
X61184286Y62419311D01*
X60993810Y62371692D01*
X60850952Y62371692D01*
X60660476Y62419311D01*
X60565238Y62466930D01*
X60470000Y62562168D01*
X60422381Y62705026D01*
X60422381Y62800264D01*
X60470000Y62943121D01*
X60517619Y62990740D01*
X60422381Y63324073D02*
X60422381Y63990740D01*
X61422381Y63562168D01*
X15057143Y13981334D02*
X15104762Y13933715D01*
X15152381Y13790858D01*
X15152381Y13695620D01*
X15104762Y13552762D01*
X15009524Y13457524D01*
X14914286Y13409905D01*
X14723810Y13362286D01*
X14580952Y13362286D01*
X14390476Y13409905D01*
X14295238Y13457524D01*
X14200000Y13552762D01*
X14152381Y13695620D01*
X14152381Y13790858D01*
X14200000Y13933715D01*
X14247619Y13981334D01*
X14580952Y14552762D02*
X14533333Y14457524D01*
X14485714Y14409905D01*
X14390476Y14362286D01*
X14342857Y14362286D01*
X14247619Y14409905D01*
X14200000Y14457524D01*
X14152381Y14552762D01*
X14152381Y14743239D01*
X14200000Y14838477D01*
X14247619Y14886096D01*
X14342857Y14933715D01*
X14390476Y14933715D01*
X14485714Y14886096D01*
X14533333Y14838477D01*
X14580952Y14743239D01*
X14580952Y14552762D01*
X14628571Y14457524D01*
X14676190Y14409905D01*
X14771429Y14362286D01*
X14961905Y14362286D01*
X15057143Y14409905D01*
X15104762Y14457524D01*
X15152381Y14552762D01*
X15152381Y14743239D01*
X15104762Y14838477D01*
X15057143Y14886096D01*
X14961905Y14933715D01*
X14771429Y14933715D01*
X14676190Y14886096D01*
X14628571Y14838477D01*
X14580952Y14743239D01*
X99665334Y66368857D02*
X99617715Y66321238D01*
X99474858Y66273619D01*
X99379620Y66273619D01*
X99236762Y66321238D01*
X99141524Y66416476D01*
X99093905Y66511714D01*
X99046286Y66702190D01*
X99046286Y66845048D01*
X99093905Y67035524D01*
X99141524Y67130762D01*
X99236762Y67226000D01*
X99379620Y67273619D01*
X99474858Y67273619D01*
X99617715Y67226000D01*
X99665334Y67178381D01*
X100141524Y66273619D02*
X100332000Y66273619D01*
X100427239Y66321238D01*
X100474858Y66368857D01*
X100570096Y66511714D01*
X100617715Y66702190D01*
X100617715Y67083143D01*
X100570096Y67178381D01*
X100522477Y67226000D01*
X100427239Y67273619D01*
X100236762Y67273619D01*
X100141524Y67226000D01*
X100093905Y67178381D01*
X100046286Y67083143D01*
X100046286Y66845048D01*
X100093905Y66749810D01*
X100141524Y66702190D01*
X100236762Y66654571D01*
X100427239Y66654571D01*
X100522477Y66702190D01*
X100570096Y66749810D01*
X100617715Y66845048D01*
X92077143Y66368857D02*
X92029524Y66321238D01*
X91886667Y66273619D01*
X91791429Y66273619D01*
X91648571Y66321238D01*
X91553333Y66416476D01*
X91505714Y66511714D01*
X91458095Y66702190D01*
X91458095Y66845048D01*
X91505714Y67035524D01*
X91553333Y67130762D01*
X91648571Y67226000D01*
X91791429Y67273619D01*
X91886667Y67273619D01*
X92029524Y67226000D01*
X92077143Y67178381D01*
X93029524Y66273619D02*
X92458095Y66273619D01*
X92743809Y66273619D02*
X92743809Y67273619D01*
X92648571Y67130762D01*
X92553333Y67035524D01*
X92458095Y66987905D01*
X93648571Y67273619D02*
X93743810Y67273619D01*
X93839048Y67226000D01*
X93886667Y67178381D01*
X93934286Y67083143D01*
X93981905Y66892667D01*
X93981905Y66654571D01*
X93934286Y66464095D01*
X93886667Y66368857D01*
X93839048Y66321238D01*
X93743810Y66273619D01*
X93648571Y66273619D01*
X93553333Y66321238D01*
X93505714Y66368857D01*
X93458095Y66464095D01*
X93410476Y66654571D01*
X93410476Y66892667D01*
X93458095Y67083143D01*
X93505714Y67178381D01*
X93553333Y67226000D01*
X93648571Y67273619D01*
X106793143Y66857143D02*
X106840762Y66809524D01*
X106888381Y66666667D01*
X106888381Y66571429D01*
X106840762Y66428571D01*
X106745524Y66333333D01*
X106650286Y66285714D01*
X106459810Y66238095D01*
X106316952Y66238095D01*
X106126476Y66285714D01*
X106031238Y66333333D01*
X105936000Y66428571D01*
X105888381Y66571429D01*
X105888381Y66666667D01*
X105936000Y66809524D01*
X105983619Y66857143D01*
X106888381Y67809524D02*
X106888381Y67238095D01*
X106888381Y67523809D02*
X105888381Y67523809D01*
X106031238Y67428571D01*
X106126476Y67333333D01*
X106174095Y67238095D01*
X106888381Y68761905D02*
X106888381Y68190476D01*
X106888381Y68476190D02*
X105888381Y68476190D01*
X106031238Y68380952D01*
X106126476Y68285714D01*
X106174095Y68190476D01*
X110107143Y66857143D02*
X110154762Y66809524D01*
X110202381Y66666667D01*
X110202381Y66571429D01*
X110154762Y66428571D01*
X110059524Y66333333D01*
X109964286Y66285714D01*
X109773810Y66238095D01*
X109630952Y66238095D01*
X109440476Y66285714D01*
X109345238Y66333333D01*
X109250000Y66428571D01*
X109202381Y66571429D01*
X109202381Y66666667D01*
X109250000Y66809524D01*
X109297619Y66857143D01*
X110202381Y67809524D02*
X110202381Y67238095D01*
X110202381Y67523809D02*
X109202381Y67523809D01*
X109345238Y67428571D01*
X109440476Y67333333D01*
X109488095Y67238095D01*
X109297619Y68190476D02*
X109250000Y68238095D01*
X109202381Y68333333D01*
X109202381Y68571429D01*
X109250000Y68666667D01*
X109297619Y68714286D01*
X109392857Y68761905D01*
X109488095Y68761905D01*
X109630952Y68714286D01*
X110202381Y68142857D01*
X110202381Y68761905D01*
X78599143Y61793143D02*
X78646762Y61745524D01*
X78694381Y61602667D01*
X78694381Y61507429D01*
X78646762Y61364571D01*
X78551524Y61269333D01*
X78456286Y61221714D01*
X78265810Y61174095D01*
X78122952Y61174095D01*
X77932476Y61221714D01*
X77837238Y61269333D01*
X77742000Y61364571D01*
X77694381Y61507429D01*
X77694381Y61602667D01*
X77742000Y61745524D01*
X77789619Y61793143D01*
X78694381Y62745524D02*
X78694381Y62174095D01*
X78694381Y62459809D02*
X77694381Y62459809D01*
X77837238Y62364571D01*
X77932476Y62269333D01*
X77980095Y62174095D01*
X77694381Y63078857D02*
X77694381Y63697905D01*
X78075333Y63364571D01*
X78075333Y63507429D01*
X78122952Y63602667D01*
X78170571Y63650286D01*
X78265810Y63697905D01*
X78503905Y63697905D01*
X78599143Y63650286D01*
X78646762Y63602667D01*
X78694381Y63507429D01*
X78694381Y63221714D01*
X78646762Y63126476D01*
X78599143Y63078857D01*
X76567143Y61793143D02*
X76614762Y61745524D01*
X76662381Y61602667D01*
X76662381Y61507429D01*
X76614762Y61364571D01*
X76519524Y61269333D01*
X76424286Y61221714D01*
X76233810Y61174095D01*
X76090952Y61174095D01*
X75900476Y61221714D01*
X75805238Y61269333D01*
X75710000Y61364571D01*
X75662381Y61507429D01*
X75662381Y61602667D01*
X75710000Y61745524D01*
X75757619Y61793143D01*
X76662381Y62745524D02*
X76662381Y62174095D01*
X76662381Y62459809D02*
X75662381Y62459809D01*
X75805238Y62364571D01*
X75900476Y62269333D01*
X75948095Y62174095D01*
X75995714Y63602667D02*
X76662381Y63602667D01*
X75614762Y63364571D02*
X76329048Y63126476D01*
X76329048Y63745524D01*
X54955334Y52748950D02*
X55002953Y52701331D01*
X55050572Y52558474D01*
X55050572Y52463236D01*
X55002953Y52320378D01*
X54907715Y52225140D01*
X54812477Y52177521D01*
X54622001Y52129902D01*
X54479143Y52129902D01*
X54288667Y52177521D01*
X54193429Y52225140D01*
X54098191Y52320378D01*
X54050572Y52463236D01*
X54050572Y52558474D01*
X54098191Y52701331D01*
X54145810Y52748950D01*
X55050572Y53701331D02*
X55050572Y53129902D01*
X55050572Y53415616D02*
X54050572Y53415616D01*
X54193429Y53320378D01*
X54288667Y53225140D01*
X54336286Y53129902D01*
X54050572Y54606093D02*
X54050572Y54129902D01*
X54526762Y54082283D01*
X54479143Y54129902D01*
X54431524Y54225140D01*
X54431524Y54463236D01*
X54479143Y54558474D01*
X54526762Y54606093D01*
X54622001Y54653712D01*
X54860096Y54653712D01*
X54955334Y54606093D01*
X55002953Y54558474D01*
X55050572Y54463236D01*
X55050572Y54225140D01*
X55002953Y54129902D01*
X54955334Y54082283D01*
X53431334Y52748950D02*
X53478953Y52701331D01*
X53526572Y52558474D01*
X53526572Y52463236D01*
X53478953Y52320378D01*
X53383715Y52225140D01*
X53288477Y52177521D01*
X53098001Y52129902D01*
X52955143Y52129902D01*
X52764667Y52177521D01*
X52669429Y52225140D01*
X52574191Y52320378D01*
X52526572Y52463236D01*
X52526572Y52558474D01*
X52574191Y52701331D01*
X52621810Y52748950D01*
X53526572Y53701331D02*
X53526572Y53129902D01*
X53526572Y53415616D02*
X52526572Y53415616D01*
X52669429Y53320378D01*
X52764667Y53225140D01*
X52812286Y53129902D01*
X52526572Y54558474D02*
X52526572Y54367997D01*
X52574191Y54272759D01*
X52621810Y54225140D01*
X52764667Y54129902D01*
X52955143Y54082283D01*
X53336096Y54082283D01*
X53431334Y54129902D01*
X53478953Y54177521D01*
X53526572Y54272759D01*
X53526572Y54463236D01*
X53478953Y54558474D01*
X53431334Y54606093D01*
X53336096Y54653712D01*
X53098001Y54653712D01*
X53002762Y54606093D01*
X52955143Y54558474D01*
X52907524Y54463236D01*
X52907524Y54272759D01*
X52955143Y54177521D01*
X53002762Y54129902D01*
X53098001Y54082283D01*
X106793143Y56459143D02*
X106840762Y56411524D01*
X106888381Y56268667D01*
X106888381Y56173429D01*
X106840762Y56030571D01*
X106745524Y55935333D01*
X106650286Y55887714D01*
X106459810Y55840095D01*
X106316952Y55840095D01*
X106126476Y55887714D01*
X106031238Y55935333D01*
X105936000Y56030571D01*
X105888381Y56173429D01*
X105888381Y56268667D01*
X105936000Y56411524D01*
X105983619Y56459143D01*
X106888381Y57411524D02*
X106888381Y56840095D01*
X106888381Y57125809D02*
X105888381Y57125809D01*
X106031238Y57030571D01*
X106126476Y56935333D01*
X106174095Y56840095D01*
X105888381Y57744857D02*
X105888381Y58411524D01*
X106888381Y57982952D01*
X110107143Y56459143D02*
X110154762Y56411524D01*
X110202381Y56268667D01*
X110202381Y56173429D01*
X110154762Y56030571D01*
X110059524Y55935333D01*
X109964286Y55887714D01*
X109773810Y55840095D01*
X109630952Y55840095D01*
X109440476Y55887714D01*
X109345238Y55935333D01*
X109250000Y56030571D01*
X109202381Y56173429D01*
X109202381Y56268667D01*
X109250000Y56411524D01*
X109297619Y56459143D01*
X110202381Y57411524D02*
X110202381Y56840095D01*
X110202381Y57125809D02*
X109202381Y57125809D01*
X109345238Y57030571D01*
X109440476Y56935333D01*
X109488095Y56840095D01*
X109630952Y57982952D02*
X109583333Y57887714D01*
X109535714Y57840095D01*
X109440476Y57792476D01*
X109392857Y57792476D01*
X109297619Y57840095D01*
X109250000Y57887714D01*
X109202381Y57982952D01*
X109202381Y58173429D01*
X109250000Y58268667D01*
X109297619Y58316286D01*
X109392857Y58363905D01*
X109440476Y58363905D01*
X109535714Y58316286D01*
X109583333Y58268667D01*
X109630952Y58173429D01*
X109630952Y57982952D01*
X109678571Y57887714D01*
X109726190Y57840095D01*
X109821429Y57792476D01*
X110011905Y57792476D01*
X110107143Y57840095D01*
X110154762Y57887714D01*
X110202381Y57982952D01*
X110202381Y58173429D01*
X110154762Y58268667D01*
X110107143Y58316286D01*
X110011905Y58363905D01*
X109821429Y58363905D01*
X109726190Y58316286D01*
X109678571Y58268667D01*
X109630952Y58173429D01*
X119933143Y64587143D02*
X119980762Y64539524D01*
X120028381Y64396667D01*
X120028381Y64301429D01*
X119980762Y64158571D01*
X119885524Y64063333D01*
X119790286Y64015714D01*
X119599810Y63968095D01*
X119456952Y63968095D01*
X119266476Y64015714D01*
X119171238Y64063333D01*
X119076000Y64158571D01*
X119028381Y64301429D01*
X119028381Y64396667D01*
X119076000Y64539524D01*
X119123619Y64587143D01*
X120028381Y65539524D02*
X120028381Y64968095D01*
X120028381Y65253809D02*
X119028381Y65253809D01*
X119171238Y65158571D01*
X119266476Y65063333D01*
X119314095Y64968095D01*
X120028381Y66015714D02*
X120028381Y66206190D01*
X119980762Y66301429D01*
X119933143Y66349048D01*
X119790286Y66444286D01*
X119599810Y66491905D01*
X119218857Y66491905D01*
X119123619Y66444286D01*
X119076000Y66396667D01*
X119028381Y66301429D01*
X119028381Y66110952D01*
X119076000Y66015714D01*
X119123619Y65968095D01*
X119218857Y65920476D01*
X119456952Y65920476D01*
X119552190Y65968095D01*
X119599810Y66015714D01*
X119647429Y66110952D01*
X119647429Y66301429D01*
X119599810Y66396667D01*
X119552190Y66444286D01*
X119456952Y66491905D01*
X124857143Y63357143D02*
X124904762Y63309524D01*
X124952381Y63166667D01*
X124952381Y63071429D01*
X124904762Y62928571D01*
X124809524Y62833333D01*
X124714286Y62785714D01*
X124523810Y62738095D01*
X124380952Y62738095D01*
X124190476Y62785714D01*
X124095238Y62833333D01*
X124000000Y62928571D01*
X123952381Y63071429D01*
X123952381Y63166667D01*
X124000000Y63309524D01*
X124047619Y63357143D01*
X124047619Y63738095D02*
X124000000Y63785714D01*
X123952381Y63880952D01*
X123952381Y64119048D01*
X124000000Y64214286D01*
X124047619Y64261905D01*
X124142857Y64309524D01*
X124238095Y64309524D01*
X124380952Y64261905D01*
X124952381Y63690476D01*
X124952381Y64309524D01*
X123952381Y64928571D02*
X123952381Y65023810D01*
X124000000Y65119048D01*
X124047619Y65166667D01*
X124142857Y65214286D01*
X124333333Y65261905D01*
X124571429Y65261905D01*
X124761905Y65214286D01*
X124857143Y65166667D01*
X124904762Y65119048D01*
X124952381Y65023810D01*
X124952381Y64928571D01*
X124904762Y64833333D01*
X124857143Y64785714D01*
X124761905Y64738095D01*
X124571429Y64690476D01*
X124333333Y64690476D01*
X124142857Y64738095D01*
X124047619Y64785714D01*
X124000000Y64833333D01*
X123952381Y64928571D01*
X120001143Y61031143D02*
X120048762Y60983524D01*
X120096381Y60840667D01*
X120096381Y60745429D01*
X120048762Y60602571D01*
X119953524Y60507333D01*
X119858286Y60459714D01*
X119667810Y60412095D01*
X119524952Y60412095D01*
X119334476Y60459714D01*
X119239238Y60507333D01*
X119144000Y60602571D01*
X119096381Y60745429D01*
X119096381Y60840667D01*
X119144000Y60983524D01*
X119191619Y61031143D01*
X119191619Y61412095D02*
X119144000Y61459714D01*
X119096381Y61554952D01*
X119096381Y61793048D01*
X119144000Y61888286D01*
X119191619Y61935905D01*
X119286857Y61983524D01*
X119382095Y61983524D01*
X119524952Y61935905D01*
X120096381Y61364476D01*
X120096381Y61983524D01*
X120096381Y62935905D02*
X120096381Y62364476D01*
X120096381Y62650190D02*
X119096381Y62650190D01*
X119239238Y62554952D01*
X119334476Y62459714D01*
X119382095Y62364476D01*
X14503260Y50871143D02*
X14550879Y50823524D01*
X14598498Y50680667D01*
X14598498Y50585429D01*
X14550879Y50442571D01*
X14455641Y50347333D01*
X14360403Y50299714D01*
X14169927Y50252095D01*
X14027069Y50252095D01*
X13836593Y50299714D01*
X13741355Y50347333D01*
X13646117Y50442571D01*
X13598498Y50585429D01*
X13598498Y50680667D01*
X13646117Y50823524D01*
X13693736Y50871143D01*
X13693736Y51252095D02*
X13646117Y51299714D01*
X13598498Y51394952D01*
X13598498Y51633048D01*
X13646117Y51728286D01*
X13693736Y51775905D01*
X13788974Y51823524D01*
X13884212Y51823524D01*
X14027069Y51775905D01*
X14598498Y51204476D01*
X14598498Y51823524D01*
X13693736Y52204476D02*
X13646117Y52252095D01*
X13598498Y52347333D01*
X13598498Y52585429D01*
X13646117Y52680667D01*
X13693736Y52728286D01*
X13788974Y52775905D01*
X13884212Y52775905D01*
X14027069Y52728286D01*
X14598498Y52156857D01*
X14598498Y52775905D01*
X12857143Y49857143D02*
X12904762Y49809524D01*
X12952381Y49666667D01*
X12952381Y49571429D01*
X12904762Y49428571D01*
X12809524Y49333333D01*
X12714286Y49285714D01*
X12523810Y49238095D01*
X12380952Y49238095D01*
X12190476Y49285714D01*
X12095238Y49333333D01*
X12000000Y49428571D01*
X11952381Y49571429D01*
X11952381Y49666667D01*
X12000000Y49809524D01*
X12047619Y49857143D01*
X12047619Y50238095D02*
X12000000Y50285714D01*
X11952381Y50380952D01*
X11952381Y50619048D01*
X12000000Y50714286D01*
X12047619Y50761905D01*
X12142857Y50809524D01*
X12238095Y50809524D01*
X12380952Y50761905D01*
X12952381Y50190476D01*
X12952381Y50809524D01*
X11952381Y51142857D02*
X11952381Y51761905D01*
X12333333Y51428571D01*
X12333333Y51571429D01*
X12380952Y51666667D01*
X12428571Y51714286D01*
X12523810Y51761905D01*
X12761905Y51761905D01*
X12857143Y51714286D01*
X12904762Y51666667D01*
X12952381Y51571429D01*
X12952381Y51285714D01*
X12904762Y51190476D01*
X12857143Y51142857D01*
X31391451Y50871143D02*
X31439070Y50823524D01*
X31486689Y50680667D01*
X31486689Y50585429D01*
X31439070Y50442571D01*
X31343832Y50347333D01*
X31248594Y50299714D01*
X31058118Y50252095D01*
X30915260Y50252095D01*
X30724784Y50299714D01*
X30629546Y50347333D01*
X30534308Y50442571D01*
X30486689Y50585429D01*
X30486689Y50680667D01*
X30534308Y50823524D01*
X30581927Y50871143D01*
X30581927Y51252095D02*
X30534308Y51299714D01*
X30486689Y51394952D01*
X30486689Y51633048D01*
X30534308Y51728286D01*
X30581927Y51775905D01*
X30677165Y51823524D01*
X30772403Y51823524D01*
X30915260Y51775905D01*
X31486689Y51204476D01*
X31486689Y51823524D01*
X30486689Y52728286D02*
X30486689Y52252095D01*
X30962879Y52204476D01*
X30915260Y52252095D01*
X30867641Y52347333D01*
X30867641Y52585429D01*
X30915260Y52680667D01*
X30962879Y52728286D01*
X31058118Y52775905D01*
X31296213Y52775905D01*
X31391451Y52728286D01*
X31439070Y52680667D01*
X31486689Y52585429D01*
X31486689Y52347333D01*
X31439070Y52252095D01*
X31391451Y52204476D01*
X29687143Y50107143D02*
X29734762Y50059524D01*
X29782381Y49916667D01*
X29782381Y49821429D01*
X29734762Y49678571D01*
X29639524Y49583333D01*
X29544286Y49535714D01*
X29353810Y49488095D01*
X29210952Y49488095D01*
X29020476Y49535714D01*
X28925238Y49583333D01*
X28830000Y49678571D01*
X28782381Y49821429D01*
X28782381Y49916667D01*
X28830000Y50059524D01*
X28877619Y50107143D01*
X28877619Y50488095D02*
X28830000Y50535714D01*
X28782381Y50630952D01*
X28782381Y50869048D01*
X28830000Y50964286D01*
X28877619Y51011905D01*
X28972857Y51059524D01*
X29068095Y51059524D01*
X29210952Y51011905D01*
X29782381Y50440476D01*
X29782381Y51059524D01*
X28782381Y51916667D02*
X28782381Y51726190D01*
X28830000Y51630952D01*
X28877619Y51583333D01*
X29020476Y51488095D01*
X29210952Y51440476D01*
X29591905Y51440476D01*
X29687143Y51488095D01*
X29734762Y51535714D01*
X29782381Y51630952D01*
X29782381Y51821429D01*
X29734762Y51916667D01*
X29687143Y51964286D01*
X29591905Y52011905D01*
X29353810Y52011905D01*
X29258571Y51964286D01*
X29210952Y51916667D01*
X29163333Y51821429D01*
X29163333Y51630952D01*
X29210952Y51535714D01*
X29258571Y51488095D01*
X29353810Y51440476D01*
X47865143Y50617143D02*
X47912762Y50569524D01*
X47960381Y50426667D01*
X47960381Y50331429D01*
X47912762Y50188571D01*
X47817524Y50093333D01*
X47722286Y50045714D01*
X47531810Y49998095D01*
X47388952Y49998095D01*
X47198476Y50045714D01*
X47103238Y50093333D01*
X47008000Y50188571D01*
X46960381Y50331429D01*
X46960381Y50426667D01*
X47008000Y50569524D01*
X47055619Y50617143D01*
X47055619Y50998095D02*
X47008000Y51045714D01*
X46960381Y51140952D01*
X46960381Y51379048D01*
X47008000Y51474286D01*
X47055619Y51521905D01*
X47150857Y51569524D01*
X47246095Y51569524D01*
X47388952Y51521905D01*
X47960381Y50950476D01*
X47960381Y51569524D01*
X47388952Y52140952D02*
X47341333Y52045714D01*
X47293714Y51998095D01*
X47198476Y51950476D01*
X47150857Y51950476D01*
X47055619Y51998095D01*
X47008000Y52045714D01*
X46960381Y52140952D01*
X46960381Y52331429D01*
X47008000Y52426667D01*
X47055619Y52474286D01*
X47150857Y52521905D01*
X47198476Y52521905D01*
X47293714Y52474286D01*
X47341333Y52426667D01*
X47388952Y52331429D01*
X47388952Y52140952D01*
X47436571Y52045714D01*
X47484190Y51998095D01*
X47579429Y51950476D01*
X47769905Y51950476D01*
X47865143Y51998095D01*
X47912762Y52045714D01*
X47960381Y52140952D01*
X47960381Y52331429D01*
X47912762Y52426667D01*
X47865143Y52474286D01*
X47769905Y52521905D01*
X47579429Y52521905D01*
X47484190Y52474286D01*
X47436571Y52426667D01*
X47388952Y52331429D01*
X46476965Y49859075D02*
X46524584Y49811456D01*
X46572203Y49668599D01*
X46572203Y49573361D01*
X46524584Y49430503D01*
X46429346Y49335265D01*
X46334108Y49287646D01*
X46143632Y49240027D01*
X46000774Y49240027D01*
X45810298Y49287646D01*
X45715060Y49335265D01*
X45619822Y49430503D01*
X45572203Y49573361D01*
X45572203Y49668599D01*
X45619822Y49811456D01*
X45667441Y49859075D01*
X45667441Y50240027D02*
X45619822Y50287646D01*
X45572203Y50382884D01*
X45572203Y50620980D01*
X45619822Y50716218D01*
X45667441Y50763837D01*
X45762679Y50811456D01*
X45857917Y50811456D01*
X46000774Y50763837D01*
X46572203Y50192408D01*
X46572203Y50811456D01*
X46572203Y51287646D02*
X46572203Y51478122D01*
X46524584Y51573361D01*
X46476965Y51620980D01*
X46334108Y51716218D01*
X46143632Y51763837D01*
X45762679Y51763837D01*
X45667441Y51716218D01*
X45619822Y51668599D01*
X45572203Y51573361D01*
X45572203Y51382884D01*
X45619822Y51287646D01*
X45667441Y51240027D01*
X45762679Y51192408D01*
X46000774Y51192408D01*
X46096012Y51240027D01*
X46143632Y51287646D01*
X46191251Y51382884D01*
X46191251Y51573361D01*
X46143632Y51668599D01*
X46096012Y51716218D01*
X46000774Y51763837D01*
X65107143Y50617143D02*
X65154762Y50569524D01*
X65202381Y50426667D01*
X65202381Y50331429D01*
X65154762Y50188571D01*
X65059524Y50093333D01*
X64964286Y50045714D01*
X64773810Y49998095D01*
X64630952Y49998095D01*
X64440476Y50045714D01*
X64345238Y50093333D01*
X64250000Y50188571D01*
X64202381Y50331429D01*
X64202381Y50426667D01*
X64250000Y50569524D01*
X64297619Y50617143D01*
X64202381Y50950476D02*
X64202381Y51569524D01*
X64583333Y51236190D01*
X64583333Y51379048D01*
X64630952Y51474286D01*
X64678571Y51521905D01*
X64773810Y51569524D01*
X65011905Y51569524D01*
X65107143Y51521905D01*
X65154762Y51474286D01*
X65202381Y51379048D01*
X65202381Y51093333D01*
X65154762Y50998095D01*
X65107143Y50950476D01*
X65202381Y52521905D02*
X65202381Y51950476D01*
X65202381Y52236190D02*
X64202381Y52236190D01*
X64345238Y52140952D01*
X64440476Y52045714D01*
X64488095Y51950476D01*
X63607143Y50107143D02*
X63654762Y50059524D01*
X63702381Y49916667D01*
X63702381Y49821429D01*
X63654762Y49678571D01*
X63559524Y49583333D01*
X63464286Y49535714D01*
X63273810Y49488095D01*
X63130952Y49488095D01*
X62940476Y49535714D01*
X62845238Y49583333D01*
X62750000Y49678571D01*
X62702381Y49821429D01*
X62702381Y49916667D01*
X62750000Y50059524D01*
X62797619Y50107143D01*
X62702381Y50440476D02*
X62702381Y51059524D01*
X63083333Y50726190D01*
X63083333Y50869048D01*
X63130952Y50964286D01*
X63178571Y51011905D01*
X63273810Y51059524D01*
X63511905Y51059524D01*
X63607143Y51011905D01*
X63654762Y50964286D01*
X63702381Y50869048D01*
X63702381Y50583333D01*
X63654762Y50488095D01*
X63607143Y50440476D01*
X62797619Y51440476D02*
X62750000Y51488095D01*
X62702381Y51583333D01*
X62702381Y51821429D01*
X62750000Y51916667D01*
X62797619Y51964286D01*
X62892857Y52011905D01*
X62988095Y52011905D01*
X63130952Y51964286D01*
X63702381Y51392857D01*
X63702381Y52011905D01*
X81901143Y50617143D02*
X81948762Y50569524D01*
X81996381Y50426667D01*
X81996381Y50331429D01*
X81948762Y50188571D01*
X81853524Y50093333D01*
X81758286Y50045714D01*
X81567810Y49998095D01*
X81424952Y49998095D01*
X81234476Y50045714D01*
X81139238Y50093333D01*
X81044000Y50188571D01*
X80996381Y50331429D01*
X80996381Y50426667D01*
X81044000Y50569524D01*
X81091619Y50617143D01*
X80996381Y50950476D02*
X80996381Y51569524D01*
X81377333Y51236190D01*
X81377333Y51379048D01*
X81424952Y51474286D01*
X81472571Y51521905D01*
X81567810Y51569524D01*
X81805905Y51569524D01*
X81901143Y51521905D01*
X81948762Y51474286D01*
X81996381Y51379048D01*
X81996381Y51093333D01*
X81948762Y50998095D01*
X81901143Y50950476D01*
X81329714Y52426667D02*
X81996381Y52426667D01*
X80948762Y52188571D02*
X81663048Y51950476D01*
X81663048Y52569524D01*
X80377143Y50633143D02*
X80424762Y50585524D01*
X80472381Y50442667D01*
X80472381Y50347429D01*
X80424762Y50204571D01*
X80329524Y50109333D01*
X80234286Y50061714D01*
X80043810Y50014095D01*
X79900952Y50014095D01*
X79710476Y50061714D01*
X79615238Y50109333D01*
X79520000Y50204571D01*
X79472381Y50347429D01*
X79472381Y50442667D01*
X79520000Y50585524D01*
X79567619Y50633143D01*
X79472381Y50966476D02*
X79472381Y51585524D01*
X79853333Y51252190D01*
X79853333Y51395048D01*
X79900952Y51490286D01*
X79948571Y51537905D01*
X80043810Y51585524D01*
X80281905Y51585524D01*
X80377143Y51537905D01*
X80424762Y51490286D01*
X80472381Y51395048D01*
X80472381Y51109333D01*
X80424762Y51014095D01*
X80377143Y50966476D01*
X79472381Y52490286D02*
X79472381Y52014095D01*
X79948571Y51966476D01*
X79900952Y52014095D01*
X79853333Y52109333D01*
X79853333Y52347429D01*
X79900952Y52442667D01*
X79948571Y52490286D01*
X80043810Y52537905D01*
X80281905Y52537905D01*
X80377143Y52490286D01*
X80424762Y52442667D01*
X80472381Y52347429D01*
X80472381Y52109333D01*
X80424762Y52014095D01*
X80377143Y51966476D01*
X98665143Y50617143D02*
X98712762Y50569524D01*
X98760381Y50426667D01*
X98760381Y50331429D01*
X98712762Y50188571D01*
X98617524Y50093333D01*
X98522286Y50045714D01*
X98331810Y49998095D01*
X98188952Y49998095D01*
X97998476Y50045714D01*
X97903238Y50093333D01*
X97808000Y50188571D01*
X97760381Y50331429D01*
X97760381Y50426667D01*
X97808000Y50569524D01*
X97855619Y50617143D01*
X97760381Y50950476D02*
X97760381Y51569524D01*
X98141333Y51236190D01*
X98141333Y51379048D01*
X98188952Y51474286D01*
X98236571Y51521905D01*
X98331810Y51569524D01*
X98569905Y51569524D01*
X98665143Y51521905D01*
X98712762Y51474286D01*
X98760381Y51379048D01*
X98760381Y51093333D01*
X98712762Y50998095D01*
X98665143Y50950476D01*
X97760381Y51902857D02*
X97760381Y52569524D01*
X98760381Y52140952D01*
X97141143Y50617143D02*
X97188762Y50569524D01*
X97236381Y50426667D01*
X97236381Y50331429D01*
X97188762Y50188571D01*
X97093524Y50093333D01*
X96998286Y50045714D01*
X96807810Y49998095D01*
X96664952Y49998095D01*
X96474476Y50045714D01*
X96379238Y50093333D01*
X96284000Y50188571D01*
X96236381Y50331429D01*
X96236381Y50426667D01*
X96284000Y50569524D01*
X96331619Y50617143D01*
X96236381Y50950476D02*
X96236381Y51569524D01*
X96617333Y51236190D01*
X96617333Y51379048D01*
X96664952Y51474286D01*
X96712571Y51521905D01*
X96807810Y51569524D01*
X97045905Y51569524D01*
X97141143Y51521905D01*
X97188762Y51474286D01*
X97236381Y51379048D01*
X97236381Y51093333D01*
X97188762Y50998095D01*
X97141143Y50950476D01*
X96664952Y52140952D02*
X96617333Y52045714D01*
X96569714Y51998095D01*
X96474476Y51950476D01*
X96426857Y51950476D01*
X96331619Y51998095D01*
X96284000Y52045714D01*
X96236381Y52140952D01*
X96236381Y52331429D01*
X96284000Y52426667D01*
X96331619Y52474286D01*
X96426857Y52521905D01*
X96474476Y52521905D01*
X96569714Y52474286D01*
X96617333Y52426667D01*
X96664952Y52331429D01*
X96664952Y52140952D01*
X96712571Y52045714D01*
X96760190Y51998095D01*
X96855429Y51950476D01*
X97045905Y51950476D01*
X97141143Y51998095D01*
X97188762Y52045714D01*
X97236381Y52140952D01*
X97236381Y52331429D01*
X97188762Y52426667D01*
X97141143Y52474286D01*
X97045905Y52521905D01*
X96855429Y52521905D01*
X96760190Y52474286D01*
X96712571Y52426667D01*
X96664952Y52331429D01*
X90757143Y7691143D02*
X90804762Y7643524D01*
X90852381Y7500667D01*
X90852381Y7405429D01*
X90804762Y7262571D01*
X90709524Y7167333D01*
X90614286Y7119714D01*
X90423810Y7072095D01*
X90280952Y7072095D01*
X90090476Y7119714D01*
X89995238Y7167333D01*
X89900000Y7262571D01*
X89852381Y7405429D01*
X89852381Y7500667D01*
X89900000Y7643524D01*
X89947619Y7691143D01*
X90185714Y8548286D02*
X90852381Y8548286D01*
X89804762Y8310190D02*
X90519048Y8072095D01*
X90519048Y8691143D01*
X89852381Y9262571D02*
X89852381Y9357810D01*
X89900000Y9453048D01*
X89947619Y9500667D01*
X90042857Y9548286D01*
X90233333Y9595905D01*
X90471429Y9595905D01*
X90661905Y9548286D01*
X90757143Y9500667D01*
X90804762Y9453048D01*
X90852381Y9357810D01*
X90852381Y9262571D01*
X90804762Y9167333D01*
X90757143Y9119714D01*
X90661905Y9072095D01*
X90471429Y9024476D01*
X90233333Y9024476D01*
X90042857Y9072095D01*
X89947619Y9119714D01*
X89900000Y9167333D01*
X89852381Y9262571D01*
X115429143Y50617143D02*
X115476762Y50569524D01*
X115524381Y50426667D01*
X115524381Y50331429D01*
X115476762Y50188571D01*
X115381524Y50093333D01*
X115286286Y50045714D01*
X115095810Y49998095D01*
X114952952Y49998095D01*
X114762476Y50045714D01*
X114667238Y50093333D01*
X114572000Y50188571D01*
X114524381Y50331429D01*
X114524381Y50426667D01*
X114572000Y50569524D01*
X114619619Y50617143D01*
X114857714Y51474286D02*
X115524381Y51474286D01*
X114476762Y51236190D02*
X115191048Y50998095D01*
X115191048Y51617143D01*
X114619619Y51950476D02*
X114572000Y51998095D01*
X114524381Y52093333D01*
X114524381Y52331429D01*
X114572000Y52426667D01*
X114619619Y52474286D01*
X114714857Y52521905D01*
X114810095Y52521905D01*
X114952952Y52474286D01*
X115524381Y51902857D01*
X115524381Y52521905D01*
X114107143Y50617143D02*
X114154762Y50569524D01*
X114202381Y50426667D01*
X114202381Y50331429D01*
X114154762Y50188571D01*
X114059524Y50093333D01*
X113964286Y50045714D01*
X113773810Y49998095D01*
X113630952Y49998095D01*
X113440476Y50045714D01*
X113345238Y50093333D01*
X113250000Y50188571D01*
X113202381Y50331429D01*
X113202381Y50426667D01*
X113250000Y50569524D01*
X113297619Y50617143D01*
X113535714Y51474286D02*
X114202381Y51474286D01*
X113154762Y51236190D02*
X113869048Y50998095D01*
X113869048Y51617143D01*
X113202381Y51902857D02*
X113202381Y52521905D01*
X113583333Y52188571D01*
X113583333Y52331429D01*
X113630952Y52426667D01*
X113678571Y52474286D01*
X113773810Y52521905D01*
X114011905Y52521905D01*
X114107143Y52474286D01*
X114154762Y52426667D01*
X114202381Y52331429D01*
X114202381Y52045714D01*
X114154762Y51950476D01*
X114107143Y51902857D01*
X80857143Y3142857D02*
X80809524Y3095238D01*
X80666667Y3047619D01*
X80571429Y3047619D01*
X80428571Y3095238D01*
X80333333Y3190476D01*
X80285714Y3285714D01*
X80238095Y3476190D01*
X80238095Y3619048D01*
X80285714Y3809524D01*
X80333333Y3904762D01*
X80428571Y4000000D01*
X80571429Y4047619D01*
X80666667Y4047619D01*
X80809524Y4000000D01*
X80857143Y3952381D01*
X81714286Y3714286D02*
X81714286Y3047619D01*
X81476190Y4095238D02*
X81238095Y3380952D01*
X81857143Y3380952D01*
X82714286Y4047619D02*
X82238095Y4047619D01*
X82190476Y3571429D01*
X82238095Y3619048D01*
X82333333Y3666667D01*
X82571429Y3666667D01*
X82666667Y3619048D01*
X82714286Y3571429D01*
X82761905Y3476190D01*
X82761905Y3238095D01*
X82714286Y3142857D01*
X82666667Y3095238D01*
X82571429Y3047619D01*
X82333333Y3047619D01*
X82238095Y3095238D01*
X82190476Y3142857D01*
X69471143Y3392857D02*
X69423524Y3345238D01*
X69280667Y3297619D01*
X69185429Y3297619D01*
X69042571Y3345238D01*
X68947333Y3440476D01*
X68899714Y3535714D01*
X68852095Y3726190D01*
X68852095Y3869048D01*
X68899714Y4059524D01*
X68947333Y4154762D01*
X69042571Y4250000D01*
X69185429Y4297619D01*
X69280667Y4297619D01*
X69423524Y4250000D01*
X69471143Y4202381D01*
X70328286Y3964286D02*
X70328286Y3297619D01*
X70090190Y4345238D02*
X69852095Y3630952D01*
X70471143Y3630952D01*
X71280667Y4297619D02*
X71090190Y4297619D01*
X70994952Y4250000D01*
X70947333Y4202381D01*
X70852095Y4059524D01*
X70804476Y3869048D01*
X70804476Y3488095D01*
X70852095Y3392857D01*
X70899714Y3345238D01*
X70994952Y3297619D01*
X71185429Y3297619D01*
X71280667Y3345238D01*
X71328286Y3392857D01*
X71375905Y3488095D01*
X71375905Y3726190D01*
X71328286Y3821429D01*
X71280667Y3869048D01*
X71185429Y3916667D01*
X70994952Y3916667D01*
X70899714Y3869048D01*
X70852095Y3821429D01*
X70804476Y3726190D01*
X132447143Y50617143D02*
X132494762Y50569524D01*
X132542381Y50426667D01*
X132542381Y50331429D01*
X132494762Y50188571D01*
X132399524Y50093333D01*
X132304286Y50045714D01*
X132113810Y49998095D01*
X131970952Y49998095D01*
X131780476Y50045714D01*
X131685238Y50093333D01*
X131590000Y50188571D01*
X131542381Y50331429D01*
X131542381Y50426667D01*
X131590000Y50569524D01*
X131637619Y50617143D01*
X131875714Y51474286D02*
X132542381Y51474286D01*
X131494762Y51236190D02*
X132209048Y50998095D01*
X132209048Y51617143D01*
X132542381Y52045714D02*
X132542381Y52236190D01*
X132494762Y52331429D01*
X132447143Y52379048D01*
X132304286Y52474286D01*
X132113810Y52521905D01*
X131732857Y52521905D01*
X131637619Y52474286D01*
X131590000Y52426667D01*
X131542381Y52331429D01*
X131542381Y52140952D01*
X131590000Y52045714D01*
X131637619Y51998095D01*
X131732857Y51950476D01*
X131970952Y51950476D01*
X132066190Y51998095D01*
X132113810Y52045714D01*
X132161429Y52140952D01*
X132161429Y52331429D01*
X132113810Y52426667D01*
X132066190Y52474286D01*
X131970952Y52521905D01*
X131107143Y50607143D02*
X131154762Y50559524D01*
X131202381Y50416667D01*
X131202381Y50321429D01*
X131154762Y50178571D01*
X131059524Y50083333D01*
X130964286Y50035714D01*
X130773810Y49988095D01*
X130630952Y49988095D01*
X130440476Y50035714D01*
X130345238Y50083333D01*
X130250000Y50178571D01*
X130202381Y50321429D01*
X130202381Y50416667D01*
X130250000Y50559524D01*
X130297619Y50607143D01*
X130202381Y51511905D02*
X130202381Y51035714D01*
X130678571Y50988095D01*
X130630952Y51035714D01*
X130583333Y51130952D01*
X130583333Y51369048D01*
X130630952Y51464286D01*
X130678571Y51511905D01*
X130773810Y51559524D01*
X131011905Y51559524D01*
X131107143Y51511905D01*
X131154762Y51464286D01*
X131202381Y51369048D01*
X131202381Y51130952D01*
X131154762Y51035714D01*
X131107143Y50988095D01*
X130202381Y52178571D02*
X130202381Y52273810D01*
X130250000Y52369048D01*
X130297619Y52416667D01*
X130392857Y52464286D01*
X130583333Y52511905D01*
X130821429Y52511905D01*
X131011905Y52464286D01*
X131107143Y52416667D01*
X131154762Y52369048D01*
X131202381Y52273810D01*
X131202381Y52178571D01*
X131154762Y52083333D01*
X131107143Y52035714D01*
X131011905Y51988095D01*
X130821429Y51940476D01*
X130583333Y51940476D01*
X130392857Y51988095D01*
X130297619Y52035714D01*
X130250000Y52083333D01*
X130202381Y52178571D01*
X63607143Y19392857D02*
X63559524Y19345238D01*
X63416667Y19297619D01*
X63321429Y19297619D01*
X63178571Y19345238D01*
X63083333Y19440476D01*
X63035714Y19535714D01*
X62988095Y19726190D01*
X62988095Y19869048D01*
X63035714Y20059524D01*
X63083333Y20154762D01*
X63178571Y20250000D01*
X63321429Y20297619D01*
X63416667Y20297619D01*
X63559524Y20250000D01*
X63607143Y20202381D01*
X64511905Y20297619D02*
X64035714Y20297619D01*
X63988095Y19821429D01*
X64035714Y19869048D01*
X64130952Y19916667D01*
X64369048Y19916667D01*
X64464286Y19869048D01*
X64511905Y19821429D01*
X64559524Y19726190D01*
X64559524Y19488095D01*
X64511905Y19392857D01*
X64464286Y19345238D01*
X64369048Y19297619D01*
X64130952Y19297619D01*
X64035714Y19345238D01*
X63988095Y19392857D01*
X65511905Y19297619D02*
X64940476Y19297619D01*
X65226190Y19297619D02*
X65226190Y20297619D01*
X65130952Y20154762D01*
X65035714Y20059524D01*
X64940476Y20011905D01*
X63607143Y17892857D02*
X63559524Y17845238D01*
X63416667Y17797619D01*
X63321429Y17797619D01*
X63178571Y17845238D01*
X63083333Y17940476D01*
X63035714Y18035714D01*
X62988095Y18226190D01*
X62988095Y18369048D01*
X63035714Y18559524D01*
X63083333Y18654762D01*
X63178571Y18750000D01*
X63321429Y18797619D01*
X63416667Y18797619D01*
X63559524Y18750000D01*
X63607143Y18702381D01*
X64511905Y18797619D02*
X64035714Y18797619D01*
X63988095Y18321429D01*
X64035714Y18369048D01*
X64130952Y18416667D01*
X64369048Y18416667D01*
X64464286Y18369048D01*
X64511905Y18321429D01*
X64559524Y18226190D01*
X64559524Y17988095D01*
X64511905Y17892857D01*
X64464286Y17845238D01*
X64369048Y17797619D01*
X64130952Y17797619D01*
X64035714Y17845238D01*
X63988095Y17892857D01*
X64940476Y18702381D02*
X64988095Y18750000D01*
X65083333Y18797619D01*
X65321429Y18797619D01*
X65416667Y18750000D01*
X65464286Y18702381D01*
X65511905Y18607143D01*
X65511905Y18511905D01*
X65464286Y18369048D01*
X64892857Y17797619D01*
X65511905Y17797619D01*
X127891143Y15342857D02*
X127843524Y15295238D01*
X127700667Y15247619D01*
X127605429Y15247619D01*
X127462571Y15295238D01*
X127367333Y15390476D01*
X127319714Y15485714D01*
X127272095Y15676190D01*
X127272095Y15819048D01*
X127319714Y16009524D01*
X127367333Y16104762D01*
X127462571Y16200000D01*
X127605429Y16247619D01*
X127700667Y16247619D01*
X127843524Y16200000D01*
X127891143Y16152381D01*
X128795905Y16247619D02*
X128319714Y16247619D01*
X128272095Y15771429D01*
X128319714Y15819048D01*
X128414952Y15866667D01*
X128653048Y15866667D01*
X128748286Y15819048D01*
X128795905Y15771429D01*
X128843524Y15676190D01*
X128843524Y15438095D01*
X128795905Y15342857D01*
X128748286Y15295238D01*
X128653048Y15247619D01*
X128414952Y15247619D01*
X128319714Y15295238D01*
X128272095Y15342857D01*
X129700667Y15914286D02*
X129700667Y15247619D01*
X129462571Y16295238D02*
X129224476Y15580952D01*
X129843524Y15580952D01*
X127857143Y16742857D02*
X127809524Y16695238D01*
X127666667Y16647619D01*
X127571429Y16647619D01*
X127428571Y16695238D01*
X127333333Y16790476D01*
X127285714Y16885714D01*
X127238095Y17076190D01*
X127238095Y17219048D01*
X127285714Y17409524D01*
X127333333Y17504762D01*
X127428571Y17600000D01*
X127571429Y17647619D01*
X127666667Y17647619D01*
X127809524Y17600000D01*
X127857143Y17552381D01*
X128761905Y17647619D02*
X128285714Y17647619D01*
X128238095Y17171429D01*
X128285714Y17219048D01*
X128380952Y17266667D01*
X128619048Y17266667D01*
X128714286Y17219048D01*
X128761905Y17171429D01*
X128809524Y17076190D01*
X128809524Y16838095D01*
X128761905Y16742857D01*
X128714286Y16695238D01*
X128619048Y16647619D01*
X128380952Y16647619D01*
X128285714Y16695238D01*
X128238095Y16742857D01*
X129714286Y17647619D02*
X129238095Y17647619D01*
X129190476Y17171429D01*
X129238095Y17219048D01*
X129333333Y17266667D01*
X129571429Y17266667D01*
X129666667Y17219048D01*
X129714286Y17171429D01*
X129761905Y17076190D01*
X129761905Y16838095D01*
X129714286Y16742857D01*
X129666667Y16695238D01*
X129571429Y16647619D01*
X129333333Y16647619D01*
X129238095Y16695238D01*
X129190476Y16742857D01*
X93357143Y16242857D02*
X93309524Y16195238D01*
X93166667Y16147619D01*
X93071429Y16147619D01*
X92928571Y16195238D01*
X92833333Y16290476D01*
X92785714Y16385714D01*
X92738095Y16576190D01*
X92738095Y16719048D01*
X92785714Y16909524D01*
X92833333Y17004762D01*
X92928571Y17100000D01*
X93071429Y17147619D01*
X93166667Y17147619D01*
X93309524Y17100000D01*
X93357143Y17052381D01*
X94261905Y17147619D02*
X93785714Y17147619D01*
X93738095Y16671429D01*
X93785714Y16719048D01*
X93880952Y16766667D01*
X94119048Y16766667D01*
X94214286Y16719048D01*
X94261905Y16671429D01*
X94309524Y16576190D01*
X94309524Y16338095D01*
X94261905Y16242857D01*
X94214286Y16195238D01*
X94119048Y16147619D01*
X93880952Y16147619D01*
X93785714Y16195238D01*
X93738095Y16242857D01*
X94880952Y16719048D02*
X94785714Y16766667D01*
X94738095Y16814286D01*
X94690476Y16909524D01*
X94690476Y16957143D01*
X94738095Y17052381D01*
X94785714Y17100000D01*
X94880952Y17147619D01*
X95071429Y17147619D01*
X95166667Y17100000D01*
X95214286Y17052381D01*
X95261905Y16957143D01*
X95261905Y16909524D01*
X95214286Y16814286D01*
X95166667Y16766667D01*
X95071429Y16719048D01*
X94880952Y16719048D01*
X94785714Y16671429D01*
X94738095Y16623810D01*
X94690476Y16528571D01*
X94690476Y16338095D01*
X94738095Y16242857D01*
X94785714Y16195238D01*
X94880952Y16147619D01*
X95071429Y16147619D01*
X95166667Y16195238D01*
X95214286Y16242857D01*
X95261905Y16338095D01*
X95261905Y16528571D01*
X95214286Y16623810D01*
X95166667Y16671429D01*
X95071429Y16719048D01*
X93357143Y17442857D02*
X93309524Y17395238D01*
X93166667Y17347619D01*
X93071429Y17347619D01*
X92928571Y17395238D01*
X92833333Y17490476D01*
X92785714Y17585714D01*
X92738095Y17776190D01*
X92738095Y17919048D01*
X92785714Y18109524D01*
X92833333Y18204762D01*
X92928571Y18300000D01*
X93071429Y18347619D01*
X93166667Y18347619D01*
X93309524Y18300000D01*
X93357143Y18252381D01*
X94261905Y18347619D02*
X93785714Y18347619D01*
X93738095Y17871429D01*
X93785714Y17919048D01*
X93880952Y17966667D01*
X94119048Y17966667D01*
X94214286Y17919048D01*
X94261905Y17871429D01*
X94309524Y17776190D01*
X94309524Y17538095D01*
X94261905Y17442857D01*
X94214286Y17395238D01*
X94119048Y17347619D01*
X93880952Y17347619D01*
X93785714Y17395238D01*
X93738095Y17442857D01*
X94785714Y17347619D02*
X94976190Y17347619D01*
X95071429Y17395238D01*
X95119048Y17442857D01*
X95214286Y17585714D01*
X95261905Y17776190D01*
X95261905Y18157143D01*
X95214286Y18252381D01*
X95166667Y18300000D01*
X95071429Y18347619D01*
X94880952Y18347619D01*
X94785714Y18300000D01*
X94738095Y18252381D01*
X94690476Y18157143D01*
X94690476Y17919048D01*
X94738095Y17823810D01*
X94785714Y17776190D01*
X94880952Y17728571D01*
X95071429Y17728571D01*
X95166667Y17776190D01*
X95214286Y17823810D01*
X95261905Y17919048D01*
X84187143Y20853143D02*
X84234762Y20805524D01*
X84282381Y20662667D01*
X84282381Y20567429D01*
X84234762Y20424571D01*
X84139524Y20329333D01*
X84044286Y20281714D01*
X83853810Y20234095D01*
X83710952Y20234095D01*
X83520476Y20281714D01*
X83425238Y20329333D01*
X83330000Y20424571D01*
X83282381Y20567429D01*
X83282381Y20662667D01*
X83330000Y20805524D01*
X83377619Y20853143D01*
X83282381Y21710286D02*
X83282381Y21519809D01*
X83330000Y21424571D01*
X83377619Y21376952D01*
X83520476Y21281714D01*
X83710952Y21234095D01*
X84091905Y21234095D01*
X84187143Y21281714D01*
X84234762Y21329333D01*
X84282381Y21424571D01*
X84282381Y21615048D01*
X84234762Y21710286D01*
X84187143Y21757905D01*
X84091905Y21805524D01*
X83853810Y21805524D01*
X83758571Y21757905D01*
X83710952Y21710286D01*
X83663333Y21615048D01*
X83663333Y21424571D01*
X83710952Y21329333D01*
X83758571Y21281714D01*
X83853810Y21234095D01*
X83282381Y22424571D02*
X83282381Y22519810D01*
X83330000Y22615048D01*
X83377619Y22662667D01*
X83472857Y22710286D01*
X83663333Y22757905D01*
X83901429Y22757905D01*
X84091905Y22710286D01*
X84187143Y22662667D01*
X84234762Y22615048D01*
X84282381Y22519810D01*
X84282381Y22424571D01*
X84234762Y22329333D01*
X84187143Y22281714D01*
X84091905Y22234095D01*
X83901429Y22186476D01*
X83663333Y22186476D01*
X83472857Y22234095D01*
X83377619Y22281714D01*
X83330000Y22329333D01*
X83282381Y22424571D01*
X77075143Y20853143D02*
X77122762Y20805524D01*
X77170381Y20662667D01*
X77170381Y20567429D01*
X77122762Y20424571D01*
X77027524Y20329333D01*
X76932286Y20281714D01*
X76741810Y20234095D01*
X76598952Y20234095D01*
X76408476Y20281714D01*
X76313238Y20329333D01*
X76218000Y20424571D01*
X76170381Y20567429D01*
X76170381Y20662667D01*
X76218000Y20805524D01*
X76265619Y20853143D01*
X76170381Y21710286D02*
X76170381Y21519809D01*
X76218000Y21424571D01*
X76265619Y21376952D01*
X76408476Y21281714D01*
X76598952Y21234095D01*
X76979905Y21234095D01*
X77075143Y21281714D01*
X77122762Y21329333D01*
X77170381Y21424571D01*
X77170381Y21615048D01*
X77122762Y21710286D01*
X77075143Y21757905D01*
X76979905Y21805524D01*
X76741810Y21805524D01*
X76646571Y21757905D01*
X76598952Y21710286D01*
X76551333Y21615048D01*
X76551333Y21424571D01*
X76598952Y21329333D01*
X76646571Y21281714D01*
X76741810Y21234095D01*
X77170381Y22757905D02*
X77170381Y22186476D01*
X77170381Y22472190D02*
X76170381Y22472190D01*
X76313238Y22376952D01*
X76408476Y22281714D01*
X76456095Y22186476D01*
X30085143Y61793143D02*
X30132762Y61745524D01*
X30180381Y61602667D01*
X30180381Y61507429D01*
X30132762Y61364571D01*
X30037524Y61269333D01*
X29942286Y61221714D01*
X29751810Y61174095D01*
X29608952Y61174095D01*
X29418476Y61221714D01*
X29323238Y61269333D01*
X29228000Y61364571D01*
X29180381Y61507429D01*
X29180381Y61602667D01*
X29228000Y61745524D01*
X29275619Y61793143D01*
X29180381Y62650286D02*
X29180381Y62459809D01*
X29228000Y62364571D01*
X29275619Y62316952D01*
X29418476Y62221714D01*
X29608952Y62174095D01*
X29989905Y62174095D01*
X30085143Y62221714D01*
X30132762Y62269333D01*
X30180381Y62364571D01*
X30180381Y62555048D01*
X30132762Y62650286D01*
X30085143Y62697905D01*
X29989905Y62745524D01*
X29751810Y62745524D01*
X29656571Y62697905D01*
X29608952Y62650286D01*
X29561333Y62555048D01*
X29561333Y62364571D01*
X29608952Y62269333D01*
X29656571Y62221714D01*
X29751810Y62174095D01*
X29275619Y63126476D02*
X29228000Y63174095D01*
X29180381Y63269333D01*
X29180381Y63507429D01*
X29228000Y63602667D01*
X29275619Y63650286D01*
X29370857Y63697905D01*
X29466095Y63697905D01*
X29608952Y63650286D01*
X30180381Y63078857D01*
X30180381Y63697905D01*
X31355143Y59761143D02*
X31402762Y59713524D01*
X31450381Y59570667D01*
X31450381Y59475429D01*
X31402762Y59332571D01*
X31307524Y59237333D01*
X31212286Y59189714D01*
X31021810Y59142095D01*
X30878952Y59142095D01*
X30688476Y59189714D01*
X30593238Y59237333D01*
X30498000Y59332571D01*
X30450381Y59475429D01*
X30450381Y59570667D01*
X30498000Y59713524D01*
X30545619Y59761143D01*
X30450381Y60618286D02*
X30450381Y60427809D01*
X30498000Y60332571D01*
X30545619Y60284952D01*
X30688476Y60189714D01*
X30878952Y60142095D01*
X31259905Y60142095D01*
X31355143Y60189714D01*
X31402762Y60237333D01*
X31450381Y60332571D01*
X31450381Y60523048D01*
X31402762Y60618286D01*
X31355143Y60665905D01*
X31259905Y60713524D01*
X31021810Y60713524D01*
X30926571Y60665905D01*
X30878952Y60618286D01*
X30831333Y60523048D01*
X30831333Y60332571D01*
X30878952Y60237333D01*
X30926571Y60189714D01*
X31021810Y60142095D01*
X30450381Y61046857D02*
X30450381Y61665905D01*
X30831333Y61332571D01*
X30831333Y61475429D01*
X30878952Y61570667D01*
X30926571Y61618286D01*
X31021810Y61665905D01*
X31259905Y61665905D01*
X31355143Y61618286D01*
X31402762Y61570667D01*
X31450381Y61475429D01*
X31450381Y61189714D01*
X31402762Y61094476D01*
X31355143Y61046857D01*
X39299348Y66857143D02*
X39346967Y66809524D01*
X39394586Y66666667D01*
X39394586Y66571429D01*
X39346967Y66428571D01*
X39251729Y66333333D01*
X39156491Y66285714D01*
X38966015Y66238095D01*
X38823157Y66238095D01*
X38632681Y66285714D01*
X38537443Y66333333D01*
X38442205Y66428571D01*
X38394586Y66571429D01*
X38394586Y66666667D01*
X38442205Y66809524D01*
X38489824Y66857143D01*
X38394586Y67714286D02*
X38394586Y67523809D01*
X38442205Y67428571D01*
X38489824Y67380952D01*
X38632681Y67285714D01*
X38823157Y67238095D01*
X39204110Y67238095D01*
X39299348Y67285714D01*
X39346967Y67333333D01*
X39394586Y67428571D01*
X39394586Y67619048D01*
X39346967Y67714286D01*
X39299348Y67761905D01*
X39204110Y67809524D01*
X38966015Y67809524D01*
X38870776Y67761905D01*
X38823157Y67714286D01*
X38775538Y67619048D01*
X38775538Y67428571D01*
X38823157Y67333333D01*
X38870776Y67285714D01*
X38966015Y67238095D01*
X38727919Y68666667D02*
X39394586Y68666667D01*
X38346967Y68428571D02*
X39061253Y68190476D01*
X39061253Y68809524D01*
X41331348Y66857143D02*
X41378967Y66809524D01*
X41426586Y66666667D01*
X41426586Y66571429D01*
X41378967Y66428571D01*
X41283729Y66333333D01*
X41188491Y66285714D01*
X40998015Y66238095D01*
X40855157Y66238095D01*
X40664681Y66285714D01*
X40569443Y66333333D01*
X40474205Y66428571D01*
X40426586Y66571429D01*
X40426586Y66666667D01*
X40474205Y66809524D01*
X40521824Y66857143D01*
X40426586Y67714286D02*
X40426586Y67523809D01*
X40474205Y67428571D01*
X40521824Y67380952D01*
X40664681Y67285714D01*
X40855157Y67238095D01*
X41236110Y67238095D01*
X41331348Y67285714D01*
X41378967Y67333333D01*
X41426586Y67428571D01*
X41426586Y67619048D01*
X41378967Y67714286D01*
X41331348Y67761905D01*
X41236110Y67809524D01*
X40998015Y67809524D01*
X40902776Y67761905D01*
X40855157Y67714286D01*
X40807538Y67619048D01*
X40807538Y67428571D01*
X40855157Y67333333D01*
X40902776Y67285714D01*
X40998015Y67238095D01*
X40426586Y68714286D02*
X40426586Y68238095D01*
X40902776Y68190476D01*
X40855157Y68238095D01*
X40807538Y68333333D01*
X40807538Y68571429D01*
X40855157Y68666667D01*
X40902776Y68714286D01*
X40998015Y68761905D01*
X41236110Y68761905D01*
X41331348Y68714286D01*
X41378967Y68666667D01*
X41426586Y68571429D01*
X41426586Y68333333D01*
X41378967Y68238095D01*
X41331348Y68190476D01*
X20031803Y59097873D02*
X20079422Y59050254D01*
X20127041Y58907397D01*
X20127041Y58812159D01*
X20079422Y58669301D01*
X19984184Y58574063D01*
X19888946Y58526444D01*
X19698470Y58478825D01*
X19555612Y58478825D01*
X19365136Y58526444D01*
X19269898Y58574063D01*
X19174660Y58669301D01*
X19127041Y58812159D01*
X19127041Y58907397D01*
X19174660Y59050254D01*
X19222279Y59097873D01*
X19127041Y59955016D02*
X19127041Y59764539D01*
X19174660Y59669301D01*
X19222279Y59621682D01*
X19365136Y59526444D01*
X19555612Y59478825D01*
X19936565Y59478825D01*
X20031803Y59526444D01*
X20079422Y59574063D01*
X20127041Y59669301D01*
X20127041Y59859778D01*
X20079422Y59955016D01*
X20031803Y60002635D01*
X19936565Y60050254D01*
X19698470Y60050254D01*
X19603231Y60002635D01*
X19555612Y59955016D01*
X19507993Y59859778D01*
X19507993Y59669301D01*
X19555612Y59574063D01*
X19603231Y59526444D01*
X19698470Y59478825D01*
X19127041Y60907397D02*
X19127041Y60716920D01*
X19174660Y60621682D01*
X19222279Y60574063D01*
X19365136Y60478825D01*
X19555612Y60431206D01*
X19936565Y60431206D01*
X20031803Y60478825D01*
X20079422Y60526444D01*
X20127041Y60621682D01*
X20127041Y60812159D01*
X20079422Y60907397D01*
X20031803Y60955016D01*
X19936565Y61002635D01*
X19698470Y61002635D01*
X19603231Y60955016D01*
X19555612Y60907397D01*
X19507993Y60812159D01*
X19507993Y60621682D01*
X19555612Y60526444D01*
X19603231Y60478825D01*
X19698470Y60431206D01*
X21895803Y59197873D02*
X21943422Y59150254D01*
X21991041Y59007397D01*
X21991041Y58912159D01*
X21943422Y58769301D01*
X21848184Y58674063D01*
X21752946Y58626444D01*
X21562470Y58578825D01*
X21419612Y58578825D01*
X21229136Y58626444D01*
X21133898Y58674063D01*
X21038660Y58769301D01*
X20991041Y58912159D01*
X20991041Y59007397D01*
X21038660Y59150254D01*
X21086279Y59197873D01*
X20991041Y60055016D02*
X20991041Y59864539D01*
X21038660Y59769301D01*
X21086279Y59721682D01*
X21229136Y59626444D01*
X21419612Y59578825D01*
X21800565Y59578825D01*
X21895803Y59626444D01*
X21943422Y59674063D01*
X21991041Y59769301D01*
X21991041Y59959778D01*
X21943422Y60055016D01*
X21895803Y60102635D01*
X21800565Y60150254D01*
X21562470Y60150254D01*
X21467231Y60102635D01*
X21419612Y60055016D01*
X21371993Y59959778D01*
X21371993Y59769301D01*
X21419612Y59674063D01*
X21467231Y59626444D01*
X21562470Y59578825D01*
X20991041Y60483587D02*
X20991041Y61150254D01*
X21991041Y60721682D01*
X11452381Y13833905D02*
X10452381Y13833905D01*
X10452381Y14072000D01*
X10500000Y14214858D01*
X10595238Y14310096D01*
X10690476Y14357715D01*
X10880952Y14405334D01*
X11023810Y14405334D01*
X11214286Y14357715D01*
X11309524Y14310096D01*
X11404762Y14214858D01*
X11452381Y14072000D01*
X11452381Y13833905D01*
X10547619Y14786286D02*
X10500000Y14833905D01*
X10452381Y14929143D01*
X10452381Y15167239D01*
X10500000Y15262477D01*
X10547619Y15310096D01*
X10642857Y15357715D01*
X10738095Y15357715D01*
X10880952Y15310096D01*
X11452381Y14738667D01*
X11452381Y15357715D01*
X13484381Y6838095D02*
X12484381Y6838095D01*
X13484381Y7409524D02*
X12912952Y6980952D01*
X12484381Y7409524D02*
X13055810Y6838095D01*
X12944667Y12661905D02*
X12944667Y13138096D01*
X13230381Y12566667D02*
X12230381Y12900000D01*
X13230381Y13233334D01*
X133637905Y68079619D02*
X133637905Y69079619D01*
X133876000Y69079619D01*
X134018858Y69032000D01*
X134114096Y68936762D01*
X134161715Y68841524D01*
X134209334Y68651048D01*
X134209334Y68508190D01*
X134161715Y68317714D01*
X134114096Y68222476D01*
X134018858Y68127238D01*
X133876000Y68079619D01*
X133637905Y68079619D01*
X135114096Y69079619D02*
X134637905Y69079619D01*
X134590286Y68603429D01*
X134637905Y68651048D01*
X134733143Y68698667D01*
X134971239Y68698667D01*
X135066477Y68651048D01*
X135114096Y68603429D01*
X135161715Y68508190D01*
X135161715Y68270095D01*
X135114096Y68174857D01*
X135066477Y68127238D01*
X134971239Y68079619D01*
X134733143Y68079619D01*
X134637905Y68127238D01*
X134590286Y68174857D01*
X133637905Y58663839D02*
X133637905Y59663839D01*
X133876000Y59663839D01*
X134018858Y59616220D01*
X134114096Y59520982D01*
X134161715Y59425744D01*
X134209334Y59235268D01*
X134209334Y59092410D01*
X134161715Y58901934D01*
X134114096Y58806696D01*
X134018858Y58711458D01*
X133876000Y58663839D01*
X133637905Y58663839D01*
X135066477Y59663839D02*
X134876000Y59663839D01*
X134780762Y59616220D01*
X134733143Y59568601D01*
X134637905Y59425744D01*
X134590286Y59235268D01*
X134590286Y58854315D01*
X134637905Y58759077D01*
X134685524Y58711458D01*
X134780762Y58663839D01*
X134971239Y58663839D01*
X135066477Y58711458D01*
X135114096Y58759077D01*
X135161715Y58854315D01*
X135161715Y59092410D01*
X135114096Y59187649D01*
X135066477Y59235268D01*
X134971239Y59282887D01*
X134780762Y59282887D01*
X134685524Y59235268D01*
X134637905Y59187649D01*
X134590286Y59092410D01*
X49269714Y15515619D02*
X49269714Y16515619D01*
X49507809Y16515619D01*
X49650667Y16468000D01*
X49745905Y16372762D01*
X49793524Y16277524D01*
X49841143Y16087048D01*
X49841143Y15944190D01*
X49793524Y15753714D01*
X49745905Y15658476D01*
X49650667Y15563238D01*
X49507809Y15515619D01*
X49269714Y15515619D01*
X50793524Y15515619D02*
X50222095Y15515619D01*
X50507809Y15515619D02*
X50507809Y16515619D01*
X50412571Y16372762D01*
X50317333Y16277524D01*
X50222095Y16229905D01*
X51650667Y16182286D02*
X51650667Y15515619D01*
X51412571Y16563238D02*
X51174476Y15848952D01*
X51793524Y15848952D01*
X46988095Y17547619D02*
X46988095Y18547619D01*
X47559524Y17547619D02*
X47130952Y18119048D01*
X47559524Y18547619D02*
X46988095Y17976190D01*
X4239905Y13833619D02*
X4239905Y14833619D01*
X4620858Y14833619D01*
X4716096Y14786000D01*
X4763715Y14738381D01*
X4811334Y14643143D01*
X4811334Y14500286D01*
X4763715Y14405048D01*
X4716096Y14357429D01*
X4620858Y14309810D01*
X4239905Y14309810D01*
X5763715Y13833619D02*
X5192286Y13833619D01*
X5478000Y13833619D02*
X5478000Y14833619D01*
X5382762Y14690762D01*
X5287524Y14595524D01*
X5192286Y14547905D01*
X116758381Y8123905D02*
X115758381Y8123905D01*
X115758381Y8504858D01*
X115806000Y8600096D01*
X115853619Y8647715D01*
X115948857Y8695334D01*
X116091714Y8695334D01*
X116186952Y8647715D01*
X116234571Y8600096D01*
X116282190Y8504858D01*
X116282190Y8123905D01*
X115853619Y9076286D02*
X115806000Y9123905D01*
X115758381Y9219143D01*
X115758381Y9457239D01*
X115806000Y9552477D01*
X115853619Y9600096D01*
X115948857Y9647715D01*
X116044095Y9647715D01*
X116186952Y9600096D01*
X116758381Y9028667D01*
X116758381Y9647715D01*
X116758381Y4567905D02*
X115758381Y4567905D01*
X115758381Y4948858D01*
X115806000Y5044096D01*
X115853619Y5091715D01*
X115948857Y5139334D01*
X116091714Y5139334D01*
X116186952Y5091715D01*
X116234571Y5044096D01*
X116282190Y4948858D01*
X116282190Y4567905D01*
X115758381Y5472667D02*
X115758381Y6091715D01*
X116139333Y5758381D01*
X116139333Y5901239D01*
X116186952Y5996477D01*
X116234571Y6044096D01*
X116329810Y6091715D01*
X116567905Y6091715D01*
X116663143Y6044096D01*
X116710762Y5996477D01*
X116758381Y5901239D01*
X116758381Y5615524D01*
X116710762Y5520286D01*
X116663143Y5472667D01*
X144785714Y14341619D02*
X144785714Y15341619D01*
X145166667Y15341619D01*
X145261905Y15294000D01*
X145309524Y15246381D01*
X145357143Y15151143D01*
X145357143Y15008286D01*
X145309524Y14913048D01*
X145261905Y14865429D01*
X145166667Y14817810D01*
X144785714Y14817810D01*
X146309524Y14341619D02*
X145738095Y14341619D01*
X146023809Y14341619D02*
X146023809Y15341619D01*
X145928571Y15198762D01*
X145833333Y15103524D01*
X145738095Y15055905D01*
X147261905Y14341619D02*
X146690476Y14341619D01*
X146976190Y14341619D02*
X146976190Y15341619D01*
X146880952Y15198762D01*
X146785714Y15103524D01*
X146690476Y15055905D01*
X96083334Y68297619D02*
X95750000Y68773810D01*
X95511905Y68297619D02*
X95511905Y69297619D01*
X95892858Y69297619D01*
X95988096Y69250000D01*
X96035715Y69202381D01*
X96083334Y69107143D01*
X96083334Y68964286D01*
X96035715Y68869048D01*
X95988096Y68821429D01*
X95892858Y68773810D01*
X95511905Y68773810D01*
X97035715Y68297619D02*
X96464286Y68297619D01*
X96750000Y68297619D02*
X96750000Y69297619D01*
X96654762Y69154762D01*
X96559524Y69059524D01*
X96464286Y69011905D01*
X78837334Y57157619D02*
X78504000Y57633810D01*
X78265905Y57157619D02*
X78265905Y58157619D01*
X78646858Y58157619D01*
X78742096Y58110000D01*
X78789715Y58062381D01*
X78837334Y57967143D01*
X78837334Y57824286D01*
X78789715Y57729048D01*
X78742096Y57681429D01*
X78646858Y57633810D01*
X78265905Y57633810D01*
X79218286Y58062381D02*
X79265905Y58110000D01*
X79361143Y58157619D01*
X79599239Y58157619D01*
X79694477Y58110000D01*
X79742096Y58062381D01*
X79789715Y57967143D01*
X79789715Y57871905D01*
X79742096Y57729048D01*
X79170667Y57157619D01*
X79789715Y57157619D01*
X76662381Y55411334D02*
X76186190Y55078000D01*
X76662381Y54839905D02*
X75662381Y54839905D01*
X75662381Y55220858D01*
X75710000Y55316096D01*
X75757619Y55363715D01*
X75852857Y55411334D01*
X75995714Y55411334D01*
X76090952Y55363715D01*
X76138571Y55316096D01*
X76186190Y55220858D01*
X76186190Y54839905D01*
X75662381Y55744667D02*
X75662381Y56363715D01*
X76043333Y56030381D01*
X76043333Y56173239D01*
X76090952Y56268477D01*
X76138571Y56316096D01*
X76233810Y56363715D01*
X76471905Y56363715D01*
X76567143Y56316096D01*
X76614762Y56268477D01*
X76662381Y56173239D01*
X76662381Y55887524D01*
X76614762Y55792286D01*
X76567143Y55744667D01*
X139289334Y66623619D02*
X138956000Y67099810D01*
X138717905Y66623619D02*
X138717905Y67623619D01*
X139098858Y67623619D01*
X139194096Y67576000D01*
X139241715Y67528381D01*
X139289334Y67433143D01*
X139289334Y67290286D01*
X139241715Y67195048D01*
X139194096Y67147429D01*
X139098858Y67099810D01*
X138717905Y67099810D01*
X140194096Y67623619D02*
X139717905Y67623619D01*
X139670286Y67147429D01*
X139717905Y67195048D01*
X139813143Y67242667D01*
X140051239Y67242667D01*
X140146477Y67195048D01*
X140194096Y67147429D01*
X140241715Y67052190D01*
X140241715Y66814095D01*
X140194096Y66718857D01*
X140146477Y66671238D01*
X140051239Y66623619D01*
X139813143Y66623619D01*
X139717905Y66671238D01*
X139670286Y66718857D01*
X129129334Y66623619D02*
X128796000Y67099810D01*
X128557905Y66623619D02*
X128557905Y67623619D01*
X128938858Y67623619D01*
X129034096Y67576000D01*
X129081715Y67528381D01*
X129129334Y67433143D01*
X129129334Y67290286D01*
X129081715Y67195048D01*
X129034096Y67147429D01*
X128938858Y67099810D01*
X128557905Y67099810D01*
X129986477Y67623619D02*
X129796000Y67623619D01*
X129700762Y67576000D01*
X129653143Y67528381D01*
X129557905Y67385524D01*
X129510286Y67195048D01*
X129510286Y66814095D01*
X129557905Y66718857D01*
X129605524Y66671238D01*
X129700762Y66623619D01*
X129891239Y66623619D01*
X129986477Y66671238D01*
X130034096Y66718857D01*
X130081715Y66814095D01*
X130081715Y67052190D01*
X130034096Y67147429D01*
X129986477Y67195048D01*
X129891239Y67242667D01*
X129700762Y67242667D01*
X129605524Y67195048D01*
X129557905Y67147429D01*
X129510286Y67052190D01*
X139289334Y60205619D02*
X138956000Y60681810D01*
X138717905Y60205619D02*
X138717905Y61205619D01*
X139098858Y61205619D01*
X139194096Y61158000D01*
X139241715Y61110381D01*
X139289334Y61015143D01*
X139289334Y60872286D01*
X139241715Y60777048D01*
X139194096Y60729429D01*
X139098858Y60681810D01*
X138717905Y60681810D01*
X139622667Y61205619D02*
X140289334Y61205619D01*
X139860762Y60205619D01*
X129129334Y60205619D02*
X128796000Y60681810D01*
X128557905Y60205619D02*
X128557905Y61205619D01*
X128938858Y61205619D01*
X129034096Y61158000D01*
X129081715Y61110381D01*
X129129334Y61015143D01*
X129129334Y60872286D01*
X129081715Y60777048D01*
X129034096Y60729429D01*
X128938858Y60681810D01*
X128557905Y60681810D01*
X129700762Y60777048D02*
X129605524Y60824667D01*
X129557905Y60872286D01*
X129510286Y60967524D01*
X129510286Y61015143D01*
X129557905Y61110381D01*
X129605524Y61158000D01*
X129700762Y61205619D01*
X129891239Y61205619D01*
X129986477Y61158000D01*
X130034096Y61110381D01*
X130081715Y61015143D01*
X130081715Y60967524D01*
X130034096Y60872286D01*
X129986477Y60824667D01*
X129891239Y60777048D01*
X129700762Y60777048D01*
X129605524Y60729429D01*
X129557905Y60681810D01*
X129510286Y60586571D01*
X129510286Y60396095D01*
X129557905Y60300857D01*
X129605524Y60253238D01*
X129700762Y60205619D01*
X129891239Y60205619D01*
X129986477Y60253238D01*
X130034096Y60300857D01*
X130081715Y60396095D01*
X130081715Y60586571D01*
X130034096Y60681810D01*
X129986477Y60729429D01*
X129891239Y60777048D01*
X18574959Y52657696D02*
X18098768Y52324362D01*
X18574959Y52086267D02*
X17574959Y52086267D01*
X17574959Y52467220D01*
X17622578Y52562458D01*
X17670197Y52610077D01*
X17765435Y52657696D01*
X17908292Y52657696D01*
X18003530Y52610077D01*
X18051149Y52562458D01*
X18098768Y52467220D01*
X18098768Y52086267D01*
X18574959Y53133886D02*
X18574959Y53324362D01*
X18527340Y53419601D01*
X18479721Y53467220D01*
X18336864Y53562458D01*
X18146388Y53610077D01*
X17765435Y53610077D01*
X17670197Y53562458D01*
X17622578Y53514839D01*
X17574959Y53419601D01*
X17574959Y53229124D01*
X17622578Y53133886D01*
X17670197Y53086267D01*
X17765435Y53038648D01*
X18003530Y53038648D01*
X18098768Y53086267D01*
X18146388Y53133886D01*
X18194007Y53229124D01*
X18194007Y53419601D01*
X18146388Y53514839D01*
X18098768Y53562458D01*
X18003530Y53610077D01*
X35602381Y52141143D02*
X35126190Y51807809D01*
X35602381Y51569714D02*
X34602381Y51569714D01*
X34602381Y51950667D01*
X34650000Y52045905D01*
X34697619Y52093524D01*
X34792857Y52141143D01*
X34935714Y52141143D01*
X35030952Y52093524D01*
X35078571Y52045905D01*
X35126190Y51950667D01*
X35126190Y51569714D01*
X35602381Y53093524D02*
X35602381Y52522095D01*
X35602381Y52807809D02*
X34602381Y52807809D01*
X34745238Y52712571D01*
X34840476Y52617333D01*
X34888095Y52522095D01*
X34697619Y53474476D02*
X34650000Y53522095D01*
X34602381Y53617333D01*
X34602381Y53855429D01*
X34650000Y53950667D01*
X34697619Y53998286D01*
X34792857Y54045905D01*
X34888095Y54045905D01*
X35030952Y53998286D01*
X35602381Y53426857D01*
X35602381Y54045905D01*
X52098559Y52225211D02*
X51622368Y51891877D01*
X52098559Y51653782D02*
X51098559Y51653782D01*
X51098559Y52034735D01*
X51146178Y52129973D01*
X51193797Y52177592D01*
X51289035Y52225211D01*
X51431892Y52225211D01*
X51527130Y52177592D01*
X51574749Y52129973D01*
X51622368Y52034735D01*
X51622368Y51653782D01*
X52098559Y53177592D02*
X52098559Y52606163D01*
X52098559Y52891877D02*
X51098559Y52891877D01*
X51241416Y52796639D01*
X51336654Y52701401D01*
X51384273Y52606163D01*
X51098559Y54082354D02*
X51098559Y53606163D01*
X51574749Y53558544D01*
X51527130Y53606163D01*
X51479511Y53701401D01*
X51479511Y53939497D01*
X51527130Y54034735D01*
X51574749Y54082354D01*
X51669988Y54129973D01*
X51908083Y54129973D01*
X52003321Y54082354D01*
X52050940Y54034735D01*
X52098559Y53939497D01*
X52098559Y53701401D01*
X52050940Y53606163D01*
X52003321Y53558544D01*
X69436880Y52333680D02*
X68960689Y52000346D01*
X69436880Y51762251D02*
X68436880Y51762251D01*
X68436880Y52143204D01*
X68484499Y52238442D01*
X68532118Y52286061D01*
X68627356Y52333680D01*
X68770213Y52333680D01*
X68865451Y52286061D01*
X68913070Y52238442D01*
X68960689Y52143204D01*
X68960689Y51762251D01*
X69436880Y53286061D02*
X69436880Y52714632D01*
X69436880Y53000346D02*
X68436880Y53000346D01*
X68579737Y52905108D01*
X68674975Y52809870D01*
X68722594Y52714632D01*
X68865451Y53857489D02*
X68817832Y53762251D01*
X68770213Y53714632D01*
X68674975Y53667013D01*
X68627356Y53667013D01*
X68532118Y53714632D01*
X68484499Y53762251D01*
X68436880Y53857489D01*
X68436880Y54047966D01*
X68484499Y54143204D01*
X68532118Y54190823D01*
X68627356Y54238442D01*
X68674975Y54238442D01*
X68770213Y54190823D01*
X68817832Y54143204D01*
X68865451Y54047966D01*
X68865451Y53857489D01*
X68913070Y53762251D01*
X68960689Y53714632D01*
X69055928Y53667013D01*
X69246404Y53667013D01*
X69341642Y53714632D01*
X69389261Y53762251D01*
X69436880Y53857489D01*
X69436880Y54047966D01*
X69389261Y54143204D01*
X69341642Y54190823D01*
X69246404Y54238442D01*
X69055928Y54238442D01*
X68960689Y54190823D01*
X68913070Y54143204D01*
X68865451Y54047966D01*
X86128381Y52141143D02*
X85652190Y51807809D01*
X86128381Y51569714D02*
X85128381Y51569714D01*
X85128381Y51950667D01*
X85176000Y52045905D01*
X85223619Y52093524D01*
X85318857Y52141143D01*
X85461714Y52141143D01*
X85556952Y52093524D01*
X85604571Y52045905D01*
X85652190Y51950667D01*
X85652190Y51569714D01*
X85223619Y52522095D02*
X85176000Y52569714D01*
X85128381Y52664952D01*
X85128381Y52903048D01*
X85176000Y52998286D01*
X85223619Y53045905D01*
X85318857Y53093524D01*
X85414095Y53093524D01*
X85556952Y53045905D01*
X86128381Y52474476D01*
X86128381Y53093524D01*
X86128381Y54045905D02*
X86128381Y53474476D01*
X86128381Y53760190D02*
X85128381Y53760190D01*
X85271238Y53664952D01*
X85366476Y53569714D01*
X85414095Y53474476D01*
X102892381Y52141143D02*
X102416190Y51807809D01*
X102892381Y51569714D02*
X101892381Y51569714D01*
X101892381Y51950667D01*
X101940000Y52045905D01*
X101987619Y52093524D01*
X102082857Y52141143D01*
X102225714Y52141143D01*
X102320952Y52093524D01*
X102368571Y52045905D01*
X102416190Y51950667D01*
X102416190Y51569714D01*
X101987619Y52522095D02*
X101940000Y52569714D01*
X101892381Y52664952D01*
X101892381Y52903048D01*
X101940000Y52998286D01*
X101987619Y53045905D01*
X102082857Y53093524D01*
X102178095Y53093524D01*
X102320952Y53045905D01*
X102892381Y52474476D01*
X102892381Y53093524D01*
X102225714Y53950667D02*
X102892381Y53950667D01*
X101844762Y53712571D02*
X102559048Y53474476D01*
X102559048Y54093524D01*
X119766221Y52299217D02*
X119290030Y51965883D01*
X119766221Y51727788D02*
X118766221Y51727788D01*
X118766221Y52108741D01*
X118813840Y52203979D01*
X118861459Y52251598D01*
X118956697Y52299217D01*
X119099554Y52299217D01*
X119194792Y52251598D01*
X119242411Y52203979D01*
X119290030Y52108741D01*
X119290030Y51727788D01*
X118861459Y52680169D02*
X118813840Y52727788D01*
X118766221Y52823026D01*
X118766221Y53061122D01*
X118813840Y53156360D01*
X118861459Y53203979D01*
X118956697Y53251598D01*
X119051935Y53251598D01*
X119194792Y53203979D01*
X119766221Y52632550D01*
X119766221Y53251598D01*
X118766221Y53584931D02*
X118766221Y54251598D01*
X119766221Y53823026D01*
X85298381Y6421143D02*
X84822190Y6087809D01*
X85298381Y5849714D02*
X84298381Y5849714D01*
X84298381Y6230667D01*
X84346000Y6325905D01*
X84393619Y6373524D01*
X84488857Y6421143D01*
X84631714Y6421143D01*
X84726952Y6373524D01*
X84774571Y6325905D01*
X84822190Y6230667D01*
X84822190Y5849714D01*
X84298381Y6754476D02*
X84298381Y7373524D01*
X84679333Y7040190D01*
X84679333Y7183048D01*
X84726952Y7278286D01*
X84774571Y7325905D01*
X84869810Y7373524D01*
X85107905Y7373524D01*
X85203143Y7325905D01*
X85250762Y7278286D01*
X85298381Y7183048D01*
X85298381Y6897333D01*
X85250762Y6802095D01*
X85203143Y6754476D01*
X84298381Y7992571D02*
X84298381Y8087810D01*
X84346000Y8183048D01*
X84393619Y8230667D01*
X84488857Y8278286D01*
X84679333Y8325905D01*
X84917429Y8325905D01*
X85107905Y8278286D01*
X85203143Y8230667D01*
X85250762Y8183048D01*
X85298381Y8087810D01*
X85298381Y7992571D01*
X85250762Y7897333D01*
X85203143Y7849714D01*
X85107905Y7802095D01*
X84917429Y7754476D01*
X84679333Y7754476D01*
X84488857Y7802095D01*
X84393619Y7849714D01*
X84346000Y7897333D01*
X84298381Y7992571D01*
X136674381Y52141143D02*
X136198190Y51807809D01*
X136674381Y51569714D02*
X135674381Y51569714D01*
X135674381Y51950667D01*
X135722000Y52045905D01*
X135769619Y52093524D01*
X135864857Y52141143D01*
X136007714Y52141143D01*
X136102952Y52093524D01*
X136150571Y52045905D01*
X136198190Y51950667D01*
X136198190Y51569714D01*
X135674381Y52474476D02*
X135674381Y53093524D01*
X136055333Y52760190D01*
X136055333Y52903048D01*
X136102952Y52998286D01*
X136150571Y53045905D01*
X136245810Y53093524D01*
X136483905Y53093524D01*
X136579143Y53045905D01*
X136626762Y52998286D01*
X136674381Y52903048D01*
X136674381Y52617333D01*
X136626762Y52522095D01*
X136579143Y52474476D01*
X135674381Y53426857D02*
X135674381Y54045905D01*
X136055333Y53712571D01*
X136055333Y53855429D01*
X136102952Y53950667D01*
X136150571Y53998286D01*
X136245810Y54045905D01*
X136483905Y54045905D01*
X136579143Y53998286D01*
X136626762Y53950667D01*
X136674381Y53855429D01*
X136674381Y53569714D01*
X136626762Y53474476D01*
X136579143Y53426857D01*
X131447143Y15247619D02*
X131113809Y15723810D01*
X130875714Y15247619D02*
X130875714Y16247619D01*
X131256667Y16247619D01*
X131351905Y16200000D01*
X131399524Y16152381D01*
X131447143Y16057143D01*
X131447143Y15914286D01*
X131399524Y15819048D01*
X131351905Y15771429D01*
X131256667Y15723810D01*
X130875714Y15723810D01*
X131780476Y16247619D02*
X132399524Y16247619D01*
X132066190Y15866667D01*
X132209048Y15866667D01*
X132304286Y15819048D01*
X132351905Y15771429D01*
X132399524Y15676190D01*
X132399524Y15438095D01*
X132351905Y15342857D01*
X132304286Y15295238D01*
X132209048Y15247619D01*
X131923333Y15247619D01*
X131828095Y15295238D01*
X131780476Y15342857D01*
X133256667Y16247619D02*
X133066190Y16247619D01*
X132970952Y16200000D01*
X132923333Y16152381D01*
X132828095Y16009524D01*
X132780476Y15819048D01*
X132780476Y15438095D01*
X132828095Y15342857D01*
X132875714Y15295238D01*
X132970952Y15247619D01*
X133161429Y15247619D01*
X133256667Y15295238D01*
X133304286Y15342857D01*
X133351905Y15438095D01*
X133351905Y15676190D01*
X133304286Y15771429D01*
X133256667Y15819048D01*
X133161429Y15866667D01*
X132970952Y15866667D01*
X132875714Y15819048D01*
X132828095Y15771429D01*
X132780476Y15676190D01*
X79757143Y20579619D02*
X79423809Y21055810D01*
X79185714Y20579619D02*
X79185714Y21579619D01*
X79566667Y21579619D01*
X79661905Y21532000D01*
X79709524Y21484381D01*
X79757143Y21389143D01*
X79757143Y21246286D01*
X79709524Y21151048D01*
X79661905Y21103429D01*
X79566667Y21055810D01*
X79185714Y21055810D01*
X80090476Y21579619D02*
X80709524Y21579619D01*
X80376190Y21198667D01*
X80519048Y21198667D01*
X80614286Y21151048D01*
X80661905Y21103429D01*
X80709524Y21008190D01*
X80709524Y20770095D01*
X80661905Y20674857D01*
X80614286Y20627238D01*
X80519048Y20579619D01*
X80233333Y20579619D01*
X80138095Y20627238D01*
X80090476Y20674857D01*
X81280952Y21151048D02*
X81185714Y21198667D01*
X81138095Y21246286D01*
X81090476Y21341524D01*
X81090476Y21389143D01*
X81138095Y21484381D01*
X81185714Y21532000D01*
X81280952Y21579619D01*
X81471429Y21579619D01*
X81566667Y21532000D01*
X81614286Y21484381D01*
X81661905Y21389143D01*
X81661905Y21341524D01*
X81614286Y21246286D01*
X81566667Y21198667D01*
X81471429Y21151048D01*
X81280952Y21151048D01*
X81185714Y21103429D01*
X81138095Y21055810D01*
X81090476Y20960571D01*
X81090476Y20770095D01*
X81138095Y20674857D01*
X81185714Y20627238D01*
X81280952Y20579619D01*
X81471429Y20579619D01*
X81566667Y20627238D01*
X81614286Y20674857D01*
X81661905Y20770095D01*
X81661905Y20960571D01*
X81614286Y21055810D01*
X81566667Y21103429D01*
X81471429Y21151048D01*
X21465143Y66623619D02*
X21131809Y67099810D01*
X20893714Y66623619D02*
X20893714Y67623619D01*
X21274667Y67623619D01*
X21369905Y67576000D01*
X21417524Y67528381D01*
X21465143Y67433143D01*
X21465143Y67290286D01*
X21417524Y67195048D01*
X21369905Y67147429D01*
X21274667Y67099810D01*
X20893714Y67099810D01*
X21798476Y67623619D02*
X22417524Y67623619D01*
X22084190Y67242667D01*
X22227048Y67242667D01*
X22322286Y67195048D01*
X22369905Y67147429D01*
X22417524Y67052190D01*
X22417524Y66814095D01*
X22369905Y66718857D01*
X22322286Y66671238D01*
X22227048Y66623619D01*
X21941333Y66623619D01*
X21846095Y66671238D01*
X21798476Y66718857D01*
X22893714Y66623619D02*
X23084190Y66623619D01*
X23179429Y66671238D01*
X23227048Y66718857D01*
X23322286Y66861714D01*
X23369905Y67052190D01*
X23369905Y67433143D01*
X23322286Y67528381D01*
X23274667Y67576000D01*
X23179429Y67623619D01*
X22988952Y67623619D01*
X22893714Y67576000D01*
X22846095Y67528381D01*
X22798476Y67433143D01*
X22798476Y67195048D01*
X22846095Y67099810D01*
X22893714Y67052190D01*
X22988952Y67004571D01*
X23179429Y67004571D01*
X23274667Y67052190D01*
X23322286Y67099810D01*
X23369905Y67195048D01*
X45157143Y62297619D02*
X44823809Y62773810D01*
X44585714Y62297619D02*
X44585714Y63297619D01*
X44966667Y63297619D01*
X45061905Y63250000D01*
X45109524Y63202381D01*
X45157143Y63107143D01*
X45157143Y62964286D01*
X45109524Y62869048D01*
X45061905Y62821429D01*
X44966667Y62773810D01*
X44585714Y62773810D01*
X46014286Y62964286D02*
X46014286Y62297619D01*
X45776190Y63345238D02*
X45538095Y62630952D01*
X46157143Y62630952D01*
X46728571Y63297619D02*
X46823810Y63297619D01*
X46919048Y63250000D01*
X46966667Y63202381D01*
X47014286Y63107143D01*
X47061905Y62916667D01*
X47061905Y62678571D01*
X47014286Y62488095D01*
X46966667Y62392857D01*
X46919048Y62345238D01*
X46823810Y62297619D01*
X46728571Y62297619D01*
X46633333Y62345238D01*
X46585714Y62392857D01*
X46538095Y62488095D01*
X46490476Y62678571D01*
X46490476Y62916667D01*
X46538095Y63107143D01*
X46585714Y63202381D01*
X46633333Y63250000D01*
X46728571Y63297619D01*
X48976381Y62555143D02*
X48500190Y62221809D01*
X48976381Y61983714D02*
X47976381Y61983714D01*
X47976381Y62364667D01*
X48024000Y62459905D01*
X48071619Y62507524D01*
X48166857Y62555143D01*
X48309714Y62555143D01*
X48404952Y62507524D01*
X48452571Y62459905D01*
X48500190Y62364667D01*
X48500190Y61983714D01*
X48309714Y63412286D02*
X48976381Y63412286D01*
X47928762Y63174190D02*
X48643048Y62936095D01*
X48643048Y63555143D01*
X48976381Y64459905D02*
X48976381Y63888476D01*
X48976381Y64174190D02*
X47976381Y64174190D01*
X48119238Y64078952D01*
X48214476Y63983714D01*
X48262095Y63888476D01*
X118492381Y10107143D02*
X118016190Y9773809D01*
X118492381Y9535714D02*
X117492381Y9535714D01*
X117492381Y9916667D01*
X117540000Y10011905D01*
X117587619Y10059524D01*
X117682857Y10107143D01*
X117825714Y10107143D01*
X117920952Y10059524D01*
X117968571Y10011905D01*
X118016190Y9916667D01*
X118016190Y9535714D01*
X117825714Y10964286D02*
X118492381Y10964286D01*
X117444762Y10726190D02*
X118159048Y10488095D01*
X118159048Y11107143D01*
X117587619Y11440476D02*
X117540000Y11488095D01*
X117492381Y11583333D01*
X117492381Y11821429D01*
X117540000Y11916667D01*
X117587619Y11964286D01*
X117682857Y12011905D01*
X117778095Y12011905D01*
X117920952Y11964286D01*
X118492381Y11392857D01*
X118492381Y12011905D01*
X51008381Y62621143D02*
X50532190Y62287809D01*
X51008381Y62049714D02*
X50008381Y62049714D01*
X50008381Y62430667D01*
X50056000Y62525905D01*
X50103619Y62573524D01*
X50198857Y62621143D01*
X50341714Y62621143D01*
X50436952Y62573524D01*
X50484571Y62525905D01*
X50532190Y62430667D01*
X50532190Y62049714D01*
X50341714Y63478286D02*
X51008381Y63478286D01*
X49960762Y63240190D02*
X50675048Y63002095D01*
X50675048Y63621143D01*
X50008381Y63906857D02*
X50008381Y64525905D01*
X50389333Y64192571D01*
X50389333Y64335429D01*
X50436952Y64430667D01*
X50484571Y64478286D01*
X50579810Y64525905D01*
X50817905Y64525905D01*
X50913143Y64478286D01*
X50960762Y64430667D01*
X51008381Y64335429D01*
X51008381Y64049714D01*
X50960762Y63954476D01*
X50913143Y63906857D01*
X33273143Y62147619D02*
X32939809Y62623810D01*
X32701714Y62147619D02*
X32701714Y63147619D01*
X33082667Y63147619D01*
X33177905Y63100000D01*
X33225524Y63052381D01*
X33273143Y62957143D01*
X33273143Y62814286D01*
X33225524Y62719048D01*
X33177905Y62671429D01*
X33082667Y62623810D01*
X32701714Y62623810D01*
X34130286Y62814286D02*
X34130286Y62147619D01*
X33892190Y63195238D02*
X33654095Y62480952D01*
X34273143Y62480952D01*
X35082667Y62814286D02*
X35082667Y62147619D01*
X34844571Y63195238D02*
X34606476Y62480952D01*
X35225524Y62480952D01*
X75225809Y12423810D02*
X75225809Y11947619D01*
X74892476Y12947619D02*
X75225809Y12423810D01*
X75559143Y12947619D01*
X76416286Y11947619D02*
X75844857Y11947619D01*
X76130571Y11947619D02*
X76130571Y12947619D01*
X76035333Y12804762D01*
X75940095Y12709524D01*
X75844857Y12661905D01*
X23663905Y56379619D02*
X23663905Y55570095D01*
X23711524Y55474857D01*
X23759143Y55427238D01*
X23854381Y55379619D01*
X24044858Y55379619D01*
X24140096Y55427238D01*
X24187715Y55474857D01*
X24235334Y55570095D01*
X24235334Y56379619D01*
X24663905Y56284381D02*
X24711524Y56332000D01*
X24806762Y56379619D01*
X25044858Y56379619D01*
X25140096Y56332000D01*
X25187715Y56284381D01*
X25235334Y56189143D01*
X25235334Y56093905D01*
X25187715Y55951048D01*
X24616286Y55379619D01*
X25235334Y55379619D01*
X26187715Y55379619D02*
X25616286Y55379619D01*
X25902000Y55379619D02*
X25902000Y56379619D01*
X25806762Y56236762D01*
X25711524Y56141524D01*
X25616286Y56093905D01*
X57668095Y56347619D02*
X57668095Y55538095D01*
X57715714Y55442857D01*
X57763333Y55395238D01*
X57858571Y55347619D01*
X58049048Y55347619D01*
X58144286Y55395238D01*
X58191905Y55442857D01*
X58239524Y55538095D01*
X58239524Y56347619D01*
X59191905Y56347619D02*
X58715714Y56347619D01*
X58668095Y55871429D01*
X58715714Y55919048D01*
X58810952Y55966667D01*
X59049048Y55966667D01*
X59144286Y55919048D01*
X59191905Y55871429D01*
X59239524Y55776190D01*
X59239524Y55538095D01*
X59191905Y55442857D01*
X59144286Y55395238D01*
X59049048Y55347619D01*
X58810952Y55347619D01*
X58715714Y55395238D01*
X58668095Y55442857D01*
X137892380Y44941905D02*
X138701904Y44941905D01*
X138797142Y44989524D01*
X138844761Y45037143D01*
X138892380Y45132381D01*
X138892380Y45322858D01*
X138844761Y45418096D01*
X138797142Y45465715D01*
X138701904Y45513334D01*
X137892380Y45513334D01*
X138892380Y46513334D02*
X138892380Y45941905D01*
X138892380Y46227619D02*
X137892380Y46227619D01*
X138035237Y46132381D01*
X138130475Y46037143D01*
X138178094Y45941905D01*
X138225713Y47370477D02*
X138892380Y47370477D01*
X137844761Y47132381D02*
X138559047Y46894286D01*
X138559047Y47513334D01*
X121019523Y44941905D02*
X121829047Y44941905D01*
X121924285Y44989524D01*
X121971904Y45037143D01*
X122019523Y45132381D01*
X122019523Y45322858D01*
X121971904Y45418096D01*
X121924285Y45465715D01*
X121829047Y45513334D01*
X121019523Y45513334D01*
X122019523Y46513334D02*
X122019523Y45941905D01*
X122019523Y46227619D02*
X121019523Y46227619D01*
X121162380Y46132381D01*
X121257618Y46037143D01*
X121305237Y45941905D01*
X121114761Y46894286D02*
X121067142Y46941905D01*
X121019523Y47037143D01*
X121019523Y47275239D01*
X121067142Y47370477D01*
X121114761Y47418096D01*
X121209999Y47465715D01*
X121305237Y47465715D01*
X121448094Y47418096D01*
X122019523Y46846667D01*
X122019523Y47465715D01*
X104146666Y44941905D02*
X104956190Y44941905D01*
X105051428Y44989524D01*
X105099047Y45037143D01*
X105146666Y45132381D01*
X105146666Y45322858D01*
X105099047Y45418096D01*
X105051428Y45465715D01*
X104956190Y45513334D01*
X104146666Y45513334D01*
X105146666Y46513334D02*
X105146666Y45941905D01*
X105146666Y46227619D02*
X104146666Y46227619D01*
X104289523Y46132381D01*
X104384761Y46037143D01*
X104432380Y45941905D01*
X105146666Y47465715D02*
X105146666Y46894286D01*
X105146666Y47180000D02*
X104146666Y47180000D01*
X104289523Y47084762D01*
X104384761Y46989524D01*
X104432380Y46894286D01*
X87273809Y44306905D02*
X88083333Y44306905D01*
X88178571Y44354524D01*
X88226190Y44402143D01*
X88273809Y44497381D01*
X88273809Y44687858D01*
X88226190Y44783096D01*
X88178571Y44830715D01*
X88083333Y44878334D01*
X87273809Y44878334D01*
X88273809Y45878334D02*
X88273809Y45306905D01*
X88273809Y45592619D02*
X87273809Y45592619D01*
X87416666Y45497381D01*
X87511904Y45402143D01*
X87559523Y45306905D01*
X87273809Y46497381D02*
X87273809Y46592620D01*
X87321428Y46687858D01*
X87369047Y46735477D01*
X87464285Y46783096D01*
X87654761Y46830715D01*
X87892857Y46830715D01*
X88083333Y46783096D01*
X88178571Y46735477D01*
X88226190Y46687858D01*
X88273809Y46592620D01*
X88273809Y46497381D01*
X88226190Y46402143D01*
X88178571Y46354524D01*
X88083333Y46306905D01*
X87892857Y46259286D01*
X87654761Y46259286D01*
X87464285Y46306905D01*
X87369047Y46354524D01*
X87321428Y46402143D01*
X87273809Y46497381D01*
X70582381Y45418095D02*
X71391905Y45418095D01*
X71487143Y45465714D01*
X71534762Y45513333D01*
X71582381Y45608571D01*
X71582381Y45799048D01*
X71534762Y45894286D01*
X71487143Y45941905D01*
X71391905Y45989524D01*
X70582381Y45989524D01*
X71582381Y46513333D02*
X71582381Y46703809D01*
X71534762Y46799048D01*
X71487143Y46846667D01*
X71344286Y46941905D01*
X71153810Y46989524D01*
X70772857Y46989524D01*
X70677619Y46941905D01*
X70630000Y46894286D01*
X70582381Y46799048D01*
X70582381Y46608571D01*
X70630000Y46513333D01*
X70677619Y46465714D01*
X70772857Y46418095D01*
X71010952Y46418095D01*
X71106190Y46465714D01*
X71153810Y46513333D01*
X71201429Y46608571D01*
X71201429Y46799048D01*
X71153810Y46894286D01*
X71106190Y46941905D01*
X71010952Y46989524D01*
X53528095Y45418095D02*
X54337619Y45418095D01*
X54432857Y45465714D01*
X54480476Y45513333D01*
X54528095Y45608571D01*
X54528095Y45799048D01*
X54480476Y45894286D01*
X54432857Y45941905D01*
X54337619Y45989524D01*
X53528095Y45989524D01*
X53956666Y46608571D02*
X53909047Y46513333D01*
X53861428Y46465714D01*
X53766190Y46418095D01*
X53718571Y46418095D01*
X53623333Y46465714D01*
X53575714Y46513333D01*
X53528095Y46608571D01*
X53528095Y46799048D01*
X53575714Y46894286D01*
X53623333Y46941905D01*
X53718571Y46989524D01*
X53766190Y46989524D01*
X53861428Y46941905D01*
X53909047Y46894286D01*
X53956666Y46799048D01*
X53956666Y46608571D01*
X54004285Y46513333D01*
X54051904Y46465714D01*
X54147143Y46418095D01*
X54337619Y46418095D01*
X54432857Y46465714D01*
X54480476Y46513333D01*
X54528095Y46608571D01*
X54528095Y46799048D01*
X54480476Y46894286D01*
X54432857Y46941905D01*
X54337619Y46989524D01*
X54147143Y46989524D01*
X54051904Y46941905D01*
X54004285Y46894286D01*
X53956666Y46799048D01*
X136876381Y7857905D02*
X137685905Y7857905D01*
X137781143Y7905524D01*
X137828762Y7953143D01*
X137876381Y8048381D01*
X137876381Y8238858D01*
X137828762Y8334096D01*
X137781143Y8381715D01*
X137685905Y8429334D01*
X136876381Y8429334D01*
X137876381Y9429334D02*
X137876381Y8857905D01*
X137876381Y9143619D02*
X136876381Y9143619D01*
X137019238Y9048381D01*
X137114476Y8953143D01*
X137162095Y8857905D01*
X136876381Y10286477D02*
X136876381Y10096000D01*
X136924000Y10000762D01*
X136971619Y9953143D01*
X137114476Y9857905D01*
X137304952Y9810286D01*
X137685905Y9810286D01*
X137781143Y9857905D01*
X137828762Y9905524D01*
X137876381Y10000762D01*
X137876381Y10191239D01*
X137828762Y10286477D01*
X137781143Y10334096D01*
X137685905Y10381715D01*
X137447810Y10381715D01*
X137352571Y10334096D01*
X137304952Y10286477D01*
X137257333Y10191239D01*
X137257333Y10000762D01*
X137304952Y9905524D01*
X137352571Y9857905D01*
X137447810Y9810286D01*
X26132381Y66023905D02*
X26941905Y66023905D01*
X27037143Y66071524D01*
X27084762Y66119143D01*
X27132381Y66214381D01*
X27132381Y66404858D01*
X27084762Y66500096D01*
X27037143Y66547715D01*
X26941905Y66595334D01*
X26132381Y66595334D01*
X27132381Y67595334D02*
X27132381Y67023905D01*
X27132381Y67309619D02*
X26132381Y67309619D01*
X26275238Y67214381D01*
X26370476Y67119143D01*
X26418095Y67023905D01*
X26560952Y68166762D02*
X26513333Y68071524D01*
X26465714Y68023905D01*
X26370476Y67976286D01*
X26322857Y67976286D01*
X26227619Y68023905D01*
X26180000Y68071524D01*
X26132381Y68166762D01*
X26132381Y68357239D01*
X26180000Y68452477D01*
X26227619Y68500096D01*
X26322857Y68547715D01*
X26370476Y68547715D01*
X26465714Y68500096D01*
X26513333Y68452477D01*
X26560952Y68357239D01*
X26560952Y68166762D01*
X26608571Y68071524D01*
X26656190Y68023905D01*
X26751429Y67976286D01*
X26941905Y67976286D01*
X27037143Y68023905D01*
X27084762Y68071524D01*
X27132381Y68166762D01*
X27132381Y68357239D01*
X27084762Y68452477D01*
X27037143Y68500096D01*
X26941905Y68547715D01*
X26751429Y68547715D01*
X26656190Y68500096D01*
X26608571Y68452477D01*
X26560952Y68357239D01*
X95514095Y62297619D02*
X95514095Y61488095D01*
X95561714Y61392857D01*
X95609333Y61345238D01*
X95704571Y61297619D01*
X95895048Y61297619D01*
X95990286Y61345238D01*
X96037905Y61392857D01*
X96085524Y61488095D01*
X96085524Y62297619D01*
X96514095Y62202381D02*
X96561714Y62250000D01*
X96656952Y62297619D01*
X96895048Y62297619D01*
X96990286Y62250000D01*
X97037905Y62202381D01*
X97085524Y62107143D01*
X97085524Y62011905D01*
X97037905Y61869048D01*
X96466476Y61297619D01*
X97085524Y61297619D01*
X67828095Y63067213D02*
X67828095Y62257689D01*
X67875714Y62162451D01*
X67923333Y62114832D01*
X68018571Y62067213D01*
X68209048Y62067213D01*
X68304286Y62114832D01*
X68351905Y62162451D01*
X68399524Y62257689D01*
X68399524Y63067213D01*
X68780476Y63067213D02*
X69399524Y63067213D01*
X69066190Y62686261D01*
X69209048Y62686261D01*
X69304286Y62638642D01*
X69351905Y62591023D01*
X69399524Y62495784D01*
X69399524Y62257689D01*
X69351905Y62162451D01*
X69304286Y62114832D01*
X69209048Y62067213D01*
X68923333Y62067213D01*
X68828095Y62114832D01*
X68780476Y62162451D01*
X63216381Y7857905D02*
X64025905Y7857905D01*
X64121143Y7905524D01*
X64168762Y7953143D01*
X64216381Y8048381D01*
X64216381Y8238858D01*
X64168762Y8334096D01*
X64121143Y8381715D01*
X64025905Y8429334D01*
X63216381Y8429334D01*
X64216381Y9429334D02*
X64216381Y8857905D01*
X64216381Y9143619D02*
X63216381Y9143619D01*
X63359238Y9048381D01*
X63454476Y8953143D01*
X63502095Y8857905D01*
X63216381Y9762667D02*
X63216381Y10381715D01*
X63597333Y10048381D01*
X63597333Y10191239D01*
X63644952Y10286477D01*
X63692571Y10334096D01*
X63787810Y10381715D01*
X64025905Y10381715D01*
X64121143Y10334096D01*
X64168762Y10286477D01*
X64216381Y10191239D01*
X64216381Y9905524D01*
X64168762Y9810286D01*
X64121143Y9762667D01*
X19782381Y45418095D02*
X20591905Y45418095D01*
X20687143Y45465714D01*
X20734762Y45513333D01*
X20782381Y45608571D01*
X20782381Y45799048D01*
X20734762Y45894286D01*
X20687143Y45941905D01*
X20591905Y45989524D01*
X19782381Y45989524D01*
X19782381Y46894286D02*
X19782381Y46703809D01*
X19830000Y46608571D01*
X19877619Y46560952D01*
X20020476Y46465714D01*
X20210952Y46418095D01*
X20591905Y46418095D01*
X20687143Y46465714D01*
X20734762Y46513333D01*
X20782381Y46608571D01*
X20782381Y46799048D01*
X20734762Y46894286D01*
X20687143Y46941905D01*
X20591905Y46989524D01*
X20353810Y46989524D01*
X20258571Y46941905D01*
X20210952Y46894286D01*
X20163333Y46799048D01*
X20163333Y46608571D01*
X20210952Y46513333D01*
X20258571Y46465714D01*
X20353810Y46418095D01*
X36800381Y45418095D02*
X37609905Y45418095D01*
X37705143Y45465714D01*
X37752762Y45513333D01*
X37800381Y45608571D01*
X37800381Y45799048D01*
X37752762Y45894286D01*
X37705143Y45941905D01*
X37609905Y45989524D01*
X36800381Y45989524D01*
X36800381Y46370476D02*
X36800381Y47037143D01*
X37800381Y46608571D01*
X127857143Y6747619D02*
X127523809Y7223810D01*
X127285714Y6747619D02*
X127285714Y7747619D01*
X127666667Y7747619D01*
X127761905Y7700000D01*
X127809524Y7652381D01*
X127857143Y7557143D01*
X127857143Y7414286D01*
X127809524Y7319048D01*
X127761905Y7271429D01*
X127666667Y7223810D01*
X127285714Y7223810D01*
X128714286Y7414286D02*
X128714286Y6747619D01*
X128476190Y7795238D02*
X128238095Y7080952D01*
X128857143Y7080952D01*
X129714286Y7747619D02*
X129238095Y7747619D01*
X129190476Y7271429D01*
X129238095Y7319048D01*
X129333333Y7366667D01*
X129571429Y7366667D01*
X129666667Y7319048D01*
X129714286Y7271429D01*
X129761905Y7176190D01*
X129761905Y6938095D01*
X129714286Y6842857D01*
X129666667Y6795238D01*
X129571429Y6747619D01*
X129333333Y6747619D01*
X129238095Y6795238D01*
X129190476Y6842857D01*
X86312381Y21607143D02*
X85836190Y21273809D01*
X86312381Y21035714D02*
X85312381Y21035714D01*
X85312381Y21416667D01*
X85360000Y21511905D01*
X85407619Y21559524D01*
X85502857Y21607143D01*
X85645714Y21607143D01*
X85740952Y21559524D01*
X85788571Y21511905D01*
X85836190Y21416667D01*
X85836190Y21035714D01*
X85312381Y21940476D02*
X85312381Y22559524D01*
X85693333Y22226190D01*
X85693333Y22369048D01*
X85740952Y22464286D01*
X85788571Y22511905D01*
X85883810Y22559524D01*
X86121905Y22559524D01*
X86217143Y22511905D01*
X86264762Y22464286D01*
X86312381Y22369048D01*
X86312381Y22083333D01*
X86264762Y21988095D01*
X86217143Y21940476D01*
X85312381Y22892857D02*
X85312381Y23559524D01*
X86312381Y23130952D01*
X22452381Y34261905D02*
X21452381Y34261905D01*
X21452381Y34642858D01*
X21500000Y34738096D01*
X21547619Y34785715D01*
X21642857Y34833334D01*
X21785714Y34833334D01*
X21880952Y34785715D01*
X21928571Y34738096D01*
X21976190Y34642858D01*
X21976190Y34261905D01*
X21785714Y35690477D02*
X22452381Y35690477D01*
X21404762Y35452381D02*
X22119048Y35214286D01*
X22119048Y35833334D01*
X39452381Y34261905D02*
X38452381Y34261905D01*
X38452381Y34642858D01*
X38500000Y34738096D01*
X38547619Y34785715D01*
X38642857Y34833334D01*
X38785714Y34833334D01*
X38880952Y34785715D01*
X38928571Y34738096D01*
X38976190Y34642858D01*
X38976190Y34261905D01*
X38452381Y35738096D02*
X38452381Y35261905D01*
X38928571Y35214286D01*
X38880952Y35261905D01*
X38833333Y35357143D01*
X38833333Y35595239D01*
X38880952Y35690477D01*
X38928571Y35738096D01*
X39023810Y35785715D01*
X39261905Y35785715D01*
X39357143Y35738096D01*
X39404762Y35690477D01*
X39452381Y35595239D01*
X39452381Y35357143D01*
X39404762Y35261905D01*
X39357143Y35214286D01*
X56452381Y34261905D02*
X55452381Y34261905D01*
X55452381Y34642858D01*
X55500000Y34738096D01*
X55547619Y34785715D01*
X55642857Y34833334D01*
X55785714Y34833334D01*
X55880952Y34785715D01*
X55928571Y34738096D01*
X55976190Y34642858D01*
X55976190Y34261905D01*
X55452381Y35690477D02*
X55452381Y35500000D01*
X55500000Y35404762D01*
X55547619Y35357143D01*
X55690476Y35261905D01*
X55880952Y35214286D01*
X56261905Y35214286D01*
X56357143Y35261905D01*
X56404762Y35309524D01*
X56452381Y35404762D01*
X56452381Y35595239D01*
X56404762Y35690477D01*
X56357143Y35738096D01*
X56261905Y35785715D01*
X56023810Y35785715D01*
X55928571Y35738096D01*
X55880952Y35690477D01*
X55833333Y35595239D01*
X55833333Y35404762D01*
X55880952Y35309524D01*
X55928571Y35261905D01*
X56023810Y35214286D01*
X73452381Y34261905D02*
X72452381Y34261905D01*
X72452381Y34642858D01*
X72500000Y34738096D01*
X72547619Y34785715D01*
X72642857Y34833334D01*
X72785714Y34833334D01*
X72880952Y34785715D01*
X72928571Y34738096D01*
X72976190Y34642858D01*
X72976190Y34261905D01*
X72452381Y35166667D02*
X72452381Y35833334D01*
X73452381Y35404762D01*
X90452381Y34261905D02*
X89452381Y34261905D01*
X89452381Y34642858D01*
X89500000Y34738096D01*
X89547619Y34785715D01*
X89642857Y34833334D01*
X89785714Y34833334D01*
X89880952Y34785715D01*
X89928571Y34738096D01*
X89976190Y34642858D01*
X89976190Y34261905D01*
X89880952Y35404762D02*
X89833333Y35309524D01*
X89785714Y35261905D01*
X89690476Y35214286D01*
X89642857Y35214286D01*
X89547619Y35261905D01*
X89500000Y35309524D01*
X89452381Y35404762D01*
X89452381Y35595239D01*
X89500000Y35690477D01*
X89547619Y35738096D01*
X89642857Y35785715D01*
X89690476Y35785715D01*
X89785714Y35738096D01*
X89833333Y35690477D01*
X89880952Y35595239D01*
X89880952Y35404762D01*
X89928571Y35309524D01*
X89976190Y35261905D01*
X90071429Y35214286D01*
X90261905Y35214286D01*
X90357143Y35261905D01*
X90404762Y35309524D01*
X90452381Y35404762D01*
X90452381Y35595239D01*
X90404762Y35690477D01*
X90357143Y35738096D01*
X90261905Y35785715D01*
X90071429Y35785715D01*
X89976190Y35738096D01*
X89928571Y35690477D01*
X89880952Y35595239D01*
X107452381Y34261905D02*
X106452381Y34261905D01*
X106452381Y34642858D01*
X106500000Y34738096D01*
X106547619Y34785715D01*
X106642857Y34833334D01*
X106785714Y34833334D01*
X106880952Y34785715D01*
X106928571Y34738096D01*
X106976190Y34642858D01*
X106976190Y34261905D01*
X107452381Y35309524D02*
X107452381Y35500000D01*
X107404762Y35595239D01*
X107357143Y35642858D01*
X107214286Y35738096D01*
X107023810Y35785715D01*
X106642857Y35785715D01*
X106547619Y35738096D01*
X106500000Y35690477D01*
X106452381Y35595239D01*
X106452381Y35404762D01*
X106500000Y35309524D01*
X106547619Y35261905D01*
X106642857Y35214286D01*
X106880952Y35214286D01*
X106976190Y35261905D01*
X107023810Y35309524D01*
X107071429Y35404762D01*
X107071429Y35595239D01*
X107023810Y35690477D01*
X106976190Y35738096D01*
X106880952Y35785715D01*
X124452381Y33785714D02*
X123452381Y33785714D01*
X123452381Y34166667D01*
X123500000Y34261905D01*
X123547619Y34309524D01*
X123642857Y34357143D01*
X123785714Y34357143D01*
X123880952Y34309524D01*
X123928571Y34261905D01*
X123976190Y34166667D01*
X123976190Y33785714D01*
X124452381Y35309524D02*
X124452381Y34738095D01*
X124452381Y35023809D02*
X123452381Y35023809D01*
X123595238Y34928571D01*
X123690476Y34833333D01*
X123738095Y34738095D01*
X123452381Y35928571D02*
X123452381Y36023810D01*
X123500000Y36119048D01*
X123547619Y36166667D01*
X123642857Y36214286D01*
X123833333Y36261905D01*
X124071429Y36261905D01*
X124261905Y36214286D01*
X124357143Y36166667D01*
X124404762Y36119048D01*
X124452381Y36023810D01*
X124452381Y35928571D01*
X124404762Y35833333D01*
X124357143Y35785714D01*
X124261905Y35738095D01*
X124071429Y35690476D01*
X123833333Y35690476D01*
X123642857Y35738095D01*
X123547619Y35785714D01*
X123500000Y35833333D01*
X123452381Y35928571D01*
X141452381Y33785714D02*
X140452381Y33785714D01*
X140452381Y34166667D01*
X140500000Y34261905D01*
X140547619Y34309524D01*
X140642857Y34357143D01*
X140785714Y34357143D01*
X140880952Y34309524D01*
X140928571Y34261905D01*
X140976190Y34166667D01*
X140976190Y33785714D01*
X141452381Y35309524D02*
X141452381Y34738095D01*
X141452381Y35023809D02*
X140452381Y35023809D01*
X140595238Y34928571D01*
X140690476Y34833333D01*
X140738095Y34738095D01*
X140547619Y35690476D02*
X140500000Y35738095D01*
X140452381Y35833333D01*
X140452381Y36071429D01*
X140500000Y36166667D01*
X140547619Y36214286D01*
X140642857Y36261905D01*
X140738095Y36261905D01*
X140880952Y36214286D01*
X141452381Y35642857D01*
X141452381Y36261905D01*
X27129526Y34381143D02*
X26653335Y34047809D01*
X27129526Y33809714D02*
X26129526Y33809714D01*
X26129526Y34190667D01*
X26177145Y34285905D01*
X26224764Y34333524D01*
X26320002Y34381143D01*
X26462859Y34381143D01*
X26558097Y34333524D01*
X26605716Y34285905D01*
X26653335Y34190667D01*
X26653335Y33809714D01*
X27129526Y35333524D02*
X27129526Y34762095D01*
X27129526Y35047809D02*
X26129526Y35047809D01*
X26272383Y34952571D01*
X26367621Y34857333D01*
X26415240Y34762095D01*
X27129526Y36285905D02*
X27129526Y35714476D01*
X27129526Y36000190D02*
X26129526Y36000190D01*
X26272383Y35904952D01*
X26367621Y35809714D01*
X26415240Y35714476D01*
X44129526Y34381143D02*
X43653335Y34047809D01*
X44129526Y33809714D02*
X43129526Y33809714D01*
X43129526Y34190667D01*
X43177145Y34285905D01*
X43224764Y34333524D01*
X43320002Y34381143D01*
X43462859Y34381143D01*
X43558097Y34333524D01*
X43605716Y34285905D01*
X43653335Y34190667D01*
X43653335Y33809714D01*
X44129526Y35333524D02*
X44129526Y34762095D01*
X44129526Y35047809D02*
X43129526Y35047809D01*
X43272383Y34952571D01*
X43367621Y34857333D01*
X43415240Y34762095D01*
X43462859Y36190667D02*
X44129526Y36190667D01*
X43081907Y35952571D02*
X43796193Y35714476D01*
X43796193Y36333524D01*
X61129526Y34381143D02*
X60653335Y34047809D01*
X61129526Y33809714D02*
X60129526Y33809714D01*
X60129526Y34190667D01*
X60177145Y34285905D01*
X60224764Y34333524D01*
X60320002Y34381143D01*
X60462859Y34381143D01*
X60558097Y34333524D01*
X60605716Y34285905D01*
X60653335Y34190667D01*
X60653335Y33809714D01*
X61129526Y35333524D02*
X61129526Y34762095D01*
X61129526Y35047809D02*
X60129526Y35047809D01*
X60272383Y34952571D01*
X60367621Y34857333D01*
X60415240Y34762095D01*
X60129526Y35666857D02*
X60129526Y36333524D01*
X61129526Y35904952D01*
X78129526Y34381143D02*
X77653335Y34047809D01*
X78129526Y33809714D02*
X77129526Y33809714D01*
X77129526Y34190667D01*
X77177145Y34285905D01*
X77224764Y34333524D01*
X77320002Y34381143D01*
X77462859Y34381143D01*
X77558097Y34333524D01*
X77605716Y34285905D01*
X77653335Y34190667D01*
X77653335Y33809714D01*
X77224764Y34762095D02*
X77177145Y34809714D01*
X77129526Y34904952D01*
X77129526Y35143048D01*
X77177145Y35238286D01*
X77224764Y35285905D01*
X77320002Y35333524D01*
X77415240Y35333524D01*
X77558097Y35285905D01*
X78129526Y34714476D01*
X78129526Y35333524D01*
X77129526Y35952571D02*
X77129526Y36047810D01*
X77177145Y36143048D01*
X77224764Y36190667D01*
X77320002Y36238286D01*
X77510478Y36285905D01*
X77748574Y36285905D01*
X77939050Y36238286D01*
X78034288Y36190667D01*
X78081907Y36143048D01*
X78129526Y36047810D01*
X78129526Y35952571D01*
X78081907Y35857333D01*
X78034288Y35809714D01*
X77939050Y35762095D01*
X77748574Y35714476D01*
X77510478Y35714476D01*
X77320002Y35762095D01*
X77224764Y35809714D01*
X77177145Y35857333D01*
X77129526Y35952571D01*
X95129526Y34381143D02*
X94653335Y34047809D01*
X95129526Y33809714D02*
X94129526Y33809714D01*
X94129526Y34190667D01*
X94177145Y34285905D01*
X94224764Y34333524D01*
X94320002Y34381143D01*
X94462859Y34381143D01*
X94558097Y34333524D01*
X94605716Y34285905D01*
X94653335Y34190667D01*
X94653335Y33809714D01*
X94224764Y34762095D02*
X94177145Y34809714D01*
X94129526Y34904952D01*
X94129526Y35143048D01*
X94177145Y35238286D01*
X94224764Y35285905D01*
X94320002Y35333524D01*
X94415240Y35333524D01*
X94558097Y35285905D01*
X95129526Y34714476D01*
X95129526Y35333524D01*
X94129526Y35666857D02*
X94129526Y36285905D01*
X94510478Y35952571D01*
X94510478Y36095429D01*
X94558097Y36190667D01*
X94605716Y36238286D01*
X94700955Y36285905D01*
X94939050Y36285905D01*
X95034288Y36238286D01*
X95081907Y36190667D01*
X95129526Y36095429D01*
X95129526Y35809714D01*
X95081907Y35714476D01*
X95034288Y35666857D01*
X112129526Y34381143D02*
X111653335Y34047809D01*
X112129526Y33809714D02*
X111129526Y33809714D01*
X111129526Y34190667D01*
X111177145Y34285905D01*
X111224764Y34333524D01*
X111320002Y34381143D01*
X111462859Y34381143D01*
X111558097Y34333524D01*
X111605716Y34285905D01*
X111653335Y34190667D01*
X111653335Y33809714D01*
X111224764Y34762095D02*
X111177145Y34809714D01*
X111129526Y34904952D01*
X111129526Y35143048D01*
X111177145Y35238286D01*
X111224764Y35285905D01*
X111320002Y35333524D01*
X111415240Y35333524D01*
X111558097Y35285905D01*
X112129526Y34714476D01*
X112129526Y35333524D01*
X111129526Y36190667D02*
X111129526Y36000190D01*
X111177145Y35904952D01*
X111224764Y35857333D01*
X111367621Y35762095D01*
X111558097Y35714476D01*
X111939050Y35714476D01*
X112034288Y35762095D01*
X112081907Y35809714D01*
X112129526Y35904952D01*
X112129526Y36095429D01*
X112081907Y36190667D01*
X112034288Y36238286D01*
X111939050Y36285905D01*
X111700955Y36285905D01*
X111605716Y36238286D01*
X111558097Y36190667D01*
X111510478Y36095429D01*
X111510478Y35904952D01*
X111558097Y35809714D01*
X111605716Y35762095D01*
X111700955Y35714476D01*
X146129526Y34381143D02*
X145653335Y34047809D01*
X146129526Y33809714D02*
X145129526Y33809714D01*
X145129526Y34190667D01*
X145177145Y34285905D01*
X145224764Y34333524D01*
X145320002Y34381143D01*
X145462859Y34381143D01*
X145558097Y34333524D01*
X145605716Y34285905D01*
X145653335Y34190667D01*
X145653335Y33809714D01*
X145129526Y34714476D02*
X145129526Y35333524D01*
X145510478Y35000190D01*
X145510478Y35143048D01*
X145558097Y35238286D01*
X145605716Y35285905D01*
X145700955Y35333524D01*
X145939050Y35333524D01*
X146034288Y35285905D01*
X146081907Y35238286D01*
X146129526Y35143048D01*
X146129526Y34857333D01*
X146081907Y34762095D01*
X146034288Y34714476D01*
X145129526Y36238286D02*
X145129526Y35762095D01*
X145605716Y35714476D01*
X145558097Y35762095D01*
X145510478Y35857333D01*
X145510478Y36095429D01*
X145558097Y36190667D01*
X145605716Y36238286D01*
X145700955Y36285905D01*
X145939050Y36285905D01*
X146034288Y36238286D01*
X146081907Y36190667D01*
X146129526Y36095429D01*
X146129526Y35857333D01*
X146081907Y35762095D01*
X146034288Y35714476D01*
X129129526Y34381143D02*
X128653335Y34047809D01*
X129129526Y33809714D02*
X128129526Y33809714D01*
X128129526Y34190667D01*
X128177145Y34285905D01*
X128224764Y34333524D01*
X128320002Y34381143D01*
X128462859Y34381143D01*
X128558097Y34333524D01*
X128605716Y34285905D01*
X128653335Y34190667D01*
X128653335Y33809714D01*
X128224764Y34762095D02*
X128177145Y34809714D01*
X128129526Y34904952D01*
X128129526Y35143048D01*
X128177145Y35238286D01*
X128224764Y35285905D01*
X128320002Y35333524D01*
X128415240Y35333524D01*
X128558097Y35285905D01*
X129129526Y34714476D01*
X129129526Y35333524D01*
X129129526Y35809714D02*
X129129526Y36000190D01*
X129081907Y36095429D01*
X129034288Y36143048D01*
X128891431Y36238286D01*
X128700955Y36285905D01*
X128320002Y36285905D01*
X128224764Y36238286D01*
X128177145Y36190667D01*
X128129526Y36095429D01*
X128129526Y35904952D01*
X128177145Y35809714D01*
X128224764Y35762095D01*
X128320002Y35714476D01*
X128558097Y35714476D01*
X128653335Y35762095D01*
X128700955Y35809714D01*
X128748574Y35904952D01*
X128748574Y36095429D01*
X128700955Y36190667D01*
X128653335Y36238286D01*
X128558097Y36285905D01*
X32052381Y57657143D02*
X31576190Y57323809D01*
X32052381Y57085714D02*
X31052381Y57085714D01*
X31052381Y57466667D01*
X31100000Y57561905D01*
X31147619Y57609524D01*
X31242857Y57657143D01*
X31385714Y57657143D01*
X31480952Y57609524D01*
X31528571Y57561905D01*
X31576190Y57466667D01*
X31576190Y57085714D01*
X31385714Y58514286D02*
X32052381Y58514286D01*
X31004762Y58276190D02*
X31719048Y58038095D01*
X31719048Y58657143D01*
X31480952Y59180952D02*
X31433333Y59085714D01*
X31385714Y59038095D01*
X31290476Y58990476D01*
X31242857Y58990476D01*
X31147619Y59038095D01*
X31100000Y59085714D01*
X31052381Y59180952D01*
X31052381Y59371429D01*
X31100000Y59466667D01*
X31147619Y59514286D01*
X31242857Y59561905D01*
X31290476Y59561905D01*
X31385714Y59514286D01*
X31433333Y59466667D01*
X31480952Y59371429D01*
X31480952Y59180952D01*
X31528571Y59085714D01*
X31576190Y59038095D01*
X31671429Y58990476D01*
X31861905Y58990476D01*
X31957143Y59038095D01*
X32004762Y59085714D01*
X32052381Y59180952D01*
X32052381Y59371429D01*
X32004762Y59466667D01*
X31957143Y59514286D01*
X31861905Y59561905D01*
X31671429Y59561905D01*
X31576190Y59514286D01*
X31528571Y59466667D01*
X31480952Y59371429D01*
X49452381Y56057143D02*
X48976190Y55723809D01*
X49452381Y55485714D02*
X48452381Y55485714D01*
X48452381Y55866667D01*
X48500000Y55961905D01*
X48547619Y56009524D01*
X48642857Y56057143D01*
X48785714Y56057143D01*
X48880952Y56009524D01*
X48928571Y55961905D01*
X48976190Y55866667D01*
X48976190Y55485714D01*
X48785714Y56914286D02*
X49452381Y56914286D01*
X48404762Y56676190D02*
X49119048Y56438095D01*
X49119048Y57057143D01*
X49452381Y57485714D02*
X49452381Y57676190D01*
X49404762Y57771429D01*
X49357143Y57819048D01*
X49214286Y57914286D01*
X49023810Y57961905D01*
X48642857Y57961905D01*
X48547619Y57914286D01*
X48500000Y57866667D01*
X48452381Y57771429D01*
X48452381Y57580952D01*
X48500000Y57485714D01*
X48547619Y57438095D01*
X48642857Y57390476D01*
X48880952Y57390476D01*
X48976190Y57438095D01*
X49023810Y57485714D01*
X49071429Y57580952D01*
X49071429Y57771429D01*
X49023810Y57866667D01*
X48976190Y57914286D01*
X48880952Y57961905D01*
X45202381Y57607143D02*
X44726190Y57273809D01*
X45202381Y57035714D02*
X44202381Y57035714D01*
X44202381Y57416667D01*
X44250000Y57511905D01*
X44297619Y57559524D01*
X44392857Y57607143D01*
X44535714Y57607143D01*
X44630952Y57559524D01*
X44678571Y57511905D01*
X44726190Y57416667D01*
X44726190Y57035714D01*
X44202381Y58511905D02*
X44202381Y58035714D01*
X44678571Y57988095D01*
X44630952Y58035714D01*
X44583333Y58130952D01*
X44583333Y58369048D01*
X44630952Y58464286D01*
X44678571Y58511905D01*
X44773810Y58559524D01*
X45011905Y58559524D01*
X45107143Y58511905D01*
X45154762Y58464286D01*
X45202381Y58369048D01*
X45202381Y58130952D01*
X45154762Y58035714D01*
X45107143Y57988095D01*
X44202381Y59178571D02*
X44202381Y59273810D01*
X44250000Y59369048D01*
X44297619Y59416667D01*
X44392857Y59464286D01*
X44583333Y59511905D01*
X44821429Y59511905D01*
X45011905Y59464286D01*
X45107143Y59416667D01*
X45154762Y59369048D01*
X45202381Y59273810D01*
X45202381Y59178571D01*
X45154762Y59083333D01*
X45107143Y59035714D01*
X45011905Y58988095D01*
X44821429Y58940476D01*
X44583333Y58940476D01*
X44392857Y58988095D01*
X44297619Y59035714D01*
X44250000Y59083333D01*
X44202381Y59178571D01*
X106706381Y59665905D02*
X105706381Y59665905D01*
X105706381Y59904000D01*
X105754000Y60046858D01*
X105849238Y60142096D01*
X105944476Y60189715D01*
X106134952Y60237334D01*
X106277810Y60237334D01*
X106468286Y60189715D01*
X106563524Y60142096D01*
X106658762Y60046858D01*
X106706381Y59904000D01*
X106706381Y59665905D01*
X106039714Y61094477D02*
X106706381Y61094477D01*
X105658762Y60856381D02*
X106373048Y60618286D01*
X106373048Y61237334D01*
X103006381Y63729905D02*
X102006381Y63729905D01*
X102006381Y63968000D01*
X102054000Y64110858D01*
X102149238Y64206096D01*
X102244476Y64253715D01*
X102434952Y64301334D01*
X102577810Y64301334D01*
X102768286Y64253715D01*
X102863524Y64206096D01*
X102958762Y64110858D01*
X103006381Y63968000D01*
X103006381Y63729905D01*
X102006381Y64634667D02*
X102006381Y65253715D01*
X102387333Y64920381D01*
X102387333Y65063239D01*
X102434952Y65158477D01*
X102482571Y65206096D01*
X102577810Y65253715D01*
X102815905Y65253715D01*
X102911143Y65206096D01*
X102958762Y65158477D01*
X103006381Y65063239D01*
X103006381Y64777524D01*
X102958762Y64682286D01*
X102911143Y64634667D01*
X41214176Y62759923D02*
X40214176Y62759923D01*
X40214176Y62998018D01*
X40261795Y63140876D01*
X40357033Y63236114D01*
X40452271Y63283733D01*
X40642747Y63331352D01*
X40785605Y63331352D01*
X40976081Y63283733D01*
X41071319Y63236114D01*
X41166557Y63140876D01*
X41214176Y62998018D01*
X41214176Y62759923D01*
X41214176Y64283733D02*
X41214176Y63712304D01*
X41214176Y63998018D02*
X40214176Y63998018D01*
X40357033Y63902780D01*
X40452271Y63807542D01*
X40499890Y63712304D01*
X40642747Y64855161D02*
X40595128Y64759923D01*
X40547509Y64712304D01*
X40452271Y64664685D01*
X40404652Y64664685D01*
X40309414Y64712304D01*
X40261795Y64759923D01*
X40214176Y64855161D01*
X40214176Y65045638D01*
X40261795Y65140876D01*
X40309414Y65188495D01*
X40404652Y65236114D01*
X40452271Y65236114D01*
X40547509Y65188495D01*
X40595128Y65140876D01*
X40642747Y65045638D01*
X40642747Y64855161D01*
X40690366Y64759923D01*
X40737985Y64712304D01*
X40833224Y64664685D01*
X41023700Y64664685D01*
X41118938Y64712304D01*
X41166557Y64759923D01*
X41214176Y64855161D01*
X41214176Y65045638D01*
X41166557Y65140876D01*
X41118938Y65188495D01*
X41023700Y65236114D01*
X40833224Y65236114D01*
X40737985Y65188495D01*
X40690366Y65140876D01*
X40642747Y65045638D01*
X29507143Y9233334D02*
X29554762Y9185715D01*
X29602381Y9042858D01*
X29602381Y8947620D01*
X29554762Y8804762D01*
X29459524Y8709524D01*
X29364286Y8661905D01*
X29173810Y8614286D01*
X29030952Y8614286D01*
X28840476Y8661905D01*
X28745238Y8709524D01*
X28650000Y8804762D01*
X28602381Y8947620D01*
X28602381Y9042858D01*
X28650000Y9185715D01*
X28697619Y9233334D01*
X28602381Y9852381D02*
X28602381Y9947620D01*
X28650000Y10042858D01*
X28697619Y10090477D01*
X28792857Y10138096D01*
X28983333Y10185715D01*
X29221429Y10185715D01*
X29411905Y10138096D01*
X29507143Y10090477D01*
X29554762Y10042858D01*
X29602381Y9947620D01*
X29602381Y9852381D01*
X29554762Y9757143D01*
X29507143Y9709524D01*
X29411905Y9661905D01*
X29221429Y9614286D01*
X28983333Y9614286D01*
X28792857Y9661905D01*
X28697619Y9709524D01*
X28650000Y9757143D01*
X28602381Y9852381D01*
X40907143Y9233334D02*
X40954762Y9185715D01*
X41002381Y9042858D01*
X41002381Y8947620D01*
X40954762Y8804762D01*
X40859524Y8709524D01*
X40764286Y8661905D01*
X40573810Y8614286D01*
X40430952Y8614286D01*
X40240476Y8661905D01*
X40145238Y8709524D01*
X40050000Y8804762D01*
X40002381Y8947620D01*
X40002381Y9042858D01*
X40050000Y9185715D01*
X40097619Y9233334D01*
X41002381Y10185715D02*
X41002381Y9614286D01*
X41002381Y9900000D02*
X40002381Y9900000D01*
X40145238Y9804762D01*
X40240476Y9709524D01*
X40288095Y9614286D01*
X54252381Y5738095D02*
X55061905Y5738095D01*
X55157143Y5785714D01*
X55204762Y5833333D01*
X55252381Y5928571D01*
X55252381Y6119048D01*
X55204762Y6214286D01*
X55157143Y6261905D01*
X55061905Y6309524D01*
X54252381Y6309524D01*
X55252381Y7309524D02*
X55252381Y6738095D01*
X55252381Y7023809D02*
X54252381Y7023809D01*
X54395238Y6928571D01*
X54490476Y6833333D01*
X54538095Y6738095D01*
X144352381Y14457143D02*
X143876190Y14123809D01*
X144352381Y13885714D02*
X143352381Y13885714D01*
X143352381Y14266667D01*
X143400000Y14361905D01*
X143447619Y14409524D01*
X143542857Y14457143D01*
X143685714Y14457143D01*
X143780952Y14409524D01*
X143828571Y14361905D01*
X143876190Y14266667D01*
X143876190Y13885714D01*
X143685714Y15314286D02*
X144352381Y15314286D01*
X143304762Y15076190D02*
X144019048Y14838095D01*
X144019048Y15457143D01*
X143352381Y16266667D02*
X143352381Y16076190D01*
X143400000Y15980952D01*
X143447619Y15933333D01*
X143590476Y15838095D01*
X143780952Y15790476D01*
X144161905Y15790476D01*
X144257143Y15838095D01*
X144304762Y15885714D01*
X144352381Y15980952D01*
X144352381Y16171429D01*
X144304762Y16266667D01*
X144257143Y16314286D01*
X144161905Y16361905D01*
X143923810Y16361905D01*
X143828571Y16314286D01*
X143780952Y16266667D01*
X143733333Y16171429D01*
X143733333Y15980952D01*
X143780952Y15885714D01*
X143828571Y15838095D01*
X143923810Y15790476D01*
X38161905Y56347619D02*
X38161905Y55538095D01*
X38209524Y55442857D01*
X38257143Y55395238D01*
X38352381Y55347619D01*
X38542858Y55347619D01*
X38638096Y55395238D01*
X38685715Y55442857D01*
X38733334Y55538095D01*
X38733334Y56347619D01*
X39161905Y56252381D02*
X39209524Y56300000D01*
X39304762Y56347619D01*
X39542858Y56347619D01*
X39638096Y56300000D01*
X39685715Y56252381D01*
X39733334Y56157143D01*
X39733334Y56061905D01*
X39685715Y55919048D01*
X39114286Y55347619D01*
X39733334Y55347619D01*
X40352381Y56347619D02*
X40447620Y56347619D01*
X40542858Y56300000D01*
X40590477Y56252381D01*
X40638096Y56157143D01*
X40685715Y55966667D01*
X40685715Y55728571D01*
X40638096Y55538095D01*
X40590477Y55442857D01*
X40542858Y55395238D01*
X40447620Y55347619D01*
X40352381Y55347619D01*
X40257143Y55395238D01*
X40209524Y55442857D01*
X40161905Y55538095D01*
X40114286Y55728571D01*
X40114286Y55966667D01*
X40161905Y56157143D01*
X40209524Y56252381D01*
X40257143Y56300000D01*
X40352381Y56347619D01*
%LPC*%
D14*
X14700000Y5065000D03*
X14700000Y8335000D03*
D15*
X110451818Y17113178D03*
X108451818Y17113178D03*
X110431443Y19234369D03*
X108431443Y19234369D03*
D16*
X92692414Y12300000D03*
X92692414Y11500000D03*
X92692414Y10700000D03*
X92692414Y9900000D03*
X92692414Y9100000D03*
X92692414Y8300000D03*
X92692414Y7500000D03*
X92692414Y6700000D03*
D17*
X94142414Y5250000D03*
X94942414Y5250000D03*
X95742414Y5250000D03*
X96542414Y5250000D03*
X97342414Y5250000D03*
X98142414Y5250000D03*
X98942414Y5250000D03*
X99742414Y5250000D03*
D16*
X101192414Y6700000D03*
X101192414Y7500000D03*
X101192414Y8300000D03*
X101192414Y9100000D03*
X101192414Y9900000D03*
X101192414Y10700000D03*
X101192414Y11500000D03*
X101192414Y12300000D03*
D17*
X99742414Y13750000D03*
X98942414Y13750000D03*
X98142414Y13750000D03*
X97342414Y13750000D03*
X96542414Y13750000D03*
X95742414Y13750000D03*
X94942414Y13750000D03*
X94142414Y13750000D03*
D18*
X112160231Y13918538D03*
X112810229Y13918538D03*
X113460231Y13918538D03*
X114110229Y13918538D03*
X114760228Y13918538D03*
X115410229Y13918538D03*
X116060228Y13918538D03*
X116710229Y13918538D03*
X116710229Y19557338D03*
X116060231Y19557338D03*
X115410229Y19557338D03*
X114760231Y19557338D03*
X114110232Y19557338D03*
X113460231Y19557338D03*
X112810232Y19557338D03*
X112160231Y19557338D03*
D19*
X45540000Y18000000D03*
D20*
X43000000Y18000000D03*
D21*
X88433414Y12639700D03*
X88433414Y10639700D03*
D22*
X117129400Y60923001D03*
X117129400Y61572999D03*
X117129400Y62223001D03*
X117129400Y62872999D03*
X117129400Y63522998D03*
X117129400Y64172999D03*
X117129400Y64822998D03*
X117129400Y65472999D03*
X111490600Y65472999D03*
X111490600Y64823001D03*
X111490600Y64172999D03*
X111490600Y63523001D03*
X111490600Y62873002D03*
X111490600Y62223001D03*
X111490600Y61573002D03*
X111490600Y60923001D03*
D21*
X42700000Y6900000D03*
X42700000Y8900000D03*
X54620000Y11338761D03*
X54620000Y9338761D03*
X56652000Y11338761D03*
X56652000Y9338761D03*
X58684000Y11338761D03*
X58684000Y9338761D03*
X58938000Y66992000D03*
X58938000Y64992000D03*
X60970000Y66992000D03*
X60970000Y64992000D03*
X14700000Y10100000D03*
X14700000Y12100000D03*
X99832000Y65186000D03*
X99832000Y63186000D03*
X92720000Y65059000D03*
X92720000Y63059000D03*
X106436000Y63214000D03*
X106436000Y65214000D03*
X108468000Y63214000D03*
X108468000Y65214000D03*
X78242000Y66992000D03*
X78242000Y64992000D03*
X76210000Y66992000D03*
X76210000Y64992000D03*
X55106191Y57439807D03*
X55106191Y55439807D03*
X53074191Y57439807D03*
X53074191Y55439807D03*
X106436000Y61404000D03*
X106436000Y59404000D03*
X108468000Y61404000D03*
X108468000Y59404000D03*
X121676000Y64484000D03*
X121676000Y66484000D03*
X126248000Y64960000D03*
X126248000Y62960000D03*
X121676000Y60674000D03*
X121676000Y62674000D03*
X13980000Y53729362D03*
X13980000Y55729362D03*
X11948000Y53729362D03*
X11948000Y55729362D03*
X31050000Y53911164D03*
X31050000Y55911164D03*
X29050000Y53911164D03*
X29050000Y55911164D03*
X47514178Y53773068D03*
X47514178Y55773068D03*
X45475000Y53775000D03*
X45475000Y55775000D03*
X64852499Y53881537D03*
X64852499Y55881537D03*
X62820499Y53881537D03*
X62820499Y55881537D03*
X81544000Y53832000D03*
X81544000Y55832000D03*
X79512000Y53832000D03*
X79512000Y55832000D03*
X98308000Y53816000D03*
X98308000Y55816000D03*
X96276000Y53816000D03*
X96276000Y55816000D03*
X90400000Y12630700D03*
X90400000Y10630700D03*
X115072000Y53816000D03*
X115072000Y55816000D03*
X113040000Y53816000D03*
X113040000Y55816000D03*
D15*
X80544000Y5540000D03*
X82544000Y5540000D03*
X71114000Y5540000D03*
X69114000Y5540000D03*
D21*
X132090000Y53816000D03*
X132090000Y55816000D03*
X130058000Y53816000D03*
X130058000Y55816000D03*
D15*
X65272000Y16462000D03*
X63272000Y16462000D03*
X65272000Y14430000D03*
X63272000Y14430000D03*
X129534000Y12017000D03*
X127534000Y12017000D03*
X129534000Y13922000D03*
X127534000Y13922000D03*
X98327414Y15900000D03*
X96327414Y15900000D03*
X98327414Y17865312D03*
X96327414Y17865312D03*
D21*
X83830000Y18986000D03*
X83830000Y16986000D03*
X76718000Y18986000D03*
X76718000Y16986000D03*
X29728000Y66992000D03*
X29728000Y64992000D03*
X31760000Y62960000D03*
X31760000Y64960000D03*
X38618000Y63214000D03*
X38618000Y65214000D03*
X40650000Y63214000D03*
X40650000Y65214000D03*
X19568000Y57340000D03*
X19568000Y55340000D03*
X21600000Y57340000D03*
X21600000Y55340000D03*
D23*
X11000000Y8001020D03*
X11000000Y11998980D03*
D24*
X135326000Y66992760D03*
X133426000Y66992760D03*
X134376000Y64993780D03*
X133426000Y60673240D03*
X135326000Y60673240D03*
X134376000Y62672220D03*
D19*
X48960000Y18000000D03*
D20*
X51500000Y18000000D03*
D25*
X5000000Y12000000D03*
D26*
X5000000Y9460000D03*
X5000000Y6920000D03*
X5000000Y4380000D03*
D27*
X118960000Y8750000D03*
D28*
X118960000Y11290000D03*
X121500000Y8750000D03*
X121500000Y11290000D03*
X124040000Y8750000D03*
X124040000Y11290000D03*
D29*
X118960000Y5250000D03*
D30*
X121500000Y5250000D03*
X124040000Y5250000D03*
D25*
X146000000Y12000000D03*
D26*
X146000000Y9460000D03*
X146000000Y6920000D03*
X146000000Y4380000D03*
D31*
X95326000Y66980000D03*
X97226000Y66980000D03*
X78054000Y59388000D03*
X79954000Y59388000D03*
D32*
X76210000Y57422000D03*
X76210000Y59322000D03*
D31*
X138506000Y64976000D03*
X140406000Y64976000D03*
X128346000Y64976000D03*
X130246000Y64976000D03*
X138506000Y62690000D03*
X140406000Y62690000D03*
X128346000Y62690000D03*
X130246000Y62690000D03*
D32*
X16022578Y53774362D03*
X16022578Y51874362D03*
X33050000Y53734000D03*
X33050000Y51834000D03*
X49546178Y53818068D03*
X49546178Y51918068D03*
X66884499Y53926537D03*
X66884499Y52026537D03*
X83576000Y53734000D03*
X83576000Y51834000D03*
X100340000Y53734000D03*
X100340000Y51834000D03*
X117213840Y53892074D03*
X117213840Y51992074D03*
X84846000Y9162000D03*
X84846000Y11062000D03*
X134122000Y53734000D03*
X134122000Y51834000D03*
D31*
X133040000Y13922000D03*
X131140000Y13922000D03*
X79450000Y19000000D03*
X81350000Y19000000D03*
X21412000Y64976000D03*
X23312000Y64976000D03*
X46750000Y60950000D03*
X44850000Y60950000D03*
D32*
X48524000Y60846000D03*
X48524000Y58946000D03*
X115500000Y9800000D03*
X115500000Y11700000D03*
X50556000Y60846000D03*
X50556000Y58946000D03*
D31*
X32050000Y60912000D03*
X33950000Y60912000D03*
D33*
X80550860Y9096000D03*
X70853140Y9096000D03*
D34*
X26019600Y57167999D03*
X26019600Y58118000D03*
X26019600Y59068001D03*
X23784400Y59068001D03*
X23784400Y57167999D03*
X59547600Y57167999D03*
X59547600Y58118000D03*
X59547600Y59068001D03*
X57312400Y59068001D03*
X57312400Y57167999D03*
D35*
X134121999Y49990000D03*
X134121999Y47450000D03*
X134121999Y44910000D03*
X134121999Y42370000D03*
X142757999Y42370000D03*
X142757999Y44910000D03*
X142757999Y47450000D03*
X142757999Y49990000D03*
X117249142Y49990000D03*
X117249142Y47450000D03*
X117249142Y44910000D03*
X117249142Y42370000D03*
X125885142Y42370000D03*
X125885142Y44910000D03*
X125885142Y47450000D03*
X125885142Y49990000D03*
X100376285Y49990000D03*
X100376285Y47450000D03*
X100376285Y44910000D03*
X100376285Y42370000D03*
X109012285Y42370000D03*
X109012285Y44910000D03*
X109012285Y47450000D03*
X109012285Y49990000D03*
X83503428Y49990000D03*
X83503428Y47450000D03*
X83503428Y44910000D03*
X83503428Y42370000D03*
X92139428Y42370000D03*
X92139428Y44910000D03*
X92139428Y47450000D03*
X92139428Y49990000D03*
X66812000Y49990000D03*
X66812000Y47450000D03*
X66812000Y44910000D03*
X66812000Y42370000D03*
X75448000Y42370000D03*
X75448000Y44910000D03*
X75448000Y47450000D03*
X75448000Y49990000D03*
X49757714Y49990000D03*
X49757714Y47450000D03*
X49757714Y44910000D03*
X49757714Y42370000D03*
X58393714Y42370000D03*
X58393714Y44910000D03*
X58393714Y47450000D03*
X58393714Y49990000D03*
X133106000Y11636000D03*
X133106000Y9096000D03*
X133106000Y6556000D03*
X141742000Y6556000D03*
X141742000Y9096000D03*
X141742000Y11636000D03*
D36*
X27732021Y65066816D03*
X26782020Y65066816D03*
X25832019Y65066816D03*
X25832019Y62831616D03*
X27732021Y62831616D03*
D34*
X95158400Y65136001D03*
X95158400Y64186000D03*
X95158400Y63235999D03*
X97393600Y63235999D03*
X97393600Y65136001D03*
D37*
X64062450Y66964594D03*
X64062450Y65694594D03*
X64062450Y64424594D03*
X64062450Y63154594D03*
X64062450Y61884594D03*
X64062450Y60614594D03*
X64062450Y59344594D03*
X64062450Y58074594D03*
X73117550Y58074594D03*
X73117550Y59344594D03*
X73117550Y60614594D03*
X73117550Y61884594D03*
X73117550Y63154594D03*
X73117550Y64424594D03*
X73117550Y65694594D03*
X73117550Y66964594D03*
D38*
X65669000Y11559800D03*
X64399000Y11559800D03*
X63129000Y11559800D03*
X61859000Y11559800D03*
X61859000Y6632200D03*
X63129000Y6632200D03*
X64399000Y6632200D03*
X65669000Y6632200D03*
D35*
X16012000Y49990000D03*
X16012000Y47450000D03*
X16012000Y44910000D03*
X16012000Y42370000D03*
X24648000Y42370000D03*
X24648000Y44910000D03*
X24648000Y47450000D03*
X24648000Y49990000D03*
X33030000Y49990000D03*
X33030000Y47450000D03*
X33030000Y44910000D03*
X33030000Y42370000D03*
X41666000Y42370000D03*
X41666000Y44910000D03*
X41666000Y47450000D03*
X41666000Y49990000D03*
D31*
X127550000Y9100000D03*
X129450000Y9100000D03*
D32*
X85862000Y18052000D03*
X85862000Y19952000D03*
D20*
X21997460Y39000000D03*
D39*
X21997460Y31000000D03*
D20*
X38997460Y39000000D03*
D39*
X38997460Y31000000D03*
D20*
X55997460Y39000000D03*
D39*
X55997460Y31000000D03*
D20*
X72997460Y39000000D03*
D39*
X72997460Y31000000D03*
D20*
X89997460Y39000000D03*
D39*
X89997460Y31000000D03*
D20*
X106997460Y39000000D03*
D39*
X106997460Y31000000D03*
D20*
X123997460Y39000000D03*
D39*
X123997460Y31000000D03*
D20*
X140997460Y39000000D03*
D39*
X140997460Y31000000D03*
X24500000Y36040000D03*
D20*
X24500000Y33500000D03*
D39*
X41500000Y36040000D03*
D20*
X41500000Y33500000D03*
D39*
X58500000Y36040000D03*
D20*
X58500000Y33500000D03*
D39*
X75500000Y36040000D03*
D20*
X75500000Y33500000D03*
D39*
X92500000Y36040000D03*
D20*
X92500000Y33500000D03*
D39*
X109500000Y36040000D03*
D20*
X109500000Y33500000D03*
D39*
X143500000Y36040000D03*
D20*
X143500000Y33500000D03*
D39*
X126500000Y36040000D03*
D20*
X126500000Y33500000D03*
D32*
X33200000Y57350000D03*
X33200000Y59250000D03*
X50500000Y55750000D03*
X50500000Y57650000D03*
X46500000Y57300000D03*
X46500000Y59200000D03*
D40*
X104404000Y61459000D03*
X104404000Y59349000D03*
X104404000Y63413000D03*
X104404000Y65523000D03*
X42611795Y62919209D03*
X42611795Y65029209D03*
D41*
X22800000Y5399500D03*
X22800000Y13400500D03*
X34200000Y5399500D03*
X34200000Y13400500D03*
D42*
X51300000Y9100000D03*
X51300000Y6560000D03*
X51300000Y11640000D03*
D32*
X141800000Y16050000D03*
X141800000Y14150000D03*
D43*
X35730000Y61293000D03*
X35730000Y60023000D03*
X35730000Y58753000D03*
X35730000Y57483000D03*
X43030000Y57483000D03*
X43030000Y58753000D03*
X43030000Y60023000D03*
X43030000Y61293000D03*
M02*
