G04 #@! TF.FileFunction,Soldermask,Bot*
%FSLAX46Y46*%
G04 Gerber Fmt 4.6, Leading zero omitted, Abs format (unit mm)*
G04 Created by KiCad (PCBNEW 4.0.2-stable) date 4/21/2016 10:24:52 PM*
%MOMM*%
G01*
G04 APERTURE LIST*
%ADD10C,0.100000*%
G04 APERTURE END LIST*
D10*
G36*
X13750000Y3150000D02*
X12650000Y3150000D01*
X12650000Y4850000D01*
X13750000Y4850000D01*
X13750000Y3150000D01*
X13750000Y3150000D01*
G37*
G36*
X11850000Y3150000D02*
X10750000Y3150000D01*
X10750000Y4850000D01*
X11850000Y4850000D01*
X11850000Y3150000D01*
X11850000Y3150000D01*
G37*
G36*
X5169078Y5443525D02*
X5169084Y5443524D01*
X5173134Y5443496D01*
X5379419Y5420358D01*
X5577281Y5357592D01*
X5759183Y5257591D01*
X5918197Y5124162D01*
X6048267Y4962388D01*
X6144437Y4778432D01*
X6203045Y4579299D01*
X6203051Y4579233D01*
X6203058Y4579209D01*
X6221863Y4372579D01*
X6200175Y4166232D01*
X6200168Y4166209D01*
X6200160Y4166134D01*
X6138778Y3967838D01*
X6040048Y3785242D01*
X5907733Y3625301D01*
X5746871Y3494105D01*
X5563590Y3396653D01*
X5364872Y3336656D01*
X5158284Y3316400D01*
X4841640Y3316400D01*
X4830922Y3316475D01*
X4830916Y3316476D01*
X4826866Y3316504D01*
X4620581Y3339642D01*
X4422719Y3402408D01*
X4240817Y3502409D01*
X4081803Y3635838D01*
X3951733Y3797612D01*
X3855563Y3981568D01*
X3796955Y4180701D01*
X3796949Y4180767D01*
X3796942Y4180791D01*
X3778137Y4387421D01*
X3799825Y4593768D01*
X3799832Y4593791D01*
X3799840Y4593866D01*
X3861222Y4792162D01*
X3959952Y4974758D01*
X4092267Y5134699D01*
X4253129Y5265895D01*
X4436410Y5363347D01*
X4635128Y5423344D01*
X4841716Y5443600D01*
X5158360Y5443600D01*
X5169078Y5443525D01*
X5169078Y5443525D01*
G37*
G36*
X146169078Y5443525D02*
X146169084Y5443524D01*
X146173134Y5443496D01*
X146379419Y5420358D01*
X146577281Y5357592D01*
X146759183Y5257591D01*
X146918197Y5124162D01*
X147048267Y4962388D01*
X147144437Y4778432D01*
X147203045Y4579299D01*
X147203051Y4579233D01*
X147203058Y4579209D01*
X147221863Y4372579D01*
X147200175Y4166232D01*
X147200168Y4166209D01*
X147200160Y4166134D01*
X147138778Y3967838D01*
X147040048Y3785242D01*
X146907733Y3625301D01*
X146746871Y3494105D01*
X146563590Y3396653D01*
X146364872Y3336656D01*
X146158284Y3316400D01*
X145841640Y3316400D01*
X145830922Y3316475D01*
X145830916Y3316476D01*
X145826866Y3316504D01*
X145620581Y3339642D01*
X145422719Y3402408D01*
X145240817Y3502409D01*
X145081803Y3635838D01*
X144951733Y3797612D01*
X144855563Y3981568D01*
X144796955Y4180701D01*
X144796949Y4180767D01*
X144796942Y4180791D01*
X144778137Y4387421D01*
X144799825Y4593768D01*
X144799832Y4593791D01*
X144799840Y4593866D01*
X144861222Y4792162D01*
X144959952Y4974758D01*
X145092267Y5134699D01*
X145253129Y5265895D01*
X145436410Y5363347D01*
X145635128Y5423344D01*
X145841716Y5443600D01*
X146158360Y5443600D01*
X146169078Y5443525D01*
X146169078Y5443525D01*
G37*
G36*
X121713768Y6450175D02*
X121713791Y6450168D01*
X121713866Y6450160D01*
X121912162Y6388778D01*
X122094758Y6290048D01*
X122254699Y6157733D01*
X122385895Y5996871D01*
X122483347Y5813590D01*
X122543344Y5614872D01*
X122563600Y5408284D01*
X122563600Y5091640D01*
X122563525Y5080922D01*
X122563524Y5080916D01*
X122563496Y5076866D01*
X122540358Y4870581D01*
X122477592Y4672719D01*
X122377591Y4490817D01*
X122244162Y4331803D01*
X122082388Y4201733D01*
X121898432Y4105563D01*
X121699299Y4046955D01*
X121699233Y4046949D01*
X121699209Y4046942D01*
X121492579Y4028137D01*
X121286232Y4049825D01*
X121286209Y4049832D01*
X121286134Y4049840D01*
X121087838Y4111222D01*
X120905242Y4209952D01*
X120745301Y4342267D01*
X120614105Y4503129D01*
X120516653Y4686410D01*
X120456656Y4885128D01*
X120436400Y5091716D01*
X120436400Y5408360D01*
X120436475Y5419078D01*
X120436476Y5419084D01*
X120436504Y5423134D01*
X120459642Y5629419D01*
X120522408Y5827281D01*
X120622409Y6009183D01*
X120755838Y6168197D01*
X120917612Y6298267D01*
X121101568Y6394437D01*
X121300701Y6453045D01*
X121300767Y6453051D01*
X121300791Y6453058D01*
X121507421Y6471863D01*
X121713768Y6450175D01*
X121713768Y6450175D01*
G37*
G36*
X124253768Y6450175D02*
X124253791Y6450168D01*
X124253866Y6450160D01*
X124452162Y6388778D01*
X124634758Y6290048D01*
X124794699Y6157733D01*
X124925895Y5996871D01*
X125023347Y5813590D01*
X125083344Y5614872D01*
X125103600Y5408284D01*
X125103600Y5091640D01*
X125103525Y5080922D01*
X125103524Y5080916D01*
X125103496Y5076866D01*
X125080358Y4870581D01*
X125017592Y4672719D01*
X124917591Y4490817D01*
X124784162Y4331803D01*
X124622388Y4201733D01*
X124438432Y4105563D01*
X124239299Y4046955D01*
X124239233Y4046949D01*
X124239209Y4046942D01*
X124032579Y4028137D01*
X123826232Y4049825D01*
X123826209Y4049832D01*
X123826134Y4049840D01*
X123627838Y4111222D01*
X123445242Y4209952D01*
X123285301Y4342267D01*
X123154105Y4503129D01*
X123056653Y4686410D01*
X122996656Y4885128D01*
X122976400Y5091716D01*
X122976400Y5408360D01*
X122976475Y5419078D01*
X122976476Y5419084D01*
X122976504Y5423134D01*
X122999642Y5629419D01*
X123062408Y5827281D01*
X123162409Y6009183D01*
X123295838Y6168197D01*
X123457612Y6298267D01*
X123641568Y6394437D01*
X123840701Y6453045D01*
X123840767Y6453051D01*
X123840791Y6453058D01*
X124047421Y6471863D01*
X124253768Y6450175D01*
X124253768Y6450175D01*
G37*
G36*
X120023600Y4034000D02*
X117896400Y4034000D01*
X117896400Y6466000D01*
X120023600Y6466000D01*
X120023600Y4034000D01*
X120023600Y4034000D01*
G37*
G36*
X65800050Y4399190D02*
X64599950Y4399190D01*
X64599950Y5599290D01*
X65800050Y5599290D01*
X65800050Y4399190D01*
X65800050Y4399190D01*
G37*
G36*
X63900050Y4399190D02*
X62699950Y4399190D01*
X62699950Y5599290D01*
X63900050Y5599290D01*
X63900050Y4399190D01*
X63900050Y4399190D01*
G37*
G36*
X11850000Y5150000D02*
X10750000Y5150000D01*
X10750000Y6850000D01*
X11850000Y6850000D01*
X11850000Y5150000D01*
X11850000Y5150000D01*
G37*
G36*
X13750000Y5150000D02*
X12650000Y5150000D01*
X12650000Y6850000D01*
X13750000Y6850000D01*
X13750000Y5150000D01*
X13750000Y5150000D01*
G37*
G36*
X51524035Y12851910D02*
X51524040Y12851909D01*
X51528091Y12851881D01*
X51763934Y12825427D01*
X51990146Y12753669D01*
X52198113Y12639338D01*
X52379912Y12486791D01*
X52528618Y12301837D01*
X52638569Y12091522D01*
X52705574Y11863856D01*
X52705580Y11863795D01*
X52705588Y11863766D01*
X52727088Y11627516D01*
X52702291Y11391587D01*
X52702285Y11391569D01*
X52702277Y11391489D01*
X52632099Y11164781D01*
X52519223Y10956021D01*
X52367948Y10773162D01*
X52184037Y10623168D01*
X51974495Y10511752D01*
X51807022Y10461189D01*
X51783668Y10450355D01*
X51762452Y10431870D01*
X51747225Y10408206D01*
X51739194Y10381237D01*
X51738994Y10353099D01*
X51746642Y10326019D01*
X51761530Y10302141D01*
X51782482Y10283357D01*
X51805744Y10272164D01*
X51990146Y10213669D01*
X52198113Y10099338D01*
X52379912Y9946791D01*
X52528618Y9761837D01*
X52638569Y9551522D01*
X52705574Y9323856D01*
X52705580Y9323795D01*
X52705588Y9323766D01*
X52727088Y9087516D01*
X52702291Y8851587D01*
X52702285Y8851569D01*
X52702277Y8851489D01*
X52632099Y8624781D01*
X52519223Y8416021D01*
X52367948Y8233162D01*
X52184037Y8083168D01*
X51974495Y7971752D01*
X51807022Y7921189D01*
X51783668Y7910355D01*
X51762452Y7891870D01*
X51747225Y7868206D01*
X51739194Y7841237D01*
X51738994Y7813099D01*
X51746642Y7786019D01*
X51761530Y7762141D01*
X51782482Y7743357D01*
X51805744Y7732164D01*
X51990146Y7673669D01*
X52198113Y7559338D01*
X52379912Y7406791D01*
X52528618Y7221837D01*
X52638569Y7011522D01*
X52705574Y6783856D01*
X52705580Y6783795D01*
X52705588Y6783766D01*
X52727088Y6547516D01*
X52702291Y6311587D01*
X52702285Y6311569D01*
X52702277Y6311489D01*
X52632099Y6084781D01*
X52519223Y5876021D01*
X52367948Y5693162D01*
X52184037Y5543168D01*
X51974495Y5431752D01*
X51747302Y5363159D01*
X51511113Y5340000D01*
X50988813Y5340000D01*
X50975965Y5340090D01*
X50975960Y5340091D01*
X50971909Y5340119D01*
X50736066Y5366573D01*
X50509854Y5438331D01*
X50301887Y5552662D01*
X50120088Y5705209D01*
X49971382Y5890163D01*
X49861431Y6100478D01*
X49794426Y6328144D01*
X49794420Y6328205D01*
X49794412Y6328234D01*
X49772912Y6564484D01*
X49797709Y6800413D01*
X49797715Y6800431D01*
X49797723Y6800511D01*
X49867901Y7027219D01*
X49980777Y7235979D01*
X50132052Y7418838D01*
X50315963Y7568832D01*
X50525505Y7680248D01*
X50692978Y7730811D01*
X50716332Y7741645D01*
X50737548Y7760130D01*
X50752775Y7783794D01*
X50760806Y7810763D01*
X50761006Y7838901D01*
X50753358Y7865981D01*
X50738470Y7889859D01*
X50717518Y7908643D01*
X50694256Y7919836D01*
X50509854Y7978331D01*
X50301887Y8092662D01*
X50120088Y8245209D01*
X49971382Y8430163D01*
X49861431Y8640478D01*
X49794426Y8868144D01*
X49794420Y8868205D01*
X49794412Y8868234D01*
X49772912Y9104484D01*
X49797709Y9340413D01*
X49797715Y9340431D01*
X49797723Y9340511D01*
X49867901Y9567219D01*
X49980777Y9775979D01*
X50132052Y9958838D01*
X50315963Y10108832D01*
X50525505Y10220248D01*
X50692978Y10270811D01*
X50716332Y10281645D01*
X50737548Y10300130D01*
X50752775Y10323794D01*
X50760806Y10350763D01*
X50761006Y10378901D01*
X50753358Y10405981D01*
X50738470Y10429859D01*
X50717518Y10448643D01*
X50694256Y10459836D01*
X50509854Y10518331D01*
X50301887Y10632662D01*
X50120088Y10785209D01*
X49971382Y10970163D01*
X49861431Y11180478D01*
X49794426Y11408144D01*
X49794420Y11408205D01*
X49794412Y11408234D01*
X49772912Y11644484D01*
X49797709Y11880413D01*
X49797715Y11880431D01*
X49797723Y11880511D01*
X49867901Y12107219D01*
X49980777Y12315979D01*
X50132052Y12498838D01*
X50315963Y12648832D01*
X50525505Y12760248D01*
X50752698Y12828841D01*
X50988887Y12852000D01*
X51511187Y12852000D01*
X51524035Y12851910D01*
X51524035Y12851910D01*
G37*
G36*
X146169078Y7983525D02*
X146169084Y7983524D01*
X146173134Y7983496D01*
X146379419Y7960358D01*
X146577281Y7897592D01*
X146759183Y7797591D01*
X146918197Y7664162D01*
X147048267Y7502388D01*
X147144437Y7318432D01*
X147203045Y7119299D01*
X147203051Y7119233D01*
X147203058Y7119209D01*
X147221863Y6912579D01*
X147200175Y6706232D01*
X147200168Y6706209D01*
X147200160Y6706134D01*
X147138778Y6507838D01*
X147040048Y6325242D01*
X146907733Y6165301D01*
X146746871Y6034105D01*
X146563590Y5936653D01*
X146364872Y5876656D01*
X146158284Y5856400D01*
X145841640Y5856400D01*
X145830922Y5856475D01*
X145830916Y5856476D01*
X145826866Y5856504D01*
X145620581Y5879642D01*
X145422719Y5942408D01*
X145240817Y6042409D01*
X145081803Y6175838D01*
X144951733Y6337612D01*
X144855563Y6521568D01*
X144796955Y6720701D01*
X144796949Y6720767D01*
X144796942Y6720791D01*
X144778137Y6927421D01*
X144799825Y7133768D01*
X144799832Y7133791D01*
X144799840Y7133866D01*
X144861222Y7332162D01*
X144959952Y7514758D01*
X145092267Y7674699D01*
X145253129Y7805895D01*
X145436410Y7903347D01*
X145635128Y7963344D01*
X145841716Y7983600D01*
X146158360Y7983600D01*
X146169078Y7983525D01*
X146169078Y7983525D01*
G37*
G36*
X5169078Y7983525D02*
X5169084Y7983524D01*
X5173134Y7983496D01*
X5379419Y7960358D01*
X5577281Y7897592D01*
X5759183Y7797591D01*
X5918197Y7664162D01*
X6048267Y7502388D01*
X6144437Y7318432D01*
X6203045Y7119299D01*
X6203051Y7119233D01*
X6203058Y7119209D01*
X6221863Y6912579D01*
X6200175Y6706232D01*
X6200168Y6706209D01*
X6200160Y6706134D01*
X6138778Y6507838D01*
X6040048Y6325242D01*
X5907733Y6165301D01*
X5746871Y6034105D01*
X5563590Y5936653D01*
X5364872Y5876656D01*
X5158284Y5856400D01*
X4841640Y5856400D01*
X4830922Y5856475D01*
X4830916Y5856476D01*
X4826866Y5856504D01*
X4620581Y5879642D01*
X4422719Y5942408D01*
X4240817Y6042409D01*
X4081803Y6175838D01*
X3951733Y6337612D01*
X3855563Y6521568D01*
X3796955Y6720701D01*
X3796949Y6720767D01*
X3796942Y6720791D01*
X3778137Y6927421D01*
X3799825Y7133768D01*
X3799832Y7133791D01*
X3799840Y7133866D01*
X3861222Y7332162D01*
X3959952Y7514758D01*
X4092267Y7674699D01*
X4253129Y7805895D01*
X4436410Y7903347D01*
X4635128Y7963344D01*
X4841716Y7983600D01*
X5158360Y7983600D01*
X5169078Y7983525D01*
X5169078Y7983525D01*
G37*
G36*
X64850050Y6398170D02*
X63649950Y6398170D01*
X63649950Y7598270D01*
X64850050Y7598270D01*
X64850050Y6398170D01*
X64850050Y6398170D01*
G37*
G36*
X121713768Y9797037D02*
X121713791Y9797030D01*
X121713866Y9797022D01*
X121912162Y9735640D01*
X122094758Y9636910D01*
X122254699Y9504595D01*
X122385895Y9343733D01*
X122483347Y9160452D01*
X122543344Y8961734D01*
X122563600Y8755146D01*
X122563600Y8744778D01*
X122563525Y8734060D01*
X122563524Y8734054D01*
X122563496Y8730004D01*
X122540358Y8523719D01*
X122477592Y8325857D01*
X122377591Y8143955D01*
X122244162Y7984941D01*
X122082388Y7854871D01*
X121898432Y7758701D01*
X121699299Y7700093D01*
X121699233Y7700087D01*
X121699209Y7700080D01*
X121492579Y7681275D01*
X121286232Y7702963D01*
X121286209Y7702970D01*
X121286134Y7702978D01*
X121087838Y7764360D01*
X120905242Y7863090D01*
X120745301Y7995405D01*
X120614105Y8156267D01*
X120516653Y8339548D01*
X120456656Y8538266D01*
X120436400Y8744854D01*
X120436400Y8755222D01*
X120436475Y8765940D01*
X120436476Y8765946D01*
X120436504Y8769996D01*
X120459642Y8976281D01*
X120522408Y9174143D01*
X120622409Y9356045D01*
X120755838Y9515059D01*
X120917612Y9645129D01*
X121101568Y9741299D01*
X121300701Y9799907D01*
X121300767Y9799913D01*
X121300791Y9799920D01*
X121507421Y9818725D01*
X121713768Y9797037D01*
X121713768Y9797037D01*
G37*
G36*
X124253768Y9797037D02*
X124253791Y9797030D01*
X124253866Y9797022D01*
X124452162Y9735640D01*
X124634758Y9636910D01*
X124794699Y9504595D01*
X124925895Y9343733D01*
X125023347Y9160452D01*
X125083344Y8961734D01*
X125103600Y8755146D01*
X125103600Y8744778D01*
X125103525Y8734060D01*
X125103524Y8734054D01*
X125103496Y8730004D01*
X125080358Y8523719D01*
X125017592Y8325857D01*
X124917591Y8143955D01*
X124784162Y7984941D01*
X124622388Y7854871D01*
X124438432Y7758701D01*
X124239299Y7700093D01*
X124239233Y7700087D01*
X124239209Y7700080D01*
X124032579Y7681275D01*
X123826232Y7702963D01*
X123826209Y7702970D01*
X123826134Y7702978D01*
X123627838Y7764360D01*
X123445242Y7863090D01*
X123285301Y7995405D01*
X123154105Y8156267D01*
X123056653Y8339548D01*
X122996656Y8538266D01*
X122976400Y8744854D01*
X122976400Y8755222D01*
X122976475Y8765940D01*
X122976476Y8765946D01*
X122976504Y8769996D01*
X122999642Y8976281D01*
X123062408Y9174143D01*
X123162409Y9356045D01*
X123295838Y9515059D01*
X123457612Y9645129D01*
X123641568Y9741299D01*
X123840701Y9799907D01*
X123840767Y9799913D01*
X123840791Y9799920D01*
X124047421Y9818725D01*
X124253768Y9797037D01*
X124253768Y9797037D01*
G37*
G36*
X120023600Y7686400D02*
X117896400Y7686400D01*
X117896400Y9813600D01*
X120023600Y9813600D01*
X120023600Y7686400D01*
X120023600Y7686400D01*
G37*
G36*
X5169078Y10523525D02*
X5169084Y10523524D01*
X5173134Y10523496D01*
X5379419Y10500358D01*
X5577281Y10437592D01*
X5759183Y10337591D01*
X5918197Y10204162D01*
X6048267Y10042388D01*
X6144437Y9858432D01*
X6203045Y9659299D01*
X6203051Y9659233D01*
X6203058Y9659209D01*
X6221863Y9452579D01*
X6200175Y9246232D01*
X6200168Y9246209D01*
X6200160Y9246134D01*
X6138778Y9047838D01*
X6040048Y8865242D01*
X5907733Y8705301D01*
X5746871Y8574105D01*
X5563590Y8476653D01*
X5364872Y8416656D01*
X5158284Y8396400D01*
X4841640Y8396400D01*
X4830922Y8396475D01*
X4830916Y8396476D01*
X4826866Y8396504D01*
X4620581Y8419642D01*
X4422719Y8482408D01*
X4240817Y8582409D01*
X4081803Y8715838D01*
X3951733Y8877612D01*
X3855563Y9061568D01*
X3796955Y9260701D01*
X3796949Y9260767D01*
X3796942Y9260791D01*
X3778137Y9467421D01*
X3799825Y9673768D01*
X3799832Y9673791D01*
X3799840Y9673866D01*
X3861222Y9872162D01*
X3959952Y10054758D01*
X4092267Y10214699D01*
X4253129Y10345895D01*
X4436410Y10443347D01*
X4635128Y10503344D01*
X4841716Y10523600D01*
X5158360Y10523600D01*
X5169078Y10523525D01*
X5169078Y10523525D01*
G37*
G36*
X146169078Y10523525D02*
X146169084Y10523524D01*
X146173134Y10523496D01*
X146379419Y10500358D01*
X146577281Y10437592D01*
X146759183Y10337591D01*
X146918197Y10204162D01*
X147048267Y10042388D01*
X147144437Y9858432D01*
X147203045Y9659299D01*
X147203051Y9659233D01*
X147203058Y9659209D01*
X147221863Y9452579D01*
X147200175Y9246232D01*
X147200168Y9246209D01*
X147200160Y9246134D01*
X147138778Y9047838D01*
X147040048Y8865242D01*
X146907733Y8705301D01*
X146746871Y8574105D01*
X146563590Y8476653D01*
X146364872Y8416656D01*
X146158284Y8396400D01*
X145841640Y8396400D01*
X145830922Y8396475D01*
X145830916Y8396476D01*
X145826866Y8396504D01*
X145620581Y8419642D01*
X145422719Y8482408D01*
X145240817Y8582409D01*
X145081803Y8715838D01*
X144951733Y8877612D01*
X144855563Y9061568D01*
X144796955Y9260701D01*
X144796949Y9260767D01*
X144796942Y9260791D01*
X144778137Y9467421D01*
X144799825Y9673768D01*
X144799832Y9673791D01*
X144799840Y9673866D01*
X144861222Y9872162D01*
X144959952Y10054758D01*
X145092267Y10214699D01*
X145253129Y10345895D01*
X145436410Y10443347D01*
X145635128Y10503344D01*
X145841716Y10523600D01*
X146158360Y10523600D01*
X146169078Y10523525D01*
X146169078Y10523525D01*
G37*
G36*
X14181043Y10421363D02*
X14365852Y10383428D01*
X14539766Y10310321D01*
X14696174Y10204823D01*
X14829107Y10070958D01*
X14933508Y9913821D01*
X15005402Y9739395D01*
X15041909Y9555019D01*
X15041909Y9555002D01*
X15042042Y9554329D01*
X15039033Y9338846D01*
X15038881Y9338178D01*
X15038881Y9338159D01*
X14997241Y9154877D01*
X14920503Y8982521D01*
X14811758Y8828366D01*
X14675136Y8698264D01*
X14515841Y8597172D01*
X14339958Y8528951D01*
X14154160Y8496189D01*
X13965544Y8500141D01*
X13781285Y8540653D01*
X13608406Y8616182D01*
X13453490Y8723851D01*
X13322436Y8859561D01*
X13220237Y9018143D01*
X13150787Y9193554D01*
X13116731Y9379113D01*
X13119364Y9567750D01*
X13158590Y9752293D01*
X13232908Y9925690D01*
X13339497Y10081358D01*
X13474285Y10213352D01*
X13632153Y10316658D01*
X13807069Y10387329D01*
X13992388Y10422681D01*
X14181043Y10421363D01*
X14181043Y10421363D01*
G37*
G36*
X9101043Y10421363D02*
X9285852Y10383428D01*
X9459766Y10310321D01*
X9616174Y10204823D01*
X9749107Y10070958D01*
X9853508Y9913821D01*
X9925402Y9739395D01*
X9961909Y9555019D01*
X9961909Y9555002D01*
X9962042Y9554329D01*
X9959033Y9338846D01*
X9958881Y9338178D01*
X9958881Y9338159D01*
X9917241Y9154877D01*
X9840503Y8982521D01*
X9731758Y8828366D01*
X9595136Y8698264D01*
X9435841Y8597172D01*
X9259958Y8528951D01*
X9074160Y8496189D01*
X8885544Y8500141D01*
X8701285Y8540653D01*
X8528406Y8616182D01*
X8373490Y8723851D01*
X8242436Y8859561D01*
X8140237Y9018143D01*
X8070787Y9193554D01*
X8036731Y9379113D01*
X8039364Y9567750D01*
X8078590Y9752293D01*
X8152908Y9925690D01*
X8259497Y10081358D01*
X8394285Y10213352D01*
X8552153Y10316658D01*
X8727069Y10387329D01*
X8912388Y10422681D01*
X9101043Y10421363D01*
X9101043Y10421363D01*
G37*
G36*
X119173768Y12337037D02*
X119173791Y12337030D01*
X119173866Y12337022D01*
X119372162Y12275640D01*
X119554758Y12176910D01*
X119714699Y12044595D01*
X119845895Y11883733D01*
X119943347Y11700452D01*
X120003344Y11501734D01*
X120023600Y11295146D01*
X120023600Y11284778D01*
X120023525Y11274060D01*
X120023524Y11274054D01*
X120023496Y11270004D01*
X120000358Y11063719D01*
X119937592Y10865857D01*
X119837591Y10683955D01*
X119704162Y10524941D01*
X119542388Y10394871D01*
X119358432Y10298701D01*
X119159299Y10240093D01*
X119159233Y10240087D01*
X119159209Y10240080D01*
X118952579Y10221275D01*
X118746232Y10242963D01*
X118746209Y10242970D01*
X118746134Y10242978D01*
X118547838Y10304360D01*
X118365242Y10403090D01*
X118205301Y10535405D01*
X118074105Y10696267D01*
X117976653Y10879548D01*
X117916656Y11078266D01*
X117896400Y11284854D01*
X117896400Y11295222D01*
X117896475Y11305940D01*
X117896476Y11305946D01*
X117896504Y11309996D01*
X117919642Y11516281D01*
X117982408Y11714143D01*
X118082409Y11896045D01*
X118215838Y12055059D01*
X118377612Y12185129D01*
X118561568Y12281299D01*
X118760701Y12339907D01*
X118760767Y12339913D01*
X118760791Y12339920D01*
X118967421Y12358725D01*
X119173768Y12337037D01*
X119173768Y12337037D01*
G37*
G36*
X121713768Y12337037D02*
X121713791Y12337030D01*
X121713866Y12337022D01*
X121912162Y12275640D01*
X122094758Y12176910D01*
X122254699Y12044595D01*
X122385895Y11883733D01*
X122483347Y11700452D01*
X122543344Y11501734D01*
X122563600Y11295146D01*
X122563600Y11284778D01*
X122563525Y11274060D01*
X122563524Y11274054D01*
X122563496Y11270004D01*
X122540358Y11063719D01*
X122477592Y10865857D01*
X122377591Y10683955D01*
X122244162Y10524941D01*
X122082388Y10394871D01*
X121898432Y10298701D01*
X121699299Y10240093D01*
X121699233Y10240087D01*
X121699209Y10240080D01*
X121492579Y10221275D01*
X121286232Y10242963D01*
X121286209Y10242970D01*
X121286134Y10242978D01*
X121087838Y10304360D01*
X120905242Y10403090D01*
X120745301Y10535405D01*
X120614105Y10696267D01*
X120516653Y10879548D01*
X120456656Y11078266D01*
X120436400Y11284854D01*
X120436400Y11295222D01*
X120436475Y11305940D01*
X120436476Y11305946D01*
X120436504Y11309996D01*
X120459642Y11516281D01*
X120522408Y11714143D01*
X120622409Y11896045D01*
X120755838Y12055059D01*
X120917612Y12185129D01*
X121101568Y12281299D01*
X121300701Y12339907D01*
X121300767Y12339913D01*
X121300791Y12339920D01*
X121507421Y12358725D01*
X121713768Y12337037D01*
X121713768Y12337037D01*
G37*
G36*
X124253768Y12337037D02*
X124253791Y12337030D01*
X124253866Y12337022D01*
X124452162Y12275640D01*
X124634758Y12176910D01*
X124794699Y12044595D01*
X124925895Y11883733D01*
X125023347Y11700452D01*
X125083344Y11501734D01*
X125103600Y11295146D01*
X125103600Y11284778D01*
X125103525Y11274060D01*
X125103524Y11274054D01*
X125103496Y11270004D01*
X125080358Y11063719D01*
X125017592Y10865857D01*
X124917591Y10683955D01*
X124784162Y10524941D01*
X124622388Y10394871D01*
X124438432Y10298701D01*
X124239299Y10240093D01*
X124239233Y10240087D01*
X124239209Y10240080D01*
X124032579Y10221275D01*
X123826232Y10242963D01*
X123826209Y10242970D01*
X123826134Y10242978D01*
X123627838Y10304360D01*
X123445242Y10403090D01*
X123285301Y10535405D01*
X123154105Y10696267D01*
X123056653Y10879548D01*
X122996656Y11078266D01*
X122976400Y11284854D01*
X122976400Y11295222D01*
X122976475Y11305940D01*
X122976476Y11305946D01*
X122976504Y11309996D01*
X122999642Y11516281D01*
X123062408Y11714143D01*
X123162409Y11896045D01*
X123295838Y12055059D01*
X123457612Y12185129D01*
X123641568Y12281299D01*
X123840701Y12339907D01*
X123840767Y12339913D01*
X123840791Y12339920D01*
X124047421Y12358725D01*
X124253768Y12337037D01*
X124253768Y12337037D01*
G37*
G36*
X6216000Y10936400D02*
X3784000Y10936400D01*
X3784000Y13063600D01*
X6216000Y13063600D01*
X6216000Y10936400D01*
X6216000Y10936400D01*
G37*
G36*
X147216000Y10936400D02*
X144784000Y10936400D01*
X144784000Y13063600D01*
X147216000Y13063600D01*
X147216000Y10936400D01*
X147216000Y10936400D01*
G37*
G36*
X14181043Y12961363D02*
X14365852Y12923428D01*
X14539766Y12850321D01*
X14696174Y12744823D01*
X14829107Y12610958D01*
X14933508Y12453821D01*
X15005402Y12279395D01*
X15041909Y12095019D01*
X15041909Y12095002D01*
X15042042Y12094329D01*
X15039033Y11878846D01*
X15038881Y11878178D01*
X15038881Y11878159D01*
X14997241Y11694877D01*
X14920503Y11522521D01*
X14811758Y11368366D01*
X14675136Y11238264D01*
X14515841Y11137172D01*
X14339958Y11068951D01*
X14154160Y11036189D01*
X13965544Y11040141D01*
X13781285Y11080653D01*
X13608406Y11156182D01*
X13453490Y11263851D01*
X13322436Y11399561D01*
X13220237Y11558143D01*
X13150787Y11733554D01*
X13116731Y11919113D01*
X13119364Y12107750D01*
X13158590Y12292293D01*
X13232908Y12465690D01*
X13339497Y12621358D01*
X13474285Y12753352D01*
X13632153Y12856658D01*
X13807069Y12927329D01*
X13992388Y12962681D01*
X14181043Y12961363D01*
X14181043Y12961363D01*
G37*
G36*
X9101043Y12961363D02*
X9285852Y12923428D01*
X9459766Y12850321D01*
X9616174Y12744823D01*
X9749107Y12610958D01*
X9853508Y12453821D01*
X9925402Y12279395D01*
X9961909Y12095019D01*
X9961909Y12095002D01*
X9962042Y12094329D01*
X9959033Y11878846D01*
X9958881Y11878178D01*
X9958881Y11878159D01*
X9917241Y11694877D01*
X9840503Y11522521D01*
X9731758Y11368366D01*
X9595136Y11238264D01*
X9435841Y11137172D01*
X9259958Y11068951D01*
X9074160Y11036189D01*
X8885544Y11040141D01*
X8701285Y11080653D01*
X8528406Y11156182D01*
X8373490Y11263851D01*
X8242436Y11399561D01*
X8140237Y11558143D01*
X8070787Y11733554D01*
X8036731Y11919113D01*
X8039364Y12107750D01*
X8078590Y12292293D01*
X8152908Y12465690D01*
X8259497Y12621358D01*
X8394285Y12753352D01*
X8552153Y12856658D01*
X8727069Y12927329D01*
X8912388Y12962681D01*
X9101043Y12961363D01*
X9101043Y12961363D01*
G37*
G36*
X47938000Y11175000D02*
X46538000Y11175000D01*
X46538000Y12825000D01*
X47938000Y12825000D01*
X47938000Y11175000D01*
X47938000Y11175000D01*
G37*
G36*
X45938000Y11175000D02*
X44538000Y11175000D01*
X44538000Y12825000D01*
X45938000Y12825000D01*
X45938000Y11175000D01*
X45938000Y11175000D01*
G37*
G36*
X47938000Y13097000D02*
X46538000Y13097000D01*
X46538000Y14747000D01*
X47938000Y14747000D01*
X47938000Y13097000D01*
X47938000Y13097000D01*
G37*
G36*
X45938000Y13097000D02*
X44538000Y13097000D01*
X44538000Y14747000D01*
X45938000Y14747000D01*
X45938000Y13097000D01*
X45938000Y13097000D01*
G37*
G36*
X51294000Y13580000D02*
X50194000Y13580000D01*
X50194000Y15280000D01*
X51294000Y15280000D01*
X51294000Y13580000D01*
X51294000Y13580000D01*
G37*
G36*
X49394000Y13580000D02*
X48294000Y13580000D01*
X48294000Y15280000D01*
X49394000Y15280000D01*
X49394000Y13580000D01*
X49394000Y13580000D01*
G37*
G36*
X44182000Y14342000D02*
X43082000Y14342000D01*
X43082000Y16042000D01*
X44182000Y16042000D01*
X44182000Y14342000D01*
X44182000Y14342000D01*
G37*
G36*
X42282000Y14342000D02*
X41182000Y14342000D01*
X41182000Y16042000D01*
X42282000Y16042000D01*
X42282000Y14342000D01*
X42282000Y14342000D01*
G37*
G36*
X5169078Y18063525D02*
X5169084Y18063524D01*
X5173134Y18063496D01*
X5379419Y18040358D01*
X5577281Y17977592D01*
X5759183Y17877591D01*
X5918197Y17744162D01*
X6048267Y17582388D01*
X6144437Y17398432D01*
X6203045Y17199299D01*
X6203051Y17199233D01*
X6203058Y17199209D01*
X6221863Y16992579D01*
X6200175Y16786232D01*
X6200168Y16786209D01*
X6200160Y16786134D01*
X6138778Y16587838D01*
X6040048Y16405242D01*
X5907733Y16245301D01*
X5746871Y16114105D01*
X5563590Y16016653D01*
X5364872Y15956656D01*
X5158284Y15936400D01*
X4841640Y15936400D01*
X4830922Y15936475D01*
X4830916Y15936476D01*
X4826866Y15936504D01*
X4620581Y15959642D01*
X4422719Y16022408D01*
X4240817Y16122409D01*
X4081803Y16255838D01*
X3951733Y16417612D01*
X3855563Y16601568D01*
X3796955Y16800701D01*
X3796949Y16800767D01*
X3796942Y16800791D01*
X3778137Y17007421D01*
X3799825Y17213768D01*
X3799832Y17213791D01*
X3799840Y17213866D01*
X3861222Y17412162D01*
X3959952Y17594758D01*
X4092267Y17754699D01*
X4253129Y17885895D01*
X4436410Y17983347D01*
X4635128Y18043344D01*
X4841716Y18063600D01*
X5158360Y18063600D01*
X5169078Y18063525D01*
X5169078Y18063525D01*
G37*
G36*
X46690000Y16800000D02*
X44390000Y16800000D01*
X44390000Y19200000D01*
X46690000Y19200000D01*
X46690000Y16800000D01*
X46690000Y16800000D01*
G37*
G36*
X50110000Y16800000D02*
X47810000Y16800000D01*
X47810000Y19200000D01*
X50110000Y19200000D01*
X50110000Y16800000D01*
X50110000Y16800000D01*
G37*
G36*
X43120789Y19149237D02*
X43341716Y19103888D01*
X43549614Y19016496D01*
X43736588Y18890380D01*
X43895501Y18730354D01*
X44020305Y18542509D01*
X44106248Y18333996D01*
X44149916Y18113453D01*
X44149916Y18113436D01*
X44150049Y18112763D01*
X44146452Y17855169D01*
X44146301Y17854506D01*
X44146301Y17854482D01*
X44096492Y17635249D01*
X44004760Y17429215D01*
X43874758Y17244926D01*
X43711440Y17089401D01*
X43521020Y16968556D01*
X43310754Y16887000D01*
X43088653Y16847837D01*
X42863175Y16852561D01*
X42642910Y16900988D01*
X42436245Y16991278D01*
X42251054Y17119989D01*
X42094389Y17282221D01*
X41972218Y17471793D01*
X41889196Y17681483D01*
X41848484Y17903305D01*
X41851633Y18128807D01*
X41898523Y18349408D01*
X41987369Y18556702D01*
X42114784Y18742786D01*
X42275917Y18900579D01*
X42464628Y19024068D01*
X42673733Y19108552D01*
X42895267Y19150813D01*
X43120789Y19149237D01*
X43120789Y19149237D01*
G37*
G36*
X51620789Y19149237D02*
X51841716Y19103888D01*
X52049614Y19016496D01*
X52236588Y18890380D01*
X52395501Y18730354D01*
X52520305Y18542509D01*
X52606248Y18333996D01*
X52649916Y18113453D01*
X52649916Y18113436D01*
X52650049Y18112763D01*
X52646452Y17855169D01*
X52646301Y17854506D01*
X52646301Y17854482D01*
X52596492Y17635249D01*
X52504760Y17429215D01*
X52374758Y17244926D01*
X52211440Y17089401D01*
X52021020Y16968556D01*
X51810754Y16887000D01*
X51588653Y16847837D01*
X51363175Y16852561D01*
X51142910Y16900988D01*
X50936245Y16991278D01*
X50751054Y17119989D01*
X50594389Y17282221D01*
X50472218Y17471793D01*
X50389196Y17681483D01*
X50348484Y17903305D01*
X50351633Y18128807D01*
X50398523Y18349408D01*
X50487369Y18556702D01*
X50614784Y18742786D01*
X50775917Y18900579D01*
X50964628Y19024068D01*
X51173733Y19108552D01*
X51395267Y19150813D01*
X51620789Y19149237D01*
X51620789Y19149237D01*
G37*
G36*
X5169078Y20603525D02*
X5169084Y20603524D01*
X5173134Y20603496D01*
X5379419Y20580358D01*
X5577281Y20517592D01*
X5759183Y20417591D01*
X5918197Y20284162D01*
X6048267Y20122388D01*
X6144437Y19938432D01*
X6203045Y19739299D01*
X6203051Y19739233D01*
X6203058Y19739209D01*
X6221863Y19532579D01*
X6200175Y19326232D01*
X6200168Y19326209D01*
X6200160Y19326134D01*
X6138778Y19127838D01*
X6040048Y18945242D01*
X5907733Y18785301D01*
X5746871Y18654105D01*
X5563590Y18556653D01*
X5364872Y18496656D01*
X5158284Y18476400D01*
X4841640Y18476400D01*
X4830922Y18476475D01*
X4830916Y18476476D01*
X4826866Y18476504D01*
X4620581Y18499642D01*
X4422719Y18562408D01*
X4240817Y18662409D01*
X4081803Y18795838D01*
X3951733Y18957612D01*
X3855563Y19141568D01*
X3796955Y19340701D01*
X3796949Y19340767D01*
X3796942Y19340791D01*
X3778137Y19547421D01*
X3799825Y19753768D01*
X3799832Y19753791D01*
X3799840Y19753866D01*
X3861222Y19952162D01*
X3959952Y20134758D01*
X4092267Y20294699D01*
X4253129Y20425895D01*
X4436410Y20523347D01*
X4635128Y20583344D01*
X4841716Y20603600D01*
X5158360Y20603600D01*
X5169078Y20603525D01*
X5169078Y20603525D01*
G37*
G36*
X102099000Y18513000D02*
X100429000Y18513000D01*
X100429000Y20183000D01*
X102099000Y20183000D01*
X102099000Y18513000D01*
X102099000Y18513000D01*
G37*
G36*
X104639000Y18513000D02*
X102969000Y18513000D01*
X102969000Y20183000D01*
X104639000Y20183000D01*
X104639000Y18513000D01*
X104639000Y18513000D01*
G37*
G36*
X107179000Y18513000D02*
X105509000Y18513000D01*
X105509000Y20183000D01*
X107179000Y20183000D01*
X107179000Y18513000D01*
X107179000Y18513000D01*
G37*
G36*
X9101043Y20581363D02*
X9285852Y20543428D01*
X9459766Y20470321D01*
X9616174Y20364823D01*
X9749107Y20230958D01*
X9853508Y20073821D01*
X9925402Y19899395D01*
X9961909Y19715019D01*
X9961909Y19715002D01*
X9962042Y19714329D01*
X9959033Y19498846D01*
X9958881Y19498178D01*
X9958881Y19498159D01*
X9917241Y19314877D01*
X9840503Y19142521D01*
X9731758Y18988366D01*
X9595136Y18858264D01*
X9435841Y18757172D01*
X9259958Y18688951D01*
X9074160Y18656189D01*
X8885544Y18660141D01*
X8701285Y18700653D01*
X8528406Y18776182D01*
X8373490Y18883851D01*
X8242436Y19019561D01*
X8140237Y19178143D01*
X8070787Y19353554D01*
X8036731Y19539113D01*
X8039364Y19727750D01*
X8078590Y19912293D01*
X8152908Y20085690D01*
X8259497Y20241358D01*
X8394285Y20373352D01*
X8552153Y20476658D01*
X8727069Y20547329D01*
X8912388Y20582681D01*
X9101043Y20581363D01*
X9101043Y20581363D01*
G37*
G36*
X14181043Y20581363D02*
X14365852Y20543428D01*
X14539766Y20470321D01*
X14696174Y20364823D01*
X14829107Y20230958D01*
X14933508Y20073821D01*
X15005402Y19899395D01*
X15041909Y19715019D01*
X15041909Y19715002D01*
X15042042Y19714329D01*
X15039033Y19498846D01*
X15038881Y19498178D01*
X15038881Y19498159D01*
X14997241Y19314877D01*
X14920503Y19142521D01*
X14811758Y18988366D01*
X14675136Y18858264D01*
X14515841Y18757172D01*
X14339958Y18688951D01*
X14154160Y18656189D01*
X13965544Y18660141D01*
X13781285Y18700653D01*
X13608406Y18776182D01*
X13453490Y18883851D01*
X13322436Y19019561D01*
X13220237Y19178143D01*
X13150787Y19353554D01*
X13116731Y19539113D01*
X13119364Y19727750D01*
X13158590Y19912293D01*
X13232908Y20085690D01*
X13339497Y20241358D01*
X13474285Y20373352D01*
X13632153Y20476658D01*
X13807069Y20547329D01*
X13992388Y20582681D01*
X14181043Y20581363D01*
X14181043Y20581363D01*
G37*
G36*
X6216000Y21016400D02*
X3784000Y21016400D01*
X3784000Y23143600D01*
X6216000Y23143600D01*
X6216000Y21016400D01*
X6216000Y21016400D01*
G37*
G36*
X29283000Y29748000D02*
X27633000Y29748000D01*
X27633000Y31148000D01*
X29283000Y31148000D01*
X29283000Y29748000D01*
X29283000Y29748000D01*
G37*
G36*
X63573000Y29748000D02*
X61923000Y29748000D01*
X61923000Y31148000D01*
X63573000Y31148000D01*
X63573000Y29748000D01*
X63573000Y29748000D01*
G37*
G36*
X80591000Y29748000D02*
X78941000Y29748000D01*
X78941000Y31148000D01*
X80591000Y31148000D01*
X80591000Y29748000D01*
X80591000Y29748000D01*
G37*
G36*
X46555000Y29748000D02*
X44905000Y29748000D01*
X44905000Y31148000D01*
X46555000Y31148000D01*
X46555000Y29748000D01*
X46555000Y29748000D01*
G37*
G36*
X93590000Y29836000D02*
X92490000Y29836000D01*
X92490000Y31536000D01*
X93590000Y31536000D01*
X93590000Y29836000D01*
X93590000Y29836000D01*
G37*
G36*
X144644000Y29836000D02*
X143544000Y29836000D01*
X143544000Y31536000D01*
X144644000Y31536000D01*
X144644000Y29836000D01*
X144644000Y29836000D01*
G37*
G36*
X146544000Y29836000D02*
X145444000Y29836000D01*
X145444000Y31536000D01*
X146544000Y31536000D01*
X146544000Y29836000D01*
X146544000Y29836000D01*
G37*
G36*
X25264000Y29836000D02*
X24164000Y29836000D01*
X24164000Y31536000D01*
X25264000Y31536000D01*
X25264000Y29836000D01*
X25264000Y29836000D01*
G37*
G36*
X61454000Y29836000D02*
X60354000Y29836000D01*
X60354000Y31536000D01*
X61454000Y31536000D01*
X61454000Y29836000D01*
X61454000Y29836000D01*
G37*
G36*
X59554000Y29836000D02*
X58454000Y29836000D01*
X58454000Y31536000D01*
X59554000Y31536000D01*
X59554000Y29836000D01*
X59554000Y29836000D01*
G37*
G36*
X78472000Y29836000D02*
X77372000Y29836000D01*
X77372000Y31536000D01*
X78472000Y31536000D01*
X78472000Y29836000D01*
X78472000Y29836000D01*
G37*
G36*
X76572000Y29836000D02*
X75472000Y29836000D01*
X75472000Y31536000D01*
X76572000Y31536000D01*
X76572000Y29836000D01*
X76572000Y29836000D01*
G37*
G36*
X95490000Y29836000D02*
X94390000Y29836000D01*
X94390000Y31536000D01*
X95490000Y31536000D01*
X95490000Y29836000D01*
X95490000Y29836000D01*
G37*
G36*
X127560000Y29836000D02*
X126460000Y29836000D01*
X126460000Y31536000D01*
X127560000Y31536000D01*
X127560000Y29836000D01*
X127560000Y29836000D01*
G37*
G36*
X129460000Y29836000D02*
X128360000Y29836000D01*
X128360000Y31536000D01*
X129460000Y31536000D01*
X129460000Y29836000D01*
X129460000Y29836000D01*
G37*
G36*
X110354000Y29836000D02*
X109254000Y29836000D01*
X109254000Y31536000D01*
X110354000Y31536000D01*
X110354000Y29836000D01*
X110354000Y29836000D01*
G37*
G36*
X44436000Y29836000D02*
X43336000Y29836000D01*
X43336000Y31536000D01*
X44436000Y31536000D01*
X44436000Y29836000D01*
X44436000Y29836000D01*
G37*
G36*
X112254000Y29836000D02*
X111154000Y29836000D01*
X111154000Y31536000D01*
X112254000Y31536000D01*
X112254000Y29836000D01*
X112254000Y29836000D01*
G37*
G36*
X27164000Y29836000D02*
X26064000Y29836000D01*
X26064000Y31536000D01*
X27164000Y31536000D01*
X27164000Y29836000D01*
X27164000Y29836000D01*
G37*
G36*
X42536000Y29836000D02*
X41436000Y29836000D01*
X41436000Y31536000D01*
X42536000Y31536000D01*
X42536000Y29836000D01*
X42536000Y29836000D01*
G37*
G36*
X125147460Y29850000D02*
X122847460Y29850000D01*
X122847460Y32150000D01*
X125147460Y32150000D01*
X125147460Y29850000D01*
X125147460Y29850000D01*
G37*
G36*
X23147460Y29850000D02*
X20847460Y29850000D01*
X20847460Y32150000D01*
X23147460Y32150000D01*
X23147460Y29850000D01*
X23147460Y29850000D01*
G37*
G36*
X40147460Y29850000D02*
X37847460Y29850000D01*
X37847460Y32150000D01*
X40147460Y32150000D01*
X40147460Y29850000D01*
X40147460Y29850000D01*
G37*
G36*
X74147460Y29850000D02*
X71847460Y29850000D01*
X71847460Y32150000D01*
X74147460Y32150000D01*
X74147460Y29850000D01*
X74147460Y29850000D01*
G37*
G36*
X108147460Y29850000D02*
X105847460Y29850000D01*
X105847460Y32150000D01*
X108147460Y32150000D01*
X108147460Y29850000D01*
X108147460Y29850000D01*
G37*
G36*
X57147460Y29850000D02*
X54847460Y29850000D01*
X54847460Y32150000D01*
X57147460Y32150000D01*
X57147460Y29850000D01*
X57147460Y29850000D01*
G37*
G36*
X142147460Y29850000D02*
X139847460Y29850000D01*
X139847460Y32150000D01*
X142147460Y32150000D01*
X142147460Y29850000D01*
X142147460Y29850000D01*
G37*
G36*
X91147460Y29850000D02*
X88847460Y29850000D01*
X88847460Y32150000D01*
X91147460Y32150000D01*
X91147460Y29850000D01*
X91147460Y29850000D01*
G37*
G36*
X29283000Y31748000D02*
X27633000Y31748000D01*
X27633000Y33148000D01*
X29283000Y33148000D01*
X29283000Y31748000D01*
X29283000Y31748000D01*
G37*
G36*
X46555000Y31748000D02*
X44905000Y31748000D01*
X44905000Y33148000D01*
X46555000Y33148000D01*
X46555000Y31748000D01*
X46555000Y31748000D01*
G37*
G36*
X63573000Y31748000D02*
X61923000Y31748000D01*
X61923000Y33148000D01*
X63573000Y33148000D01*
X63573000Y31748000D01*
X63573000Y31748000D01*
G37*
G36*
X80591000Y31748000D02*
X78941000Y31748000D01*
X78941000Y33148000D01*
X80591000Y33148000D01*
X80591000Y31748000D01*
X80591000Y31748000D01*
G37*
G36*
X113357000Y31780000D02*
X111707000Y31780000D01*
X111707000Y33180000D01*
X113357000Y33180000D01*
X113357000Y31780000D01*
X113357000Y31780000D01*
G37*
G36*
X147901000Y31780000D02*
X146251000Y31780000D01*
X146251000Y33180000D01*
X147901000Y33180000D01*
X147901000Y31780000D01*
X147901000Y31780000D01*
G37*
G36*
X130629000Y31780000D02*
X128979000Y31780000D01*
X128979000Y33180000D01*
X130629000Y33180000D01*
X130629000Y31780000D01*
X130629000Y31780000D01*
G37*
G36*
X96339000Y31780000D02*
X94689000Y31780000D01*
X94689000Y33180000D01*
X96339000Y33180000D01*
X96339000Y31780000D01*
X96339000Y31780000D01*
G37*
G36*
X126620789Y34649237D02*
X126841716Y34603888D01*
X127049614Y34516496D01*
X127236588Y34390380D01*
X127395501Y34230354D01*
X127520305Y34042509D01*
X127606248Y33833996D01*
X127649916Y33613453D01*
X127649916Y33613436D01*
X127650049Y33612763D01*
X127646452Y33355169D01*
X127646301Y33354506D01*
X127646301Y33354482D01*
X127596492Y33135249D01*
X127504760Y32929215D01*
X127374758Y32744926D01*
X127211440Y32589401D01*
X127021020Y32468556D01*
X126810754Y32387000D01*
X126588653Y32347837D01*
X126363175Y32352561D01*
X126142910Y32400988D01*
X125936245Y32491278D01*
X125751054Y32619989D01*
X125594389Y32782221D01*
X125472218Y32971793D01*
X125389196Y33181483D01*
X125348484Y33403305D01*
X125351633Y33628807D01*
X125398523Y33849408D01*
X125487369Y34056702D01*
X125614784Y34242786D01*
X125775917Y34400579D01*
X125964628Y34524068D01*
X126173733Y34608552D01*
X126395267Y34650813D01*
X126620789Y34649237D01*
X126620789Y34649237D01*
G37*
G36*
X24620789Y34649237D02*
X24841716Y34603888D01*
X25049614Y34516496D01*
X25236588Y34390380D01*
X25395501Y34230354D01*
X25520305Y34042509D01*
X25606248Y33833996D01*
X25649916Y33613453D01*
X25649916Y33613436D01*
X25650049Y33612763D01*
X25646452Y33355169D01*
X25646301Y33354506D01*
X25646301Y33354482D01*
X25596492Y33135249D01*
X25504760Y32929215D01*
X25374758Y32744926D01*
X25211440Y32589401D01*
X25021020Y32468556D01*
X24810754Y32387000D01*
X24588653Y32347837D01*
X24363175Y32352561D01*
X24142910Y32400988D01*
X23936245Y32491278D01*
X23751054Y32619989D01*
X23594389Y32782221D01*
X23472218Y32971793D01*
X23389196Y33181483D01*
X23348484Y33403305D01*
X23351633Y33628807D01*
X23398523Y33849408D01*
X23487369Y34056702D01*
X23614784Y34242786D01*
X23775917Y34400579D01*
X23964628Y34524068D01*
X24173733Y34608552D01*
X24395267Y34650813D01*
X24620789Y34649237D01*
X24620789Y34649237D01*
G37*
G36*
X41620789Y34649237D02*
X41841716Y34603888D01*
X42049614Y34516496D01*
X42236588Y34390380D01*
X42395501Y34230354D01*
X42520305Y34042509D01*
X42606248Y33833996D01*
X42649916Y33613453D01*
X42649916Y33613436D01*
X42650049Y33612763D01*
X42646452Y33355169D01*
X42646301Y33354506D01*
X42646301Y33354482D01*
X42596492Y33135249D01*
X42504760Y32929215D01*
X42374758Y32744926D01*
X42211440Y32589401D01*
X42021020Y32468556D01*
X41810754Y32387000D01*
X41588653Y32347837D01*
X41363175Y32352561D01*
X41142910Y32400988D01*
X40936245Y32491278D01*
X40751054Y32619989D01*
X40594389Y32782221D01*
X40472218Y32971793D01*
X40389196Y33181483D01*
X40348484Y33403305D01*
X40351633Y33628807D01*
X40398523Y33849408D01*
X40487369Y34056702D01*
X40614784Y34242786D01*
X40775917Y34400579D01*
X40964628Y34524068D01*
X41173733Y34608552D01*
X41395267Y34650813D01*
X41620789Y34649237D01*
X41620789Y34649237D01*
G37*
G36*
X58620789Y34649237D02*
X58841716Y34603888D01*
X59049614Y34516496D01*
X59236588Y34390380D01*
X59395501Y34230354D01*
X59520305Y34042509D01*
X59606248Y33833996D01*
X59649916Y33613453D01*
X59649916Y33613436D01*
X59650049Y33612763D01*
X59646452Y33355169D01*
X59646301Y33354506D01*
X59646301Y33354482D01*
X59596492Y33135249D01*
X59504760Y32929215D01*
X59374758Y32744926D01*
X59211440Y32589401D01*
X59021020Y32468556D01*
X58810754Y32387000D01*
X58588653Y32347837D01*
X58363175Y32352561D01*
X58142910Y32400988D01*
X57936245Y32491278D01*
X57751054Y32619989D01*
X57594389Y32782221D01*
X57472218Y32971793D01*
X57389196Y33181483D01*
X57348484Y33403305D01*
X57351633Y33628807D01*
X57398523Y33849408D01*
X57487369Y34056702D01*
X57614784Y34242786D01*
X57775917Y34400579D01*
X57964628Y34524068D01*
X58173733Y34608552D01*
X58395267Y34650813D01*
X58620789Y34649237D01*
X58620789Y34649237D01*
G37*
G36*
X109620789Y34649237D02*
X109841716Y34603888D01*
X110049614Y34516496D01*
X110236588Y34390380D01*
X110395501Y34230354D01*
X110520305Y34042509D01*
X110606248Y33833996D01*
X110649916Y33613453D01*
X110649916Y33613436D01*
X110650049Y33612763D01*
X110646452Y33355169D01*
X110646301Y33354506D01*
X110646301Y33354482D01*
X110596492Y33135249D01*
X110504760Y32929215D01*
X110374758Y32744926D01*
X110211440Y32589401D01*
X110021020Y32468556D01*
X109810754Y32387000D01*
X109588653Y32347837D01*
X109363175Y32352561D01*
X109142910Y32400988D01*
X108936245Y32491278D01*
X108751054Y32619989D01*
X108594389Y32782221D01*
X108472218Y32971793D01*
X108389196Y33181483D01*
X108348484Y33403305D01*
X108351633Y33628807D01*
X108398523Y33849408D01*
X108487369Y34056702D01*
X108614784Y34242786D01*
X108775917Y34400579D01*
X108964628Y34524068D01*
X109173733Y34608552D01*
X109395267Y34650813D01*
X109620789Y34649237D01*
X109620789Y34649237D01*
G37*
G36*
X75620789Y34649237D02*
X75841716Y34603888D01*
X76049614Y34516496D01*
X76236588Y34390380D01*
X76395501Y34230354D01*
X76520305Y34042509D01*
X76606248Y33833996D01*
X76649916Y33613453D01*
X76649916Y33613436D01*
X76650049Y33612763D01*
X76646452Y33355169D01*
X76646301Y33354506D01*
X76646301Y33354482D01*
X76596492Y33135249D01*
X76504760Y32929215D01*
X76374758Y32744926D01*
X76211440Y32589401D01*
X76021020Y32468556D01*
X75810754Y32387000D01*
X75588653Y32347837D01*
X75363175Y32352561D01*
X75142910Y32400988D01*
X74936245Y32491278D01*
X74751054Y32619989D01*
X74594389Y32782221D01*
X74472218Y32971793D01*
X74389196Y33181483D01*
X74348484Y33403305D01*
X74351633Y33628807D01*
X74398523Y33849408D01*
X74487369Y34056702D01*
X74614784Y34242786D01*
X74775917Y34400579D01*
X74964628Y34524068D01*
X75173733Y34608552D01*
X75395267Y34650813D01*
X75620789Y34649237D01*
X75620789Y34649237D01*
G37*
G36*
X92620789Y34649237D02*
X92841716Y34603888D01*
X93049614Y34516496D01*
X93236588Y34390380D01*
X93395501Y34230354D01*
X93520305Y34042509D01*
X93606248Y33833996D01*
X93649916Y33613453D01*
X93649916Y33613436D01*
X93650049Y33612763D01*
X93646452Y33355169D01*
X93646301Y33354506D01*
X93646301Y33354482D01*
X93596492Y33135249D01*
X93504760Y32929215D01*
X93374758Y32744926D01*
X93211440Y32589401D01*
X93021020Y32468556D01*
X92810754Y32387000D01*
X92588653Y32347837D01*
X92363175Y32352561D01*
X92142910Y32400988D01*
X91936245Y32491278D01*
X91751054Y32619989D01*
X91594389Y32782221D01*
X91472218Y32971793D01*
X91389196Y33181483D01*
X91348484Y33403305D01*
X91351633Y33628807D01*
X91398523Y33849408D01*
X91487369Y34056702D01*
X91614784Y34242786D01*
X91775917Y34400579D01*
X91964628Y34524068D01*
X92173733Y34608552D01*
X92395267Y34650813D01*
X92620789Y34649237D01*
X92620789Y34649237D01*
G37*
G36*
X143620789Y34649237D02*
X143841716Y34603888D01*
X144049614Y34516496D01*
X144236588Y34390380D01*
X144395501Y34230354D01*
X144520305Y34042509D01*
X144606248Y33833996D01*
X144649916Y33613453D01*
X144649916Y33613436D01*
X144650049Y33612763D01*
X144646452Y33355169D01*
X144646301Y33354506D01*
X144646301Y33354482D01*
X144596492Y33135249D01*
X144504760Y32929215D01*
X144374758Y32744926D01*
X144211440Y32589401D01*
X144021020Y32468556D01*
X143810754Y32387000D01*
X143588653Y32347837D01*
X143363175Y32352561D01*
X143142910Y32400988D01*
X142936245Y32491278D01*
X142751054Y32619989D01*
X142594389Y32782221D01*
X142472218Y32971793D01*
X142389196Y33181483D01*
X142348484Y33403305D01*
X142351633Y33628807D01*
X142398523Y33849408D01*
X142487369Y34056702D01*
X142614784Y34242786D01*
X142775917Y34400579D01*
X142964628Y34524068D01*
X143173733Y34608552D01*
X143395267Y34650813D01*
X143620789Y34649237D01*
X143620789Y34649237D01*
G37*
G36*
X20676050Y32691950D02*
X19475950Y32691950D01*
X19475950Y33892050D01*
X20676050Y33892050D01*
X20676050Y32691950D01*
X20676050Y32691950D01*
G37*
G36*
X54696810Y32691950D02*
X53496710Y32691950D01*
X53496710Y33892050D01*
X54696810Y33892050D01*
X54696810Y32691950D01*
X54696810Y32691950D01*
G37*
G36*
X122768810Y32691950D02*
X121568710Y32691950D01*
X121568710Y33892050D01*
X122768810Y33892050D01*
X122768810Y32691950D01*
X122768810Y32691950D01*
G37*
G36*
X105600050Y32691950D02*
X104399950Y32691950D01*
X104399950Y33892050D01*
X105600050Y33892050D01*
X105600050Y32691950D01*
X105600050Y32691950D01*
G37*
G36*
X88732810Y32691950D02*
X87532710Y32691950D01*
X87532710Y33892050D01*
X88732810Y33892050D01*
X88732810Y32691950D01*
X88732810Y32691950D01*
G37*
G36*
X71714810Y32691950D02*
X70514710Y32691950D01*
X70514710Y33892050D01*
X71714810Y33892050D01*
X71714810Y32691950D01*
X71714810Y32691950D01*
G37*
G36*
X37678810Y32691950D02*
X36478710Y32691950D01*
X36478710Y33892050D01*
X37678810Y33892050D01*
X37678810Y32691950D01*
X37678810Y32691950D01*
G37*
G36*
X139786810Y32945950D02*
X138586710Y32945950D01*
X138586710Y34146050D01*
X139786810Y34146050D01*
X139786810Y32945950D01*
X139786810Y32945950D01*
G37*
G36*
X69715830Y33641950D02*
X68515730Y33641950D01*
X68515730Y34842050D01*
X69715830Y34842050D01*
X69715830Y33641950D01*
X69715830Y33641950D01*
G37*
G36*
X86733830Y33641950D02*
X85533730Y33641950D01*
X85533730Y34842050D01*
X86733830Y34842050D01*
X86733830Y33641950D01*
X86733830Y33641950D01*
G37*
G36*
X103601070Y33641950D02*
X102400970Y33641950D01*
X102400970Y34842050D01*
X103601070Y34842050D01*
X103601070Y33641950D01*
X103601070Y33641950D01*
G37*
G36*
X120769830Y33641950D02*
X119569730Y33641950D01*
X119569730Y34842050D01*
X120769830Y34842050D01*
X120769830Y33641950D01*
X120769830Y33641950D01*
G37*
G36*
X18677070Y33641950D02*
X17476970Y33641950D01*
X17476970Y34842050D01*
X18677070Y34842050D01*
X18677070Y33641950D01*
X18677070Y33641950D01*
G37*
G36*
X35679830Y33641950D02*
X34479730Y33641950D01*
X34479730Y34842050D01*
X35679830Y34842050D01*
X35679830Y33641950D01*
X35679830Y33641950D01*
G37*
G36*
X52697830Y33641950D02*
X51497730Y33641950D01*
X51497730Y34842050D01*
X52697830Y34842050D01*
X52697830Y33641950D01*
X52697830Y33641950D01*
G37*
G36*
X113357000Y33780000D02*
X111707000Y33780000D01*
X111707000Y35180000D01*
X113357000Y35180000D01*
X113357000Y33780000D01*
X113357000Y33780000D01*
G37*
G36*
X147901000Y33780000D02*
X146251000Y33780000D01*
X146251000Y35180000D01*
X147901000Y35180000D01*
X147901000Y33780000D01*
X147901000Y33780000D01*
G37*
G36*
X130629000Y33780000D02*
X128979000Y33780000D01*
X128979000Y35180000D01*
X130629000Y35180000D01*
X130629000Y33780000D01*
X130629000Y33780000D01*
G37*
G36*
X96339000Y33780000D02*
X94689000Y33780000D01*
X94689000Y35180000D01*
X96339000Y35180000D01*
X96339000Y33780000D01*
X96339000Y33780000D01*
G37*
G36*
X137787830Y33895950D02*
X136587730Y33895950D01*
X136587730Y35096050D01*
X137787830Y35096050D01*
X137787830Y33895950D01*
X137787830Y33895950D01*
G37*
G36*
X20676050Y34591950D02*
X19475950Y34591950D01*
X19475950Y35792050D01*
X20676050Y35792050D01*
X20676050Y34591950D01*
X20676050Y34591950D01*
G37*
G36*
X88732810Y34591950D02*
X87532710Y34591950D01*
X87532710Y35792050D01*
X88732810Y35792050D01*
X88732810Y34591950D01*
X88732810Y34591950D01*
G37*
G36*
X122768810Y34591950D02*
X121568710Y34591950D01*
X121568710Y35792050D01*
X122768810Y35792050D01*
X122768810Y34591950D01*
X122768810Y34591950D01*
G37*
G36*
X71714810Y34591950D02*
X70514710Y34591950D01*
X70514710Y35792050D01*
X71714810Y35792050D01*
X71714810Y34591950D01*
X71714810Y34591950D01*
G37*
G36*
X54696810Y34591950D02*
X53496710Y34591950D01*
X53496710Y35792050D01*
X54696810Y35792050D01*
X54696810Y34591950D01*
X54696810Y34591950D01*
G37*
G36*
X37678810Y34591950D02*
X36478710Y34591950D01*
X36478710Y35792050D01*
X37678810Y35792050D01*
X37678810Y34591950D01*
X37678810Y34591950D01*
G37*
G36*
X105600050Y34591950D02*
X104399950Y34591950D01*
X104399950Y35792050D01*
X105600050Y35792050D01*
X105600050Y34591950D01*
X105600050Y34591950D01*
G37*
G36*
X139786810Y34845950D02*
X138586710Y34845950D01*
X138586710Y36046050D01*
X139786810Y36046050D01*
X139786810Y34845950D01*
X139786810Y34845950D01*
G37*
G36*
X25650000Y34890000D02*
X23350000Y34890000D01*
X23350000Y37190000D01*
X25650000Y37190000D01*
X25650000Y34890000D01*
X25650000Y34890000D01*
G37*
G36*
X127650000Y34890000D02*
X125350000Y34890000D01*
X125350000Y37190000D01*
X127650000Y37190000D01*
X127650000Y34890000D01*
X127650000Y34890000D01*
G37*
G36*
X144650000Y34890000D02*
X142350000Y34890000D01*
X142350000Y37190000D01*
X144650000Y37190000D01*
X144650000Y34890000D01*
X144650000Y34890000D01*
G37*
G36*
X110650000Y34890000D02*
X108350000Y34890000D01*
X108350000Y37190000D01*
X110650000Y37190000D01*
X110650000Y34890000D01*
X110650000Y34890000D01*
G37*
G36*
X93650000Y34890000D02*
X91350000Y34890000D01*
X91350000Y37190000D01*
X93650000Y37190000D01*
X93650000Y34890000D01*
X93650000Y34890000D01*
G37*
G36*
X76650000Y34890000D02*
X74350000Y34890000D01*
X74350000Y37190000D01*
X76650000Y37190000D01*
X76650000Y34890000D01*
X76650000Y34890000D01*
G37*
G36*
X42650000Y34890000D02*
X40350000Y34890000D01*
X40350000Y37190000D01*
X42650000Y37190000D01*
X42650000Y34890000D01*
X42650000Y34890000D01*
G37*
G36*
X59650000Y34890000D02*
X57350000Y34890000D01*
X57350000Y37190000D01*
X59650000Y37190000D01*
X59650000Y34890000D01*
X59650000Y34890000D01*
G37*
G36*
X90118249Y40149237D02*
X90339176Y40103888D01*
X90547074Y40016496D01*
X90734048Y39890380D01*
X90892961Y39730354D01*
X91017765Y39542509D01*
X91103708Y39333996D01*
X91147376Y39113453D01*
X91147376Y39113436D01*
X91147509Y39112763D01*
X91143912Y38855169D01*
X91143761Y38854506D01*
X91143761Y38854482D01*
X91093952Y38635249D01*
X91002220Y38429215D01*
X90872218Y38244926D01*
X90708900Y38089401D01*
X90518480Y37968556D01*
X90308214Y37887000D01*
X90086113Y37847837D01*
X89860635Y37852561D01*
X89640370Y37900988D01*
X89433705Y37991278D01*
X89248514Y38119989D01*
X89091849Y38282221D01*
X88969678Y38471793D01*
X88886656Y38681483D01*
X88845944Y38903305D01*
X88849093Y39128807D01*
X88895983Y39349408D01*
X88984829Y39556702D01*
X89112244Y39742786D01*
X89273377Y39900579D01*
X89462088Y40024068D01*
X89671193Y40108552D01*
X89892727Y40150813D01*
X90118249Y40149237D01*
X90118249Y40149237D01*
G37*
G36*
X73118249Y40149237D02*
X73339176Y40103888D01*
X73547074Y40016496D01*
X73734048Y39890380D01*
X73892961Y39730354D01*
X74017765Y39542509D01*
X74103708Y39333996D01*
X74147376Y39113453D01*
X74147376Y39113436D01*
X74147509Y39112763D01*
X74143912Y38855169D01*
X74143761Y38854506D01*
X74143761Y38854482D01*
X74093952Y38635249D01*
X74002220Y38429215D01*
X73872218Y38244926D01*
X73708900Y38089401D01*
X73518480Y37968556D01*
X73308214Y37887000D01*
X73086113Y37847837D01*
X72860635Y37852561D01*
X72640370Y37900988D01*
X72433705Y37991278D01*
X72248514Y38119989D01*
X72091849Y38282221D01*
X71969678Y38471793D01*
X71886656Y38681483D01*
X71845944Y38903305D01*
X71849093Y39128807D01*
X71895983Y39349408D01*
X71984829Y39556702D01*
X72112244Y39742786D01*
X72273377Y39900579D01*
X72462088Y40024068D01*
X72671193Y40108552D01*
X72892727Y40150813D01*
X73118249Y40149237D01*
X73118249Y40149237D01*
G37*
G36*
X107118249Y40149237D02*
X107339176Y40103888D01*
X107547074Y40016496D01*
X107734048Y39890380D01*
X107892961Y39730354D01*
X108017765Y39542509D01*
X108103708Y39333996D01*
X108147376Y39113453D01*
X108147376Y39113436D01*
X108147509Y39112763D01*
X108143912Y38855169D01*
X108143761Y38854506D01*
X108143761Y38854482D01*
X108093952Y38635249D01*
X108002220Y38429215D01*
X107872218Y38244926D01*
X107708900Y38089401D01*
X107518480Y37968556D01*
X107308214Y37887000D01*
X107086113Y37847837D01*
X106860635Y37852561D01*
X106640370Y37900988D01*
X106433705Y37991278D01*
X106248514Y38119989D01*
X106091849Y38282221D01*
X105969678Y38471793D01*
X105886656Y38681483D01*
X105845944Y38903305D01*
X105849093Y39128807D01*
X105895983Y39349408D01*
X105984829Y39556702D01*
X106112244Y39742786D01*
X106273377Y39900579D01*
X106462088Y40024068D01*
X106671193Y40108552D01*
X106892727Y40150813D01*
X107118249Y40149237D01*
X107118249Y40149237D01*
G37*
G36*
X56118249Y40149237D02*
X56339176Y40103888D01*
X56547074Y40016496D01*
X56734048Y39890380D01*
X56892961Y39730354D01*
X57017765Y39542509D01*
X57103708Y39333996D01*
X57147376Y39113453D01*
X57147376Y39113436D01*
X57147509Y39112763D01*
X57143912Y38855169D01*
X57143761Y38854506D01*
X57143761Y38854482D01*
X57093952Y38635249D01*
X57002220Y38429215D01*
X56872218Y38244926D01*
X56708900Y38089401D01*
X56518480Y37968556D01*
X56308214Y37887000D01*
X56086113Y37847837D01*
X55860635Y37852561D01*
X55640370Y37900988D01*
X55433705Y37991278D01*
X55248514Y38119989D01*
X55091849Y38282221D01*
X54969678Y38471793D01*
X54886656Y38681483D01*
X54845944Y38903305D01*
X54849093Y39128807D01*
X54895983Y39349408D01*
X54984829Y39556702D01*
X55112244Y39742786D01*
X55273377Y39900579D01*
X55462088Y40024068D01*
X55671193Y40108552D01*
X55892727Y40150813D01*
X56118249Y40149237D01*
X56118249Y40149237D01*
G37*
G36*
X124118249Y40149237D02*
X124339176Y40103888D01*
X124547074Y40016496D01*
X124734048Y39890380D01*
X124892961Y39730354D01*
X125017765Y39542509D01*
X125103708Y39333996D01*
X125147376Y39113453D01*
X125147376Y39113436D01*
X125147509Y39112763D01*
X125143912Y38855169D01*
X125143761Y38854506D01*
X125143761Y38854482D01*
X125093952Y38635249D01*
X125002220Y38429215D01*
X124872218Y38244926D01*
X124708900Y38089401D01*
X124518480Y37968556D01*
X124308214Y37887000D01*
X124086113Y37847837D01*
X123860635Y37852561D01*
X123640370Y37900988D01*
X123433705Y37991278D01*
X123248514Y38119989D01*
X123091849Y38282221D01*
X122969678Y38471793D01*
X122886656Y38681483D01*
X122845944Y38903305D01*
X122849093Y39128807D01*
X122895983Y39349408D01*
X122984829Y39556702D01*
X123112244Y39742786D01*
X123273377Y39900579D01*
X123462088Y40024068D01*
X123671193Y40108552D01*
X123892727Y40150813D01*
X124118249Y40149237D01*
X124118249Y40149237D01*
G37*
G36*
X39118249Y40149237D02*
X39339176Y40103888D01*
X39547074Y40016496D01*
X39734048Y39890380D01*
X39892961Y39730354D01*
X40017765Y39542509D01*
X40103708Y39333996D01*
X40147376Y39113453D01*
X40147376Y39113436D01*
X40147509Y39112763D01*
X40143912Y38855169D01*
X40143761Y38854506D01*
X40143761Y38854482D01*
X40093952Y38635249D01*
X40002220Y38429215D01*
X39872218Y38244926D01*
X39708900Y38089401D01*
X39518480Y37968556D01*
X39308214Y37887000D01*
X39086113Y37847837D01*
X38860635Y37852561D01*
X38640370Y37900988D01*
X38433705Y37991278D01*
X38248514Y38119989D01*
X38091849Y38282221D01*
X37969678Y38471793D01*
X37886656Y38681483D01*
X37845944Y38903305D01*
X37849093Y39128807D01*
X37895983Y39349408D01*
X37984829Y39556702D01*
X38112244Y39742786D01*
X38273377Y39900579D01*
X38462088Y40024068D01*
X38671193Y40108552D01*
X38892727Y40150813D01*
X39118249Y40149237D01*
X39118249Y40149237D01*
G37*
G36*
X22118249Y40149237D02*
X22339176Y40103888D01*
X22547074Y40016496D01*
X22734048Y39890380D01*
X22892961Y39730354D01*
X23017765Y39542509D01*
X23103708Y39333996D01*
X23147376Y39113453D01*
X23147376Y39113436D01*
X23147509Y39112763D01*
X23143912Y38855169D01*
X23143761Y38854506D01*
X23143761Y38854482D01*
X23093952Y38635249D01*
X23002220Y38429215D01*
X22872218Y38244926D01*
X22708900Y38089401D01*
X22518480Y37968556D01*
X22308214Y37887000D01*
X22086113Y37847837D01*
X21860635Y37852561D01*
X21640370Y37900988D01*
X21433705Y37991278D01*
X21248514Y38119989D01*
X21091849Y38282221D01*
X20969678Y38471793D01*
X20886656Y38681483D01*
X20845944Y38903305D01*
X20849093Y39128807D01*
X20895983Y39349408D01*
X20984829Y39556702D01*
X21112244Y39742786D01*
X21273377Y39900579D01*
X21462088Y40024068D01*
X21671193Y40108552D01*
X21892727Y40150813D01*
X22118249Y40149237D01*
X22118249Y40149237D01*
G37*
G36*
X141118249Y40149237D02*
X141339176Y40103888D01*
X141547074Y40016496D01*
X141734048Y39890380D01*
X141892961Y39730354D01*
X142017765Y39542509D01*
X142103708Y39333996D01*
X142147376Y39113453D01*
X142147376Y39113436D01*
X142147509Y39112763D01*
X142143912Y38855169D01*
X142143761Y38854506D01*
X142143761Y38854482D01*
X142093952Y38635249D01*
X142002220Y38429215D01*
X141872218Y38244926D01*
X141708900Y38089401D01*
X141518480Y37968556D01*
X141308214Y37887000D01*
X141086113Y37847837D01*
X140860635Y37852561D01*
X140640370Y37900988D01*
X140433705Y37991278D01*
X140248514Y38119989D01*
X140091849Y38282221D01*
X139969678Y38471793D01*
X139886656Y38681483D01*
X139845944Y38903305D01*
X139849093Y39128807D01*
X139895983Y39349408D01*
X139984829Y39556702D01*
X140112244Y39742786D01*
X140273377Y39900579D01*
X140462088Y40024068D01*
X140671193Y40108552D01*
X140892727Y40150813D01*
X141118249Y40149237D01*
X141118249Y40149237D01*
G37*
G36*
X109318000Y60936000D02*
X107618000Y60936000D01*
X107618000Y62036000D01*
X109318000Y62036000D01*
X109318000Y60936000D01*
X109318000Y60936000D01*
G37*
G36*
X109318000Y62836000D02*
X107618000Y62836000D01*
X107618000Y63936000D01*
X109318000Y63936000D01*
X109318000Y62836000D01*
X109318000Y62836000D01*
G37*
M02*
