G04 #@! TF.FileFunction,Soldermask,Top*
%FSLAX46Y46*%
G04 Gerber Fmt 4.6, Leading zero omitted, Abs format (unit mm)*
G04 Created by KiCad (PCBNEW 4.0.2-stable) date 5/21/2016 11:43:06 AM*
%MOMM*%
G01*
G04 APERTURE LIST*
%ADD10C,0.100000*%
G04 APERTURE END LIST*
D10*
G36*
X35500150Y3299250D02*
X32899850Y3299250D01*
X32899850Y7499750D01*
X35500150Y7499750D01*
X35500150Y3299250D01*
X35500150Y3299250D01*
G37*
G36*
X24100150Y3299250D02*
X21499850Y3299250D01*
X21499850Y7499750D01*
X24100150Y7499750D01*
X24100150Y3299250D01*
X24100150Y3299250D01*
G37*
G36*
X5170237Y5343514D02*
X5170246Y5343513D01*
X5171254Y5343506D01*
X5358144Y5322543D01*
X5537402Y5265679D01*
X5702202Y5175079D01*
X5846266Y5054196D01*
X5964106Y4907632D01*
X6051234Y4740971D01*
X6104332Y4560561D01*
X6104334Y4560540D01*
X6104335Y4560536D01*
X6121378Y4373273D01*
X6101722Y4186266D01*
X6101719Y4186241D01*
X6046107Y4006590D01*
X5956661Y3841162D01*
X5836786Y3696258D01*
X5691048Y3577397D01*
X5524999Y3489107D01*
X5344964Y3434752D01*
X5157800Y3416400D01*
X4842109Y3416400D01*
X4829763Y3416486D01*
X4829754Y3416487D01*
X4828746Y3416494D01*
X4641856Y3437457D01*
X4462598Y3494321D01*
X4297798Y3584921D01*
X4153734Y3705804D01*
X4035894Y3852368D01*
X3948766Y4019029D01*
X3895668Y4199439D01*
X3895666Y4199460D01*
X3895665Y4199464D01*
X3878622Y4386727D01*
X3898278Y4573734D01*
X3898279Y4573736D01*
X3898281Y4573759D01*
X3953893Y4753410D01*
X4043339Y4918838D01*
X4163214Y5063742D01*
X4308952Y5182603D01*
X4475001Y5270893D01*
X4655036Y5325248D01*
X4842200Y5343600D01*
X5157891Y5343600D01*
X5170237Y5343514D01*
X5170237Y5343514D01*
G37*
G36*
X146170237Y5343514D02*
X146170246Y5343513D01*
X146171254Y5343506D01*
X146358144Y5322543D01*
X146537402Y5265679D01*
X146702202Y5175079D01*
X146846266Y5054196D01*
X146964106Y4907632D01*
X147051234Y4740971D01*
X147104332Y4560561D01*
X147104334Y4560540D01*
X147104335Y4560536D01*
X147121378Y4373273D01*
X147101722Y4186266D01*
X147101719Y4186241D01*
X147046107Y4006590D01*
X146956661Y3841162D01*
X146836786Y3696258D01*
X146691048Y3577397D01*
X146524999Y3489107D01*
X146344964Y3434752D01*
X146157800Y3416400D01*
X145842109Y3416400D01*
X145829763Y3416486D01*
X145829754Y3416487D01*
X145828746Y3416494D01*
X145641856Y3437457D01*
X145462598Y3494321D01*
X145297798Y3584921D01*
X145153734Y3705804D01*
X145035894Y3852368D01*
X144948766Y4019029D01*
X144895668Y4199439D01*
X144895666Y4199460D01*
X144895665Y4199464D01*
X144878622Y4386727D01*
X144898278Y4573734D01*
X144898279Y4573736D01*
X144898281Y4573759D01*
X144953893Y4753410D01*
X145043339Y4918838D01*
X145163214Y5063742D01*
X145308952Y5182603D01*
X145475001Y5270893D01*
X145655036Y5325248D01*
X145842200Y5343600D01*
X146157891Y5343600D01*
X146170237Y5343514D01*
X146170237Y5343514D01*
G37*
G36*
X124233734Y6351722D02*
X124233736Y6351721D01*
X124233759Y6351719D01*
X124413410Y6296107D01*
X124578838Y6206661D01*
X124723742Y6086786D01*
X124842603Y5941048D01*
X124930893Y5774999D01*
X124985248Y5594964D01*
X125003600Y5407800D01*
X125003600Y5092079D01*
X125003514Y5079763D01*
X125003513Y5079754D01*
X125003506Y5078746D01*
X124982543Y4891856D01*
X124925679Y4712598D01*
X124835079Y4547798D01*
X124714196Y4403734D01*
X124567632Y4285894D01*
X124400971Y4198766D01*
X124220561Y4145668D01*
X124220540Y4145666D01*
X124220536Y4145665D01*
X124033273Y4128622D01*
X123846266Y4148278D01*
X123846264Y4148279D01*
X123846241Y4148281D01*
X123666590Y4203893D01*
X123501162Y4293339D01*
X123356258Y4413214D01*
X123237397Y4558952D01*
X123149107Y4725001D01*
X123094752Y4905036D01*
X123076400Y5092200D01*
X123076400Y5407921D01*
X123076486Y5420237D01*
X123076487Y5420246D01*
X123076494Y5421254D01*
X123097457Y5608144D01*
X123154321Y5787402D01*
X123244921Y5952202D01*
X123365804Y6096266D01*
X123512368Y6214106D01*
X123679029Y6301234D01*
X123859439Y6354332D01*
X123859460Y6354334D01*
X123859464Y6354335D01*
X124046727Y6371378D01*
X124233734Y6351722D01*
X124233734Y6351722D01*
G37*
G36*
X121693734Y6351722D02*
X121693736Y6351721D01*
X121693759Y6351719D01*
X121873410Y6296107D01*
X122038838Y6206661D01*
X122183742Y6086786D01*
X122302603Y5941048D01*
X122390893Y5774999D01*
X122445248Y5594964D01*
X122463600Y5407800D01*
X122463600Y5092079D01*
X122463514Y5079763D01*
X122463513Y5079754D01*
X122463506Y5078746D01*
X122442543Y4891856D01*
X122385679Y4712598D01*
X122295079Y4547798D01*
X122174196Y4403734D01*
X122027632Y4285894D01*
X121860971Y4198766D01*
X121680561Y4145668D01*
X121680540Y4145666D01*
X121680536Y4145665D01*
X121493273Y4128622D01*
X121306266Y4148278D01*
X121306264Y4148279D01*
X121306241Y4148281D01*
X121126590Y4203893D01*
X120961162Y4293339D01*
X120816258Y4413214D01*
X120697397Y4558952D01*
X120609107Y4725001D01*
X120554752Y4905036D01*
X120536400Y5092200D01*
X120536400Y5407921D01*
X120536486Y5420237D01*
X120536487Y5420246D01*
X120536494Y5421254D01*
X120557457Y5608144D01*
X120614321Y5787402D01*
X120704921Y5952202D01*
X120825804Y6096266D01*
X120972368Y6214106D01*
X121139029Y6301234D01*
X121319439Y6354332D01*
X121319460Y6354334D01*
X121319464Y6354335D01*
X121506727Y6371378D01*
X121693734Y6351722D01*
X121693734Y6351722D01*
G37*
G36*
X119923600Y4134000D02*
X117996400Y4134000D01*
X117996400Y6366000D01*
X119923600Y6366000D01*
X119923600Y4134000D01*
X119923600Y4134000D01*
G37*
G36*
X15410000Y4510000D02*
X13990000Y4510000D01*
X13990000Y5620000D01*
X15410000Y5620000D01*
X15410000Y4510000D01*
X15410000Y4510000D01*
G37*
G36*
X95292414Y4550000D02*
X94592414Y4550000D01*
X94592414Y5950000D01*
X95292414Y5950000D01*
X95292414Y4550000D01*
X95292414Y4550000D01*
G37*
G36*
X100092414Y4550000D02*
X99392414Y4550000D01*
X99392414Y5950000D01*
X100092414Y5950000D01*
X100092414Y4550000D01*
X100092414Y4550000D01*
G37*
G36*
X99292414Y4550000D02*
X98592414Y4550000D01*
X98592414Y5950000D01*
X99292414Y5950000D01*
X99292414Y4550000D01*
X99292414Y4550000D01*
G37*
G36*
X98492414Y4550000D02*
X97792414Y4550000D01*
X97792414Y5950000D01*
X98492414Y5950000D01*
X98492414Y4550000D01*
X98492414Y4550000D01*
G37*
G36*
X97692414Y4550000D02*
X96992414Y4550000D01*
X96992414Y5950000D01*
X97692414Y5950000D01*
X97692414Y4550000D01*
X97692414Y4550000D01*
G37*
G36*
X96892414Y4550000D02*
X96192414Y4550000D01*
X96192414Y5950000D01*
X96892414Y5950000D01*
X96892414Y4550000D01*
X96892414Y4550000D01*
G37*
G36*
X96092414Y4550000D02*
X95392414Y4550000D01*
X95392414Y5950000D01*
X96092414Y5950000D01*
X96092414Y4550000D01*
X96092414Y4550000D01*
G37*
G36*
X94492414Y4550000D02*
X93792414Y4550000D01*
X93792414Y5950000D01*
X94492414Y5950000D01*
X94492414Y4550000D01*
X94492414Y4550000D01*
G37*
G36*
X71714000Y4815000D02*
X70514000Y4815000D01*
X70514000Y6265000D01*
X71714000Y6265000D01*
X71714000Y4815000D01*
X71714000Y4815000D01*
G37*
G36*
X69714000Y4815000D02*
X68514000Y4815000D01*
X68514000Y6265000D01*
X69714000Y6265000D01*
X69714000Y4815000D01*
X69714000Y4815000D01*
G37*
G36*
X83144000Y4815000D02*
X81944000Y4815000D01*
X81944000Y6265000D01*
X83144000Y6265000D01*
X83144000Y4815000D01*
X83144000Y4815000D01*
G37*
G36*
X81144000Y4815000D02*
X79944000Y4815000D01*
X79944000Y6265000D01*
X81144000Y6265000D01*
X81144000Y4815000D01*
X81144000Y4815000D01*
G37*
G36*
X51575194Y7675899D02*
X51575202Y7675898D01*
X51576211Y7675891D01*
X51792658Y7651613D01*
X52000268Y7585755D01*
X52191132Y7480827D01*
X52357981Y7340824D01*
X52494458Y7171081D01*
X52595366Y6978061D01*
X52656862Y6769118D01*
X52656864Y6769097D01*
X52656865Y6769093D01*
X52676603Y6552210D01*
X52655442Y6350882D01*
X52653835Y6335597D01*
X52589428Y6127533D01*
X52485835Y5935941D01*
X52347001Y5768119D01*
X52178214Y5630460D01*
X51985904Y5528207D01*
X51777395Y5465254D01*
X51560629Y5444000D01*
X51039280Y5444000D01*
X51024806Y5444101D01*
X51024798Y5444102D01*
X51023789Y5444109D01*
X50807342Y5468387D01*
X50599732Y5534245D01*
X50408868Y5639173D01*
X50242019Y5779176D01*
X50105542Y5948919D01*
X50004634Y6141939D01*
X49943138Y6350882D01*
X49943136Y6350903D01*
X49943135Y6350907D01*
X49923397Y6567790D01*
X49946162Y6784378D01*
X49946163Y6784380D01*
X49946165Y6784403D01*
X50010572Y6992467D01*
X50114165Y7184059D01*
X50252999Y7351881D01*
X50421786Y7489540D01*
X50614096Y7591793D01*
X50822605Y7654746D01*
X51039371Y7676000D01*
X51560720Y7676000D01*
X51575194Y7675899D01*
X51575194Y7675899D01*
G37*
G36*
X62225700Y5541600D02*
X61492300Y5541600D01*
X61492300Y7722800D01*
X62225700Y7722800D01*
X62225700Y5541600D01*
X62225700Y5541600D01*
G37*
G36*
X63495700Y5541600D02*
X62762300Y5541600D01*
X62762300Y7722800D01*
X63495700Y7722800D01*
X63495700Y5541600D01*
X63495700Y5541600D01*
G37*
G36*
X64765700Y5541600D02*
X64032300Y5541600D01*
X64032300Y7722800D01*
X64765700Y7722800D01*
X64765700Y5541600D01*
X64765700Y5541600D01*
G37*
G36*
X66035700Y5541600D02*
X65302300Y5541600D01*
X65302300Y7722800D01*
X66035700Y7722800D01*
X66035700Y5541600D01*
X66035700Y5541600D01*
G37*
G36*
X142858000Y5871800D02*
X140626000Y5871800D01*
X140626000Y7240200D01*
X142858000Y7240200D01*
X142858000Y5871800D01*
X142858000Y5871800D01*
G37*
G36*
X134222000Y5871800D02*
X131990000Y5871800D01*
X131990000Y7240200D01*
X134222000Y7240200D01*
X134222000Y5871800D01*
X134222000Y5871800D01*
G37*
G36*
X5170237Y7883514D02*
X5170246Y7883513D01*
X5171254Y7883506D01*
X5358144Y7862543D01*
X5537402Y7805679D01*
X5702202Y7715079D01*
X5846266Y7594196D01*
X5964106Y7447632D01*
X6051234Y7280971D01*
X6104332Y7100561D01*
X6104334Y7100540D01*
X6104335Y7100536D01*
X6121378Y6913273D01*
X6101722Y6726266D01*
X6101719Y6726241D01*
X6046107Y6546590D01*
X5956661Y6381162D01*
X5836786Y6236258D01*
X5691048Y6117397D01*
X5524999Y6029107D01*
X5344964Y5974752D01*
X5157800Y5956400D01*
X4842109Y5956400D01*
X4829763Y5956486D01*
X4829754Y5956487D01*
X4828746Y5956494D01*
X4641856Y5977457D01*
X4462598Y6034321D01*
X4297798Y6124921D01*
X4153734Y6245804D01*
X4035894Y6392368D01*
X3948766Y6559029D01*
X3895668Y6739439D01*
X3895666Y6739460D01*
X3895665Y6739464D01*
X3878622Y6926727D01*
X3898278Y7113734D01*
X3898279Y7113736D01*
X3898281Y7113759D01*
X3953893Y7293410D01*
X4043339Y7458838D01*
X4163214Y7603742D01*
X4308952Y7722603D01*
X4475001Y7810893D01*
X4655036Y7865248D01*
X4842200Y7883600D01*
X5157891Y7883600D01*
X5170237Y7883514D01*
X5170237Y7883514D01*
G37*
G36*
X146170237Y7883514D02*
X146170246Y7883513D01*
X146171254Y7883506D01*
X146358144Y7862543D01*
X146537402Y7805679D01*
X146702202Y7715079D01*
X146846266Y7594196D01*
X146964106Y7447632D01*
X147051234Y7280971D01*
X147104332Y7100561D01*
X147104334Y7100540D01*
X147104335Y7100536D01*
X147121378Y6913273D01*
X147101722Y6726266D01*
X147101719Y6726241D01*
X147046107Y6546590D01*
X146956661Y6381162D01*
X146836786Y6236258D01*
X146691048Y6117397D01*
X146524999Y6029107D01*
X146344964Y5974752D01*
X146157800Y5956400D01*
X145842109Y5956400D01*
X145829763Y5956486D01*
X145829754Y5956487D01*
X145828746Y5956494D01*
X145641856Y5977457D01*
X145462598Y6034321D01*
X145297798Y6124921D01*
X145153734Y6245804D01*
X145035894Y6392368D01*
X144948766Y6559029D01*
X144895668Y6739439D01*
X144895666Y6739460D01*
X144895665Y6739464D01*
X144878622Y6926727D01*
X144898278Y7113734D01*
X144898279Y7113736D01*
X144898281Y7113759D01*
X144953893Y7293410D01*
X145043339Y7458838D01*
X145163214Y7603742D01*
X145308952Y7722603D01*
X145475001Y7810893D01*
X145655036Y7865248D01*
X145842200Y7883600D01*
X146157891Y7883600D01*
X146170237Y7883514D01*
X146170237Y7883514D01*
G37*
G36*
X43425000Y6300000D02*
X41975000Y6300000D01*
X41975000Y7500000D01*
X43425000Y7500000D01*
X43425000Y6300000D01*
X43425000Y6300000D01*
G37*
G36*
X93392414Y6350000D02*
X91992414Y6350000D01*
X91992414Y7050000D01*
X93392414Y7050000D01*
X93392414Y6350000D01*
X93392414Y6350000D01*
G37*
G36*
X101892414Y6350000D02*
X100492414Y6350000D01*
X100492414Y7050000D01*
X101892414Y7050000D01*
X101892414Y6350000D01*
X101892414Y6350000D01*
G37*
G36*
X12000430Y6651340D02*
X9999570Y6651340D01*
X9999570Y9350700D01*
X12000430Y9350700D01*
X12000430Y6651340D01*
X12000430Y6651340D01*
G37*
G36*
X93392414Y7150000D02*
X91992414Y7150000D01*
X91992414Y7850000D01*
X93392414Y7850000D01*
X93392414Y7150000D01*
X93392414Y7150000D01*
G37*
G36*
X101892414Y7150000D02*
X100492414Y7150000D01*
X100492414Y7850000D01*
X101892414Y7850000D01*
X101892414Y7150000D01*
X101892414Y7150000D01*
G37*
G36*
X15410000Y7780000D02*
X13990000Y7780000D01*
X13990000Y8890000D01*
X15410000Y8890000D01*
X15410000Y7780000D01*
X15410000Y7780000D01*
G37*
G36*
X121693734Y9698584D02*
X121693736Y9698583D01*
X121693759Y9698581D01*
X121873410Y9642969D01*
X122038838Y9553523D01*
X122183742Y9433648D01*
X122302603Y9287910D01*
X122390893Y9121861D01*
X122445248Y8941826D01*
X122463600Y8754662D01*
X122463600Y8745217D01*
X122463514Y8732901D01*
X122463513Y8732892D01*
X122463506Y8731884D01*
X122442543Y8544994D01*
X122385679Y8365736D01*
X122295079Y8200936D01*
X122174196Y8056872D01*
X122027632Y7939032D01*
X121860971Y7851904D01*
X121680561Y7798806D01*
X121680540Y7798804D01*
X121680536Y7798803D01*
X121493273Y7781760D01*
X121306266Y7801416D01*
X121306264Y7801417D01*
X121306241Y7801419D01*
X121126590Y7857031D01*
X120961162Y7946477D01*
X120816258Y8066352D01*
X120697397Y8212090D01*
X120609107Y8378139D01*
X120554752Y8558174D01*
X120536400Y8745338D01*
X120536400Y8754783D01*
X120536486Y8767099D01*
X120536487Y8767108D01*
X120536494Y8768116D01*
X120557457Y8955006D01*
X120614321Y9134264D01*
X120704921Y9299064D01*
X120825804Y9443128D01*
X120972368Y9560968D01*
X121139029Y9648096D01*
X121319439Y9701194D01*
X121319460Y9701196D01*
X121319464Y9701197D01*
X121506727Y9718240D01*
X121693734Y9698584D01*
X121693734Y9698584D01*
G37*
G36*
X124233734Y9698584D02*
X124233736Y9698583D01*
X124233759Y9698581D01*
X124413410Y9642969D01*
X124578838Y9553523D01*
X124723742Y9433648D01*
X124842603Y9287910D01*
X124930893Y9121861D01*
X124985248Y8941826D01*
X125003600Y8754662D01*
X125003600Y8745217D01*
X125003514Y8732901D01*
X125003513Y8732892D01*
X125003506Y8731884D01*
X124982543Y8544994D01*
X124925679Y8365736D01*
X124835079Y8200936D01*
X124714196Y8056872D01*
X124567632Y7939032D01*
X124400971Y7851904D01*
X124220561Y7798806D01*
X124220540Y7798804D01*
X124220536Y7798803D01*
X124033273Y7781760D01*
X123846266Y7801416D01*
X123846264Y7801417D01*
X123846241Y7801419D01*
X123666590Y7857031D01*
X123501162Y7946477D01*
X123356258Y8066352D01*
X123237397Y8212090D01*
X123149107Y8378139D01*
X123094752Y8558174D01*
X123076400Y8745338D01*
X123076400Y8754783D01*
X123076486Y8767099D01*
X123076487Y8767108D01*
X123076494Y8768116D01*
X123097457Y8955006D01*
X123154321Y9134264D01*
X123244921Y9299064D01*
X123365804Y9443128D01*
X123512368Y9560968D01*
X123679029Y9648096D01*
X123859439Y9701194D01*
X123859460Y9701196D01*
X123859464Y9701197D01*
X124046727Y9718240D01*
X124233734Y9698584D01*
X124233734Y9698584D01*
G37*
G36*
X119923600Y7786400D02*
X117996400Y7786400D01*
X117996400Y9713600D01*
X119923600Y9713600D01*
X119923600Y7786400D01*
X119923600Y7786400D01*
G37*
G36*
X83451210Y7945710D02*
X77650510Y7945710D01*
X77650510Y10246290D01*
X83451210Y10246290D01*
X83451210Y7945710D01*
X83451210Y7945710D01*
G37*
G36*
X73753490Y7945710D02*
X67952790Y7945710D01*
X67952790Y10246290D01*
X73753490Y10246290D01*
X73753490Y7945710D01*
X73753490Y7945710D01*
G37*
G36*
X101892414Y7950000D02*
X100492414Y7950000D01*
X100492414Y8650000D01*
X101892414Y8650000D01*
X101892414Y7950000D01*
X101892414Y7950000D01*
G37*
G36*
X93392414Y7950000D02*
X91992414Y7950000D01*
X91992414Y8650000D01*
X93392414Y8650000D01*
X93392414Y7950000D01*
X93392414Y7950000D01*
G37*
G36*
X51575194Y10215899D02*
X51575202Y10215898D01*
X51576211Y10215891D01*
X51792658Y10191613D01*
X52000268Y10125755D01*
X52191132Y10020827D01*
X52357981Y9880824D01*
X52494458Y9711081D01*
X52595366Y9518061D01*
X52656862Y9309118D01*
X52656864Y9309097D01*
X52656865Y9309093D01*
X52676603Y9092210D01*
X52655442Y8890882D01*
X52653835Y8875597D01*
X52589428Y8667533D01*
X52485835Y8475941D01*
X52347001Y8308119D01*
X52178214Y8170460D01*
X51985904Y8068207D01*
X51777395Y8005254D01*
X51560629Y7984000D01*
X51039280Y7984000D01*
X51024806Y7984101D01*
X51024798Y7984102D01*
X51023789Y7984109D01*
X50807342Y8008387D01*
X50599732Y8074245D01*
X50408868Y8179173D01*
X50242019Y8319176D01*
X50105542Y8488919D01*
X50004634Y8681939D01*
X49943138Y8890882D01*
X49943136Y8890903D01*
X49943135Y8890907D01*
X49923397Y9107790D01*
X49946162Y9324378D01*
X49946163Y9324380D01*
X49946165Y9324403D01*
X50010572Y9532467D01*
X50114165Y9724059D01*
X50252999Y9891881D01*
X50421786Y10029540D01*
X50614096Y10131793D01*
X50822605Y10194746D01*
X51039371Y10216000D01*
X51560720Y10216000D01*
X51575194Y10215899D01*
X51575194Y10215899D01*
G37*
G36*
X43425000Y8300000D02*
X41975000Y8300000D01*
X41975000Y9500000D01*
X43425000Y9500000D01*
X43425000Y8300000D01*
X43425000Y8300000D01*
G37*
G36*
X128000000Y8350000D02*
X127100000Y8350000D01*
X127100000Y9850000D01*
X128000000Y9850000D01*
X128000000Y8350000D01*
X128000000Y8350000D01*
G37*
G36*
X129900000Y8350000D02*
X129000000Y8350000D01*
X129000000Y9850000D01*
X129900000Y9850000D01*
X129900000Y8350000D01*
X129900000Y8350000D01*
G37*
G36*
X134222000Y8411800D02*
X131990000Y8411800D01*
X131990000Y9780200D01*
X134222000Y9780200D01*
X134222000Y8411800D01*
X134222000Y8411800D01*
G37*
G36*
X142858000Y8411800D02*
X140626000Y8411800D01*
X140626000Y9780200D01*
X142858000Y9780200D01*
X142858000Y8411800D01*
X142858000Y8411800D01*
G37*
G36*
X5170237Y10423514D02*
X5170246Y10423513D01*
X5171254Y10423506D01*
X5358144Y10402543D01*
X5537402Y10345679D01*
X5702202Y10255079D01*
X5846266Y10134196D01*
X5964106Y9987632D01*
X6051234Y9820971D01*
X6104332Y9640561D01*
X6104334Y9640540D01*
X6104335Y9640536D01*
X6121378Y9453273D01*
X6101722Y9266266D01*
X6101719Y9266241D01*
X6046107Y9086590D01*
X5956661Y8921162D01*
X5836786Y8776258D01*
X5691048Y8657397D01*
X5524999Y8569107D01*
X5344964Y8514752D01*
X5157800Y8496400D01*
X4842109Y8496400D01*
X4829763Y8496486D01*
X4829754Y8496487D01*
X4828746Y8496494D01*
X4641856Y8517457D01*
X4462598Y8574321D01*
X4297798Y8664921D01*
X4153734Y8785804D01*
X4035894Y8932368D01*
X3948766Y9099029D01*
X3895668Y9279439D01*
X3895666Y9279460D01*
X3895665Y9279464D01*
X3878622Y9466727D01*
X3898278Y9653734D01*
X3898279Y9653736D01*
X3898281Y9653759D01*
X3953893Y9833410D01*
X4043339Y9998838D01*
X4163214Y10143742D01*
X4308952Y10262603D01*
X4475001Y10350893D01*
X4655036Y10405248D01*
X4842200Y10423600D01*
X5157891Y10423600D01*
X5170237Y10423514D01*
X5170237Y10423514D01*
G37*
G36*
X146170237Y10423514D02*
X146170246Y10423513D01*
X146171254Y10423506D01*
X146358144Y10402543D01*
X146537402Y10345679D01*
X146702202Y10255079D01*
X146846266Y10134196D01*
X146964106Y9987632D01*
X147051234Y9820971D01*
X147104332Y9640561D01*
X147104334Y9640540D01*
X147104335Y9640536D01*
X147121378Y9453273D01*
X147101722Y9266266D01*
X147101719Y9266241D01*
X147046107Y9086590D01*
X146956661Y8921162D01*
X146836786Y8776258D01*
X146691048Y8657397D01*
X146524999Y8569107D01*
X146344964Y8514752D01*
X146157800Y8496400D01*
X145842109Y8496400D01*
X145829763Y8496486D01*
X145829754Y8496487D01*
X145828746Y8496494D01*
X145641856Y8517457D01*
X145462598Y8574321D01*
X145297798Y8664921D01*
X145153734Y8785804D01*
X145035894Y8932368D01*
X144948766Y9099029D01*
X144895668Y9279439D01*
X144895666Y9279460D01*
X144895665Y9279464D01*
X144878622Y9466727D01*
X144898278Y9653734D01*
X144898279Y9653736D01*
X144898281Y9653759D01*
X144953893Y9833410D01*
X145043339Y9998838D01*
X145163214Y10143742D01*
X145308952Y10262603D01*
X145475001Y10350893D01*
X145655036Y10405248D01*
X145842200Y10423600D01*
X146157891Y10423600D01*
X146170237Y10423514D01*
X146170237Y10423514D01*
G37*
G36*
X85596000Y8712000D02*
X84096000Y8712000D01*
X84096000Y9612000D01*
X85596000Y9612000D01*
X85596000Y8712000D01*
X85596000Y8712000D01*
G37*
G36*
X59409000Y8738761D02*
X57959000Y8738761D01*
X57959000Y9938761D01*
X59409000Y9938761D01*
X59409000Y8738761D01*
X59409000Y8738761D01*
G37*
G36*
X55345000Y8738761D02*
X53895000Y8738761D01*
X53895000Y9938761D01*
X55345000Y9938761D01*
X55345000Y8738761D01*
X55345000Y8738761D01*
G37*
G36*
X57377000Y8738761D02*
X55927000Y8738761D01*
X55927000Y9938761D01*
X57377000Y9938761D01*
X57377000Y8738761D01*
X57377000Y8738761D01*
G37*
G36*
X101892414Y8750000D02*
X100492414Y8750000D01*
X100492414Y9450000D01*
X101892414Y9450000D01*
X101892414Y8750000D01*
X101892414Y8750000D01*
G37*
G36*
X93392414Y8750000D02*
X91992414Y8750000D01*
X91992414Y9450000D01*
X93392414Y9450000D01*
X93392414Y8750000D01*
X93392414Y8750000D01*
G37*
G36*
X116250000Y9350000D02*
X114750000Y9350000D01*
X114750000Y10250000D01*
X116250000Y10250000D01*
X116250000Y9350000D01*
X116250000Y9350000D01*
G37*
G36*
X15425000Y9500000D02*
X13975000Y9500000D01*
X13975000Y10700000D01*
X15425000Y10700000D01*
X15425000Y9500000D01*
X15425000Y9500000D01*
G37*
G36*
X101892414Y9550000D02*
X100492414Y9550000D01*
X100492414Y10250000D01*
X101892414Y10250000D01*
X101892414Y9550000D01*
X101892414Y9550000D01*
G37*
G36*
X93392414Y9550000D02*
X91992414Y9550000D01*
X91992414Y10250000D01*
X93392414Y10250000D01*
X93392414Y9550000D01*
X93392414Y9550000D01*
G37*
G36*
X91125000Y10030700D02*
X89675000Y10030700D01*
X89675000Y11230700D01*
X91125000Y11230700D01*
X91125000Y10030700D01*
X91125000Y10030700D01*
G37*
G36*
X89158414Y10039700D02*
X87708414Y10039700D01*
X87708414Y11239700D01*
X89158414Y11239700D01*
X89158414Y10039700D01*
X89158414Y10039700D01*
G37*
G36*
X119153734Y12238584D02*
X119153736Y12238583D01*
X119153759Y12238581D01*
X119333410Y12182969D01*
X119498838Y12093523D01*
X119643742Y11973648D01*
X119762603Y11827910D01*
X119850893Y11661861D01*
X119905248Y11481826D01*
X119923600Y11294662D01*
X119923600Y11285217D01*
X119923514Y11272901D01*
X119923513Y11272892D01*
X119923506Y11271884D01*
X119902543Y11084994D01*
X119845679Y10905736D01*
X119755079Y10740936D01*
X119634196Y10596872D01*
X119487632Y10479032D01*
X119320971Y10391904D01*
X119140561Y10338806D01*
X119140540Y10338804D01*
X119140536Y10338803D01*
X118953273Y10321760D01*
X118766266Y10341416D01*
X118766264Y10341417D01*
X118766241Y10341419D01*
X118586590Y10397031D01*
X118421162Y10486477D01*
X118276258Y10606352D01*
X118157397Y10752090D01*
X118069107Y10918139D01*
X118014752Y11098174D01*
X117996400Y11285338D01*
X117996400Y11294783D01*
X117996486Y11307099D01*
X117996487Y11307108D01*
X117996494Y11308116D01*
X118017457Y11495006D01*
X118074321Y11674264D01*
X118164921Y11839064D01*
X118285804Y11983128D01*
X118432368Y12100968D01*
X118599029Y12188096D01*
X118779439Y12241194D01*
X118779460Y12241196D01*
X118779464Y12241197D01*
X118966727Y12258240D01*
X119153734Y12238584D01*
X119153734Y12238584D01*
G37*
G36*
X121693734Y12238584D02*
X121693736Y12238583D01*
X121693759Y12238581D01*
X121873410Y12182969D01*
X122038838Y12093523D01*
X122183742Y11973648D01*
X122302603Y11827910D01*
X122390893Y11661861D01*
X122445248Y11481826D01*
X122463600Y11294662D01*
X122463600Y11285217D01*
X122463514Y11272901D01*
X122463513Y11272892D01*
X122463506Y11271884D01*
X122442543Y11084994D01*
X122385679Y10905736D01*
X122295079Y10740936D01*
X122174196Y10596872D01*
X122027632Y10479032D01*
X121860971Y10391904D01*
X121680561Y10338806D01*
X121680540Y10338804D01*
X121680536Y10338803D01*
X121493273Y10321760D01*
X121306266Y10341416D01*
X121306264Y10341417D01*
X121306241Y10341419D01*
X121126590Y10397031D01*
X120961162Y10486477D01*
X120816258Y10606352D01*
X120697397Y10752090D01*
X120609107Y10918139D01*
X120554752Y11098174D01*
X120536400Y11285338D01*
X120536400Y11294783D01*
X120536486Y11307099D01*
X120536487Y11307108D01*
X120536494Y11308116D01*
X120557457Y11495006D01*
X120614321Y11674264D01*
X120704921Y11839064D01*
X120825804Y11983128D01*
X120972368Y12100968D01*
X121139029Y12188096D01*
X121319439Y12241194D01*
X121319460Y12241196D01*
X121319464Y12241197D01*
X121506727Y12258240D01*
X121693734Y12238584D01*
X121693734Y12238584D01*
G37*
G36*
X124233734Y12238584D02*
X124233736Y12238583D01*
X124233759Y12238581D01*
X124413410Y12182969D01*
X124578838Y12093523D01*
X124723742Y11973648D01*
X124842603Y11827910D01*
X124930893Y11661861D01*
X124985248Y11481826D01*
X125003600Y11294662D01*
X125003600Y11285217D01*
X125003514Y11272901D01*
X125003513Y11272892D01*
X125003506Y11271884D01*
X124982543Y11084994D01*
X124925679Y10905736D01*
X124835079Y10740936D01*
X124714196Y10596872D01*
X124567632Y10479032D01*
X124400971Y10391904D01*
X124220561Y10338806D01*
X124220540Y10338804D01*
X124220536Y10338803D01*
X124033273Y10321760D01*
X123846266Y10341416D01*
X123846264Y10341417D01*
X123846241Y10341419D01*
X123666590Y10397031D01*
X123501162Y10486477D01*
X123356258Y10606352D01*
X123237397Y10752090D01*
X123149107Y10918139D01*
X123094752Y11098174D01*
X123076400Y11285338D01*
X123076400Y11294783D01*
X123076486Y11307099D01*
X123076487Y11307108D01*
X123076494Y11308116D01*
X123097457Y11495006D01*
X123154321Y11674264D01*
X123244921Y11839064D01*
X123365804Y11983128D01*
X123512368Y12100968D01*
X123679029Y12188096D01*
X123859439Y12241194D01*
X123859460Y12241196D01*
X123859464Y12241197D01*
X124046727Y12258240D01*
X124233734Y12238584D01*
X124233734Y12238584D01*
G37*
G36*
X101892414Y10350000D02*
X100492414Y10350000D01*
X100492414Y11050000D01*
X101892414Y11050000D01*
X101892414Y10350000D01*
X101892414Y10350000D01*
G37*
G36*
X93392414Y10350000D02*
X91992414Y10350000D01*
X91992414Y11050000D01*
X93392414Y11050000D01*
X93392414Y10350000D01*
X93392414Y10350000D01*
G37*
G36*
X63495700Y10469200D02*
X62762300Y10469200D01*
X62762300Y12650400D01*
X63495700Y12650400D01*
X63495700Y10469200D01*
X63495700Y10469200D01*
G37*
G36*
X62225700Y10469200D02*
X61492300Y10469200D01*
X61492300Y12650400D01*
X62225700Y12650400D01*
X62225700Y10469200D01*
X62225700Y10469200D01*
G37*
G36*
X66035700Y10469200D02*
X65302300Y10469200D01*
X65302300Y12650400D01*
X66035700Y12650400D01*
X66035700Y10469200D01*
X66035700Y10469200D01*
G37*
G36*
X64765700Y10469200D02*
X64032300Y10469200D01*
X64032300Y12650400D01*
X64765700Y12650400D01*
X64765700Y10469200D01*
X64765700Y10469200D01*
G37*
G36*
X51575194Y12755899D02*
X51575202Y12755898D01*
X51576211Y12755891D01*
X51792658Y12731613D01*
X52000268Y12665755D01*
X52191132Y12560827D01*
X52357981Y12420824D01*
X52494458Y12251081D01*
X52595366Y12058061D01*
X52656862Y11849118D01*
X52656864Y11849097D01*
X52656865Y11849093D01*
X52676603Y11632210D01*
X52655442Y11430882D01*
X52653835Y11415597D01*
X52589428Y11207533D01*
X52485835Y11015941D01*
X52347001Y10848119D01*
X52178214Y10710460D01*
X51985904Y10608207D01*
X51777395Y10545254D01*
X51560629Y10524000D01*
X51039280Y10524000D01*
X51024806Y10524101D01*
X51024798Y10524102D01*
X51023789Y10524109D01*
X50807342Y10548387D01*
X50599732Y10614245D01*
X50408868Y10719173D01*
X50242019Y10859176D01*
X50105542Y11028919D01*
X50004634Y11221939D01*
X49943138Y11430882D01*
X49943136Y11430903D01*
X49943135Y11430907D01*
X49923397Y11647790D01*
X49946162Y11864378D01*
X49946163Y11864380D01*
X49946165Y11864403D01*
X50010572Y12072467D01*
X50114165Y12264059D01*
X50252999Y12431881D01*
X50421786Y12569540D01*
X50614096Y12671793D01*
X50822605Y12734746D01*
X51039371Y12756000D01*
X51560720Y12756000D01*
X51575194Y12755899D01*
X51575194Y12755899D01*
G37*
G36*
X85596000Y10612000D02*
X84096000Y10612000D01*
X84096000Y11512000D01*
X85596000Y11512000D01*
X85596000Y10612000D01*
X85596000Y10612000D01*
G37*
G36*
X12000430Y10649300D02*
X9999570Y10649300D01*
X9999570Y13348660D01*
X12000430Y13348660D01*
X12000430Y10649300D01*
X12000430Y10649300D01*
G37*
G36*
X57377000Y10738761D02*
X55927000Y10738761D01*
X55927000Y11938761D01*
X57377000Y11938761D01*
X57377000Y10738761D01*
X57377000Y10738761D01*
G37*
G36*
X55345000Y10738761D02*
X53895000Y10738761D01*
X53895000Y11938761D01*
X55345000Y11938761D01*
X55345000Y10738761D01*
X55345000Y10738761D01*
G37*
G36*
X59409000Y10738761D02*
X57959000Y10738761D01*
X57959000Y11938761D01*
X59409000Y11938761D01*
X59409000Y10738761D01*
X59409000Y10738761D01*
G37*
G36*
X142858000Y10951800D02*
X140626000Y10951800D01*
X140626000Y12320200D01*
X142858000Y12320200D01*
X142858000Y10951800D01*
X142858000Y10951800D01*
G37*
G36*
X134222000Y10951800D02*
X131990000Y10951800D01*
X131990000Y12320200D01*
X134222000Y12320200D01*
X134222000Y10951800D01*
X134222000Y10951800D01*
G37*
G36*
X6116000Y11036400D02*
X3884000Y11036400D01*
X3884000Y12963600D01*
X6116000Y12963600D01*
X6116000Y11036400D01*
X6116000Y11036400D01*
G37*
G36*
X147116000Y11036400D02*
X144884000Y11036400D01*
X144884000Y12963600D01*
X147116000Y12963600D01*
X147116000Y11036400D01*
X147116000Y11036400D01*
G37*
G36*
X93392414Y11150000D02*
X91992414Y11150000D01*
X91992414Y11850000D01*
X93392414Y11850000D01*
X93392414Y11150000D01*
X93392414Y11150000D01*
G37*
G36*
X101892414Y11150000D02*
X100492414Y11150000D01*
X100492414Y11850000D01*
X101892414Y11850000D01*
X101892414Y11150000D01*
X101892414Y11150000D01*
G37*
G36*
X116250000Y11250000D02*
X114750000Y11250000D01*
X114750000Y12150000D01*
X116250000Y12150000D01*
X116250000Y11250000D01*
X116250000Y11250000D01*
G37*
G36*
X128134000Y11292000D02*
X126934000Y11292000D01*
X126934000Y12742000D01*
X128134000Y12742000D01*
X128134000Y11292000D01*
X128134000Y11292000D01*
G37*
G36*
X130134000Y11292000D02*
X128934000Y11292000D01*
X128934000Y12742000D01*
X130134000Y12742000D01*
X130134000Y11292000D01*
X130134000Y11292000D01*
G37*
G36*
X24100150Y11300250D02*
X21499850Y11300250D01*
X21499850Y15500750D01*
X24100150Y15500750D01*
X24100150Y11300250D01*
X24100150Y11300250D01*
G37*
G36*
X35500150Y11300250D02*
X32899850Y11300250D01*
X32899850Y15500750D01*
X35500150Y15500750D01*
X35500150Y11300250D01*
X35500150Y11300250D01*
G37*
G36*
X15425000Y11500000D02*
X13975000Y11500000D01*
X13975000Y12700000D01*
X15425000Y12700000D01*
X15425000Y11500000D01*
X15425000Y11500000D01*
G37*
G36*
X101892414Y11950000D02*
X100492414Y11950000D01*
X100492414Y12650000D01*
X101892414Y12650000D01*
X101892414Y11950000D01*
X101892414Y11950000D01*
G37*
G36*
X93392414Y11950000D02*
X91992414Y11950000D01*
X91992414Y12650000D01*
X93392414Y12650000D01*
X93392414Y11950000D01*
X93392414Y11950000D01*
G37*
G36*
X91125000Y12030700D02*
X89675000Y12030700D01*
X89675000Y13230700D01*
X91125000Y13230700D01*
X91125000Y12030700D01*
X91125000Y12030700D01*
G37*
G36*
X89158414Y12039700D02*
X87708414Y12039700D01*
X87708414Y13239700D01*
X89158414Y13239700D01*
X89158414Y12039700D01*
X89158414Y12039700D01*
G37*
G36*
X113088029Y12980338D02*
X112532429Y12980338D01*
X112532429Y14856738D01*
X113088029Y14856738D01*
X113088029Y12980338D01*
X113088029Y12980338D01*
G37*
G36*
X116988029Y12980338D02*
X116432429Y12980338D01*
X116432429Y14856738D01*
X116988029Y14856738D01*
X116988029Y12980338D01*
X116988029Y12980338D01*
G37*
G36*
X114388029Y12980338D02*
X113832429Y12980338D01*
X113832429Y14856738D01*
X114388029Y14856738D01*
X114388029Y12980338D01*
X114388029Y12980338D01*
G37*
G36*
X116338028Y12980338D02*
X115782428Y12980338D01*
X115782428Y14856738D01*
X116338028Y14856738D01*
X116338028Y12980338D01*
X116338028Y12980338D01*
G37*
G36*
X113738031Y12980338D02*
X113182431Y12980338D01*
X113182431Y14856738D01*
X113738031Y14856738D01*
X113738031Y12980338D01*
X113738031Y12980338D01*
G37*
G36*
X112438031Y12980338D02*
X111882431Y12980338D01*
X111882431Y14856738D01*
X112438031Y14856738D01*
X112438031Y12980338D01*
X112438031Y12980338D01*
G37*
G36*
X115038028Y12980338D02*
X114482428Y12980338D01*
X114482428Y14856738D01*
X115038028Y14856738D01*
X115038028Y12980338D01*
X115038028Y12980338D01*
G37*
G36*
X115688029Y12980338D02*
X115132429Y12980338D01*
X115132429Y14856738D01*
X115688029Y14856738D01*
X115688029Y12980338D01*
X115688029Y12980338D01*
G37*
G36*
X100092414Y13050000D02*
X99392414Y13050000D01*
X99392414Y14450000D01*
X100092414Y14450000D01*
X100092414Y13050000D01*
X100092414Y13050000D01*
G37*
G36*
X94492414Y13050000D02*
X93792414Y13050000D01*
X93792414Y14450000D01*
X94492414Y14450000D01*
X94492414Y13050000D01*
X94492414Y13050000D01*
G37*
G36*
X95292414Y13050000D02*
X94592414Y13050000D01*
X94592414Y14450000D01*
X95292414Y14450000D01*
X95292414Y13050000D01*
X95292414Y13050000D01*
G37*
G36*
X96092414Y13050000D02*
X95392414Y13050000D01*
X95392414Y14450000D01*
X96092414Y14450000D01*
X96092414Y13050000D01*
X96092414Y13050000D01*
G37*
G36*
X96892414Y13050000D02*
X96192414Y13050000D01*
X96192414Y14450000D01*
X96892414Y14450000D01*
X96892414Y13050000D01*
X96892414Y13050000D01*
G37*
G36*
X97692414Y13050000D02*
X96992414Y13050000D01*
X96992414Y14450000D01*
X97692414Y14450000D01*
X97692414Y13050000D01*
X97692414Y13050000D01*
G37*
G36*
X98492414Y13050000D02*
X97792414Y13050000D01*
X97792414Y14450000D01*
X98492414Y14450000D01*
X98492414Y13050000D01*
X98492414Y13050000D01*
G37*
G36*
X99292414Y13050000D02*
X98592414Y13050000D01*
X98592414Y14450000D01*
X99292414Y14450000D01*
X99292414Y13050000D01*
X99292414Y13050000D01*
G37*
G36*
X131590000Y13172000D02*
X130690000Y13172000D01*
X130690000Y14672000D01*
X131590000Y14672000D01*
X131590000Y13172000D01*
X131590000Y13172000D01*
G37*
G36*
X133490000Y13172000D02*
X132590000Y13172000D01*
X132590000Y14672000D01*
X133490000Y14672000D01*
X133490000Y13172000D01*
X133490000Y13172000D01*
G37*
G36*
X128134000Y13197000D02*
X126934000Y13197000D01*
X126934000Y14647000D01*
X128134000Y14647000D01*
X128134000Y13197000D01*
X128134000Y13197000D01*
G37*
G36*
X130134000Y13197000D02*
X128934000Y13197000D01*
X128934000Y14647000D01*
X130134000Y14647000D01*
X130134000Y13197000D01*
X130134000Y13197000D01*
G37*
G36*
X142550000Y13700000D02*
X141050000Y13700000D01*
X141050000Y14600000D01*
X142550000Y14600000D01*
X142550000Y13700000D01*
X142550000Y13700000D01*
G37*
G36*
X63872000Y13705000D02*
X62672000Y13705000D01*
X62672000Y15155000D01*
X63872000Y15155000D01*
X63872000Y13705000D01*
X63872000Y13705000D01*
G37*
G36*
X65872000Y13705000D02*
X64672000Y13705000D01*
X64672000Y15155000D01*
X65872000Y15155000D01*
X65872000Y13705000D01*
X65872000Y13705000D01*
G37*
G36*
X98927414Y15175000D02*
X97727414Y15175000D01*
X97727414Y16625000D01*
X98927414Y16625000D01*
X98927414Y15175000D01*
X98927414Y15175000D01*
G37*
G36*
X96927414Y15175000D02*
X95727414Y15175000D01*
X95727414Y16625000D01*
X96927414Y16625000D01*
X96927414Y15175000D01*
X96927414Y15175000D01*
G37*
G36*
X142550000Y15600000D02*
X141050000Y15600000D01*
X141050000Y16500000D01*
X142550000Y16500000D01*
X142550000Y15600000D01*
X142550000Y15600000D01*
G37*
G36*
X65872000Y15737000D02*
X64672000Y15737000D01*
X64672000Y17187000D01*
X65872000Y17187000D01*
X65872000Y15737000D01*
X65872000Y15737000D01*
G37*
G36*
X63872000Y15737000D02*
X62672000Y15737000D01*
X62672000Y17187000D01*
X63872000Y17187000D01*
X63872000Y15737000D01*
X63872000Y15737000D01*
G37*
G36*
X77443000Y16386000D02*
X75993000Y16386000D01*
X75993000Y17586000D01*
X77443000Y17586000D01*
X77443000Y16386000D01*
X77443000Y16386000D01*
G37*
G36*
X84555000Y16386000D02*
X83105000Y16386000D01*
X83105000Y17586000D01*
X84555000Y17586000D01*
X84555000Y16386000D01*
X84555000Y16386000D01*
G37*
G36*
X111051818Y16388178D02*
X109851818Y16388178D01*
X109851818Y17838178D01*
X111051818Y17838178D01*
X111051818Y16388178D01*
X111051818Y16388178D01*
G37*
G36*
X109051818Y16388178D02*
X107851818Y16388178D01*
X107851818Y17838178D01*
X109051818Y17838178D01*
X109051818Y16388178D01*
X109051818Y16388178D01*
G37*
G36*
X46590000Y16900000D02*
X44490000Y16900000D01*
X44490000Y19100000D01*
X46590000Y19100000D01*
X46590000Y16900000D01*
X46590000Y16900000D01*
G37*
G36*
X50010000Y16900000D02*
X47910000Y16900000D01*
X47910000Y19100000D01*
X50010000Y19100000D01*
X50010000Y16900000D01*
X50010000Y16900000D01*
G37*
G36*
X51610286Y19049302D02*
X51811992Y19007898D01*
X51879317Y18979597D01*
X52001822Y18928100D01*
X52172534Y18812954D01*
X52172535Y18812953D01*
X52317629Y18666843D01*
X52349324Y18619138D01*
X52431581Y18495331D01*
X52510050Y18304952D01*
X52550046Y18102958D01*
X52546761Y17867763D01*
X52546722Y17867591D01*
X52540040Y17838178D01*
X52501141Y17666965D01*
X52417388Y17478851D01*
X52322711Y17344639D01*
X52298688Y17310584D01*
X52149575Y17168586D01*
X52149573Y17168585D01*
X51975712Y17058250D01*
X51783732Y16983785D01*
X51702617Y16969483D01*
X51580948Y16948029D01*
X51580945Y16948029D01*
X51375074Y16952341D01*
X51173962Y16996558D01*
X51032756Y17058250D01*
X50985270Y17078996D01*
X50953238Y17101259D01*
X50816181Y17196515D01*
X50673140Y17344639D01*
X50561593Y17517726D01*
X50485791Y17709179D01*
X50448619Y17911709D01*
X50448619Y17911713D01*
X50451494Y18117609D01*
X50491315Y18304950D01*
X50494307Y18319027D01*
X50548386Y18445201D01*
X50575425Y18508289D01*
X50691761Y18678193D01*
X50838882Y18822265D01*
X51000613Y18928099D01*
X51011183Y18935016D01*
X51202109Y19012155D01*
X51356696Y19041644D01*
X51404376Y19050739D01*
X51610286Y19049302D01*
X51610286Y19049302D01*
G37*
G36*
X43110286Y19049302D02*
X43311992Y19007898D01*
X43379317Y18979597D01*
X43501822Y18928100D01*
X43672534Y18812954D01*
X43672535Y18812953D01*
X43817629Y18666843D01*
X43849324Y18619138D01*
X43931581Y18495331D01*
X44010050Y18304952D01*
X44050046Y18102958D01*
X44046761Y17867763D01*
X44046722Y17867591D01*
X44040040Y17838178D01*
X44001141Y17666965D01*
X43917388Y17478851D01*
X43822711Y17344639D01*
X43798688Y17310584D01*
X43649575Y17168586D01*
X43649573Y17168585D01*
X43475712Y17058250D01*
X43283732Y16983785D01*
X43202617Y16969483D01*
X43080948Y16948029D01*
X43080945Y16948029D01*
X42875074Y16952341D01*
X42673962Y16996558D01*
X42532756Y17058250D01*
X42485270Y17078996D01*
X42453238Y17101259D01*
X42316181Y17196515D01*
X42173140Y17344639D01*
X42061593Y17517726D01*
X41985791Y17709179D01*
X41948619Y17911709D01*
X41948619Y17911713D01*
X41951494Y18117609D01*
X41991315Y18304950D01*
X41994307Y18319027D01*
X42048386Y18445201D01*
X42075425Y18508289D01*
X42191761Y18678193D01*
X42338882Y18822265D01*
X42500613Y18928099D01*
X42511183Y18935016D01*
X42702109Y19012155D01*
X42856696Y19041644D01*
X42904376Y19050739D01*
X43110286Y19049302D01*
X43110286Y19049302D01*
G37*
G36*
X96927414Y17140312D02*
X95727414Y17140312D01*
X95727414Y18590312D01*
X96927414Y18590312D01*
X96927414Y17140312D01*
X96927414Y17140312D01*
G37*
G36*
X98927414Y17140312D02*
X97727414Y17140312D01*
X97727414Y18590312D01*
X98927414Y18590312D01*
X98927414Y17140312D01*
X98927414Y17140312D01*
G37*
G36*
X86612000Y17602000D02*
X85112000Y17602000D01*
X85112000Y18502000D01*
X86612000Y18502000D01*
X86612000Y17602000D01*
X86612000Y17602000D01*
G37*
G36*
X79900000Y18250000D02*
X79000000Y18250000D01*
X79000000Y19750000D01*
X79900000Y19750000D01*
X79900000Y18250000D01*
X79900000Y18250000D01*
G37*
G36*
X81800000Y18250000D02*
X80900000Y18250000D01*
X80900000Y19750000D01*
X81800000Y19750000D01*
X81800000Y18250000D01*
X81800000Y18250000D01*
G37*
G36*
X84555000Y18386000D02*
X83105000Y18386000D01*
X83105000Y19586000D01*
X84555000Y19586000D01*
X84555000Y18386000D01*
X84555000Y18386000D01*
G37*
G36*
X77443000Y18386000D02*
X75993000Y18386000D01*
X75993000Y19586000D01*
X77443000Y19586000D01*
X77443000Y18386000D01*
X77443000Y18386000D01*
G37*
G36*
X111031443Y18509369D02*
X109831443Y18509369D01*
X109831443Y19959369D01*
X111031443Y19959369D01*
X111031443Y18509369D01*
X111031443Y18509369D01*
G37*
G36*
X109031443Y18509369D02*
X107831443Y18509369D01*
X107831443Y19959369D01*
X109031443Y19959369D01*
X109031443Y18509369D01*
X109031443Y18509369D01*
G37*
G36*
X115038031Y18619138D02*
X114482431Y18619138D01*
X114482431Y20495538D01*
X115038031Y20495538D01*
X115038031Y18619138D01*
X115038031Y18619138D01*
G37*
G36*
X112438031Y18619138D02*
X111882431Y18619138D01*
X111882431Y20495538D01*
X112438031Y20495538D01*
X112438031Y18619138D01*
X112438031Y18619138D01*
G37*
G36*
X113088032Y18619138D02*
X112532432Y18619138D01*
X112532432Y20495538D01*
X113088032Y20495538D01*
X113088032Y18619138D01*
X113088032Y18619138D01*
G37*
G36*
X113738031Y18619138D02*
X113182431Y18619138D01*
X113182431Y20495538D01*
X113738031Y20495538D01*
X113738031Y18619138D01*
X113738031Y18619138D01*
G37*
G36*
X116988029Y18619138D02*
X116432429Y18619138D01*
X116432429Y20495538D01*
X116988029Y20495538D01*
X116988029Y18619138D01*
X116988029Y18619138D01*
G37*
G36*
X116338031Y18619138D02*
X115782431Y18619138D01*
X115782431Y20495538D01*
X116338031Y20495538D01*
X116338031Y18619138D01*
X116338031Y18619138D01*
G37*
G36*
X115688029Y18619138D02*
X115132429Y18619138D01*
X115132429Y20495538D01*
X115688029Y20495538D01*
X115688029Y18619138D01*
X115688029Y18619138D01*
G37*
G36*
X114388032Y18619138D02*
X113832432Y18619138D01*
X113832432Y20495538D01*
X114388032Y20495538D01*
X114388032Y18619138D01*
X114388032Y18619138D01*
G37*
G36*
X86612000Y19502000D02*
X85112000Y19502000D01*
X85112000Y20402000D01*
X86612000Y20402000D01*
X86612000Y19502000D01*
X86612000Y19502000D01*
G37*
G36*
X142047460Y29950000D02*
X139947460Y29950000D01*
X139947460Y32050000D01*
X142047460Y32050000D01*
X142047460Y29950000D01*
X142047460Y29950000D01*
G37*
G36*
X125047460Y29950000D02*
X122947460Y29950000D01*
X122947460Y32050000D01*
X125047460Y32050000D01*
X125047460Y29950000D01*
X125047460Y29950000D01*
G37*
G36*
X108047460Y29950000D02*
X105947460Y29950000D01*
X105947460Y32050000D01*
X108047460Y32050000D01*
X108047460Y29950000D01*
X108047460Y29950000D01*
G37*
G36*
X91047460Y29950000D02*
X88947460Y29950000D01*
X88947460Y32050000D01*
X91047460Y32050000D01*
X91047460Y29950000D01*
X91047460Y29950000D01*
G37*
G36*
X74047460Y29950000D02*
X71947460Y29950000D01*
X71947460Y32050000D01*
X74047460Y32050000D01*
X74047460Y29950000D01*
X74047460Y29950000D01*
G37*
G36*
X57047460Y29950000D02*
X54947460Y29950000D01*
X54947460Y32050000D01*
X57047460Y32050000D01*
X57047460Y29950000D01*
X57047460Y29950000D01*
G37*
G36*
X23047460Y29950000D02*
X20947460Y29950000D01*
X20947460Y32050000D01*
X23047460Y32050000D01*
X23047460Y29950000D01*
X23047460Y29950000D01*
G37*
G36*
X40047460Y29950000D02*
X37947460Y29950000D01*
X37947460Y32050000D01*
X40047460Y32050000D01*
X40047460Y29950000D01*
X40047460Y29950000D01*
G37*
G36*
X126610286Y34549302D02*
X126811992Y34507898D01*
X126879317Y34479597D01*
X127001822Y34428100D01*
X127172534Y34312954D01*
X127172535Y34312953D01*
X127317629Y34166843D01*
X127393338Y34052891D01*
X127431581Y33995331D01*
X127510050Y33804952D01*
X127550046Y33602958D01*
X127546761Y33367763D01*
X127501141Y33166965D01*
X127417388Y32978851D01*
X127322711Y32844639D01*
X127298688Y32810584D01*
X127149575Y32668586D01*
X127149573Y32668585D01*
X126975712Y32558250D01*
X126783732Y32483785D01*
X126702617Y32469483D01*
X126580948Y32448029D01*
X126580945Y32448029D01*
X126375074Y32452341D01*
X126173962Y32496558D01*
X126032756Y32558250D01*
X125985270Y32578996D01*
X125953238Y32601259D01*
X125816181Y32696515D01*
X125673140Y32844639D01*
X125561593Y33017726D01*
X125485791Y33209179D01*
X125448619Y33411709D01*
X125448619Y33411713D01*
X125451494Y33617609D01*
X125491315Y33804950D01*
X125494307Y33819027D01*
X125548386Y33945201D01*
X125575425Y34008289D01*
X125691761Y34178193D01*
X125838882Y34322265D01*
X126000613Y34428099D01*
X126011183Y34435016D01*
X126202109Y34512155D01*
X126356696Y34541644D01*
X126404376Y34550739D01*
X126610286Y34549302D01*
X126610286Y34549302D01*
G37*
G36*
X143610286Y34549302D02*
X143811992Y34507898D01*
X143879317Y34479597D01*
X144001822Y34428100D01*
X144172534Y34312954D01*
X144172535Y34312953D01*
X144317629Y34166843D01*
X144393338Y34052891D01*
X144431581Y33995331D01*
X144510050Y33804952D01*
X144550046Y33602958D01*
X144546761Y33367763D01*
X144501141Y33166965D01*
X144417388Y32978851D01*
X144322711Y32844639D01*
X144298688Y32810584D01*
X144149575Y32668586D01*
X144149573Y32668585D01*
X143975712Y32558250D01*
X143783732Y32483785D01*
X143702617Y32469483D01*
X143580948Y32448029D01*
X143580945Y32448029D01*
X143375074Y32452341D01*
X143173962Y32496558D01*
X143032756Y32558250D01*
X142985270Y32578996D01*
X142953238Y32601259D01*
X142816181Y32696515D01*
X142673140Y32844639D01*
X142561593Y33017726D01*
X142485791Y33209179D01*
X142448619Y33411709D01*
X142448619Y33411713D01*
X142451494Y33617609D01*
X142491315Y33804950D01*
X142494307Y33819027D01*
X142548386Y33945201D01*
X142575425Y34008289D01*
X142691761Y34178193D01*
X142838882Y34322265D01*
X143000613Y34428099D01*
X143011183Y34435016D01*
X143202109Y34512155D01*
X143356696Y34541644D01*
X143404376Y34550739D01*
X143610286Y34549302D01*
X143610286Y34549302D01*
G37*
G36*
X24610286Y34549302D02*
X24811992Y34507898D01*
X24879317Y34479597D01*
X25001822Y34428100D01*
X25172534Y34312954D01*
X25172535Y34312953D01*
X25317629Y34166843D01*
X25393338Y34052891D01*
X25431581Y33995331D01*
X25510050Y33804952D01*
X25550046Y33602958D01*
X25546761Y33367763D01*
X25501141Y33166965D01*
X25417388Y32978851D01*
X25322711Y32844639D01*
X25298688Y32810584D01*
X25149575Y32668586D01*
X25149573Y32668585D01*
X24975712Y32558250D01*
X24783732Y32483785D01*
X24702617Y32469483D01*
X24580948Y32448029D01*
X24580945Y32448029D01*
X24375074Y32452341D01*
X24173962Y32496558D01*
X24032756Y32558250D01*
X23985270Y32578996D01*
X23953238Y32601259D01*
X23816181Y32696515D01*
X23673140Y32844639D01*
X23561593Y33017726D01*
X23485791Y33209179D01*
X23448619Y33411709D01*
X23448619Y33411713D01*
X23451494Y33617609D01*
X23491315Y33804950D01*
X23494307Y33819027D01*
X23548386Y33945201D01*
X23575425Y34008289D01*
X23691761Y34178193D01*
X23838882Y34322265D01*
X24000613Y34428099D01*
X24011183Y34435016D01*
X24202109Y34512155D01*
X24356696Y34541644D01*
X24404376Y34550739D01*
X24610286Y34549302D01*
X24610286Y34549302D01*
G37*
G36*
X109610286Y34549302D02*
X109811992Y34507898D01*
X109879317Y34479597D01*
X110001822Y34428100D01*
X110172534Y34312954D01*
X110172535Y34312953D01*
X110317629Y34166843D01*
X110393338Y34052891D01*
X110431581Y33995331D01*
X110510050Y33804952D01*
X110550046Y33602958D01*
X110546761Y33367763D01*
X110501141Y33166965D01*
X110417388Y32978851D01*
X110322711Y32844639D01*
X110298688Y32810584D01*
X110149575Y32668586D01*
X110149573Y32668585D01*
X109975712Y32558250D01*
X109783732Y32483785D01*
X109702617Y32469483D01*
X109580948Y32448029D01*
X109580945Y32448029D01*
X109375074Y32452341D01*
X109173962Y32496558D01*
X109032756Y32558250D01*
X108985270Y32578996D01*
X108953238Y32601259D01*
X108816181Y32696515D01*
X108673140Y32844639D01*
X108561593Y33017726D01*
X108485791Y33209179D01*
X108448619Y33411709D01*
X108448619Y33411713D01*
X108451494Y33617609D01*
X108491315Y33804950D01*
X108494307Y33819027D01*
X108548386Y33945201D01*
X108575425Y34008289D01*
X108691761Y34178193D01*
X108838882Y34322265D01*
X109000613Y34428099D01*
X109011183Y34435016D01*
X109202109Y34512155D01*
X109356696Y34541644D01*
X109404376Y34550739D01*
X109610286Y34549302D01*
X109610286Y34549302D01*
G37*
G36*
X92610286Y34549302D02*
X92811992Y34507898D01*
X92879317Y34479597D01*
X93001822Y34428100D01*
X93172534Y34312954D01*
X93172535Y34312953D01*
X93317629Y34166843D01*
X93393338Y34052891D01*
X93431581Y33995331D01*
X93510050Y33804952D01*
X93550046Y33602958D01*
X93546761Y33367763D01*
X93501141Y33166965D01*
X93417388Y32978851D01*
X93322711Y32844639D01*
X93298688Y32810584D01*
X93149575Y32668586D01*
X93149573Y32668585D01*
X92975712Y32558250D01*
X92783732Y32483785D01*
X92702617Y32469483D01*
X92580948Y32448029D01*
X92580945Y32448029D01*
X92375074Y32452341D01*
X92173962Y32496558D01*
X92032756Y32558250D01*
X91985270Y32578996D01*
X91953238Y32601259D01*
X91816181Y32696515D01*
X91673140Y32844639D01*
X91561593Y33017726D01*
X91485791Y33209179D01*
X91448619Y33411709D01*
X91448619Y33411713D01*
X91451494Y33617609D01*
X91491315Y33804950D01*
X91494307Y33819027D01*
X91548386Y33945201D01*
X91575425Y34008289D01*
X91691761Y34178193D01*
X91838882Y34322265D01*
X92000613Y34428099D01*
X92011183Y34435016D01*
X92202109Y34512155D01*
X92356696Y34541644D01*
X92404376Y34550739D01*
X92610286Y34549302D01*
X92610286Y34549302D01*
G37*
G36*
X75610286Y34549302D02*
X75811992Y34507898D01*
X75879317Y34479597D01*
X76001822Y34428100D01*
X76172534Y34312954D01*
X76172535Y34312953D01*
X76317629Y34166843D01*
X76393338Y34052891D01*
X76431581Y33995331D01*
X76510050Y33804952D01*
X76550046Y33602958D01*
X76546761Y33367763D01*
X76501141Y33166965D01*
X76417388Y32978851D01*
X76322711Y32844639D01*
X76298688Y32810584D01*
X76149575Y32668586D01*
X76149573Y32668585D01*
X75975712Y32558250D01*
X75783732Y32483785D01*
X75702617Y32469483D01*
X75580948Y32448029D01*
X75580945Y32448029D01*
X75375074Y32452341D01*
X75173962Y32496558D01*
X75032756Y32558250D01*
X74985270Y32578996D01*
X74953238Y32601259D01*
X74816181Y32696515D01*
X74673140Y32844639D01*
X74561593Y33017726D01*
X74485791Y33209179D01*
X74448619Y33411709D01*
X74448619Y33411713D01*
X74451494Y33617609D01*
X74491315Y33804950D01*
X74494307Y33819027D01*
X74548386Y33945201D01*
X74575425Y34008289D01*
X74691761Y34178193D01*
X74838882Y34322265D01*
X75000613Y34428099D01*
X75011183Y34435016D01*
X75202109Y34512155D01*
X75356696Y34541644D01*
X75404376Y34550739D01*
X75610286Y34549302D01*
X75610286Y34549302D01*
G37*
G36*
X58610286Y34549302D02*
X58811992Y34507898D01*
X58879317Y34479597D01*
X59001822Y34428100D01*
X59172534Y34312954D01*
X59172535Y34312953D01*
X59317629Y34166843D01*
X59393338Y34052891D01*
X59431581Y33995331D01*
X59510050Y33804952D01*
X59550046Y33602958D01*
X59546761Y33367763D01*
X59501141Y33166965D01*
X59417388Y32978851D01*
X59322711Y32844639D01*
X59298688Y32810584D01*
X59149575Y32668586D01*
X59149573Y32668585D01*
X58975712Y32558250D01*
X58783732Y32483785D01*
X58702617Y32469483D01*
X58580948Y32448029D01*
X58580945Y32448029D01*
X58375074Y32452341D01*
X58173962Y32496558D01*
X58032756Y32558250D01*
X57985270Y32578996D01*
X57953238Y32601259D01*
X57816181Y32696515D01*
X57673140Y32844639D01*
X57561593Y33017726D01*
X57485791Y33209179D01*
X57448619Y33411709D01*
X57448619Y33411713D01*
X57451494Y33617609D01*
X57491315Y33804950D01*
X57494307Y33819027D01*
X57548386Y33945201D01*
X57575425Y34008289D01*
X57691761Y34178193D01*
X57838882Y34322265D01*
X58000613Y34428099D01*
X58011183Y34435016D01*
X58202109Y34512155D01*
X58356696Y34541644D01*
X58404376Y34550739D01*
X58610286Y34549302D01*
X58610286Y34549302D01*
G37*
G36*
X41610286Y34549302D02*
X41811992Y34507898D01*
X41879317Y34479597D01*
X42001822Y34428100D01*
X42172534Y34312954D01*
X42172535Y34312953D01*
X42317629Y34166843D01*
X42393338Y34052891D01*
X42431581Y33995331D01*
X42510050Y33804952D01*
X42550046Y33602958D01*
X42546761Y33367763D01*
X42501141Y33166965D01*
X42417388Y32978851D01*
X42322711Y32844639D01*
X42298688Y32810584D01*
X42149575Y32668586D01*
X42149573Y32668585D01*
X41975712Y32558250D01*
X41783732Y32483785D01*
X41702617Y32469483D01*
X41580948Y32448029D01*
X41580945Y32448029D01*
X41375074Y32452341D01*
X41173962Y32496558D01*
X41032756Y32558250D01*
X40985270Y32578996D01*
X40953238Y32601259D01*
X40816181Y32696515D01*
X40673140Y32844639D01*
X40561593Y33017726D01*
X40485791Y33209179D01*
X40448619Y33411709D01*
X40448619Y33411713D01*
X40451494Y33617609D01*
X40491315Y33804950D01*
X40494307Y33819027D01*
X40548386Y33945201D01*
X40575425Y34008289D01*
X40691761Y34178193D01*
X40838882Y34322265D01*
X41000613Y34428099D01*
X41011183Y34435016D01*
X41202109Y34512155D01*
X41356696Y34541644D01*
X41404376Y34550739D01*
X41610286Y34549302D01*
X41610286Y34549302D01*
G37*
G36*
X144550000Y34990000D02*
X142450000Y34990000D01*
X142450000Y37090000D01*
X144550000Y37090000D01*
X144550000Y34990000D01*
X144550000Y34990000D01*
G37*
G36*
X42550000Y34990000D02*
X40450000Y34990000D01*
X40450000Y37090000D01*
X42550000Y37090000D01*
X42550000Y34990000D01*
X42550000Y34990000D01*
G37*
G36*
X127550000Y34990000D02*
X125450000Y34990000D01*
X125450000Y37090000D01*
X127550000Y37090000D01*
X127550000Y34990000D01*
X127550000Y34990000D01*
G37*
G36*
X93550000Y34990000D02*
X91450000Y34990000D01*
X91450000Y37090000D01*
X93550000Y37090000D01*
X93550000Y34990000D01*
X93550000Y34990000D01*
G37*
G36*
X76550000Y34990000D02*
X74450000Y34990000D01*
X74450000Y37090000D01*
X76550000Y37090000D01*
X76550000Y34990000D01*
X76550000Y34990000D01*
G37*
G36*
X25550000Y34990000D02*
X23450000Y34990000D01*
X23450000Y37090000D01*
X25550000Y37090000D01*
X25550000Y34990000D01*
X25550000Y34990000D01*
G37*
G36*
X59550000Y34990000D02*
X57450000Y34990000D01*
X57450000Y37090000D01*
X59550000Y37090000D01*
X59550000Y34990000D01*
X59550000Y34990000D01*
G37*
G36*
X110550000Y34990000D02*
X108450000Y34990000D01*
X108450000Y37090000D01*
X110550000Y37090000D01*
X110550000Y34990000D01*
X110550000Y34990000D01*
G37*
G36*
X56107746Y40049302D02*
X56309452Y40007898D01*
X56376777Y39979597D01*
X56499282Y39928100D01*
X56669994Y39812954D01*
X56669995Y39812953D01*
X56815089Y39666843D01*
X56890798Y39552891D01*
X56929041Y39495331D01*
X57007510Y39304952D01*
X57047506Y39102958D01*
X57044221Y38867763D01*
X56998601Y38666965D01*
X56914848Y38478851D01*
X56820171Y38344639D01*
X56796148Y38310584D01*
X56647035Y38168586D01*
X56647033Y38168585D01*
X56473172Y38058250D01*
X56281192Y37983785D01*
X56200077Y37969483D01*
X56078408Y37948029D01*
X56078405Y37948029D01*
X55872534Y37952341D01*
X55671422Y37996558D01*
X55530216Y38058250D01*
X55482730Y38078996D01*
X55450698Y38101259D01*
X55313641Y38196515D01*
X55170600Y38344639D01*
X55059053Y38517726D01*
X54983251Y38709179D01*
X54946079Y38911709D01*
X54946079Y38911713D01*
X54948954Y39117609D01*
X54988775Y39304950D01*
X54991767Y39319027D01*
X55045846Y39445201D01*
X55072885Y39508289D01*
X55189221Y39678193D01*
X55336342Y39822265D01*
X55498073Y39928099D01*
X55508643Y39935016D01*
X55699569Y40012155D01*
X55854156Y40041644D01*
X55901836Y40050739D01*
X56107746Y40049302D01*
X56107746Y40049302D01*
G37*
G36*
X39107746Y40049302D02*
X39309452Y40007898D01*
X39376777Y39979597D01*
X39499282Y39928100D01*
X39669994Y39812954D01*
X39669995Y39812953D01*
X39815089Y39666843D01*
X39890798Y39552891D01*
X39929041Y39495331D01*
X40007510Y39304952D01*
X40047506Y39102958D01*
X40044221Y38867763D01*
X39998601Y38666965D01*
X39914848Y38478851D01*
X39820171Y38344639D01*
X39796148Y38310584D01*
X39647035Y38168586D01*
X39647033Y38168585D01*
X39473172Y38058250D01*
X39281192Y37983785D01*
X39200077Y37969483D01*
X39078408Y37948029D01*
X39078405Y37948029D01*
X38872534Y37952341D01*
X38671422Y37996558D01*
X38530216Y38058250D01*
X38482730Y38078996D01*
X38450698Y38101259D01*
X38313641Y38196515D01*
X38170600Y38344639D01*
X38059053Y38517726D01*
X37983251Y38709179D01*
X37946079Y38911709D01*
X37946079Y38911713D01*
X37948954Y39117609D01*
X37988775Y39304950D01*
X37991767Y39319027D01*
X38045846Y39445201D01*
X38072885Y39508289D01*
X38189221Y39678193D01*
X38336342Y39822265D01*
X38498073Y39928099D01*
X38508643Y39935016D01*
X38699569Y40012155D01*
X38854156Y40041644D01*
X38901836Y40050739D01*
X39107746Y40049302D01*
X39107746Y40049302D01*
G37*
G36*
X73107746Y40049302D02*
X73309452Y40007898D01*
X73376777Y39979597D01*
X73499282Y39928100D01*
X73669994Y39812954D01*
X73669995Y39812953D01*
X73815089Y39666843D01*
X73890798Y39552891D01*
X73929041Y39495331D01*
X74007510Y39304952D01*
X74047506Y39102958D01*
X74044221Y38867763D01*
X73998601Y38666965D01*
X73914848Y38478851D01*
X73820171Y38344639D01*
X73796148Y38310584D01*
X73647035Y38168586D01*
X73647033Y38168585D01*
X73473172Y38058250D01*
X73281192Y37983785D01*
X73200077Y37969483D01*
X73078408Y37948029D01*
X73078405Y37948029D01*
X72872534Y37952341D01*
X72671422Y37996558D01*
X72530216Y38058250D01*
X72482730Y38078996D01*
X72450698Y38101259D01*
X72313641Y38196515D01*
X72170600Y38344639D01*
X72059053Y38517726D01*
X71983251Y38709179D01*
X71946079Y38911709D01*
X71946079Y38911713D01*
X71948954Y39117609D01*
X71988775Y39304950D01*
X71991767Y39319027D01*
X72045846Y39445201D01*
X72072885Y39508289D01*
X72189221Y39678193D01*
X72336342Y39822265D01*
X72498073Y39928099D01*
X72508643Y39935016D01*
X72699569Y40012155D01*
X72854156Y40041644D01*
X72901836Y40050739D01*
X73107746Y40049302D01*
X73107746Y40049302D01*
G37*
G36*
X90107746Y40049302D02*
X90309452Y40007898D01*
X90376777Y39979597D01*
X90499282Y39928100D01*
X90669994Y39812954D01*
X90669995Y39812953D01*
X90815089Y39666843D01*
X90890798Y39552891D01*
X90929041Y39495331D01*
X91007510Y39304952D01*
X91047506Y39102958D01*
X91044221Y38867763D01*
X90998601Y38666965D01*
X90914848Y38478851D01*
X90820171Y38344639D01*
X90796148Y38310584D01*
X90647035Y38168586D01*
X90647033Y38168585D01*
X90473172Y38058250D01*
X90281192Y37983785D01*
X90200077Y37969483D01*
X90078408Y37948029D01*
X90078405Y37948029D01*
X89872534Y37952341D01*
X89671422Y37996558D01*
X89530216Y38058250D01*
X89482730Y38078996D01*
X89450698Y38101259D01*
X89313641Y38196515D01*
X89170600Y38344639D01*
X89059053Y38517726D01*
X88983251Y38709179D01*
X88946079Y38911709D01*
X88946079Y38911713D01*
X88948954Y39117609D01*
X88988775Y39304950D01*
X88991767Y39319027D01*
X89045846Y39445201D01*
X89072885Y39508289D01*
X89189221Y39678193D01*
X89336342Y39822265D01*
X89498073Y39928099D01*
X89508643Y39935016D01*
X89699569Y40012155D01*
X89854156Y40041644D01*
X89901836Y40050739D01*
X90107746Y40049302D01*
X90107746Y40049302D01*
G37*
G36*
X107107746Y40049302D02*
X107309452Y40007898D01*
X107376777Y39979597D01*
X107499282Y39928100D01*
X107669994Y39812954D01*
X107669995Y39812953D01*
X107815089Y39666843D01*
X107890798Y39552891D01*
X107929041Y39495331D01*
X108007510Y39304952D01*
X108047506Y39102958D01*
X108044221Y38867763D01*
X107998601Y38666965D01*
X107914848Y38478851D01*
X107820171Y38344639D01*
X107796148Y38310584D01*
X107647035Y38168586D01*
X107647033Y38168585D01*
X107473172Y38058250D01*
X107281192Y37983785D01*
X107200077Y37969483D01*
X107078408Y37948029D01*
X107078405Y37948029D01*
X106872534Y37952341D01*
X106671422Y37996558D01*
X106530216Y38058250D01*
X106482730Y38078996D01*
X106450698Y38101259D01*
X106313641Y38196515D01*
X106170600Y38344639D01*
X106059053Y38517726D01*
X105983251Y38709179D01*
X105946079Y38911709D01*
X105946079Y38911713D01*
X105948954Y39117609D01*
X105988775Y39304950D01*
X105991767Y39319027D01*
X106045846Y39445201D01*
X106072885Y39508289D01*
X106189221Y39678193D01*
X106336342Y39822265D01*
X106498073Y39928099D01*
X106508643Y39935016D01*
X106699569Y40012155D01*
X106854156Y40041644D01*
X106901836Y40050739D01*
X107107746Y40049302D01*
X107107746Y40049302D01*
G37*
G36*
X124107746Y40049302D02*
X124309452Y40007898D01*
X124376777Y39979597D01*
X124499282Y39928100D01*
X124669994Y39812954D01*
X124669995Y39812953D01*
X124815089Y39666843D01*
X124890798Y39552891D01*
X124929041Y39495331D01*
X125007510Y39304952D01*
X125047506Y39102958D01*
X125044221Y38867763D01*
X124998601Y38666965D01*
X124914848Y38478851D01*
X124820171Y38344639D01*
X124796148Y38310584D01*
X124647035Y38168586D01*
X124647033Y38168585D01*
X124473172Y38058250D01*
X124281192Y37983785D01*
X124200077Y37969483D01*
X124078408Y37948029D01*
X124078405Y37948029D01*
X123872534Y37952341D01*
X123671422Y37996558D01*
X123530216Y38058250D01*
X123482730Y38078996D01*
X123450698Y38101259D01*
X123313641Y38196515D01*
X123170600Y38344639D01*
X123059053Y38517726D01*
X122983251Y38709179D01*
X122946079Y38911709D01*
X122946079Y38911713D01*
X122948954Y39117609D01*
X122988775Y39304950D01*
X122991767Y39319027D01*
X123045846Y39445201D01*
X123072885Y39508289D01*
X123189221Y39678193D01*
X123336342Y39822265D01*
X123498073Y39928099D01*
X123508643Y39935016D01*
X123699569Y40012155D01*
X123854156Y40041644D01*
X123901836Y40050739D01*
X124107746Y40049302D01*
X124107746Y40049302D01*
G37*
G36*
X141107746Y40049302D02*
X141309452Y40007898D01*
X141376777Y39979597D01*
X141499282Y39928100D01*
X141669994Y39812954D01*
X141669995Y39812953D01*
X141815089Y39666843D01*
X141890798Y39552891D01*
X141929041Y39495331D01*
X142007510Y39304952D01*
X142047506Y39102958D01*
X142044221Y38867763D01*
X141998601Y38666965D01*
X141914848Y38478851D01*
X141820171Y38344639D01*
X141796148Y38310584D01*
X141647035Y38168586D01*
X141647033Y38168585D01*
X141473172Y38058250D01*
X141281192Y37983785D01*
X141200077Y37969483D01*
X141078408Y37948029D01*
X141078405Y37948029D01*
X140872534Y37952341D01*
X140671422Y37996558D01*
X140530216Y38058250D01*
X140482730Y38078996D01*
X140450698Y38101259D01*
X140313641Y38196515D01*
X140170600Y38344639D01*
X140059053Y38517726D01*
X139983251Y38709179D01*
X139946079Y38911709D01*
X139946079Y38911713D01*
X139948954Y39117609D01*
X139988775Y39304950D01*
X139991767Y39319027D01*
X140045846Y39445201D01*
X140072885Y39508289D01*
X140189221Y39678193D01*
X140336342Y39822265D01*
X140498073Y39928099D01*
X140508643Y39935016D01*
X140699569Y40012155D01*
X140854156Y40041644D01*
X140901836Y40050739D01*
X141107746Y40049302D01*
X141107746Y40049302D01*
G37*
G36*
X22107746Y40049302D02*
X22309452Y40007898D01*
X22376777Y39979597D01*
X22499282Y39928100D01*
X22669994Y39812954D01*
X22669995Y39812953D01*
X22815089Y39666843D01*
X22890798Y39552891D01*
X22929041Y39495331D01*
X23007510Y39304952D01*
X23047506Y39102958D01*
X23044221Y38867763D01*
X22998601Y38666965D01*
X22914848Y38478851D01*
X22820171Y38344639D01*
X22796148Y38310584D01*
X22647035Y38168586D01*
X22647033Y38168585D01*
X22473172Y38058250D01*
X22281192Y37983785D01*
X22200077Y37969483D01*
X22078408Y37948029D01*
X22078405Y37948029D01*
X21872534Y37952341D01*
X21671422Y37996558D01*
X21530216Y38058250D01*
X21482730Y38078996D01*
X21450698Y38101259D01*
X21313641Y38196515D01*
X21170600Y38344639D01*
X21059053Y38517726D01*
X20983251Y38709179D01*
X20946079Y38911709D01*
X20946079Y38911713D01*
X20948954Y39117609D01*
X20988775Y39304950D01*
X20991767Y39319027D01*
X21045846Y39445201D01*
X21072885Y39508289D01*
X21189221Y39678193D01*
X21336342Y39822265D01*
X21498073Y39928099D01*
X21508643Y39935016D01*
X21699569Y40012155D01*
X21854156Y40041644D01*
X21901836Y40050739D01*
X22107746Y40049302D01*
X22107746Y40049302D01*
G37*
G36*
X101492285Y41685800D02*
X99260285Y41685800D01*
X99260285Y43054200D01*
X101492285Y43054200D01*
X101492285Y41685800D01*
X101492285Y41685800D01*
G37*
G36*
X84619428Y41685800D02*
X82387428Y41685800D01*
X82387428Y43054200D01*
X84619428Y43054200D01*
X84619428Y41685800D01*
X84619428Y41685800D01*
G37*
G36*
X118365142Y41685800D02*
X116133142Y41685800D01*
X116133142Y43054200D01*
X118365142Y43054200D01*
X118365142Y41685800D01*
X118365142Y41685800D01*
G37*
G36*
X127001142Y41685800D02*
X124769142Y41685800D01*
X124769142Y43054200D01*
X127001142Y43054200D01*
X127001142Y41685800D01*
X127001142Y41685800D01*
G37*
G36*
X143873999Y41685800D02*
X141641999Y41685800D01*
X141641999Y43054200D01*
X143873999Y43054200D01*
X143873999Y41685800D01*
X143873999Y41685800D01*
G37*
G36*
X93255428Y41685800D02*
X91023428Y41685800D01*
X91023428Y43054200D01*
X93255428Y43054200D01*
X93255428Y41685800D01*
X93255428Y41685800D01*
G37*
G36*
X110128285Y41685800D02*
X107896285Y41685800D01*
X107896285Y43054200D01*
X110128285Y43054200D01*
X110128285Y41685800D01*
X110128285Y41685800D01*
G37*
G36*
X135237999Y41685800D02*
X133005999Y41685800D01*
X133005999Y43054200D01*
X135237999Y43054200D01*
X135237999Y41685800D01*
X135237999Y41685800D01*
G37*
G36*
X25764000Y41685800D02*
X23532000Y41685800D01*
X23532000Y43054200D01*
X25764000Y43054200D01*
X25764000Y41685800D01*
X25764000Y41685800D01*
G37*
G36*
X34146000Y41685800D02*
X31914000Y41685800D01*
X31914000Y43054200D01*
X34146000Y43054200D01*
X34146000Y41685800D01*
X34146000Y41685800D01*
G37*
G36*
X42782000Y41685800D02*
X40550000Y41685800D01*
X40550000Y43054200D01*
X42782000Y43054200D01*
X42782000Y41685800D01*
X42782000Y41685800D01*
G37*
G36*
X50873714Y41685800D02*
X48641714Y41685800D01*
X48641714Y43054200D01*
X50873714Y43054200D01*
X50873714Y41685800D01*
X50873714Y41685800D01*
G37*
G36*
X59509714Y41685800D02*
X57277714Y41685800D01*
X57277714Y43054200D01*
X59509714Y43054200D01*
X59509714Y41685800D01*
X59509714Y41685800D01*
G37*
G36*
X67928000Y41685800D02*
X65696000Y41685800D01*
X65696000Y43054200D01*
X67928000Y43054200D01*
X67928000Y41685800D01*
X67928000Y41685800D01*
G37*
G36*
X76564000Y41685800D02*
X74332000Y41685800D01*
X74332000Y43054200D01*
X76564000Y43054200D01*
X76564000Y41685800D01*
X76564000Y41685800D01*
G37*
G36*
X17128000Y41685800D02*
X14896000Y41685800D01*
X14896000Y43054200D01*
X17128000Y43054200D01*
X17128000Y41685800D01*
X17128000Y41685800D01*
G37*
G36*
X143873999Y44225800D02*
X141641999Y44225800D01*
X141641999Y45594200D01*
X143873999Y45594200D01*
X143873999Y44225800D01*
X143873999Y44225800D01*
G37*
G36*
X110128285Y44225800D02*
X107896285Y44225800D01*
X107896285Y45594200D01*
X110128285Y45594200D01*
X110128285Y44225800D01*
X110128285Y44225800D01*
G37*
G36*
X101492285Y44225800D02*
X99260285Y44225800D01*
X99260285Y45594200D01*
X101492285Y45594200D01*
X101492285Y44225800D01*
X101492285Y44225800D01*
G37*
G36*
X135237999Y44225800D02*
X133005999Y44225800D01*
X133005999Y45594200D01*
X135237999Y45594200D01*
X135237999Y44225800D01*
X135237999Y44225800D01*
G37*
G36*
X127001142Y44225800D02*
X124769142Y44225800D01*
X124769142Y45594200D01*
X127001142Y45594200D01*
X127001142Y44225800D01*
X127001142Y44225800D01*
G37*
G36*
X76564000Y44225800D02*
X74332000Y44225800D01*
X74332000Y45594200D01*
X76564000Y45594200D01*
X76564000Y44225800D01*
X76564000Y44225800D01*
G37*
G36*
X34146000Y44225800D02*
X31914000Y44225800D01*
X31914000Y45594200D01*
X34146000Y45594200D01*
X34146000Y44225800D01*
X34146000Y44225800D01*
G37*
G36*
X84619428Y44225800D02*
X82387428Y44225800D01*
X82387428Y45594200D01*
X84619428Y45594200D01*
X84619428Y44225800D01*
X84619428Y44225800D01*
G37*
G36*
X67928000Y44225800D02*
X65696000Y44225800D01*
X65696000Y45594200D01*
X67928000Y45594200D01*
X67928000Y44225800D01*
X67928000Y44225800D01*
G37*
G36*
X25764000Y44225800D02*
X23532000Y44225800D01*
X23532000Y45594200D01*
X25764000Y45594200D01*
X25764000Y44225800D01*
X25764000Y44225800D01*
G37*
G36*
X118365142Y44225800D02*
X116133142Y44225800D01*
X116133142Y45594200D01*
X118365142Y45594200D01*
X118365142Y44225800D01*
X118365142Y44225800D01*
G37*
G36*
X50873714Y44225800D02*
X48641714Y44225800D01*
X48641714Y45594200D01*
X50873714Y45594200D01*
X50873714Y44225800D01*
X50873714Y44225800D01*
G37*
G36*
X17128000Y44225800D02*
X14896000Y44225800D01*
X14896000Y45594200D01*
X17128000Y45594200D01*
X17128000Y44225800D01*
X17128000Y44225800D01*
G37*
G36*
X93255428Y44225800D02*
X91023428Y44225800D01*
X91023428Y45594200D01*
X93255428Y45594200D01*
X93255428Y44225800D01*
X93255428Y44225800D01*
G37*
G36*
X59509714Y44225800D02*
X57277714Y44225800D01*
X57277714Y45594200D01*
X59509714Y45594200D01*
X59509714Y44225800D01*
X59509714Y44225800D01*
G37*
G36*
X42782000Y44225800D02*
X40550000Y44225800D01*
X40550000Y45594200D01*
X42782000Y45594200D01*
X42782000Y44225800D01*
X42782000Y44225800D01*
G37*
G36*
X17128000Y46765800D02*
X14896000Y46765800D01*
X14896000Y48134200D01*
X17128000Y48134200D01*
X17128000Y46765800D01*
X17128000Y46765800D01*
G37*
G36*
X59509714Y46765800D02*
X57277714Y46765800D01*
X57277714Y48134200D01*
X59509714Y48134200D01*
X59509714Y46765800D01*
X59509714Y46765800D01*
G37*
G36*
X42782000Y46765800D02*
X40550000Y46765800D01*
X40550000Y48134200D01*
X42782000Y48134200D01*
X42782000Y46765800D01*
X42782000Y46765800D01*
G37*
G36*
X34146000Y46765800D02*
X31914000Y46765800D01*
X31914000Y48134200D01*
X34146000Y48134200D01*
X34146000Y46765800D01*
X34146000Y46765800D01*
G37*
G36*
X25764000Y46765800D02*
X23532000Y46765800D01*
X23532000Y48134200D01*
X25764000Y48134200D01*
X25764000Y46765800D01*
X25764000Y46765800D01*
G37*
G36*
X76564000Y46765800D02*
X74332000Y46765800D01*
X74332000Y48134200D01*
X76564000Y48134200D01*
X76564000Y46765800D01*
X76564000Y46765800D01*
G37*
G36*
X84619428Y46765800D02*
X82387428Y46765800D01*
X82387428Y48134200D01*
X84619428Y48134200D01*
X84619428Y46765800D01*
X84619428Y46765800D01*
G37*
G36*
X93255428Y46765800D02*
X91023428Y46765800D01*
X91023428Y48134200D01*
X93255428Y48134200D01*
X93255428Y46765800D01*
X93255428Y46765800D01*
G37*
G36*
X135237999Y46765800D02*
X133005999Y46765800D01*
X133005999Y48134200D01*
X135237999Y48134200D01*
X135237999Y46765800D01*
X135237999Y46765800D01*
G37*
G36*
X143873999Y46765800D02*
X141641999Y46765800D01*
X141641999Y48134200D01*
X143873999Y48134200D01*
X143873999Y46765800D01*
X143873999Y46765800D01*
G37*
G36*
X101492285Y46765800D02*
X99260285Y46765800D01*
X99260285Y48134200D01*
X101492285Y48134200D01*
X101492285Y46765800D01*
X101492285Y46765800D01*
G37*
G36*
X110128285Y46765800D02*
X107896285Y46765800D01*
X107896285Y48134200D01*
X110128285Y48134200D01*
X110128285Y46765800D01*
X110128285Y46765800D01*
G37*
G36*
X50873714Y46765800D02*
X48641714Y46765800D01*
X48641714Y48134200D01*
X50873714Y48134200D01*
X50873714Y46765800D01*
X50873714Y46765800D01*
G37*
G36*
X127001142Y46765800D02*
X124769142Y46765800D01*
X124769142Y48134200D01*
X127001142Y48134200D01*
X127001142Y46765800D01*
X127001142Y46765800D01*
G37*
G36*
X118365142Y46765800D02*
X116133142Y46765800D01*
X116133142Y48134200D01*
X118365142Y48134200D01*
X118365142Y46765800D01*
X118365142Y46765800D01*
G37*
G36*
X67928000Y46765800D02*
X65696000Y46765800D01*
X65696000Y48134200D01*
X67928000Y48134200D01*
X67928000Y46765800D01*
X67928000Y46765800D01*
G37*
G36*
X118365142Y49305800D02*
X116133142Y49305800D01*
X116133142Y50674200D01*
X118365142Y50674200D01*
X118365142Y49305800D01*
X118365142Y49305800D01*
G37*
G36*
X110128285Y49305800D02*
X107896285Y49305800D01*
X107896285Y50674200D01*
X110128285Y50674200D01*
X110128285Y49305800D01*
X110128285Y49305800D01*
G37*
G36*
X101492285Y49305800D02*
X99260285Y49305800D01*
X99260285Y50674200D01*
X101492285Y50674200D01*
X101492285Y49305800D01*
X101492285Y49305800D01*
G37*
G36*
X93255428Y49305800D02*
X91023428Y49305800D01*
X91023428Y50674200D01*
X93255428Y50674200D01*
X93255428Y49305800D01*
X93255428Y49305800D01*
G37*
G36*
X76564000Y49305800D02*
X74332000Y49305800D01*
X74332000Y50674200D01*
X76564000Y50674200D01*
X76564000Y49305800D01*
X76564000Y49305800D01*
G37*
G36*
X67928000Y49305800D02*
X65696000Y49305800D01*
X65696000Y50674200D01*
X67928000Y50674200D01*
X67928000Y49305800D01*
X67928000Y49305800D01*
G37*
G36*
X59509714Y49305800D02*
X57277714Y49305800D01*
X57277714Y50674200D01*
X59509714Y50674200D01*
X59509714Y49305800D01*
X59509714Y49305800D01*
G37*
G36*
X50873714Y49305800D02*
X48641714Y49305800D01*
X48641714Y50674200D01*
X50873714Y50674200D01*
X50873714Y49305800D01*
X50873714Y49305800D01*
G37*
G36*
X34146000Y49305800D02*
X31914000Y49305800D01*
X31914000Y50674200D01*
X34146000Y50674200D01*
X34146000Y49305800D01*
X34146000Y49305800D01*
G37*
G36*
X84619428Y49305800D02*
X82387428Y49305800D01*
X82387428Y50674200D01*
X84619428Y50674200D01*
X84619428Y49305800D01*
X84619428Y49305800D01*
G37*
G36*
X143873999Y49305800D02*
X141641999Y49305800D01*
X141641999Y50674200D01*
X143873999Y50674200D01*
X143873999Y49305800D01*
X143873999Y49305800D01*
G37*
G36*
X135237999Y49305800D02*
X133005999Y49305800D01*
X133005999Y50674200D01*
X135237999Y50674200D01*
X135237999Y49305800D01*
X135237999Y49305800D01*
G37*
G36*
X127001142Y49305800D02*
X124769142Y49305800D01*
X124769142Y50674200D01*
X127001142Y50674200D01*
X127001142Y49305800D01*
X127001142Y49305800D01*
G37*
G36*
X17128000Y49305800D02*
X14896000Y49305800D01*
X14896000Y50674200D01*
X17128000Y50674200D01*
X17128000Y49305800D01*
X17128000Y49305800D01*
G37*
G36*
X25764000Y49305800D02*
X23532000Y49305800D01*
X23532000Y50674200D01*
X25764000Y50674200D01*
X25764000Y49305800D01*
X25764000Y49305800D01*
G37*
G36*
X42782000Y49305800D02*
X40550000Y49305800D01*
X40550000Y50674200D01*
X42782000Y50674200D01*
X42782000Y49305800D01*
X42782000Y49305800D01*
G37*
G36*
X134872000Y51384000D02*
X133372000Y51384000D01*
X133372000Y52284000D01*
X134872000Y52284000D01*
X134872000Y51384000D01*
X134872000Y51384000D01*
G37*
G36*
X101090000Y51384000D02*
X99590000Y51384000D01*
X99590000Y52284000D01*
X101090000Y52284000D01*
X101090000Y51384000D01*
X101090000Y51384000D01*
G37*
G36*
X84326000Y51384000D02*
X82826000Y51384000D01*
X82826000Y52284000D01*
X84326000Y52284000D01*
X84326000Y51384000D01*
X84326000Y51384000D01*
G37*
G36*
X33800000Y51384000D02*
X32300000Y51384000D01*
X32300000Y52284000D01*
X33800000Y52284000D01*
X33800000Y51384000D01*
X33800000Y51384000D01*
G37*
G36*
X16772578Y51424362D02*
X15272578Y51424362D01*
X15272578Y52324362D01*
X16772578Y52324362D01*
X16772578Y51424362D01*
X16772578Y51424362D01*
G37*
G36*
X50296178Y51468068D02*
X48796178Y51468068D01*
X48796178Y52368068D01*
X50296178Y52368068D01*
X50296178Y51468068D01*
X50296178Y51468068D01*
G37*
G36*
X117963840Y51542074D02*
X116463840Y51542074D01*
X116463840Y52442074D01*
X117963840Y52442074D01*
X117963840Y51542074D01*
X117963840Y51542074D01*
G37*
G36*
X67634499Y51576537D02*
X66134499Y51576537D01*
X66134499Y52476537D01*
X67634499Y52476537D01*
X67634499Y51576537D01*
X67634499Y51576537D01*
G37*
G36*
X12673000Y53129362D02*
X11223000Y53129362D01*
X11223000Y54329362D01*
X12673000Y54329362D01*
X12673000Y53129362D01*
X12673000Y53129362D01*
G37*
G36*
X14705000Y53129362D02*
X13255000Y53129362D01*
X13255000Y54329362D01*
X14705000Y54329362D01*
X14705000Y53129362D01*
X14705000Y53129362D01*
G37*
G36*
X48239178Y53173068D02*
X46789178Y53173068D01*
X46789178Y54373068D01*
X48239178Y54373068D01*
X48239178Y53173068D01*
X48239178Y53173068D01*
G37*
G36*
X46200000Y53175000D02*
X44750000Y53175000D01*
X44750000Y54375000D01*
X46200000Y54375000D01*
X46200000Y53175000D01*
X46200000Y53175000D01*
G37*
G36*
X130783000Y53216000D02*
X129333000Y53216000D01*
X129333000Y54416000D01*
X130783000Y54416000D01*
X130783000Y53216000D01*
X130783000Y53216000D01*
G37*
G36*
X97001000Y53216000D02*
X95551000Y53216000D01*
X95551000Y54416000D01*
X97001000Y54416000D01*
X97001000Y53216000D01*
X97001000Y53216000D01*
G37*
G36*
X99033000Y53216000D02*
X97583000Y53216000D01*
X97583000Y54416000D01*
X99033000Y54416000D01*
X99033000Y53216000D01*
X99033000Y53216000D01*
G37*
G36*
X115797000Y53216000D02*
X114347000Y53216000D01*
X114347000Y54416000D01*
X115797000Y54416000D01*
X115797000Y53216000D01*
X115797000Y53216000D01*
G37*
G36*
X113765000Y53216000D02*
X112315000Y53216000D01*
X112315000Y54416000D01*
X113765000Y54416000D01*
X113765000Y53216000D01*
X113765000Y53216000D01*
G37*
G36*
X132815000Y53216000D02*
X131365000Y53216000D01*
X131365000Y54416000D01*
X132815000Y54416000D01*
X132815000Y53216000D01*
X132815000Y53216000D01*
G37*
G36*
X80237000Y53232000D02*
X78787000Y53232000D01*
X78787000Y54432000D01*
X80237000Y54432000D01*
X80237000Y53232000D01*
X80237000Y53232000D01*
G37*
G36*
X82269000Y53232000D02*
X80819000Y53232000D01*
X80819000Y54432000D01*
X82269000Y54432000D01*
X82269000Y53232000D01*
X82269000Y53232000D01*
G37*
G36*
X65577499Y53281537D02*
X64127499Y53281537D01*
X64127499Y54481537D01*
X65577499Y54481537D01*
X65577499Y53281537D01*
X65577499Y53281537D01*
G37*
G36*
X63545499Y53281537D02*
X62095499Y53281537D01*
X62095499Y54481537D01*
X63545499Y54481537D01*
X63545499Y53281537D01*
X63545499Y53281537D01*
G37*
G36*
X84326000Y53284000D02*
X82826000Y53284000D01*
X82826000Y54184000D01*
X84326000Y54184000D01*
X84326000Y53284000D01*
X84326000Y53284000D01*
G37*
G36*
X134872000Y53284000D02*
X133372000Y53284000D01*
X133372000Y54184000D01*
X134872000Y54184000D01*
X134872000Y53284000D01*
X134872000Y53284000D01*
G37*
G36*
X101090000Y53284000D02*
X99590000Y53284000D01*
X99590000Y54184000D01*
X101090000Y54184000D01*
X101090000Y53284000D01*
X101090000Y53284000D01*
G37*
G36*
X33800000Y53284000D02*
X32300000Y53284000D01*
X32300000Y54184000D01*
X33800000Y54184000D01*
X33800000Y53284000D01*
X33800000Y53284000D01*
G37*
G36*
X31775000Y53311164D02*
X30325000Y53311164D01*
X30325000Y54511164D01*
X31775000Y54511164D01*
X31775000Y53311164D01*
X31775000Y53311164D01*
G37*
G36*
X29775000Y53311164D02*
X28325000Y53311164D01*
X28325000Y54511164D01*
X29775000Y54511164D01*
X29775000Y53311164D01*
X29775000Y53311164D01*
G37*
G36*
X16772578Y53324362D02*
X15272578Y53324362D01*
X15272578Y54224362D01*
X16772578Y54224362D01*
X16772578Y53324362D01*
X16772578Y53324362D01*
G37*
G36*
X50296178Y53368068D02*
X48796178Y53368068D01*
X48796178Y54268068D01*
X50296178Y54268068D01*
X50296178Y53368068D01*
X50296178Y53368068D01*
G37*
G36*
X117963840Y53442074D02*
X116463840Y53442074D01*
X116463840Y54342074D01*
X117963840Y54342074D01*
X117963840Y53442074D01*
X117963840Y53442074D01*
G37*
G36*
X67634499Y53476537D02*
X66134499Y53476537D01*
X66134499Y54376537D01*
X67634499Y54376537D01*
X67634499Y53476537D01*
X67634499Y53476537D01*
G37*
G36*
X20293000Y54740000D02*
X18843000Y54740000D01*
X18843000Y55940000D01*
X20293000Y55940000D01*
X20293000Y54740000D01*
X20293000Y54740000D01*
G37*
G36*
X22325000Y54740000D02*
X20875000Y54740000D01*
X20875000Y55940000D01*
X22325000Y55940000D01*
X22325000Y54740000D01*
X22325000Y54740000D01*
G37*
G36*
X53799191Y54839807D02*
X52349191Y54839807D01*
X52349191Y56039807D01*
X53799191Y56039807D01*
X53799191Y54839807D01*
X53799191Y54839807D01*
G37*
G36*
X55831191Y54839807D02*
X54381191Y54839807D01*
X54381191Y56039807D01*
X55831191Y56039807D01*
X55831191Y54839807D01*
X55831191Y54839807D01*
G37*
G36*
X12673000Y55129362D02*
X11223000Y55129362D01*
X11223000Y56329362D01*
X12673000Y56329362D01*
X12673000Y55129362D01*
X12673000Y55129362D01*
G37*
G36*
X14705000Y55129362D02*
X13255000Y55129362D01*
X13255000Y56329362D01*
X14705000Y56329362D01*
X14705000Y55129362D01*
X14705000Y55129362D01*
G37*
G36*
X48239178Y55173068D02*
X46789178Y55173068D01*
X46789178Y56373068D01*
X48239178Y56373068D01*
X48239178Y55173068D01*
X48239178Y55173068D01*
G37*
G36*
X46200000Y55175000D02*
X44750000Y55175000D01*
X44750000Y56375000D01*
X46200000Y56375000D01*
X46200000Y55175000D01*
X46200000Y55175000D01*
G37*
G36*
X130783000Y55216000D02*
X129333000Y55216000D01*
X129333000Y56416000D01*
X130783000Y56416000D01*
X130783000Y55216000D01*
X130783000Y55216000D01*
G37*
G36*
X113765000Y55216000D02*
X112315000Y55216000D01*
X112315000Y56416000D01*
X113765000Y56416000D01*
X113765000Y55216000D01*
X113765000Y55216000D01*
G37*
G36*
X97001000Y55216000D02*
X95551000Y55216000D01*
X95551000Y56416000D01*
X97001000Y56416000D01*
X97001000Y55216000D01*
X97001000Y55216000D01*
G37*
G36*
X115797000Y55216000D02*
X114347000Y55216000D01*
X114347000Y56416000D01*
X115797000Y56416000D01*
X115797000Y55216000D01*
X115797000Y55216000D01*
G37*
G36*
X132815000Y55216000D02*
X131365000Y55216000D01*
X131365000Y56416000D01*
X132815000Y56416000D01*
X132815000Y55216000D01*
X132815000Y55216000D01*
G37*
G36*
X99033000Y55216000D02*
X97583000Y55216000D01*
X97583000Y56416000D01*
X99033000Y56416000D01*
X99033000Y55216000D01*
X99033000Y55216000D01*
G37*
G36*
X82269000Y55232000D02*
X80819000Y55232000D01*
X80819000Y56432000D01*
X82269000Y56432000D01*
X82269000Y55232000D01*
X82269000Y55232000D01*
G37*
G36*
X80237000Y55232000D02*
X78787000Y55232000D01*
X78787000Y56432000D01*
X80237000Y56432000D01*
X80237000Y55232000D01*
X80237000Y55232000D01*
G37*
G36*
X63545499Y55281537D02*
X62095499Y55281537D01*
X62095499Y56481537D01*
X63545499Y56481537D01*
X63545499Y55281537D01*
X63545499Y55281537D01*
G37*
G36*
X65577499Y55281537D02*
X64127499Y55281537D01*
X64127499Y56481537D01*
X65577499Y56481537D01*
X65577499Y55281537D01*
X65577499Y55281537D01*
G37*
G36*
X51250000Y55300000D02*
X49750000Y55300000D01*
X49750000Y56200000D01*
X51250000Y56200000D01*
X51250000Y55300000D01*
X51250000Y55300000D01*
G37*
G36*
X29775000Y55311164D02*
X28325000Y55311164D01*
X28325000Y56511164D01*
X29775000Y56511164D01*
X29775000Y55311164D01*
X29775000Y55311164D01*
G37*
G36*
X31775000Y55311164D02*
X30325000Y55311164D01*
X30325000Y56511164D01*
X31775000Y56511164D01*
X31775000Y55311164D01*
X31775000Y55311164D01*
G37*
G36*
X22325000Y56740000D02*
X20875000Y56740000D01*
X20875000Y57940000D01*
X22325000Y57940000D01*
X22325000Y56740000D01*
X22325000Y56740000D01*
G37*
G36*
X20293000Y56740000D02*
X18843000Y56740000D01*
X18843000Y57940000D01*
X20293000Y57940000D01*
X20293000Y56740000D01*
X20293000Y56740000D01*
G37*
G36*
X57920400Y56788599D02*
X56704400Y56788599D01*
X56704400Y57547399D01*
X57920400Y57547399D01*
X57920400Y56788599D01*
X57920400Y56788599D01*
G37*
G36*
X24392400Y56788599D02*
X23176400Y56788599D01*
X23176400Y57547399D01*
X24392400Y57547399D01*
X24392400Y56788599D01*
X24392400Y56788599D01*
G37*
G36*
X26627600Y56788599D02*
X25411600Y56788599D01*
X25411600Y57547399D01*
X26627600Y57547399D01*
X26627600Y56788599D01*
X26627600Y56788599D01*
G37*
G36*
X60155600Y56788599D02*
X58939600Y56788599D01*
X58939600Y57547399D01*
X60155600Y57547399D01*
X60155600Y56788599D01*
X60155600Y56788599D01*
G37*
G36*
X53799191Y56839807D02*
X52349191Y56839807D01*
X52349191Y58039807D01*
X53799191Y58039807D01*
X53799191Y56839807D01*
X53799191Y56839807D01*
G37*
G36*
X55831191Y56839807D02*
X54381191Y56839807D01*
X54381191Y58039807D01*
X55831191Y58039807D01*
X55831191Y56839807D01*
X55831191Y56839807D01*
G37*
G36*
X47250000Y56850000D02*
X45750000Y56850000D01*
X45750000Y57750000D01*
X47250000Y57750000D01*
X47250000Y56850000D01*
X47250000Y56850000D01*
G37*
G36*
X33950000Y56900000D02*
X32450000Y56900000D01*
X32450000Y57800000D01*
X33950000Y57800000D01*
X33950000Y56900000D01*
X33950000Y56900000D01*
G37*
G36*
X76960000Y56972000D02*
X75460000Y56972000D01*
X75460000Y57872000D01*
X76960000Y57872000D01*
X76960000Y56972000D01*
X76960000Y56972000D01*
G37*
G36*
X43980000Y57058000D02*
X42080000Y57058000D01*
X42080000Y57908000D01*
X43980000Y57908000D01*
X43980000Y57058000D01*
X43980000Y57058000D01*
G37*
G36*
X36680000Y57058000D02*
X34780000Y57058000D01*
X34780000Y57908000D01*
X36680000Y57908000D01*
X36680000Y57058000D01*
X36680000Y57058000D01*
G37*
G36*
X51250000Y57200000D02*
X49750000Y57200000D01*
X49750000Y58100000D01*
X51250000Y58100000D01*
X51250000Y57200000D01*
X51250000Y57200000D01*
G37*
G36*
X74366900Y57695194D02*
X71868200Y57695194D01*
X71868200Y58453994D01*
X74366900Y58453994D01*
X74366900Y57695194D01*
X74366900Y57695194D01*
G37*
G36*
X65311800Y57695194D02*
X62813100Y57695194D01*
X62813100Y58453994D01*
X65311800Y58453994D01*
X65311800Y57695194D01*
X65311800Y57695194D01*
G37*
G36*
X26627600Y57738600D02*
X25411600Y57738600D01*
X25411600Y58497400D01*
X26627600Y58497400D01*
X26627600Y57738600D01*
X26627600Y57738600D01*
G37*
G36*
X60155600Y57738600D02*
X58939600Y57738600D01*
X58939600Y58497400D01*
X60155600Y58497400D01*
X60155600Y57738600D01*
X60155600Y57738600D01*
G37*
G36*
X36680000Y58328000D02*
X34780000Y58328000D01*
X34780000Y59178000D01*
X36680000Y59178000D01*
X36680000Y58328000D01*
X36680000Y58328000D01*
G37*
G36*
X43980000Y58328000D02*
X42080000Y58328000D01*
X42080000Y59178000D01*
X43980000Y59178000D01*
X43980000Y58328000D01*
X43980000Y58328000D01*
G37*
G36*
X49274000Y58496000D02*
X47774000Y58496000D01*
X47774000Y59396000D01*
X49274000Y59396000D01*
X49274000Y58496000D01*
X49274000Y58496000D01*
G37*
G36*
X51306000Y58496000D02*
X49806000Y58496000D01*
X49806000Y59396000D01*
X51306000Y59396000D01*
X51306000Y58496000D01*
X51306000Y58496000D01*
G37*
G36*
X78504000Y58638000D02*
X77604000Y58638000D01*
X77604000Y60138000D01*
X78504000Y60138000D01*
X78504000Y58638000D01*
X78504000Y58638000D01*
G37*
G36*
X80404000Y58638000D02*
X79504000Y58638000D01*
X79504000Y60138000D01*
X80404000Y60138000D01*
X80404000Y58638000D01*
X80404000Y58638000D01*
G37*
G36*
X26627600Y58688601D02*
X25411600Y58688601D01*
X25411600Y59447401D01*
X26627600Y59447401D01*
X26627600Y58688601D01*
X26627600Y58688601D01*
G37*
G36*
X24392400Y58688601D02*
X23176400Y58688601D01*
X23176400Y59447401D01*
X24392400Y59447401D01*
X24392400Y58688601D01*
X24392400Y58688601D01*
G37*
G36*
X57920400Y58688601D02*
X56704400Y58688601D01*
X56704400Y59447401D01*
X57920400Y59447401D01*
X57920400Y58688601D01*
X57920400Y58688601D01*
G37*
G36*
X60155600Y58688601D02*
X58939600Y58688601D01*
X58939600Y59447401D01*
X60155600Y59447401D01*
X60155600Y58688601D01*
X60155600Y58688601D01*
G37*
G36*
X47250000Y58750000D02*
X45750000Y58750000D01*
X45750000Y59650000D01*
X47250000Y59650000D01*
X47250000Y58750000D01*
X47250000Y58750000D01*
G37*
G36*
X33950000Y58800000D02*
X32450000Y58800000D01*
X32450000Y59700000D01*
X33950000Y59700000D01*
X33950000Y58800000D01*
X33950000Y58800000D01*
G37*
G36*
X109193000Y58804000D02*
X107743000Y58804000D01*
X107743000Y60004000D01*
X109193000Y60004000D01*
X109193000Y58804000D01*
X109193000Y58804000D01*
G37*
G36*
X107161000Y58804000D02*
X105711000Y58804000D01*
X105711000Y60004000D01*
X107161000Y60004000D01*
X107161000Y58804000D01*
X107161000Y58804000D01*
G37*
G36*
X76960000Y58872000D02*
X75460000Y58872000D01*
X75460000Y59772000D01*
X76960000Y59772000D01*
X76960000Y58872000D01*
X76960000Y58872000D01*
G37*
G36*
X104729000Y58954000D02*
X104079000Y58954000D01*
X104079000Y59744000D01*
X104729000Y59744000D01*
X104729000Y58954000D01*
X104729000Y58954000D01*
G37*
G36*
X65311800Y58965194D02*
X62813100Y58965194D01*
X62813100Y59723994D01*
X65311800Y59723994D01*
X65311800Y58965194D01*
X65311800Y58965194D01*
G37*
G36*
X74366900Y58965194D02*
X71868200Y58965194D01*
X71868200Y59723994D01*
X74366900Y59723994D01*
X74366900Y58965194D01*
X74366900Y58965194D01*
G37*
G36*
X43980000Y59598000D02*
X42080000Y59598000D01*
X42080000Y60448000D01*
X43980000Y60448000D01*
X43980000Y59598000D01*
X43980000Y59598000D01*
G37*
G36*
X36680000Y59598000D02*
X34780000Y59598000D01*
X34780000Y60448000D01*
X36680000Y60448000D01*
X36680000Y59598000D01*
X36680000Y59598000D01*
G37*
G36*
X122401000Y60074000D02*
X120951000Y60074000D01*
X120951000Y61274000D01*
X122401000Y61274000D01*
X122401000Y60074000D01*
X122401000Y60074000D01*
G37*
G36*
X32500000Y60162000D02*
X31600000Y60162000D01*
X31600000Y61662000D01*
X32500000Y61662000D01*
X32500000Y60162000D01*
X32500000Y60162000D01*
G37*
G36*
X34400000Y60162000D02*
X33500000Y60162000D01*
X33500000Y61662000D01*
X34400000Y61662000D01*
X34400000Y60162000D01*
X34400000Y60162000D01*
G37*
G36*
X133926050Y60173190D02*
X132925950Y60173190D01*
X132925950Y61173290D01*
X133926050Y61173290D01*
X133926050Y60173190D01*
X133926050Y60173190D01*
G37*
G36*
X135826050Y60173190D02*
X134825950Y60173190D01*
X134825950Y61173290D01*
X135826050Y61173290D01*
X135826050Y60173190D01*
X135826050Y60173190D01*
G37*
G36*
X45300000Y60200000D02*
X44400000Y60200000D01*
X44400000Y61700000D01*
X45300000Y61700000D01*
X45300000Y60200000D01*
X45300000Y60200000D01*
G37*
G36*
X47200000Y60200000D02*
X46300000Y60200000D01*
X46300000Y61700000D01*
X47200000Y61700000D01*
X47200000Y60200000D01*
X47200000Y60200000D01*
G37*
G36*
X74366900Y60235194D02*
X71868200Y60235194D01*
X71868200Y60993994D01*
X74366900Y60993994D01*
X74366900Y60235194D01*
X74366900Y60235194D01*
G37*
G36*
X65311800Y60235194D02*
X62813100Y60235194D01*
X62813100Y60993994D01*
X65311800Y60993994D01*
X65311800Y60235194D01*
X65311800Y60235194D01*
G37*
G36*
X49274000Y60396000D02*
X47774000Y60396000D01*
X47774000Y61296000D01*
X49274000Y61296000D01*
X49274000Y60396000D01*
X49274000Y60396000D01*
G37*
G36*
X51306000Y60396000D02*
X49806000Y60396000D01*
X49806000Y61296000D01*
X51306000Y61296000D01*
X51306000Y60396000D01*
X51306000Y60396000D01*
G37*
G36*
X112327200Y60645201D02*
X110654000Y60645201D01*
X110654000Y61200801D01*
X112327200Y61200801D01*
X112327200Y60645201D01*
X112327200Y60645201D01*
G37*
G36*
X117966000Y60645201D02*
X116292800Y60645201D01*
X116292800Y61200801D01*
X117966000Y61200801D01*
X117966000Y60645201D01*
X117966000Y60645201D01*
G37*
G36*
X107161000Y60804000D02*
X105711000Y60804000D01*
X105711000Y62004000D01*
X107161000Y62004000D01*
X107161000Y60804000D01*
X107161000Y60804000D01*
G37*
G36*
X109193000Y60804000D02*
X107743000Y60804000D01*
X107743000Y62004000D01*
X109193000Y62004000D01*
X109193000Y60804000D01*
X109193000Y60804000D01*
G37*
G36*
X36680000Y60868000D02*
X34780000Y60868000D01*
X34780000Y61718000D01*
X36680000Y61718000D01*
X36680000Y60868000D01*
X36680000Y60868000D01*
G37*
G36*
X43980000Y60868000D02*
X42080000Y60868000D01*
X42080000Y61718000D01*
X43980000Y61718000D01*
X43980000Y60868000D01*
X43980000Y60868000D01*
G37*
G36*
X104729000Y61064000D02*
X104079000Y61064000D01*
X104079000Y61854000D01*
X104729000Y61854000D01*
X104729000Y61064000D01*
X104729000Y61064000D01*
G37*
G36*
X117966000Y61295199D02*
X116292800Y61295199D01*
X116292800Y61850799D01*
X117966000Y61850799D01*
X117966000Y61295199D01*
X117966000Y61295199D01*
G37*
G36*
X112327200Y61295202D02*
X110654000Y61295202D01*
X110654000Y61850802D01*
X112327200Y61850802D01*
X112327200Y61295202D01*
X112327200Y61295202D01*
G37*
G36*
X65311800Y61505194D02*
X62813100Y61505194D01*
X62813100Y62263994D01*
X65311800Y62263994D01*
X65311800Y61505194D01*
X65311800Y61505194D01*
G37*
G36*
X74366900Y61505194D02*
X71868200Y61505194D01*
X71868200Y62263994D01*
X74366900Y62263994D01*
X74366900Y61505194D01*
X74366900Y61505194D01*
G37*
G36*
X138956000Y61940000D02*
X138056000Y61940000D01*
X138056000Y63440000D01*
X138956000Y63440000D01*
X138956000Y61940000D01*
X138956000Y61940000D01*
G37*
G36*
X140856000Y61940000D02*
X139956000Y61940000D01*
X139956000Y63440000D01*
X140856000Y63440000D01*
X140856000Y61940000D01*
X140856000Y61940000D01*
G37*
G36*
X128796000Y61940000D02*
X127896000Y61940000D01*
X127896000Y63440000D01*
X128796000Y63440000D01*
X128796000Y61940000D01*
X128796000Y61940000D01*
G37*
G36*
X130696000Y61940000D02*
X129796000Y61940000D01*
X129796000Y63440000D01*
X130696000Y63440000D01*
X130696000Y61940000D01*
X130696000Y61940000D01*
G37*
G36*
X117966000Y61945201D02*
X116292800Y61945201D01*
X116292800Y62500801D01*
X117966000Y62500801D01*
X117966000Y61945201D01*
X117966000Y61945201D01*
G37*
G36*
X112327200Y61945201D02*
X110654000Y61945201D01*
X110654000Y62500801D01*
X112327200Y62500801D01*
X112327200Y61945201D01*
X112327200Y61945201D01*
G37*
G36*
X122401000Y62074000D02*
X120951000Y62074000D01*
X120951000Y63274000D01*
X122401000Y63274000D01*
X122401000Y62074000D01*
X122401000Y62074000D01*
G37*
G36*
X134876050Y62172170D02*
X133875950Y62172170D01*
X133875950Y63172270D01*
X134876050Y63172270D01*
X134876050Y62172170D01*
X134876050Y62172170D01*
G37*
G36*
X28111421Y62223616D02*
X27352621Y62223616D01*
X27352621Y63439616D01*
X28111421Y63439616D01*
X28111421Y62223616D01*
X28111421Y62223616D01*
G37*
G36*
X26211419Y62223616D02*
X25452619Y62223616D01*
X25452619Y63439616D01*
X26211419Y63439616D01*
X26211419Y62223616D01*
X26211419Y62223616D01*
G37*
G36*
X32485000Y62360000D02*
X31035000Y62360000D01*
X31035000Y63560000D01*
X32485000Y63560000D01*
X32485000Y62360000D01*
X32485000Y62360000D01*
G37*
G36*
X126973000Y62360000D02*
X125523000Y62360000D01*
X125523000Y63560000D01*
X126973000Y63560000D01*
X126973000Y62360000D01*
X126973000Y62360000D01*
G37*
G36*
X93445000Y62459000D02*
X91995000Y62459000D01*
X91995000Y63659000D01*
X93445000Y63659000D01*
X93445000Y62459000D01*
X93445000Y62459000D01*
G37*
G36*
X42936795Y62524209D02*
X42286795Y62524209D01*
X42286795Y63314209D01*
X42936795Y63314209D01*
X42936795Y62524209D01*
X42936795Y62524209D01*
G37*
G36*
X100557000Y62586000D02*
X99107000Y62586000D01*
X99107000Y63786000D01*
X100557000Y63786000D01*
X100557000Y62586000D01*
X100557000Y62586000D01*
G37*
G36*
X117966000Y62595199D02*
X116292800Y62595199D01*
X116292800Y63150799D01*
X117966000Y63150799D01*
X117966000Y62595199D01*
X117966000Y62595199D01*
G37*
G36*
X112327200Y62595202D02*
X110654000Y62595202D01*
X110654000Y63150802D01*
X112327200Y63150802D01*
X112327200Y62595202D01*
X112327200Y62595202D01*
G37*
G36*
X39343000Y62614000D02*
X37893000Y62614000D01*
X37893000Y63814000D01*
X39343000Y63814000D01*
X39343000Y62614000D01*
X39343000Y62614000D01*
G37*
G36*
X109193000Y62614000D02*
X107743000Y62614000D01*
X107743000Y63814000D01*
X109193000Y63814000D01*
X109193000Y62614000D01*
X109193000Y62614000D01*
G37*
G36*
X41375000Y62614000D02*
X39925000Y62614000D01*
X39925000Y63814000D01*
X41375000Y63814000D01*
X41375000Y62614000D01*
X41375000Y62614000D01*
G37*
G36*
X107161000Y62614000D02*
X105711000Y62614000D01*
X105711000Y63814000D01*
X107161000Y63814000D01*
X107161000Y62614000D01*
X107161000Y62614000D01*
G37*
G36*
X65311800Y62775194D02*
X62813100Y62775194D01*
X62813100Y63533994D01*
X65311800Y63533994D01*
X65311800Y62775194D01*
X65311800Y62775194D01*
G37*
G36*
X74366900Y62775194D02*
X71868200Y62775194D01*
X71868200Y63533994D01*
X74366900Y63533994D01*
X74366900Y62775194D01*
X74366900Y62775194D01*
G37*
G36*
X98001600Y62856599D02*
X96785600Y62856599D01*
X96785600Y63615399D01*
X98001600Y63615399D01*
X98001600Y62856599D01*
X98001600Y62856599D01*
G37*
G36*
X95766400Y62856599D02*
X94550400Y62856599D01*
X94550400Y63615399D01*
X95766400Y63615399D01*
X95766400Y62856599D01*
X95766400Y62856599D01*
G37*
G36*
X104729000Y63018000D02*
X104079000Y63018000D01*
X104079000Y63808000D01*
X104729000Y63808000D01*
X104729000Y63018000D01*
X104729000Y63018000D01*
G37*
G36*
X117966000Y63245198D02*
X116292800Y63245198D01*
X116292800Y63800798D01*
X117966000Y63800798D01*
X117966000Y63245198D01*
X117966000Y63245198D01*
G37*
G36*
X112327200Y63245201D02*
X110654000Y63245201D01*
X110654000Y63800801D01*
X112327200Y63800801D01*
X112327200Y63245201D01*
X112327200Y63245201D01*
G37*
G36*
X95766400Y63806600D02*
X94550400Y63806600D01*
X94550400Y64565400D01*
X95766400Y64565400D01*
X95766400Y63806600D01*
X95766400Y63806600D01*
G37*
G36*
X122401000Y63884000D02*
X120951000Y63884000D01*
X120951000Y65084000D01*
X122401000Y65084000D01*
X122401000Y63884000D01*
X122401000Y63884000D01*
G37*
G36*
X112327200Y63895199D02*
X110654000Y63895199D01*
X110654000Y64450799D01*
X112327200Y64450799D01*
X112327200Y63895199D01*
X112327200Y63895199D01*
G37*
G36*
X117966000Y63895199D02*
X116292800Y63895199D01*
X116292800Y64450799D01*
X117966000Y64450799D01*
X117966000Y63895199D01*
X117966000Y63895199D01*
G37*
G36*
X65311800Y64045194D02*
X62813100Y64045194D01*
X62813100Y64803994D01*
X65311800Y64803994D01*
X65311800Y64045194D01*
X65311800Y64045194D01*
G37*
G36*
X74366900Y64045194D02*
X71868200Y64045194D01*
X71868200Y64803994D01*
X74366900Y64803994D01*
X74366900Y64045194D01*
X74366900Y64045194D01*
G37*
G36*
X21862000Y64226000D02*
X20962000Y64226000D01*
X20962000Y65726000D01*
X21862000Y65726000D01*
X21862000Y64226000D01*
X21862000Y64226000D01*
G37*
G36*
X140856000Y64226000D02*
X139956000Y64226000D01*
X139956000Y65726000D01*
X140856000Y65726000D01*
X140856000Y64226000D01*
X140856000Y64226000D01*
G37*
G36*
X138956000Y64226000D02*
X138056000Y64226000D01*
X138056000Y65726000D01*
X138956000Y65726000D01*
X138956000Y64226000D01*
X138956000Y64226000D01*
G37*
G36*
X130696000Y64226000D02*
X129796000Y64226000D01*
X129796000Y65726000D01*
X130696000Y65726000D01*
X130696000Y64226000D01*
X130696000Y64226000D01*
G37*
G36*
X128796000Y64226000D02*
X127896000Y64226000D01*
X127896000Y65726000D01*
X128796000Y65726000D01*
X128796000Y64226000D01*
X128796000Y64226000D01*
G37*
G36*
X23762000Y64226000D02*
X22862000Y64226000D01*
X22862000Y65726000D01*
X23762000Y65726000D01*
X23762000Y64226000D01*
X23762000Y64226000D01*
G37*
G36*
X126973000Y64360000D02*
X125523000Y64360000D01*
X125523000Y65560000D01*
X126973000Y65560000D01*
X126973000Y64360000D01*
X126973000Y64360000D01*
G37*
G36*
X32485000Y64360000D02*
X31035000Y64360000D01*
X31035000Y65560000D01*
X32485000Y65560000D01*
X32485000Y64360000D01*
X32485000Y64360000D01*
G37*
G36*
X61695000Y64392000D02*
X60245000Y64392000D01*
X60245000Y65592000D01*
X61695000Y65592000D01*
X61695000Y64392000D01*
X61695000Y64392000D01*
G37*
G36*
X30453000Y64392000D02*
X29003000Y64392000D01*
X29003000Y65592000D01*
X30453000Y65592000D01*
X30453000Y64392000D01*
X30453000Y64392000D01*
G37*
G36*
X76935000Y64392000D02*
X75485000Y64392000D01*
X75485000Y65592000D01*
X76935000Y65592000D01*
X76935000Y64392000D01*
X76935000Y64392000D01*
G37*
G36*
X78967000Y64392000D02*
X77517000Y64392000D01*
X77517000Y65592000D01*
X78967000Y65592000D01*
X78967000Y64392000D01*
X78967000Y64392000D01*
G37*
G36*
X59663000Y64392000D02*
X58213000Y64392000D01*
X58213000Y65592000D01*
X59663000Y65592000D01*
X59663000Y64392000D01*
X59663000Y64392000D01*
G37*
G36*
X26211419Y64458816D02*
X25452619Y64458816D01*
X25452619Y65674816D01*
X26211419Y65674816D01*
X26211419Y64458816D01*
X26211419Y64458816D01*
G37*
G36*
X27161420Y64458816D02*
X26402620Y64458816D01*
X26402620Y65674816D01*
X27161420Y65674816D01*
X27161420Y64458816D01*
X27161420Y64458816D01*
G37*
G36*
X28111421Y64458816D02*
X27352621Y64458816D01*
X27352621Y65674816D01*
X28111421Y65674816D01*
X28111421Y64458816D01*
X28111421Y64458816D01*
G37*
G36*
X93445000Y64459000D02*
X91995000Y64459000D01*
X91995000Y65659000D01*
X93445000Y65659000D01*
X93445000Y64459000D01*
X93445000Y64459000D01*
G37*
G36*
X134876050Y64493730D02*
X133875950Y64493730D01*
X133875950Y65493830D01*
X134876050Y65493830D01*
X134876050Y64493730D01*
X134876050Y64493730D01*
G37*
G36*
X117966000Y64545198D02*
X116292800Y64545198D01*
X116292800Y65100798D01*
X117966000Y65100798D01*
X117966000Y64545198D01*
X117966000Y64545198D01*
G37*
G36*
X112327200Y64545201D02*
X110654000Y64545201D01*
X110654000Y65100801D01*
X112327200Y65100801D01*
X112327200Y64545201D01*
X112327200Y64545201D01*
G37*
G36*
X100557000Y64586000D02*
X99107000Y64586000D01*
X99107000Y65786000D01*
X100557000Y65786000D01*
X100557000Y64586000D01*
X100557000Y64586000D01*
G37*
G36*
X107161000Y64614000D02*
X105711000Y64614000D01*
X105711000Y65814000D01*
X107161000Y65814000D01*
X107161000Y64614000D01*
X107161000Y64614000D01*
G37*
G36*
X109193000Y64614000D02*
X107743000Y64614000D01*
X107743000Y65814000D01*
X109193000Y65814000D01*
X109193000Y64614000D01*
X109193000Y64614000D01*
G37*
G36*
X39343000Y64614000D02*
X37893000Y64614000D01*
X37893000Y65814000D01*
X39343000Y65814000D01*
X39343000Y64614000D01*
X39343000Y64614000D01*
G37*
G36*
X41375000Y64614000D02*
X39925000Y64614000D01*
X39925000Y65814000D01*
X41375000Y65814000D01*
X41375000Y64614000D01*
X41375000Y64614000D01*
G37*
G36*
X42936795Y64634209D02*
X42286795Y64634209D01*
X42286795Y65424209D01*
X42936795Y65424209D01*
X42936795Y64634209D01*
X42936795Y64634209D01*
G37*
G36*
X95766400Y64756601D02*
X94550400Y64756601D01*
X94550400Y65515401D01*
X95766400Y65515401D01*
X95766400Y64756601D01*
X95766400Y64756601D01*
G37*
G36*
X98001600Y64756601D02*
X96785600Y64756601D01*
X96785600Y65515401D01*
X98001600Y65515401D01*
X98001600Y64756601D01*
X98001600Y64756601D01*
G37*
G36*
X104729000Y65128000D02*
X104079000Y65128000D01*
X104079000Y65918000D01*
X104729000Y65918000D01*
X104729000Y65128000D01*
X104729000Y65128000D01*
G37*
G36*
X117966000Y65195199D02*
X116292800Y65195199D01*
X116292800Y65750799D01*
X117966000Y65750799D01*
X117966000Y65195199D01*
X117966000Y65195199D01*
G37*
G36*
X112327200Y65195199D02*
X110654000Y65195199D01*
X110654000Y65750799D01*
X112327200Y65750799D01*
X112327200Y65195199D01*
X112327200Y65195199D01*
G37*
G36*
X74366900Y65315194D02*
X71868200Y65315194D01*
X71868200Y66073994D01*
X74366900Y66073994D01*
X74366900Y65315194D01*
X74366900Y65315194D01*
G37*
G36*
X65311800Y65315194D02*
X62813100Y65315194D01*
X62813100Y66073994D01*
X65311800Y66073994D01*
X65311800Y65315194D01*
X65311800Y65315194D01*
G37*
G36*
X122401000Y65884000D02*
X120951000Y65884000D01*
X120951000Y67084000D01*
X122401000Y67084000D01*
X122401000Y65884000D01*
X122401000Y65884000D01*
G37*
G36*
X95776000Y66230000D02*
X94876000Y66230000D01*
X94876000Y67730000D01*
X95776000Y67730000D01*
X95776000Y66230000D01*
X95776000Y66230000D01*
G37*
G36*
X97676000Y66230000D02*
X96776000Y66230000D01*
X96776000Y67730000D01*
X97676000Y67730000D01*
X97676000Y66230000D01*
X97676000Y66230000D01*
G37*
G36*
X59663000Y66392000D02*
X58213000Y66392000D01*
X58213000Y67592000D01*
X59663000Y67592000D01*
X59663000Y66392000D01*
X59663000Y66392000D01*
G37*
G36*
X76935000Y66392000D02*
X75485000Y66392000D01*
X75485000Y67592000D01*
X76935000Y67592000D01*
X76935000Y66392000D01*
X76935000Y66392000D01*
G37*
G36*
X61695000Y66392000D02*
X60245000Y66392000D01*
X60245000Y67592000D01*
X61695000Y67592000D01*
X61695000Y66392000D01*
X61695000Y66392000D01*
G37*
G36*
X30453000Y66392000D02*
X29003000Y66392000D01*
X29003000Y67592000D01*
X30453000Y67592000D01*
X30453000Y66392000D01*
X30453000Y66392000D01*
G37*
G36*
X78967000Y66392000D02*
X77517000Y66392000D01*
X77517000Y67592000D01*
X78967000Y67592000D01*
X78967000Y66392000D01*
X78967000Y66392000D01*
G37*
G36*
X135826050Y66492710D02*
X134825950Y66492710D01*
X134825950Y67492810D01*
X135826050Y67492810D01*
X135826050Y66492710D01*
X135826050Y66492710D01*
G37*
G36*
X133926050Y66492710D02*
X132925950Y66492710D01*
X132925950Y67492810D01*
X133926050Y67492810D01*
X133926050Y66492710D01*
X133926050Y66492710D01*
G37*
G36*
X74366900Y66585194D02*
X71868200Y66585194D01*
X71868200Y67343994D01*
X74366900Y67343994D01*
X74366900Y66585194D01*
X74366900Y66585194D01*
G37*
G36*
X65311800Y66585194D02*
X62813100Y66585194D01*
X62813100Y67343994D01*
X65311800Y67343994D01*
X65311800Y66585194D01*
X65311800Y66585194D01*
G37*
M02*
