M48
;DRILL file {KiCad 4.0.2-stable} date 5/21/2016 11:43:08 AM
;FORMAT={-:-/ absolute / metric / decimal}
FMAT,2
METRIC,TZ
T1C0.400
T2C0.800
T3C1.000
T4C1.001
T5C1.016
%
G90
G05
M71
T1
X1.Y66.
X1.Y61.
X1.Y56.
X1.Y51.
X1.Y46.
X1.Y41.
X1.Y36.
X1.Y31.
X1.Y26.
X1.Y21.
X1.Y16.
X1.Y11.
X3.Y69.
X6.Y1.
X8.Y69.
X8.5Y4.5
X8.5Y3.5
X11.Y1.
X13.Y69.
X16.Y1.
X18.Y69.
X20.75Y60.75
X21.Y1.
X22.Y47.25
X22.25Y60.75
X22.5Y59.
X23.Y69.
X26.Y1.
X26.75Y42.25
X27.5Y57.75
X27.5Y56.75
X28.Y69.
X28.5Y60.
X29.25Y60.75
X29.25Y52.5
X29.75Y59.5
X30.25Y61.5
X31.Y60.75
X31.Y1.
X31.25Y42.25
X32.5Y27.5
X33.Y69.
X36.Y1.
X38.Y69.
X39.Y47.25
X41.Y1.
X43.Y69.
X43.5Y42.25
X45.5Y52.25
X46.Y63.75
X46.Y1.
X48.Y69.
X48.Y42.25
X48.Y25.75
X48.5Y62.25
X50.5Y62.25
X51.Y1.
X53.Y69.
X54.5Y59.
X56.Y47.25
X56.Y1.
X58.Y69.
X60.25Y42.25
X61.Y57.25
X61.Y1.
X61.75Y63.75
X62.Y13.25
X63.Y69.
X63.Y52.5
X63.2Y4.
X65.Y42.25
X65.Y25.75
X66.Y1.
X66.5Y4.75
X66.75Y13.25
X67.25Y4.
X68.Y69.
X71.Y1.
X73.Y47.25
X75.Y19.875
X76.Y1.
X76.75Y20.5
X77.25Y42.25
X77.5Y21.25
X78.184Y21.775
X78.75Y22.5
X79.5Y52.25
X81.Y1.
X81.25Y66.
X81.25Y59.5
X81.544Y42.37
X82.25Y25.75
X83.5Y7.
X83.75Y27.75
X84.427Y28.5
X85.25Y29.25
X85.75Y7.
X86.Y32.25
X86.Y1.
X88.Y30.
X88.75Y29.25
X89.5Y28.5
X90.Y47.25
X90.5Y27.5
X90.75Y15.
X91.Y1.
X92.25Y15.
X93.Y15.75
X94.Y42.25
X94.1Y6.6
X94.808Y15.5
X94.9Y7.
X95.Y62.
X95.7Y6.6
X96.Y1.
X96.25Y52.25
X96.5Y7.
X97.4Y6.6
X98.Y8.25
X98.1Y7.
X98.15Y12.5
X98.5Y67.
X98.5Y42.25
X99.Y12.25
X99.25Y11.25
X99.25Y7.5
X99.5Y10.25
X99.75Y15.5
X100.75Y25.75
X101.Y1.
X102.75Y13.
X104.5Y9.25
X105.5Y8.125
X106.Y1.
X107.25Y55.65
X107.75Y56.275
X108.471Y56.779
X109.067Y55.433
X110.75Y47.25
X111.Y42.25
X111.Y1.
X111.991Y12.253
X112.Y6.
X112.75Y12.
X112.75Y5.25
X113.Y52.25
X113.5Y6.75
X113.509Y11.747
X114.134Y11.
X114.25Y7.5
X114.75Y61.
X115.25Y62.
X115.25Y42.25
X116.Y1.
X116.06Y15.56
X116.759Y23.253
X119.25Y65.5
X121.Y1.
X123.Y43.75
X124.Y47.25
X126.Y1.
X127.75Y42.25
X130.Y52.25
X131.Y9.25
X131.Y1.
X132.25Y42.25
X136.Y1.
X141.Y47.25
X141.Y1.
X144.75Y42.25
X146.Y1.
X149.Y58.
X149.Y53.
X149.Y48.
X149.Y43.
X149.Y38.
X149.Y33.
X149.Y28.
X149.Y23.
X149.Y18.
X149.Y13.
X149.Y8.
X149.Y3.
T2
X16.Y21.75
X17.5Y57.25
X18.25Y63.
X18.25Y40.5
X24.144Y66.992
X24.25Y63.25
X27.75Y59.
X30.5Y30.5
X31.707Y25.901
X35.25Y40.5
X43.5Y13.5
X45.75Y26.75
X46.221Y24.45
X47.25Y15.75
X51.25Y66.992
X52.25Y40.5
X53.Y59.5
X56.75Y65.
X59.5Y60.75
X60.25Y15.75
X60.25Y6.5
X62.75Y26.75
X62.75Y23.325
X69.25Y40.5
X73.75Y18.
X79.75Y26.75
X81.Y13.75
X81.25Y22.5
X83.25Y20.75
X84.5Y12.5
X84.5Y5.5
X86.25Y40.5
X88.5Y4.25
X95.Y26.713
X98.25Y36.04
X98.25Y20.5
X99.75Y22.
X101.75Y62.5
X103.25Y40.5
X105.Y40.5
X108.468Y58.
X108.5Y66.75
X110.5Y22.
X111.75Y26.713
X113.25Y63.5
X115.029Y25.529
X120.Y40.5
X123.75Y67.
X125.75Y14.
X126.Y3.5
X127.5Y67.
X127.5Y59.5
X129.Y26.713
X131.325Y25.5
X137.Y40.5
X146.Y28.75
T3
X51.3Y11.64
X51.3Y9.1
X51.3Y6.56
T4
X21.997Y39.
X21.997Y31.
X24.5Y36.04
X24.5Y33.5
X38.997Y39.
X38.997Y31.
X41.5Y36.04
X41.5Y33.5
X43.Y18.
X45.54Y18.
X48.96Y18.
X51.5Y18.
X55.997Y39.
X55.997Y31.
X58.5Y36.04
X58.5Y33.5
X72.997Y39.
X72.997Y31.
X75.5Y36.04
X75.5Y33.5
X89.997Y39.
X89.997Y31.
X92.5Y36.04
X92.5Y33.5
X106.997Y39.
X106.997Y31.
X109.5Y36.04
X109.5Y33.5
X123.997Y39.
X123.997Y31.
X126.5Y36.04
X126.5Y33.5
X140.997Y39.
X140.997Y31.
X143.5Y36.04
X143.5Y33.5
T5
X5.Y12.
X5.Y9.46
X5.Y6.92
X5.Y4.38
X118.96Y11.29
X118.96Y8.75
X118.96Y5.25
X121.5Y11.29
X121.5Y8.75
X121.5Y5.25
X124.04Y11.29
X124.04Y8.75
X124.04Y5.25
X146.Y12.
X146.Y9.46
X146.Y6.92
X146.Y4.38
T0
M30
